<svg fill="none" height="24" viewBox="0 0 24 24" width="24" xmlns="http://www.w3.org/2000/svg"><path d="m17.7705 10.0969c.5485-1.52815 2.1281-5.94846 2.1281-7.36409 0-1.24687-.7359-2.292185-2.0484-2.292185-2.0906 0-3.9656 6.173435-4.5516 7.645315-.4546-1.33594-2.5828-8.08594-4.45777-8.08594-1.45782 0-2.14219 1.07344-2.14219 2.42344 0 1.65468 1.60312 5.94375 2.18437 7.59376-.29531-.10783-.61406-.20158-.9375-.20158-1.09687 0-2.26406 1.36408-2.26406 2.46558 0 .4172.22969 1.0032.375 1.3922-1.72969.4688-2.39531 1.6219-2.39531 3.361-.00469 3.3843 3.20156 6.9656 7.71096 6.9656 5.5312 0 8.9719-4.1531 8.9719-9.5109 0-2.0203-.3235-3.8438-2.5735-4.3922zm-1.6594-5.0344c.1875-.57656.9891-3.01406 1.7391-3.01406.4031 0 .5109.41719.5109.75 0 .89531-1.8093 5.84062-2.2078 6.9375l-1.5937-.28125zm-7.94059-2.79844c0-.55781.67969-2.142185 2.17029 2.20782l1.6219 4.70156c-.7312-.06094-1.2984-.14063-1.6594.06562-.51091-1.35-2.13279-5.61094-2.13279-6.975zm-.10781 9.17344c1.37344 0 3.1453 4.4344 3.1453 5.0344 0 .239-.2297.5343-.4969.5343-.97965 0-3.60465-3.6046-3.60465-4.5796.00469-.361.59531-.9891.95625-.9891zm8.6391 8.7328c-1.3641 1.5-3.1078 2.2781-5.1422 2.2781-2.7844 0-4.98284-1.5281-6.04221-4.139-.80156-2.0344.17812-3.2016.96562-3.2016.53438 0 2.54532 2.8266 2.54532 3.4266 0 .2297-.36094.389-.54844.389-.75469 0-1.05-.7265-2.39531-2.4093-1.39219 1.3921.96093 4.0734 2.73281 4.0734 1.22341 0 2.02031-1.1344 1.78121-1.9687.1735 0 .3891.014.5485-.0282.0515 1.2703.4265 2.7844 1.9547 2.8922 0-.0422.0937-.3328.0937-.3469 0-.8156-.4969-1.5281-.4969-2.3578 0-1.3265 1.0172-2.6109 2.0485-3.3609.375-.2813.8297-.4547 1.2703-.6141.4547-.1734.9375-.375 1.2844-.7219-.0516-.525-.2672-.989-.7922-.989-1.2985 0-5.6531.1875-5.6531-1.8609 0-.3141.0046-.6141.8156-.6141 1.514 0 5.3578.375 6.4828 1.3641.8484.7546 1.1391 5.3062-1.4531 8.189zm-4.6219-5.9062c.4547.1453.9234.1875 1.3922.2812-.3469.2531-.6563.5625-.9516.8953-.1312-.3984-.2906-.7875-.4406-1.1765z" fill="#000"/></svg>