<svg fill="none" height="24" viewBox="0 0 24 24" width="24" xmlns="http://www.w3.org/2000/svg"><path d="m20.8428 17.1449c-.3327.7686-.7265 1.4762-1.1828 2.1266-.6219.8868-1.1312 1.5006-1.5236 1.8415-.6084.5594-1.2602.846-1.9582.8623-.5011 0-1.1054-.1426-1.8089-.4319-.7057-.2879-1.3543-.4304-1.9473-.4304-.622 0-1.289.1425-2.0025.4304-.71457.2893-1.29022.44-1.73034.455-.66935.0285-1.33652-.2662-2.00248-.8854-.42504-.3708-.95669-1.0063-1.59359-1.9067-.68333-.9614-1.24513-2.0763-1.68525-3.3474-.47136-1.3729-.70764-2.7024-.70764-3.9895 0-1.4743.31858-2.74595.95669-3.81156.50151-.85593 1.16868-1.53112 2.0037-2.02679.83503-.49566 1.73727-.74825 2.7089-.76441.53165 0 1.22884.16445 2.09521.48765.864.32429 1.4187.48874 1.6619.48874.1819 0 .7981-.19229 1.8428-.57565.9879-.35552 1.8217-.50272 2.5048-.44474 1.8509.14938 3.2415.87903 4.1663 2.19355-1.6554 1.00301-2.4743 2.40784-2.458 4.21001.015 1.4038.5242 2.5719 1.525 3.4994.4536.4305.9601.7632 1.5237.9995-.1222.3544-.2512.6939-.3884 1.0198zm-4.245-16.704531c0 1.100251-.402 2.127551-1.2032 3.078411-.9669 1.13039-2.1364 1.78358-3.4046 1.68051-.0162-.132-.0255-.27092-.0255-.4169 0-1.05624.4598-2.18663 1.2763-3.11087.4077-.46796.9262-.857067 1.5549-1.167462.6274-.305763 1.2209-.4748573 1.779-.50381386.0163.14708686.0231.29418186.0231.44011086z" fill="#000"/></svg>