<svg fill="none" height="24" viewBox="0 0 24 24" width="24" xmlns="http://www.w3.org/2000/svg"><path clip-rule="evenodd" d="m8.25 2c-.73651 0-1.43845.28629-1.95253.78895-.51333.50192-.79747 1.17782-.79747 1.87772s.28414 1.3758.79747 1.87771c.51408.50267 1.21602.78895 1.95253.78895h2.75v-5.33333zm4.75 0v5.33333h2.75c.3642 0 .7244-.07017 1.0597-.20597.3353-.13579.6385-.33425.8928-.58298.2544-.24867.4549-.54267.5913-.86461.1363-.32189.2062-.66607.2062-1.0131s-.0699-.69122-.2062-1.01311c-.1364-.32194-.3369-.61593-.5913-.86461-.2543-.24873-.5575-.44718-.8928-.58297-.3353-.13581-.6955-.20598-1.0597-.20598zm5.6884 6.33334c.144-.11143.2818-.23123.4124-.35894.4421-.43229.794-.94671 1.0345-1.51449.2406-.56783.3647-1.17725.3647-1.79324 0-.616-.1241-1.22541-.3647-1.79325-.2405-.56778-.5924-1.0822-1.0345-1.51448-.4421-.432244-.9657-.773956-1.5403-1.006699-.5747-.232729-1.1898-.352241-1.8105-.352241h-7.5c-1.25262 0-2.45833.486331-3.35077 1.35894-.8932.87334-1.39923 2.06271-1.39923 3.30773s.50603 2.43438 1.39923 3.30773c.13098.12807.26871.24782.41235.35893-.14364.11112-.28137.23087-.41235.35894-.8932.87335-1.39923 2.06273-1.39923 3.30773s.50603 2.4344 1.39923 3.3077c.13099.1281.26872.2479.41236.359-.14364.1111-.28137.2308-.41236.3589-.8932.8734-1.39923 2.0627-1.39923 3.3077 0 1.2451.50603 2.4344 1.39923 3.3078.89244.8726 2.09815 1.3589 3.35077 1.3589 1.2526 0 2.4583-.4863 3.3508-1.3589.8932-.8734 1.3992-2.0627 1.3992-3.3078v-3.5282c.2922.2038.6073.3748.9395.5093.5747.2328 1.1898.3523 1.8105.3523s1.2358-.1195 1.8105-.3523c.5746-.2327 1.0982-.5744 1.5403-1.0067s.794-.9467 1.0345-1.5145c.2406-.5678.3647-1.1772.3647-1.7932s-.1241-1.2254-.3647-1.7932c-.2405-.56782-.5924-1.08224-1.0345-1.51453-.1306-.12771-.2684-.24751-.4124-.35893zm-7.6884 6.33336v-5.33337h-2.75c-.73651 0-1.43845.28629-1.95253.78897-.51333.5019-.79747 1.1778-.79747 1.8777s.28414 1.3758.79747 1.8777c.51408.5027 1.21602.789 1.95253.789zm0 2h-2.75c-.73651 0-1.43845.2863-1.95253.7889-.51333.5019-.79747 1.1778-.79747 1.8777s.28414 1.3758.79747 1.8778c.51408.5026 1.21602.7889 1.95253.7889s1.4384-.2863 1.9525-.7889c.5134-.502.7975-1.1779.7975-1.8778zm4.75-7.33337c-.3642 0-.7244.07017-1.0597.20598-.3353.13579-.6385.33425-.8928.58299-.2544.2487-.4549.5427-.5913.8646-.1363.3219-.2062.6661-.2062 1.0131s.0699.6912.2062 1.0131c.1364.3219.3369.6159.5913.8646.2543.2487.5575.4472.8928.583s.6955.206 1.0597.206.7244-.0702 1.0597-.206.6385-.3343.8928-.583c.2544-.2487.4549-.5427.5913-.8646.1363-.3219.2062-.6661.2062-1.0131s-.0699-.6912-.2062-1.0131c-.1364-.3219-.3369-.6159-.5913-.8646-.2543-.24874-.5575-.4472-.8928-.58299-.3353-.13581-.6955-.20598-1.0597-.20598z" fill="#000" fill-rule="evenodd"/></svg>