<svg fill="none" height="24" viewBox="0 0 24 24" width="24" xmlns="http://www.w3.org/2000/svg" xmlns:xlink="http://www.w3.org/1999/xlink"><clipPath id="a"><path d="m0 0h24v24h-24z"/></clipPath><g clip-path="url(#a)"><path clip-rule="evenodd" d="m16.8426 6.54781c-1.239-1.1817-2.8925-1.82546-4.6034-1.799-3.13057 0-5.78939 2.11205-6.7374 4.95605v.00007c-.50267 1.49037-.50267 3.10417-.00001 4.59447h.0044c.95242 2.8396 3.60684 4.9517 6.73751 4.9517 1.616 0 3.0033-.4133 4.0786-1.1434v-.003c1.2655-.8378 2.1297-2.1561 2.3987-3.6465h-6.4817v-4.62098h11.3187c.1411.80248.2073 1.62268.2073 2.43838 0 3.6498-1.3044 6.7356-3.574 8.8256l.0024.0018c-1.9886 1.8343-4.718 2.897-7.9545 2.897-4.53716 0-8.68634-2.5574-10.72345-6.6096-1.701993-3.3908-1.701989-7.3856.00001-10.77642h.00003l-.00004-.00003c2.03711-4.05658 6.18629-6.61399583 10.72345-6.61399583 2.9808-.03527467 5.86 1.08469583 8.0294 3.12180583z" fill="#000" fill-rule="evenodd"/></g></svg>