<svg fill="none" height="24" viewBox="0 0 24 24" width="24" xmlns="http://www.w3.org/2000/svg" xmlns:xlink="http://www.w3.org/1999/xlink"><clipPath id="a"><path d="m0 0h24v24h-24z"/></clipPath><g clip-path="url(#a)"><path d="m23.7663 12.2764c0-.8157-.0662-1.6358-.2073-2.43833h-11.3188v4.62103h6.4818c-.269 1.4903-1.1332 2.8087-2.3987 3.6465v2.9983h3.867c2.2708-2.09 3.576-5.1765 3.576-8.8275z" fill="#4285f4"/><path d="m12.2401 24.0008c3.2365 0 5.9658-1.0626 7.9544-2.8969l-3.8669-2.9984c-1.0759.732-2.4649 1.1465-4.0831 1.1465-3.13062 0-5.78504-2.1121-6.73745-4.9517h-3.99045v3.0909c2.03711 4.0522 6.1863 6.6096 10.7235 6.6096z" fill="#34a853"/><path d="m5.50277 14.3003c-.50266-1.4904-.50266-3.1042 0-4.59455v-3.09094h-3.98603c-1.702006 3.39079-1.702006 7.38559 0 10.77639z" fill="#fbbc04"/><path d="m12.2401 4.74966c1.7108-.02646 3.3643.61731 4.6033 1.79901l3.4261-3.42605c-2.1694-2.03712-5.0487-3.157086-8.0294-3.12181133-4.5372 0-8.68639 2.55741133-10.7235 6.61400133l3.98604 3.09094c.94801-2.84402 3.60683-4.95609 6.73746-4.95609z" fill="#ea4335"/></g></svg>