<svg fill="none" height="24" viewBox="0 0 24 24" width="24" xmlns="http://www.w3.org/2000/svg" xmlns:xlink="http://www.w3.org/1999/xlink"><clipPath id="a"><path d="m0 0h24v24h-24z"/></clipPath><g clip-path="url(#a)"><path d="m12 0c-6.62812 0-12 5.37188-12 12 0 5.0859 3.16406 9.4266 7.62656 11.175-.10312-.9516-.20156-2.4047.04219-3.4406.22031-.9375 1.40625-5.9625 1.40625-5.9625s-.36094-.7172-.36094-1.7813c0-1.6687.96563-2.9156 2.17034-2.9156 1.0218 0 1.5187.76875 1.5187 1.6922 0 1.0312-.6562 2.5687-.9937 3.9937-.2813 1.1953.6 2.1704 1.7765 2.1704 2.1328 0 3.7735-2.2501 3.7735-5.4938 0-2.87344-2.0625-4.88437-5.011-4.88437-3.41246 0-5.41871 2.55937-5.41871 5.20777 0 1.0313.39843 2.1375.89531 2.7375.09844.1172.1125.225.08437.3422-.08906.3797-.29531 1.1953-.33281 1.3594-.05156.2203-.17343.2672-.40312.1594-1.5-.6985-2.4375-2.8875-2.4375-4.65 0-3.78752 2.75156-7.26096 7.92656-7.26096 4.1625 0 7.3969 2.96719 7.3969 6.93286 0 4.1343-2.6063 7.4625-6.225 7.4625-1.2141 0-2.3578-.6329-2.7516-1.3782 0 0-.6 2.2922-.7453 2.8547-.27188 1.0406-1.00313 2.3485-1.49063 3.1453 1.125.3469 2.31563.5344 3.55313.5344 6.6281 0 12-5.3719 12-12 0-6.62812-5.3719-12-12-12z" fill="#000"/></g></svg>