<svg fill="none" height="24" viewBox="0 0 24 24" width="24" xmlns="http://www.w3.org/2000/svg"><path clip-rule="evenodd" d="m24 12c0 6.6274-5.3726 12-12 12-6.62742 0-12-5.3726-12-12 0-6.62742 5.37258-12 12-12 6.6274 0 12 5.37258 12 12zm-5.7544-1.7544c.9684 0 1.7544.786 1.7544 1.7544 0 .7158-.4351 1.3333-1.0105 1.614.028.1684.0421.3369.0421.5193 0 2.6947-3.1298 4.8702-7.0035 4.8702-3.87371 0-7.00353-2.1755-7.00353-4.8702 0-.1824.01403-.3649.0421-.5333-.61754-.2807-1.03859-.8842-1.03859-1.6 0-.9684.78596-1.7544 1.75438-1.7544.46316 0 .89825.1965 1.20702.4912 1.20702-.88419 2.87719-1.43156 4.74382-1.4877l.8843-4.18246c.028-.08421.0701-.15438.1403-.19649.0702-.0421.1544-.05614.2386-.0421l2.9053.61754c.1965-.42105.6175-.70175 1.1087-.70175.6878 0 1.2492.5614 1.2492 1.24912s-.5614 1.24912-1.2492 1.24912c-.6737 0-1.221-.53333-1.2491-1.19298l-2.5965-.54737-.8 3.74737c1.8246.07017 3.4807.63158 4.6737 1.4877.3088-.3088.7298-.4912 1.207-.4912zm-8.99647 1.7544c-.68772 0-1.24912.5614-1.24912 1.2491s.5614 1.2491 1.24912 1.2491 1.24917-.5614 1.24917-1.2491-.56145-1.2491-1.24917-1.2491zm2.76487 5.4596c.4772 0 2.1053-.0561 2.9614-.9123.1264-.1263.1264-.3228.0281-.4631-.1263-.1263-.3368-.1263-.4631 0-.5474.5333-1.6843.7298-2.5123.7298-.8281 0-1.979-.1965-2.5123-.7298-.12632-.1263-.33685-.1263-.46316 0-.12632.1263-.12632.3368 0 .4631.8421.8422 2.48416.9123 2.96136.9123zm1.4878-4.2105c0 .6877.5614 1.2491 1.2491 1.2491s1.2491-.5614 1.2491-1.2491-.5614-1.2491-1.2491-1.2491-1.2491.5614-1.2491 1.2491z" fill="#000" fill-rule="evenodd"/></svg>