<svg fill="none" height="24" viewBox="0 0 24 24" width="24" xmlns="http://www.w3.org/2000/svg" xmlns:xlink="http://www.w3.org/1999/xlink"><clipPath id="a"><path d="m0 0h24v24h-24z"/></clipPath><g clip-path="url(#a)"><path d="m12 24c6.6274 0 12-5.3726 12-12 0-6.62742-5.3726-12-12-12-6.62742 0-12 5.37258-12 12 0 6.6274 5.37258 12 12 12z" fill="#ff4500"/><path d="m20.0002 12c0-.9684-.7859-1.7544-1.7543-1.7544-.4772 0-.8983.1824-1.2071.4912-1.1929-.85612-2.8491-1.41753-4.6736-1.4877l.8-3.74737 2.5965.54737c.028.65965.5754 1.19298 1.2491 1.19298.6877 0 1.2491-.5614 1.2491-1.24912s-.5614-1.24912-1.2491-1.24912c-.4913 0-.9123.2807-1.1088.70175l-2.9053-.61754c-.0842-.01404-.1684 0-.2386.0421-.0701.04211-.1122.11228-.1403.19649l-.8842 4.18246c-1.86668.05614-3.53686.60351-4.74388 1.4877-.30877-.2947-.74386-.4912-1.20701-.4912-.96842 0-1.75439.786-1.75439 1.7544 0 .7158.42105 1.3193 1.0386 1.6-.02807.1684-.04211.3509-.04211.5333 0 2.6947 3.12983 4.8702 7.00349 4.8702 3.8737 0 7.0035-2.1755 7.0035-4.8702 0-.1824-.014-.3509-.0421-.5193.5755-.2807 1.0105-.8982 1.0105-1.614zm-11.99995 1.2491c0-.6877.5614-1.2491 1.24912-1.2491s1.24913.5614 1.24913 1.2491-.56141 1.2491-1.24913 1.2491-1.24912-.5614-1.24912-1.2491zm6.97545 3.2982c-.8562.8562-2.4842.9123-2.9614.9123s-2.11931-.0701-2.96142-.9123c-.12631-.1263-.12631-.3368 0-.4631.12632-.1263.33684-.1263.46316 0 .53336.5333 1.68426.7298 2.51226.7298.8281 0 1.9649-.1965 2.5123-.7298.1263-.1263.3368-.1263.4632 0 .0982.1403.0982.3368-.0281.4631zm-.2246-2.0491c-.6877 0-1.2491-.5614-1.2491-1.2491s.5614-1.2491 1.2491-1.2491 1.2491.5614 1.2491 1.2491-.5614 1.2491-1.2491 1.2491z" fill="#fff"/></g></svg>