<svg fill="none" height="24" viewBox="0 0 24 24" width="24" xmlns="http://www.w3.org/2000/svg"><path d="m9.11911.350322.26934 1.090988c-1.06154.26236-2.07754.68301-3.01385 1.24781l-.57618-.96484c1.03062-.62413 2.15039-1.08744 3.32069-1.373958zm5.76179 0-.2694 1.090988c1.0616.26236 2.0776.68301 3.0139 1.24781l.583-.96484c-1.0333-.62358-2.1553-1.086834-3.3275-1.373958zm-13.15663 5.444708c-.62355 1.03213-1.086813 2.15292-1.373963 3.3241l1.090983.26933c.26236-1.06153.68301-2.07753 1.24782-3.01385zm-.60004 6.20497c-.00009-.5455.04094-1.0903.12273-1.6296l-1.111441-.1705c-.1806921 1.1921-.1806921 2.4047 0 3.5968l1.111441-.167c-.08166-.5394-.12269-1.0842-.12273-1.6297zm17.07737 10.2723-.5762-.9614c-.9348.5653-1.9498.986-3.0104 1.2478l.2693 1.091c1.1689-.2893 2.2873-.7536 3.3173-1.3774zm4.6742-10.2723c-.0001.5455-.0411 1.0903-.1228 1.6297l1.1115.167c.1807-1.1921.1807-2.4047 0-3.5968l-1.1115.1705c.0818.5393.1229 1.0841.1228 1.6296zm.7739 2.8775-1.091-.2693c-.2617 1.0628-.6824 2.08-1.2478 3.0172l.9648.5796c.6242-1.033 1.0875-2.1551 1.374-3.3275zm-10.02 7.8756c-1.0803.1636-2.1791.1636-3.2594 0l-.167 1.1114c1.191.1807 2.4024.1807 3.5934 0zm7.1255-4.3026c-.648.8787-1.425 1.6546-2.3047 2.3013l.6682.9069c.9689-.7133 1.8262-1.5671 2.5434-2.5332zm-2.3047-15.20565c.8797.64794 1.6567 1.42492 2.3047 2.3047l.9069-.67504c-.7147-.96695-1.5696-1.82188-2.5366-2.53655zm-15.20567 2.3047c.64795-.87978 1.42493-1.65676 2.30471-2.3047l-.67505-.90689c-.96695.71467-1.82187 1.5696-2.53654 2.53655zm19.03087.24548-.9648.57958c.5653.93484.986 1.94979 1.2478 3.01045l1.091-.26934c-.2872-1.17009-.7505-2.28976-1.374-3.32069zm-11.9054-4.54805c1.0803-.16367 2.1791-.16367 3.2594 0l.167-1.111446c-1.191-.1807119-2.4024-.1807119-3.5934 0zm-6.54929 20.71172-2.32176.5387.54209-2.3218-1.094399-.2557-.542085 2.3218c-.033917.1439-.039122.2931-.015317.4391.023805.1459.076153.2858.154049.4115.077897.1257.179814.2348.29992.3211.120107.0863.256052.1481.400042.1818.16841.0375.343.0375.5114 0l2.32176-.5353zm-2.64223-3.0411 1.0978.2522.37503-1.6092c-.54767-.9186-.95557-1.9137-1.21032-2.9524l-1.090983.2693c.245398.9943.6166 1.9532 1.104623 2.8536zm5.25037 2.4342-1.60921.375.2557 1.0978 1.18304-.2761c.8997.4895 1.85883.8608 2.85361 1.1046l.26934-1.091c-1.03551-.2581-2.02704-.6682-2.94225-1.2171zm5.57085-19.10248c-5.38675.00341-9.74728 4.37077-9.74728 9.75408.00296 1.8336.52161 3.6294 1.49669 5.1822l-.93756 4.0026 3.99914-.9376c4.55831 2.8672 10.57921 1.5001 13.44641-3.0548 2.8673-4.5548 1.5035-10.57571-3.0513-13.44637-1.5594-.98059-3.3641-1.50061-5.2061-1.50011" fill="#3a76f0"/></svg>