<svg fill="none" height="24" viewBox="0 0 24 24" width="24" xmlns="http://www.w3.org/2000/svg"><path d="m23.9132 17.4571c-.1654-.4536-.4841-.6987-.8457-.8948-.0674-.0368-.1287-.0736-.1839-.0981-.1103-.0551-.2206-.1103-.3309-.1654-1.1277-.6006-2.0102-1.3483-2.6169-2.2431-.1716-.2513-.3248-.5209-.4474-.7967-.0552-.1471-.049-.2329-.0123-.3126.0368-.0613.0858-.1103.1471-.1532.1961-.1287.3923-.2574.5271-.3432.239-.1593.4351-.2819.5577-.3677.4596-.3248.7844-.668.9867-1.0541.288-.5393.3248-1.17059.1042-1.74055-.3065-.80897-1.0664-1.30539-1.9918-1.30539-.1961 0-.3861.01839-.5822.06129-.0491.01225-.1042.02451-.1533.03677.0062-.55158-.0061-1.13379-.0551-1.70988-.1716-2.01631-.8825-3.07042-1.618-3.91004-.4719-.52706-1.0234-.97444-1.6424-1.32377-1.1154-.637376-2.384-.962192-3.763-.962192-1.3789 0-2.64139.324816-3.7568.962192-.61898.34933-1.17056.79671-1.64246 1.32377-.73543.83962-1.44022 1.89986-1.61794 3.91004-.04903.57609-.06129 1.1583-.05516 1.70988-.04903-.01226-.09806-.02452-.15322-.03677-.18998-.0429-.3861-.06129-.57608-.06129-.92542 0-1.68537.50254-1.99179 1.30539-.22063.56996-.18386 1.20125.10418 1.74055.20224.3861.52706.7293.9867 1.0541.12258.0858.31256.2084.55771.3677.1287.0858.31868.2084.50867.3309.06741.0429.12257.0981.16547.1655.03677.0797.0429.1655-.01839.3248-.12257.2697-.26965.5332-.44125.7784-.59448.8702-1.45248 1.6118-2.54337 2.2063-.576085.3064-1.176687.5086-1.434088 1.2012-.189986.5209-.0674145 1.1092.416744 1.6118.177729.1838.386101.3432.612864.4658.4719.2574.97444.4596 1.5015.6006.11031.0306.20837.0735.3003.1348.17773.1532.15321.3861.3861.7293.11644.1777.26966.3309.44126.4535.49642.3432 1.05412.3616 1.64246.3861.53319.0184 1.13379.0429 1.82632.2697.28804.0919.58222.2757.92542.4902.82736.5087 1.95505 1.2012 3.84875 1.2012s3.0275-.6986 3.861-1.2073c.3432-.2084.6374-.3922.9132-.4841.6864-.2268 1.2931-.2513 1.8263-.2697.5883-.0245 1.146-.0429 1.6425-.3861.2083-.1471.3799-.3309.5025-.5516.1716-.288.1655-.4903.3248-.6312.0858-.0613.1839-.1042.2819-.1287.5271-.141 1.0419-.3432 1.5199-.6067.239-.1287.4597-.3004.6435-.5026l.0061-.0061c.4781-.4903.5945-1.0664.4045-1.5689zm-1.6792.9009c-1.0235.5638-1.7099.5025-2.2369.8457-.4535.288-.1839.9132-.5087 1.1399-.4045.2758-1.5934-.0184-3.1256.4903-1.2686.4168-2.0714 1.6241-4.3513 1.6241-2.27982 0-3.06428-1.2012-4.35128-1.6241-1.53215-.5087-2.7211-.2084-3.12558-.4903-.32482-.2267-.06129-.8519-.50868-1.1399-.53318-.3432-1.21346-.2819-2.23693-.8457-.65576-.3616-.28192-.5823-.06741-.6864 3.71392-1.7957 4.30839-4.572 4.33291-4.7803.03064-.2513.06741-.4474-.20837-.6987-.26353-.2451-1.44022-.9744-1.77117-1.2012-.53931-.38-.77833-.7538-.6006-1.21959.12257-.31869.42287-.44126.73543-.44126.09806 0 .19612.01226.29417.03064.59448.1287 1.17057.42288 1.50151.50868.0429.01225.07967.01838.12257.01838.17773 0 .23902-.09193.22676-.29417-.03677-.64963-.1287-1.91212-.02452-3.09494.14096-1.62407.66189-2.43305 1.28701-3.14396.3003-.34321 1.70375-1.82632 4.39418-1.82632 2.6905 0 4.0939 1.47699 4.3942 1.82019.6251.71091 1.1461 1.51989 1.287 3.14396.1042 1.18282.0123 2.44531-.0306 3.09494-.0123.2145.049.29417.2267.29417.0429 0 .0797-.00613.1226-.01838.3309-.07968.907-.37998 1.5015-.50868.0981-.02451.1961-.03064.2942-.03064.3125 0 .6128.12257.7354.44126.1777.46582-.0613.83962-.6006 1.21962-.3248.2267-1.5015.956-1.7712 1.2012-.2757.2512-.239.4474-.2083.6986.0245.2084.619 2.9847 4.3329 4.7803.2206.1042.5883.331-.0613.6926z" fill="#000"/></svg>