<svg fill="none" height="24" viewBox="0 0 24 24" width="24" xmlns="http://www.w3.org/2000/svg"><path d="m22.2974 17.6797c-3.7165-1.7996-4.3089-4.5782-4.3352-4.7843-.0319-.2497-.0681-.4459.2072-.6999.2655-.2453 1.4435-.9746 1.7703-1.2028.5402-.3778.7782-.7551.6028-1.21878-.1227-.3208-.4213-.44163-.7358-.44163-.0993.0003-.1982.01141-.295.03312-.5936.12881-1.17.4263-1.5035.50665-.0401.01034-.0813.0159-.1227.01656-.1778 0-.2452-.07912-.2281-.29319.0417-.64895.13-1.91557.0276-3.09877-.1404-1.6279-.6653-2.43449-1.2877-3.14785-.3011-.34594-1.6991-1.83215-4.3972-1.83215-2.69803 0-4.09427 1.48621-4.39351 1.82786-.62423.71336-1.14851 1.51995-1.2877 3.14784-.1024 1.1832-.01043 2.44921.02759 3.09877.01227.20364-.05028.2932-.22811.2932-.04138-.00071-.08254-.00627-.12263-.01656-.33297-.08036-.90937-.37784-1.50294-.50665-.09682-.02172-.19572-.03282-.29494-.03312-.3158 0-.6132.12267-.73583.44163-.17538.46367.06132.84097.60338 1.21877.32683.2282 1.50477.9569 1.77028 1.2028.27471.254.23915.4502.20726.6999-.02637.2092-.61932 2.9877-4.33527 4.7843-.21768.1055-.58805.3288.065.6895 1.02526.5667 1.70774.506 2.23815.8476.45009.2902.18396.9158.51141 1.1415.40225.2779 1.59123-.0196 3.12727.4877 1.28771.4244 2.07014 1.6236 4.35369 1.6236 2.2835 0 3.0886-1.2047 4.3536-1.6236 1.533-.5073 2.7245-.2098 3.1273-.4877.3268-.2257.0613-.8513.5114-1.1415.5304-.3416 1.2123-.2809 2.2382-.8476.6518-.3564.2814-.5797.0637-.6852z" fill="#fff"/><path d="m23.9142 17.4679c-.1668-.4539-.4844-.6968-.8462-.8979-.0681-.0399-.1306-.0718-.184-.0963-.1079-.0559-.2183-.1098-.328-.1669-1.1277-.598-2.0082-1.3525-2.619-2.2468-.1734-.2517-.3238-.5186-.4494-.7974-.0522-.149-.0497-.2337-.0123-.3109.0371-.0596.0862-.1108.1441-.1503.1938-.1282.3937-.2582.5292-.346.2416-.1564.4329-.2803.5562-.368.4629-.3238.7867-.668.989-1.0525.1412-.2657.2235-.5588.2414-.8591.0179-.3004-.0291-.60111-.1377-.8817-.3066-.8072-1.0688-1.30833-1.9923-1.30833-.1948-.00018-.389.02038-.5795.06134-.0509.01104-.1018.02269-.1514.03557.0086-.55203-.0037-1.13474-.0528-1.70824-.1741-2.01617-.8799-3.07301-1.6157-3.91579-.4712-.52812-1.0262-.97493-1.6428-1.32244-1.1166-.637909-2.3828-.961772-3.7631-.961772s-2.64042.323863-3.75827.961772c-.61803.34762-1.17417.79532-1.64581 1.32489-.73583.84278-1.44161 1.90146-1.61576 3.91579-.04906.5735-.06132 1.15928-.05335 1.70825-.04967-.01288-.09995-.02454-.15084-.03558-.19044-.04096-.38469-.06152-.57947-.06133-.92408 0-1.68751.50112-1.99287 1.30833-.10916.2807-.15662.58163-.13916.88234.01746.3007.09943.5941.24033.8603.20297.3845.52673.7286.98969 1.0525.12264.0859.31457.2098.55617.368.13061.0847.32131.2086.50834.3325.06543.0423.12105.0981.1631.1638.03925.0803.04048.1668-.01778.3263-.1239.2729-.27186.5342-.44211.7808-.59725.8741-1.45204 1.615-2.54352 2.2081-.57824.3067-1.179168.5116-1.4330293 1.2016-.1913157.5208-.0662249 1.1133.4200363 1.6126.178462.1864.385451.3431.613193.4643.47387.2605.97775.4622 1.50048.6005.10787.0279.21028.0737.30292.1356.17721.1552.15207.3889.38815.7311.1185.1769.26908.33.44395.4515.49546.3422 1.05224.3637 1.64213.3864.53286.0202 1.13685.0435 1.82669.2711.28575.0945.58254.2773.92654.4907.82597.5079 1.95665 1.2028 3.84905 1.2028 1.8923 0 3.031-.6986 3.8631-1.2083.3415-.2098.6365-.3907.9142-.4827.6899-.2282 1.2939-.2509 1.8267-.2711.5899-.0227 1.1467-.0442 1.6422-.3865.2071-.1444.3796-.3329.5052-.552.1699-.2889.1656-.4907.325-.6318.0869-.0589.1831-.1029.2845-.13.5299-.1388 1.0407-.3423 1.5208-.606.2419-.1299.4597-.3004.6438-.5042l.0061-.0074c.4563-.4882.5709-1.0636.3839-1.5715zm-1.682.9042c-1.0259.5667-1.7077.506-2.2381.8476-.4507.2902-.184.9158-.5114 1.1415-.4023.2779-1.5913-.0196-3.1273.4877-1.2669.4189-2.0751 1.6236-4.3537 1.6236s-3.06778-1.2022-4.35548-1.6267c-1.53298-.5073-2.72441-.2098-3.12728-.4876-.32683-.2258-.06132-.8514-.5114-1.1415-.53103-.3417-1.2129-.281-2.23815-.8446-.65305-.3607-.28269-.584-.065-.6895 3.71594-1.7996 4.3089-4.5782 4.33526-4.7843.03189-.2496.06746-.4459-.20725-.6999-.26552-.2453-1.44346-.9746-1.77029-1.2028-.54083-.3778-.77875-.7551-.60338-1.21877.12264-.3208.42188-.44163.73583-.44163.09922.0003.19812.01141.29494.03312.59357.12881 1.16998.4263 1.50294.50665.04009.01029.08125.01585.12264.01656.17782 0 .24037-.08955.2281-.29319-.03801-.64957-.12999-1.91558-.02759-3.09878.14042-1.62789.6647-2.43448 1.2877-3.14784.29924-.34287 1.70529-1.82908 4.39411-1.82908 2.6889 0 4.0986 1.48007 4.3978 1.82172.6237.71336 1.1485 1.51995 1.2877 3.14784.1024 1.1832.0141 2.44982-.0276 3.09877-.0141.21407.0503.2932.2282.2932.0413-.00067.0825-.00622.1226-.01656.3336-.08036.91-.37784 1.5035-.50665.0969-.02171.1958-.03282.295-.03312.3158 0 .6132.12267.7358.44163.1754.46373-.0613.84093-.6027 1.21873-.3269.2282-1.5048.9569-1.7703 1.2029-.2754.2539-.2392.4502-.2073.6998.0264.2092.6187 2.9878 4.3353 4.7844.2195.1098.5899.333-.0632.6968z" fill="#000"/></svg>