<svg fill="none" height="24" viewBox="0 0 24 24" width="24" xmlns="http://www.w3.org/2000/svg" xmlns:xlink="http://www.w3.org/1999/xlink"><clipPath id="a"><path d="m0 0h24v24h-24z"/></clipPath><g clip-path="url(#a)"><path clip-rule="evenodd" d="m24 12c0 6.6274-5.3726 12-12 12-6.62742 0-12-5.3726-12-12 0-6.62742 5.37258-12 12-12 6.6274 0 12 5.37258 12 12zm-11.57-3.14107c-1.1672.48547-3.49986 1.49027-6.99811 3.01437-.56806.2259-.86563.4469-.89272.663-.04578.3652.41154.509 1.03431.7048.08471.0267.17248.0543.26246.0835.6127.1992 1.43689.4322 1.86535.4414.38865.0084.82244-.1518 1.30135-.4807 3.26856-2.2063 4.95576-3.32149 5.06166-3.34553.0747-.01696.1783-.03829.2485.02408.0701.06235.0632.18045.0558.21215-.0453.1931-1.8405 1.8621-2.7695 2.7258-.2896.2692-.495.4602-.537.5038-.0941.0977-.19.1902-.2821.279-.5692.5487-.99609.9602.0236 1.6322.49.3229.8821.5899 1.2733.8563.4273.291.8534.5812 1.4047.9426.1405.092.2746.1877.4053.2808.4972.3545.9438.6729 1.4957.6221.3206-.0295.6519-.331.8201-1.2302.3975-2.1253 1.1789-6.7299 1.3595-8.62743.0158-.16624-.0041-.379-.02-.4724-.016-.09339-.0494-.22646-.1708-.32497-.1438-.11666-.3658-.14126-.465-.13952-.4514.00795-1.1438.24874-4.4764 1.63485z" fill="#000" fill-rule="evenodd"/></g></svg>