<svg fill="none" height="24" viewBox="0 0 24 24" width="24" xmlns="http://www.w3.org/2000/svg" xmlns:xlink="http://www.w3.org/1999/xlink"><linearGradient id="a" gradientUnits="userSpaceOnUse" x1="12" x2="12" y1="0" y2="23.822"><stop offset="0" stop-color="#2aabee"/><stop offset="1" stop-color="#229ed9"/></linearGradient><clipPath id="b"><path d="m0 0h24v24h-24z"/></clipPath><g clip-path="url(#b)"><path d="m12 24c6.6274 0 12-5.3726 12-12 0-6.62742-5.3726-12-12-12-6.62742 0-12 5.37258-12 12 0 6.6274 5.37258 12 12 12z" fill="url(#a)"/><path clip-rule="evenodd" d="m5.43201 11.8733c3.49825-1.5241 5.83099-2.5289 6.99809-3.01437 3.3326-1.38611 4.025-1.6269 4.4764-1.63485.0993-.00174.3212.02286.465.13952.1214.09851.1548.23158.1708.32497.016.0934.0359.30616.02.4724-.1806 1.89753-.962 6.50213-1.3595 8.62743-.1682.8992-.4994 1.2007-.8201 1.2302-.6969.0642-1.226-.4605-1.901-.9029-1.0561-.6924-1.6528-1.1233-2.678-1.7989-1.18474-.7808-.4167-1.2099.2585-1.9112.1767-.1835 3.2471-2.9762 3.3065-3.2296.0075-.0317.0144-.1498-.0558-.21215-.0702-.06237-.1737-.04104-.2485-.02408-.1059.02404-1.7931 1.13923-5.06164 3.34553-.47891.3289-.91269.4891-1.30135.4807-.42846-.0092-1.25265-.2422-1.86535-.4414-.7515-.2443-1.34878-.3734-1.29677-.7883.02709-.2161.32466-.4371.89272-.663z" fill="#fff" fill-rule="evenodd"/></g></svg>