<svg fill="none" height="24" viewBox="0 0 24 24" width="24" xmlns="http://www.w3.org/2000/svg"><path d="m17.1762 8.66347c1.5434 1.10717 3.434 1.75863 5.4761 1.75863v-3.94349c-.3865.00008-.772-.04036-1.15-.12075v3.10407c-2.0419 0-3.9323-.65144-5.4761-1.75853v8.0475c0 4.0257-3.2519 7.289-7.26311 7.289-1.49668 0-2.88778-.4541-4.04336-1.2329 1.31891 1.3534 3.15823 2.193 5.19312 2.193 4.01145 0 7.26355-3.2633 7.26355-7.2892v-8.04733zm1.4187-3.97848c-.7888-.86476-1.3066-1.98232-1.4187-3.21782v-.507209h-1.0898c.2743 1.570319 1.21 2.911909 2.5085 3.725029zm-11.33809 14.03281c-.44067-.5799-.67881-1.2892-.67774-2.0186 0-1.8412 1.4874-3.3341 3.32246-3.3341.34197-.0001.68197.0525 1.00787.1563v-4.03163c-.3809-.05238-.7653-.07462-1.14954-.06647v3.138c-.32616-.1038-.66626-.1565-1.00834-.1562-1.83506 0-3.32238 1.4928-3.32238 3.3342 0 1.3021.74346 2.4294 1.82767 2.9785z" fill="#ff004f"/><path d="m16.0265 7.70332c1.5437 1.10709 3.4342 1.75853 5.476 1.75853v-3.10407c-1.1397-.24364-2.1487-.84138-2.9074-1.67279-1.2985-.8132-2.2341-2.15479-2.5084-3.725029h-2.8626v15.750639c-.0065 1.8362-1.4914 3.323-3.32248 3.323-1.07905 0-2.03768-.5162-2.6448-1.3158-1.08413-.5491-1.82759-1.6765-1.82759-2.9784 0-1.8413 1.48732-3.3342 3.32238-3.3342.35159 0 .69047.055 1.00834.1562v-3.13802c-3.94074.08171-7.11005 3.31312-7.11005 7.28732 0 1.9839.78923 3.7824 2.07016 5.0964 1.15559.7787 2.54669 1.2329 4.04336 1.2329 4.01128 0 7.26308-3.2635 7.26308-7.2891z" fill="#000"/><path d="m21.5025 6.3578v-.83932c-1.0277.00157-2.0353-.28729-2.9073-.83355.7719.84813 1.7883 1.43294 2.9073 1.67287zm-5.4158-5.397817c-.0262-.150072-.0463-.301132-.0602-.452769v-.507214h-3.9525v15.7508c-.0063 1.836-1.4911 3.3228-3.32236 3.3228-.53764 0-1.04526-.1281-1.49479-.3557.60712.7995 1.56574 1.3157 2.64479 1.3157 1.83096 0 3.31606-1.4867 3.32246-3.3229v-15.750717zm-6.32656 8.463427v-.89352c-.33026-.0453-.66323-.06803-.99661-.06787-4.01161-.00008-7.26353 3.26338-7.26353 7.28878 0 2.5237 1.27806 4.7479 3.22017 6.0562-1.28093-1.314-2.07016-3.1126-2.07016-5.0964 0-3.9741 3.16923-7.20549 7.11013-7.28719z" fill="#00f2ea"/></svg>