<svg fill="none" height="24" viewBox="0 0 24 24" width="24" xmlns="http://www.w3.org/2000/svg"><path d="m7.55016 21.75c9.05434 0 14.00814-7.5032 14.00814-14.00808 0-.21094-.0047-.42656-.0141-.6375.9637-.6969 1.7953-1.5601 2.4558-2.54906-.8975.3993-1.8504.66008-2.8261.77344 1.0274-.61583 1.7966-1.58327 2.1652-2.72297-.9665.57279-2.0235.97684-3.1257 1.19484-.7426-.78905-1.7244-1.31149-2.7937-1.48656-1.0693-.17506-2.1665.007-3.122.51805-.9554.51104-1.7159 1.32261-2.1639 2.30921-.4479.98661-.5584 2.09331-.3143 3.14899-1.95701-.09821-3.87156-.60659-5.61952-1.4922-1.74795-.88561-3.29029-2.12866-4.52701-3.64858-.62857 1.08372-.820913 2.36613-.53794 3.58657.28297 1.22045 1.02003 2.28736 2.06138 2.9839-.78178-.02482-1.54643-.23531-2.230785-.61407v.06094c-.0007 1.13728.392475 2.23968 1.112685 3.11988s1.72301 1.4838 2.83794 1.7082c-.72419.1982-1.48427.2271-2.22141.0844.31461.9781.92673 1.8336 1.75093 2.447s1.81935.9543 2.84657.9749c-1.74392 1.3699-3.89817 2.1129-6.11578 2.1094-.393273-.0006-.786161-.0247-1.17656-.0722 2.25286 1.4453 4.87353 2.2129 7.55016 2.2115z" fill="#000"/></svg>