<svg fill="none" height="24" viewBox="0 0 24 24" width="24" xmlns="http://www.w3.org/2000/svg"><path d="m7.54752 21.7507c9.05668 0 14.01028-7.5034 14.01028-14.01024 0-.21312 0-.42528-.0144-.63648.9636-.69705 1.7955-1.56012 2.4566-2.5488-.8986.3984-1.852.65955-2.8282.77472 1.028-.61531 1.7974-1.58322 2.1648-2.72352-.9665.57361-2.024.97783-3.1267 1.1952-.7424-.78942-1.7243-1.31216-2.7937-1.48732-1.0694-.17515-2.1668.00703-3.1222.51837-.9555.51134-1.7158 1.32332-2.1633 2.3103-.4474.98697-.5572 2.09391-.3121 3.14953-1.95771-.0982-3.87284-.60697-5.62115-1.49328-1.7483-.8863-3.29069-2.13034-4.52705-3.65136-.62967 1.08399-.822528 2.36723-.5393 3.58842.28323 1.2212 1.02124 2.28853 2.06378 2.9847-.78365-.02296-1.55023-.23437-2.23488-.61632v.0624c.000311 1.13688.39385 2.23858 1.11387 3.11838s1.72219 1.4834 2.83653 1.7085c-.72492.1977-1.48553.2266-2.22336.0845.31477.9783.92739 1.8338 1.7522 2.4469s1.82059.9532 2.84812.9726c-1.02092.8025-2.19005 1.3958-3.44049 1.746s-2.55766.4504-3.84687.295c2.25183 1.445 4.87192 2.2115 7.54752 2.208" fill="#1da1f2"/></svg>