<svg fill="none" height="24" viewBox="0 0 24 24" width="24" xmlns="http://www.w3.org/2000/svg"><path d="m23.7609 7.20005s-.2343-1.65469-.9562-2.38125c-.9141-.95625-1.9359-.96094-2.4047-1.01719-3.3562-.24375-8.3953-.24375-8.3953-.24375h-.0094s-5.03905 0-8.3953.24375c-.46875.05625-1.49062.06094-2.40469 1.01719-.721872.72656-.95156 2.38125-.95156 2.38125s-.24375 1.94531-.24375 3.88595v1.8187c0 1.9407.239062 3.886.239062 3.886s.234375 1.6547.951558 2.3812c.91407.9563 2.11407.9235 2.64844 1.0266 1.92188.1828 8.16094.239 8.16094.239s5.0438-.0093 8.4-.2484c.4688-.0562 1.4906-.0609 2.4047-1.0172.7219-.7265.9562-2.3812.9562-2.3812s.2391-1.9407.2391-3.886v-1.8187c0-1.94064-.2391-3.88595-.2391-3.88595zm-14.24059 7.91245v-6.74526l6.48279 3.38436z" fill="#000"/></svg>