<svg fill="none" height="24" viewBox="0 0 24 24" width="24" xmlns="http://www.w3.org/2000/svg" xmlns:xlink="http://www.w3.org/1999/xlink"><clipPath id="a"><path d="m0 0h24v24h-24z"/></clipPath><g clip-path="url(#a)"><path d="m6.78274 22.8093c1.57763.7628 3.34746 1.1907 5.21736 1.1907s3.6398-.4279 5.2174-1.1907l1.0435-10.8093-1.0435-10.80928c-1.5776-.762845-3.3475-1.19072-5.2174-1.19072s-3.63973.427875-5.21736 1.19072l-1.04348 10.80928z" fill="#ffda44"/><path d="m17.2168 22.8091c4.014-1.9409 6.7826-6.0514 6.7826-10.8089 0-4.75748-2.7686-8.86795-6.7826-10.80885z" fill="#d80027"/><path d="m6.78262 22.8091v-21.61775c-4.01395 1.9409-6.78262 6.05132-6.78262 10.80885 0 4.7575 2.76867 8.868 6.78262 10.8089z" fill="#0052b4"/><path d="m12 16.1734c0-1.9149 0-4.1739 0-4.1739h3.1304v1.5652c0 .2719-.5217 1.2683-1.8095 2.087-.4877.3101-.9926.4099-1.3209.5217z" fill="#d80027"/><path d="m11.9996 8.86884h-3.13046v3.13046h3.13046z" fill="#d80027"/><path d="m13.5653 7.8262c0-.57633-.4672-1.04349-1.0435-1.04349-.1903 0-.3682.05175-.5217.14072-.1536-.08897-.3314-.14072-.5218-.14072-.5762 0-1.0434.46716-1.0434 1.04349h-2.60873v5.2173c0 1.9423 1.54247 3.0656 2.75203 3.6479-.0905.1546-.1433.334-.1433.5261 0 .5763.4672 1.0435 1.0434 1.0435.1904 0 .3682-.0517.5218-.1407.1536.089.3314.1407.5217.1407.5763 0 1.0435-.4672 1.0435-1.0435 0-.1921-.0529-.3715-.1435-.5261 1.2096-.5823 2.7522-1.7055 2.7522-3.6479v-5.2173zm1.0435 5.2173c0 .272-.0001 1.0993-1.2878 1.9181-.4878.3101-.9926.5112-1.3209.623-.3283-.1118-.8332-.3129-1.321-.623-1.28772-.8188-1.28772-1.6461-1.28772-1.9181v-3.6521h5.21742z" fill="#ff9811"/></g></svg>