<svg fill="none" height="24" viewBox="0 0 24 24" width="24" xmlns="http://www.w3.org/2000/svg" xmlns:xlink="http://www.w3.org/1999/xlink"><clipPath id="a"><path d="m0 0h24v24h-24z"/></clipPath><g clip-path="url(#a)"><path d="m12 24c6.6274 0 12-5.3726 12-12 0-6.62742-5.3726-12-12-12-6.62742 0-12 5.37258-12 12 0 6.6274 5.37258 12 12 12z" fill="#f0f0f0"/><path d="m6.78223 16.1729 1.04348 7.0798c1.29994.4824 2.70609.7463 4.17389.7463 5.1595 0 9.5581-3.2565 11.2536-7.8261z" fill="#000"/><path d="m6.78223 7.8266 1.04348-7.079815c1.29994-.482391 2.70609-.74629672 4.17389-.74629672 5.1595 0 9.5581 3.25650172 11.2536 7.82611172z" fill="#6da544"/><path d="m0 11.9999c0 5.1596 3.25655 9.5581 7.82611 11.2537v-22.507262c-4.56956 1.695512-7.82611 6.094032-7.82611 11.253562z" fill="#a2001d"/></g></svg>