<svg fill="none" height="24" viewBox="0 0 24 24" width="24" xmlns="http://www.w3.org/2000/svg" xmlns:xlink="http://www.w3.org/1999/xlink"><clipPath id="a"><path d="m0 0h24v24h-24z"/></clipPath><g clip-path="url(#a)"><path d="m17.2175 1.19072c-1.5776-.762845-3.3475-1.19072-5.2174-1.19072-1.8698 0-3.63973.427875-5.21736 1.19072l-1.04348 10.80928 1.04348 10.8093c1.57763.7628 3.34756 1.1907 5.21736 1.1907 1.8699 0 3.6398-.4279 5.2174-1.1907l1.0435-10.8093z" fill="#d80027"/><path d="m6.78262 1.19135c-4.0139 1.94095-6.78262 6.05137-6.78262 10.80885 0 4.7575 2.76872 8.8679 6.78262 10.8089z" fill="#000"/><path d="m17.2178 1.19135v21.61775c4.0139-1.941 6.7826-6.0514 6.7826-10.8089 0-4.75748-2.7687-8.8679-6.7826-10.80885z" fill="#496e2d"/><g fill="#ffda44"><path d="m12.0001 7.82672c-2.30526 0-4.17393 1.86872-4.17393 4.17388 0 2.3052 1.86872 4.1739 4.17393 4.1739 2.3051 0 4.1739-1.8687 4.1739-4.1739 0-2.30516-1.8687-4.17388-4.1739-4.17388zm0 6.78258c-1.4408 0-2.60872-1.168-2.60872-2.6087s1.16802-2.60868 2.60872-2.60868 2.6087 1.16798 2.6087 2.60868-1.168 2.6087-2.6087 2.6087z"/><path d="m12.0005 10.4362c-.5763 0-1.0435.4672-1.0435 1.0435v1.5652h2.087v-1.5652c0-.5763-.4672-1.0435-1.0435-1.0435z"/></g></g></svg>