<svg fill="none" height="24" viewBox="0 0 24 24" width="24" xmlns="http://www.w3.org/2000/svg" xmlns:xlink="http://www.w3.org/1999/xlink"><clipPath id="a"><path d="m0 0h24v24h-24z"/></clipPath><g clip-path="url(#a)"><path d="m0 11.9992c0 .822.082875 1.6246.240328 2.4l11.759672.7305 11.7597-.7305c.1575-.7754.2403-1.578.2403-2.4 0-.8219-.0829-1.6245-.2403-2.39997l-11.7597-.73046-11.759672.73046c-.157453.77547-.240328 1.57807-.240328 2.39997z" fill="#0052b4"/><path d="m23.7596 14.3992h-23.519366c1.111826 5.4773 5.954246 9.6 11.759666 9.6 5.8054 0 10.6478-4.1227 11.7597-9.6z" fill="#f0f0f0"/><path d="m.240234 9.6h23.519466c-1.1119-5.47734-5.9543-9.6-11.7598-9.6-5.80551 0-10.64784 4.12266-11.759666 9.6z" fill="#000"/><path d="m17.218 9.59937h-10.4348l2.13188-1.00284-1.13527-2.06461 2.31489.44274.2935-2.33855 1.6124 1.72003 1.6125-1.72003.2932 2.33855 2.3151-.44274-1.1352 2.0647z" fill="#ffda44"/><g fill="#a2001d"><path d="m0 12.0008c0 6.6274 5.37262 12 12 12l-9.60019-19.20038c-1.506748 2.00573-2.39981 4.49868-2.39981 7.20038z"/><path d="m12 23.9999c6.6274 0 12-5.3727 12-12 0-2.70177-.8931-5.19473-2.3998-7.20046z"/></g></g></svg>