<svg fill="none" height="24" viewBox="0 0 24 24" width="24" xmlns="http://www.w3.org/2000/svg" xmlns:xlink="http://www.w3.org/1999/xlink"><clipPath id="a"><path d="m0 0h24v24h-24z"/></clipPath><g clip-path="url(#a)"><path d="m24 12c0 6.6274-5.3726 12-12 12-6.62738 0-12-5.3726-12-12 0 .0029 12-11.9986875 12-12 6.6274 0 12 5.37262 12 12z" fill="#0052b4"/><path d="m11.9678 12.0005h.0321c0-.0108 0-.0213 0-.0321-.0107.0107-.0214.0214-.0321.0321z" fill="#f0f0f0"/><path d="m12 6.26086c0-2.11149 0-3.495 0-6.26086h-.002c-6.62655.001125-11.998 5.37323-11.998 12h6.26086v-3.52552l3.52551 3.52552h2.18153l.0321-.0321c0-.8085 0-1.5298 0-2.18143l-3.52557-3.52561z" fill="#f0f0f0"/><path d="m6.07027 1.56506c-1.87683 1.06871-3.43716 2.62899-4.50582 4.50582v5.92902h3.13046v-7.30429-.00009h7.30439c0-.98733 0-1.92792 0-3.13046z" fill="#d80027"/><path d="m11.9989 10.5248-4.26351-4.26345h-1.47562v.0001l5.73903 5.73905h.0001s0-1.0176 0-1.4757z" fill="#d80027"/><path d="m20.2942 13.7574c.3451-.4748.5756-1.0545.5756-1.7566v-5.21741c-.4361.32756-.9779.52172-1.5652.52172-.8534 0-1.6111-.40983-2.087-1.04339-.476.63356-1.2336 1.04339-2.087 1.04339-.5873 0-1.1292-.1942-1.5652-.52163v5.21732c0 .7021.2305 1.2818.5756 1.7566z" fill="#f3f3f3"/><g fill="#ff9811"><path d="m19.208 11.0321c.1661-.4052.2953-.9976.2953-1.2924 0-.47367-.6175-.85762-.6175-.85762s-.6176.38395-.6176.85762c0 .2948.1293.8872.2953 1.2924l-.3565.8049c.2096.0852.4386.1326.6788.1326.2403 0 .4692-.0474.6788-.1326z"/><path d="m16.7955 8.42672c-.4338.05878-1.0115.24323-1.2668.39061-.4102.23686-.434.96356-.434.96356s.6414.34281 1.0515.10598c.2554-.14742.7037-.55542.9715-.90192l.8755-.09375c-.031-.22397-.1047-.44601-.2247-.654-.1202-.20798-.2756-.38273-.4541-.52162z"/><path d="m15.7445 11.8206c.2678.3463.7163.7542.9717.9017.4102.2368 1.0515-.1059 1.0515-.1059s-.0239-.7268-.4341-.9636c-.2554-.1475-.8329-.3317-1.2669-.3904l-.5188-.7113c-.1785.1389-.3339.3137-.4541.5215-.12.2081-.1935.4301-.2247.6542z"/></g><path d="m14.0117 13.5657c.9745 1.5635 3.2058 2.0868 3.2058 2.0868s2.2312-.5233 3.2057-2.0868z" fill="#338af3"/></g></svg>