<svg fill="none" height="24" viewBox="0 0 24 24" width="24" xmlns="http://www.w3.org/2000/svg" xmlns:xlink="http://www.w3.org/1999/xlink"><clipPath id="a"><path d="m0 0h24v24h-24z"/></clipPath><g clip-path="url(#a)"><path d="m12 24c6.6274 0 12-5.3726 12-12 0-6.62742-5.3726-12-12-12-6.62742 0-12 5.37258-12 12 0 6.6274 5.37258 12 12 12z" fill="#d80027"/><path d="m18.783 8.90742h-4.3466c.2684-.28096.4335-.66136.4335-1.08056 0-.86442-.7008-1.5652-1.5652-1.5652-.5446 0-1.024.27825-1.3043.70017-.2804-.42192-.7598-.70017-1.3044-.70017-.86441 0-1.56519.70078-1.56519 1.5652 0 .4192.16514.79964.43345 1.08056h-4.34649c0 1.15258 1.00393 2.08688 2.15644 2.08688h-.06956c0 1.1527.93436 2.0871 2.08701 2.0871 0 .3733.09839.7232.27014 1.0262l-1.73109 1.7312 1.32816 1.328 1.88403-1.8839c.0737.027.1501.0487.229.0635l-1.1385 2.5704 1.767 1.9101 1.7669-1.9102-1.1384-2.5704c.0788-.0147.1552-.0364.2289-.0635l1.884 1.884 1.3282-1.3282-1.7311-1.7311c.1717-.3029.2701-.653.2701-1.0263 1.1526 0 2.087-.9343 2.087-2.087h-.0695c1.1525.0001 2.1565-.9342 2.1565-2.08678z" fill="#000"/></g></svg>