<svg fill="none" height="24" viewBox="0 0 24 24" width="24" xmlns="http://www.w3.org/2000/svg" xmlns:xlink="http://www.w3.org/1999/xlink"><clipPath id="a"><path d="m0 0h24v24h-24z"/></clipPath><g clip-path="url(#a)"><path d="m0 12c0-6.62738 5.37262-12 12-12 6.6274 0 12 5.37262 12 12-.5217 0-12 1.5652-12 1.5652z" fill="#d80027"/><path d="m24 12.0004c0 6.6273-5.3726 12-12 12-6.62738 0-12-5.3727-12-12" fill="#000"/><g fill="#ffda44"><path d="m10.3535 9.54359 1.0173.73831-.3877 1.1957 1.0166-.7395 1.0173.7382-.3891-1.1953 1.0164-.73938-1.2569.00075-.3892-1.19526-.3877 1.19569z"/><path d="m14.9994 6.80332c-.9456-.54596-1.9795-.80363-3-.80185v1.56488c.7543-.00136 1.5184.18895 2.2174.59255 2.1177 1.22268 2.8459 3.9403 1.6232 6.058s-3.9402 2.8459-6.05801 1.6233c-.61697-.3562-1.11501-.8399-1.48214-1.398l-1.30669.8626c.49674.7552 1.17155 1.4089 2.00625 1.8908 2.86519 1.6542 6.54189.669 8.19609-2.1961 1.6542-2.8652.6691-6.54196-2.1961-8.19618z"/><path d="m8.53898 10.956c-.41484.7584-.13631 1.7095.62203 2.1244l5.08359 2.7778c-.3457.6319-.1621 1.4011.4698 1.7468l1.3732.7511c.6319.3458 1.4246.1137 1.7703-.5183l.7512-1.3732z"/></g></g></svg>