<svg fill="none" height="24" viewBox="0 0 24 24" width="24" xmlns="http://www.w3.org/2000/svg" xmlns:xlink="http://www.w3.org/1999/xlink"><clipPath id="a"><path d="m0 0h24v24h-24z"/></clipPath><g clip-path="url(#a)"><path d="m12 24c6.6274 0 12-5.3726 12-12 0-6.62742-5.3726-12-12-12-6.62742 0-12 5.37258-12 12 0 6.6274 5.37258 12 12 12z" fill="#f0f0f0"/><path d="m12.0007-.00097656c-4.75754 0-8.86829 2.76867656-10.80929 6.78262656h21.61849c-1.9409-4.01395-6.0517-6.78262656-10.8092-6.78262656z" fill="#338af3"/><path d="m12.0007 23.9987c4.7575 0 8.8683-2.7687 10.8093-6.7826h-21.61859c1.941 4.0139 6.05175 6.7826 10.80929 6.7826z" fill="#338af3"/><path d="m15.5864 12-1.4656.6894.7804 1.4193-1.5914-.3044-.2016 1.6076-1.1085-1.1824-1.1085 1.1824-.2016-1.6076-1.59139.3044.78038-1.4193-1.4655-.6894 1.46554-.6894-.78042-1.41925 1.59139.30445.2017-1.60767 1.1084 1.18238 1.1085-1.18238.2016 1.60767 1.5915-.30445-.7804 1.41935z" fill="#ffda44"/></g></svg>