<svg fill="none" height="24" viewBox="0 0 24 24" width="24" xmlns="http://www.w3.org/2000/svg" xmlns:xlink="http://www.w3.org/1999/xlink"><clipPath id="a"><path d="m0 0h24v24h-24z"/></clipPath><g clip-path="url(#a)"><path d="m12 24c6.6274 0 12-5.3726 12-12 0-6.62742-5.3726-12-12-12-6.62742 0-12 5.37258-12 12 0 6.6274 5.37258 12 12 12z" fill="#f0f0f0"/><path d="m17.8217 1.50525c-1.7243-.9585-3.709-1.50525-5.8217-1.50525-6.62691 0-11.99915625 5.37178-12 11.9986l8.34783-4.17249z" fill="#0052b4"/><path d="m0 12.0019c.00084375 6.6268 5.37309 11.9986 12 11.9986 2.1127 0 4.0974-.5467 5.8217-1.5053l-9.47387-6.3208z" fill="#0052b4"/><path d="m18.8217 2.12703c-.3223-.22308-.6563-.43055-1.0004-.62184l-17.8213 10.49311v.0015.0014l17.8213 10.4931c.3442-.1914.6781-.3988 1.0005-.6219l-16.76764-9.8726z" fill="#d80027"/><path d="m20.8692 11.5526h-1.4294c.3717-.4462.3487-1.1101-.07-1.5288.4435-.44345.4435-1.16256 0-1.60614l-.0267.02681c.4435-.44348.4702-1.1894.0267-1.63289l-6.4245 6.42452c.4435.4436 1.15.4383 1.5935-.0053l.1237-.113 3.0763-.2796v1.3231h1.0435v-1.418l1.5652-.1423z" fill="#a2001d"/><path d="m13.0439 14.6089-1.0439-.5217 1.0439-.5218h6.7825v1.0435z" fill="#ffda44"/></g></svg>