<svg fill="none" height="24" viewBox="0 0 24 24" width="24" xmlns="http://www.w3.org/2000/svg" xmlns:xlink="http://www.w3.org/1999/xlink"><clipPath id="a"><path d="m0 0h24v24h-24z"/></clipPath><g clip-path="url(#a)"><path d="m24 12c0 6.6274-5.3726 12-12 12-6.62738 0-12-5.3726-12-12 0 .0028 12-11.99864063 12-12 6.6274 0 12 5.37262 12 12z" fill="#0052b4"/><path d="m11.9678 12.0004h.0321c0-.0109 0-.0213 0-.0321-.0107.0107-.0214.0214-.0321.0321z" fill="#f0f0f0"/><path d="m12 6.26171c0-2.11148 0-3.49509 0-6.26085551h-.002c-6.6265.00107813-11.998 5.37318551-11.998 11.99994551h6.26086v-3.52556l3.52556 3.52556h2.18148c.0108-.0107.0215-.0214.0321-.0321 0-.8085 0-1.5298 0-2.18138l-3.52557-3.52561z" fill="#f0f0f0"/><path d="m6.07124 1.56567c-1.87683 1.06871-3.43711 2.62899-4.50581 4.50582v5.92901h3.13045v-7.30433-.00004h7.30432c0-.98733 0-1.92792 0-3.13046z" fill="#d80027"/><path d="m12.0008 10.5249-4.26341-4.2634h-1.47567c0-.00005 0 0 0 0l5.73908 5.739s0-1.0174 0-1.4756z" fill="#d80027"/><g fill="#f0f0f0"><path d="m7.23729 14.0864.65859 1.3771 1.48721-.3437-.666 1.3735 1.19596.9484-1.48907.3357.00417 1.5264-1.19086-.955-1.19081.955.00417-1.5264-1.48913-.3357 1.19602-.9484-.66609-1.3735 1.48729.3437z"/><path d="m17.9668 16.6954.3293.6886.7436-.1719-.3331.6868.5981.4742-.7446.1678.0021.7632-.5954-.4775-.5954.4775.002-.7632-.7445-.1678.598-.4742-.333-.6868.7436.1719z"/><path d="m14.9033 9.39148.3293.68862.7436-.17196-.333.68676.598.4742-.7445.1678.002.7633-.5954-.4775-.5954.4775.002-.7633-.7445-.1678.598-.4742-.333-.68676.7436.17196z"/><path d="m17.9668 5.21765.3293.6886.7436-.17189-.333.68676.5979.47419-.7445.16786.0021.76322-.5954-.47752-.5954.47752.002-.76322-.7445-.16786.5979-.47419-.3329-.68676.7436.17189z"/><path d="m20.6416 8.34778.3293.68859.7436-.17194-.333.68677.598.4742-.7446.1679.0021.7632-.5954-.4775-.5954.4775.002-.7632-.7445-.1679.598-.4742-.333-.68677.7436.17194z"/><path d="m18.729 12.0004.259.7971h.8382l-.6781.4927.2591.7971-.6782-.4926-.6781.4926.259-.7971-.6781-.4927h.8382z"/></g></g></svg>