<svg fill="none" height="24" viewBox="0 0 24 24" width="24" xmlns="http://www.w3.org/2000/svg" xmlns:xlink="http://www.w3.org/1999/xlink"><clipPath id="a"><path d="m0 0h24v24h-24z"/></clipPath><g clip-path="url(#a)"><path d="m12 24c6.6274 0 12-5.3726 12-12 0-6.62742-5.3726-12-12-12-6.62742 0-12 5.37258-12 12 0 6.6274 5.37258 12 12 12z" fill="#ffda44"/><g fill="#338af3"><path d="m11.9999 24.0003c3.6371 0 6.896-1.6183 9.0966-4.1739h-18.19318c2.20064 2.5556 5.45953 4.1739 9.09658 4.1739z"/><path d="m24 12c0-6.62737-5.3726-12-12-12-6.62738 0-12 5.37263-12 12 0 1.0831.144375 2.1323.413391 3.1305h23.173309c.2689-.9982.4133-2.0474.4133-3.1305z"/><path d="m.954102 16.6962c.231328.5435.501748 1.0663.807418 1.5652h20.47748c.3056-.499.5761-1.0217.8075-1.5652z"/></g><path d="m5.4988 7.56904-2.3445-1.03472 2.3445-1.03472 1.03467-2.34445 1.03467 2.34445 2.34446 1.03472-2.34446 1.03472-1.03467 2.34446z" fill="#f0f0f0"/><path d="m6.53326 4.44739.63895 1.44792 1.44797.63905-1.44797.639-.63895 1.44792-.63905-1.44792-1.44792-.639 1.44792-.63905z" fill="#d80027"/></g></svg>