<svg fill="none" height="24" viewBox="0 0 24 24" width="24" xmlns="http://www.w3.org/2000/svg" xmlns:xlink="http://www.w3.org/1999/xlink"><clipPath id="a"><path d="m0 0h24v24h-24z"/></clipPath><g clip-path="url(#a)"><path d="m23.5866 15.1299c.269-.9982.4134-2.0473.4134-3.1305 0-1.0831-.1444-2.13225-.4134-3.1304l-12.6301-8.823895c-2.34472.202031-4.49642 1.078125-6.26084 2.433795l-4.282269 6.3901c-.269016.99815-.413391 2.0473-.413391 3.1304 0 1.0769.142641 2.1203.408656 3.1132l4.286954 6.4074c1.76442 1.3557 3.91612 2.2318 6.26089 2.4338z" fill="#ffda44"/><g fill="#0052b4"><path d="m.413086 15.1305c.694314 2.5762 2.224544 4.809 4.282264 6.3901v-6.3901z"/><path d="m10.9561 23.9544c.3439.0296.6918.0457 1.0434.0457 5.5444 0 10.2096-3.7604 11.5866-8.8696h-12.63z"/><path d="m23.5861 8.86955c-1.377-5.10919-6.0422-8.86955-11.5866-8.86955-.3516 0-.6995.0160312-1.0434.0456562v8.8238938z"/><path d="m4.69535 2.4798c-2.05772 1.58109-3.58795 3.81389-4.282264 6.39009h4.282264z"/></g><path d="m23.8984 10.4343h-14.50704-.00005v-10.149571c-1.10897.245906-2.16033.644484-3.13045 1.173841v8.97563h-6.159282c-.0667967.5124-.101578 1.0348-.101578 1.5653s.0347813 1.0529.101578 1.5652h6.159232.00005v8.9757c.97012.5293 2.02148.928 3.13045 1.1738v-10.1494-.0001h14.50709c.0667-.5123.1016-1.0347.1016-1.5652s-.0349-1.0529-.1016-1.5652z" fill="#d80027"/></g></svg>