<svg fill="none" height="24" viewBox="0 0 24 24" width="24" xmlns="http://www.w3.org/2000/svg" xmlns:xlink="http://www.w3.org/1999/xlink"><clipPath id="a"><path d="m0 0h24v24h-24z"/></clipPath><g clip-path="url(#a)"><path d="m24 12.0001c0-1.4678-.264-2.87395-.7464-4.17389l-11.2536-.52177-11.253609.52172c-.482344 1.29998-.746391 2.70614-.746391 4.17394s.264047 2.8739.746391 4.1739l11.253609.5217 11.2536-.5217c.4824-1.3.7464-2.7061.7464-4.1739z" fill="#d80027"/><path d="m12.0007 23.9996c5.1596 0 9.5581-3.2565 11.2536-7.8261h-22.50723c1.69552 4.5696 6.09403 7.8261 11.25363 7.8261z" fill="#6da544"/><path d="m.74707 7.82513h22.50723c-1.6955-4.56961-6.094-7.82610656-11.2536-7.82610656s-9.55811 3.25649656-11.25363 7.82610656z" fill="#338af3"/><g fill="#f0f0f0"><path d="m12.2605 15.3911c-1.873 0-3.39135-1.5184-3.39135-3.3914 0-1.8729 1.51835-3.39127 3.39135-3.39127.5839 0 1.1334.14766 1.6132.40763-.7527-.73599-1.7819-1.19025-2.9176-1.19025-2.3052 0-4.17387 1.86871-4.17387 4.17389 0 2.3052 1.86871 4.1739 4.17387 4.1739 1.1358 0 2.165-.4543 2.9176-1.1903-.4798.2601-1.0293.4078-1.6132.4078z"/><path d="m14.8693 9.65076.4492 1.26334 1.211-.5757-.5757 1.2109 1.2633.4493-1.2633.4492.5757 1.211-1.211-.5757-.4492 1.2633-.4491-1.2633-1.2111.5757.5758-1.211-1.2634-.4492 1.2634-.4493-.5758-1.2109 1.2111.5757z"/></g></g></svg>