<svg fill="none" height="24" viewBox="0 0 24 24" width="24" xmlns="http://www.w3.org/2000/svg" xmlns:xlink="http://www.w3.org/1999/xlink"><clipPath id="a"><path d="m0 0h24v24h-24z"/></clipPath><g clip-path="url(#a)"><path d="m12 24c6.6274 0 12-5.3726 12-12 0-6.62742-5.3726-12-12-12-6.62742 0-12 5.37258-12 12 0 6.6274 5.37258 12 12 12z" fill="#f0f0f0"/><path d="m11.9999-.00073242c-4.25485 0-7.9922 2.21451242-10.12295 5.55370242l16.27305 16.75173c3.5036-2.0954 5.8499-5.9262 5.8499-10.3054 0-6.62741-5.3726-12.00003242-12-12.00003242z" fill="#ffda44"/><g fill="#0052b4"><path d="m23.9996 11.9991c0-3.1135-1.1859-5.94982-3.1305-8.08254v16.16514c1.9446-2.1327 3.1305-4.969 3.1305-8.0826z"/><path d="m14.9901 22.587 1.257-.0008.3877-1.1958.3892 1.1953.6304-.0004c.3866-.2069.7605-.4344 1.1203-.681l-16.6799-16.67993c-.27488.40106-.52557.81984-.75099 1.2539l.14822.45525 1.25695-.0008-1.01643.73946.38915 1.19526-1.01737-.73818-.606799.44137c-.323484 1.08638-.497531 2.23707-.497531 3.42857 0 6.6273 5.37262 12 12 12 1.4012 0 2.7461-.2406 3.9961-.6822zm-12.31358-11.1096.38765-1.1956-1.01728-.73832 1.25695-.0008.38771-1.19574.38915 1.19527 1.25696-.0008-1.01649.73949.38916 1.1952-1.01738-.7382zm2.58867 2.6087.38765-1.1957-1.01728-.7382 1.25696-.0008.3877-1.1958.38915 1.1953 1.25696-.0008-1.01644.7395.38916 1.1952-1.01738-.7382zm2.58862 2.6087.38766-1.1957-1.01728-.7383 1.25695-.0007.3877-1.1958.38916 1.1953 1.257-.0008-1.01649.7394.38916 1.1953-1.01737-.7383zm3.60509 1.8693-1.0165.7394.3877-1.1957-1.01729-.7383 1.25699-.0008.3877-1.1957.3892 1.1953 1.2569-.0008-1.0164.7394.3891 1.1953zm1.5722 3.3481.3877-1.1957-1.0173-.7383 1.2569-.0008.3877-1.1957.3892 1.1953 1.2569-.0008-1.0164.7394.3892 1.1953-1.0174-.7383z"/></g></g></svg>