<svg fill="none" height="24" viewBox="0 0 24 24" width="24" xmlns="http://www.w3.org/2000/svg" xmlns:xlink="http://www.w3.org/1999/xlink"><clipPath id="a"><path d="m0 0h24v24h-24z"/></clipPath><g clip-path="url(#a)"><path d="m17.2175 1.19084c-1.5776-.762843-3.3475-1.19071793-5.2174-1.19071793-1.8698 0-3.63973.42787493-5.21736 1.19071793l-1.04348 10.80926 1.04348 10.8093c1.57763.7628 3.34756 1.1907 5.21736 1.1907 1.8699 0 3.6398-.4279 5.2174-1.1907l1.0435-10.8093z" fill="#ffda44"/><path d="m6.78262 1.19128c-4.0139 1.94091-6.78262 6.05133-6.78262 10.80882 0 4.7576 2.76872 8.868 6.78262 10.8089z" fill="#0052b4"/><path d="m17.2178 1.19165v21.61775c4.0139-1.9409 6.7826-6.0514 6.7826-10.8089 0-4.75747-2.7687-8.86794-6.7826-10.80885z" fill="#0052b4"/><path d="m15.6518 7.30337.7.34997-.7-.34997-.7-.34997c-.0422.08443-.9562 1.9441-1.1055 4.7848h-1.0641v-4.43483l-.7826-1.04348-.7826 1.04348v4.43483h-1.064c-.1494-2.8407-1.06334-4.70037-1.10557-4.7848l-1.39997.69999c.00966.01922.96089 1.95539.96089 4.86741v.7826h2.60865v4.4348h1.5652v-4.4348h2.6087v-.7827c0-1.5055.2605-2.74692.4791-3.52326.2383-.84657.4803-1.34096.4827-1.34588z" fill="#000"/></g></svg>