<svg fill="none" height="24" viewBox="0 0 24 24" width="24" xmlns="http://www.w3.org/2000/svg" xmlns:xlink="http://www.w3.org/1999/xlink"><clipPath id="a"><path d="m0 0h24v24h-24z"/></clipPath><g clip-path="url(#a)"><path d="m16.1735.746513c-1.3-.482344-2.706-.74639093-4.1739-.74639093-1.4678 0-2.8739.26404693-4.17389.74639093l-1.04348 11.253587 1.04348 11.2536c1.29999.4824 2.70609.7464 4.17389.7464 1.4679 0 2.8739-.264 4.1739-.7464l1.0435-11.2536z" fill="#ffda44"/><path d="m23.9999 11.9993c0-5.15954-3.2565-9.5581-7.8261-11.253572v22.507272c4.5696-1.6956 7.8261-6.0941 7.8261-11.2537z" fill="#d80027"/><path d="m0 12c0 5.1596 3.2565 9.5581 7.82611 11.2537v-22.50724c-4.56961 1.69547-7.82611 6.09403-7.82611 11.25354z" fill="#000"/></g></svg>