<svg fill="none" height="24" viewBox="0 0 24 24" width="24" xmlns="http://www.w3.org/2000/svg" xmlns:xlink="http://www.w3.org/1999/xlink"><clipPath id="a"><path d="m0 0h24v24h-24z"/></clipPath><g clip-path="url(#a)"><path d="m24 12.0007c0-1.4678-.264-2.87394-.7464-4.17388l-11.2536-.52177-11.253609.52172c-.482344 1.29998-.746391 2.70613-.746391 4.17393s.264047 2.874.746391 4.1739l11.253609.5218 11.2536-.5218c.4824-1.2999.7464-2.7061.7464-4.1739z" fill="#496e2d"/><path d="m11.9997 23.9999c5.1596 0 9.5581-3.2565 11.2536-7.8261h-22.507206c1.695516 4.5696 6.094026 7.8261 11.253606 7.8261z" fill="#d80027"/><path d="m.746094 7.82538h22.507306c-1.6956-4.56961-6.0941-7.82611242-11.2537-7.82611242-5.15958 0-9.55809 3.25650242-11.253606 7.82611242z" fill="#f0f0f0"/></g></svg>