<svg fill="none" height="24" viewBox="0 0 24 24" width="24" xmlns="http://www.w3.org/2000/svg" xmlns:xlink="http://www.w3.org/1999/xlink"><clipPath id="a"><path d="m0 0h24v24h-24z"/></clipPath><g clip-path="url(#a)"><path d="m12 24c6.6274 0 12-5.3726 12-12 0-6.62742-5.3726-12-12-12-6.62742 0-12 5.37258-12 12 0 6.6274 5.37258 12 12 12z" fill="#f0f0f0"/><path d="m11.9997-.00097656c-2.40829 0-4.65042.70992156-6.52973 1.93115656l3.0862 2.06855-3.86086 1.99997 3.86086 1.99996-3.86086 1.99997 3.86086 1.99977-3.86086 1.9999 3.86086 1.9999-3.86086 2.0002 3.86086 1.9999-3.08658 2.0692c1.87941 1.2215 4.12168 1.9315 6.53011 1.9315 6.6273 0 12-5.3726 12-12 0-6.62735-5.3727-11.99997656-12-11.99997656z" fill="#d80027"/></g></svg>