<svg fill="none" height="24" viewBox="0 0 24 24" width="24" xmlns="http://www.w3.org/2000/svg" xmlns:xlink="http://www.w3.org/1999/xlink"><clipPath id="a"><path d="m0 0h24v24h-24z"/></clipPath><g clip-path="url(#a)"><path d="m12 24c6.6274 0 12-5.3726 12-12 0-6.62742-5.3726-12-12-12-6.62742 0-12 5.37258-12 12 0 6.6274 5.37258 12 12 12z" fill="#f0f0f0"/><path d="m19.3067 2.48005c-4.2962-3.30591-10.31715-3.30591-14.61334-.00005l7.30664 7.30669z" fill="#d80027"/><path d="m12 14.214-7.30664 7.3066c4.29619 3.3059 10.31714 3.3059 14.61334 0l-7.3067-7.3067z" fill="#d80027"/><path d="m9.78705 12.0003-7.30664-7.3067c-3.30591 4.29619-3.30591 10.3172 0 14.6134z" fill="#6da544"/><path d="m14.2148 12.0003 7.3066 7.3067c3.3059-4.2962 3.3059-10.31721 0-14.6134z" fill="#6da544"/><path d="m12.0006 17.2178c2.8815 0 5.2174-2.3359 5.2174-5.2173 0-2.88152-2.3359-5.21742-5.2174-5.21742s-5.2174 2.3359-5.2174 5.21742c0 2.8814 2.3359 5.2173 5.2174 5.2173z" fill="#f0f0f0"/><g fill="#d80027"><path d="m12 8.34827.4518.78262h.9037l-.4518.78258.4518.78263h-.9037l-.4518.7826-.4518-.7826h-.9037l.4519-.78263-.4519-.78258h.9037z"/><path d="m9.70319 12.001.45181.7826h.9037l-.4519.7826.4519.7826h-.9037l-.45181.7826-.45188-.7826h-.90365l.45182-.7826-.45182-.7826h.90365z"/><path d="m14.2969 12.001.4519.7826h.9036l-.4518.7826.4518.7826h-.9036l-.4519.7826-.4518-.7826h-.9037l.4518-.7826-.4518-.7826h.9037z"/></g></g></svg>