<svg fill="none" height="24" viewBox="0 0 24 24" width="24" xmlns="http://www.w3.org/2000/svg" xmlns:xlink="http://www.w3.org/1999/xlink"><clipPath id="a"><path d="m0 0h24v24h-24z"/></clipPath><g clip-path="url(#a)"><path d="m12 24c6.6274 0 12-5.3726 12-12 0-6.62742-5.3726-12-12-12-6.62742 0-12 5.37258-12 12 0 6.6274 5.37258 12 12 12z" fill="#f0f0f0"/><path d="m21.4265 9.65236h-3.9478c0-.72036-.584-1.30434-1.3043-1.30434l-1.0435 2.08698s1.113 3.1304 1.0782 3.1304h1.3044c.7204 0 1.3043-.5839 1.3043-1.3043.7204 0 1.3043-.584 1.3043-1.3044h-.0434c.7203 0 1.3478-.5839 1.3478-1.30434z" fill="#acabb1"/><path d="m2.57422 9.65224h3.94782c0-.72036.58397-1.30434 1.30433-1.30434l1.0435 2.0869s-1.11307 3.1305-1.07826 3.1305h-1.30434c-.7204 0-1.30433-.5839-1.30433-1.3043-.72041 0-1.30434-.584-1.30434-1.3044h.04344c-.7204 0-1.34782-.584-1.34782-1.30436z" fill="#acabb1"/><path d="m16.174 16.6957v.5217h-8.34779v-.5217h-2.08695v2.0869h2.08695v.5217h8.34779v-.5217h2.087v-2.0869z" fill="#ffda44"/><path d="m7.82617 8.34851v5.21739c0 3.1949 4.17393 4.1739 4.17393 4.1739s4.1739-.979 4.1739-4.1739v-5.21739l-4.1739-.52173z" fill="#0052b4"/><path d="m16.174 10.4342h-8.34783v3.1304h8.34783z" fill="#d80027"/><path d="m14.087 5.73881v.78261l-.5217.26089-.5217-.52177v-1.56523h-2.087v1.56523l-.5217.52177-.52178-.26089v-.78261h-2.08695v2.60867h8.34783v-2.60867z" fill="#ffda44"/></g></svg>