<svg fill="none" height="24" viewBox="0 0 24 24" width="24" xmlns="http://www.w3.org/2000/svg" xmlns:xlink="http://www.w3.org/1999/xlink"><clipPath id="a"><path d="m0 0h24v24h-24z"/></clipPath><g clip-path="url(#a)"><path d="m24 12c0 6.6274-5.3726 12-12 12-6.62738 0-12-5.3726-12-12 0 .0029 12-11.9986875 12-12 6.6274 0 12 5.37262 12 12z" fill="#d80027"/><path d="m12.0001 5.73889v4.04733l-4.17393-4.04733z" fill="#0052b4"/><path d="m6.26098 11.9996h3.52551l-3.52551-4.69564-.52172 3.65214z" fill="#0052b4"/><path d="m11.9688 12.0012h.0321c0-.0108 0-.0214 0-.0322-.0107.0107-.0214.0215-.0321.0322z" fill="#f0f0f0"/><path d="m11.999 6.26135c0-2.11149 0-3.495 0-6.26086172h-.002c-6.62652.001125-11.99797656 5.37323172-11.99797656 12.00001172h6.26085656v-3.52553l3.52552 3.52553h2.1816c.0106-.0107.0213-.0214.0321-.0321 0-.8085 0-1.5298 0-2.18144l-3.52564-3.52561z" fill="#f0f0f0"/><path d="m6.07027 1.56519c-1.87683 1.0687-3.43716 2.62898-4.50582 4.50581v6.4507h3.13046v-7.82597-.00009h7.82609c0-.98733 0-1.92792 0-3.13045z" fill="#d80027"/><path d="m12.476 11.0002-4.74061-4.74043h-1.47562v.00009l6.21603 6.21604h.0001c.0001.0001.0001-1.0175.0001-1.4757z" fill="#d80027"/><path d="m13.5654 6.25989v5.73911c0 2.7956 7.3044 2.7956 7.3044 0v-5.73911z" fill="#f3f3f3"/><path d="m13.5654 12.0005c0 2.7956 3.6522 3.6522 3.6522 3.6522s3.6522-.8566 3.6522-3.6522z" fill="#6da544"/><path d="m17.2171 9.70447-1.6956.73043v1.5652l1.6956 1.0435 1.6957-1.0435v-1.5652z" fill="#a2001d"/><path d="m18.9128 8.86865h-3.3913v1.56525h3.3913z" fill="#338af3"/></g></svg>