<svg fill="none" height="24" viewBox="0 0 24 24" width="24" xmlns="http://www.w3.org/2000/svg" xmlns:xlink="http://www.w3.org/1999/xlink"><clipPath id="a"><path d="m0 0h24v24h-24z"/></clipPath><g clip-path="url(#a)"><path d="m12.0002 23.9977c6.6264 0 11.9982-5.3718 11.9982-11.9982 0-6.62648-5.3718-11.9982793-11.9982-11.9982793-6.62645 0-11.99824688 5.3717993-11.99824688 11.9982793 0 6.6264 5.37179688 11.9982 11.99824688 11.9982z" fill="#f0f0f0"/><path d="m1.6094 6.00122c-.54156.9379-.941035 1.91845-1.207056 2.91724l20.065656 11.58494c.732-.7298 1.3815-1.5661 1.9229-2.5039z" fill="#000"/><path d="m17.9983 1.6092c-4.8009-2.77173-10.72039-1.847942-14.46705 1.8877l20.06565 11.5849c1.3619-5.1124-.7979-10.70082-5.5986-13.4726z" fill="#ffda44"/><path d="m6.0003 22.3899c4.8008 2.7718 10.7204 1.848 14.467-1.8876l-20.065727-11.58506c-1.361795 5.11256.797877 10.70096 5.598727 13.47266z" fill="#ffda44"/><g fill="#d80027"><path d="m15.3903 10.6964c0 1.8726-1.5181 3.3908-3.3908 3.3908s-3.39083-1.5181-3.39083-3.3908c0-.5839.14762-1.13334.40759-1.61303-.73581.7525-1.19009 1.78153-1.19009 2.91713 0 2.3049 1.86843 4.1733 4.17333 4.1733s4.1733-1.8684 4.1733-4.1733c0-1.1356-.4542-2.16463-1.1901-2.91713.26.47978.4076 1.02913.4076 1.61303z"/><path d="m12.7828 6.78357h-1.565v7.82493h1.565z"/><path d="m14.6082 8.34827h-5.2166c0 .36014.31374.65209.6738.65209h-.0217c0 .36015.292.65209.6521.65209 0 .36015.292.65205.6521.65205h1.3041c.3602 0 .6521-.2919.6521-.65205.3602 0 .6521-.29194.6521-.65209h-.0217c.36-.00005.6737-.2919.6737-.65209z"/><path d="m15.6519 15.13h-7.30327v1.565h7.30327z"/><path d="m16.6944 15.651h-3.1299v1.565h3.1299z"/><path d="m10.4346 15.651h-3.12991v1.565h3.12991z"/></g></g></svg>