<svg fill="none" height="24" viewBox="0 0 24 24" width="24" xmlns="http://www.w3.org/2000/svg" xmlns:xlink="http://www.w3.org/1999/xlink"><clipPath id="a"><path d="m0 0h24v24h-24z"/></clipPath><g clip-path="url(#a)"><path d="m24 12.0006c0-1.4678-.264-2.87391-.7464-4.17384l-11.2536-.52177-11.253609.52172c-.482391 1.29998-.746391 2.70609-.746391 4.17389 0 1.4679.264 2.874.746391 4.1739l11.253609.5218 11.2536-.5217c.4824-1.3.7464-2.7061.7464-4.174z" fill="#ffda44"/><path d="m11.9997 23.9999c5.1596 0 9.5581-3.2565 11.2536-7.8261h-22.507206c1.695516 4.5696 6.094036 7.8261 11.253606 7.8261z" fill="#6da544"/><path d="m.746094 7.82641h22.507306c-1.6956-4.5696-6.0941-7.82610482-11.2537-7.82610482-5.15958 0-9.55809 3.25650482-11.253606 7.82610482z" fill="#d80027"/></g></svg>