<svg fill="none" height="24" viewBox="0 0 24 24" width="24" xmlns="http://www.w3.org/2000/svg" xmlns:xlink="http://www.w3.org/1999/xlink"><clipPath id="a"><path d="m0 0h24v24h-24z"/></clipPath><g clip-path="url(#a)"><path d="m12 24c6.6274 0 12-5.3726 12-12 0-6.62742-5.3726-12-12-12-6.62742 0-12 5.37258-12 12 0 6.6274 5.37258 12 12 12z" fill="#f0f0f0"/><path d="m12 .00098101c-.0112-.0084375-12.00318686 11.99681899-11.99999936 12.00001899 0-6.62739 5.37261936-12.00001899 11.99999936-12.00001899z" fill="#d80027"/><path d="m12 .00000445c.0112-.0084375 12.0032 11.99679555 12 11.99999555 0-6.62737-5.3726-11.99999555-12-11.99999555z" fill="#d80027"/><path d="m12 23.9994c-.0112.0084-12.00318686-11.9968-11.99999936-12 0 6.6274 5.37261936 12 11.99999936 12z" fill="#0052b4"/><path d="m12 23.9989c.0112.0084 12.0032-11.9968 12-12 0 6.6274-5.3726 12-12 12z" fill="#0052b4"/><path d="m11.9995 6.26074 1.2951 3.98576h4.1909l-3.3906 2.4633 1.2951 3.9858-3.3905-2.4634-3.39042 2.4634 1.29506-3.9858-3.39047-2.4633h4.19083z" fill="#ffda44"/></g></svg>