<svg fill="none" height="24" viewBox="0 0 24 24" width="24" xmlns="http://www.w3.org/2000/svg" xmlns:xlink="http://www.w3.org/1999/xlink"><clipPath id="a"><path d="m0 0h24v24h-24z"/></clipPath><g clip-path="url(#a)"><g fill="#d80027"><path d="m5.2373 21.9127c1.92591 1.3165 4.25452 2.087 6.7635 2.087 2.5089 0 4.8376-.7705 6.7634-2.087l-6.7634-1.0434z"/><path d="m18.7642 2.08709c-1.9258-1.316484-4.2545-2.08696793-6.7634-2.08696793-2.50898 0-4.83768.77048393-6.7635 2.08696793l6.7635 1.04348z"/><path d="m5.2373 21.9127c1.92591 1.3165 4.25452 2.087 6.7635 2.087 2.5089 0 4.8376-.7705 6.7634-2.087l-6.7634-1.0434z"/><path d="m18.7642 2.08709c-1.9258-1.316484-4.2545-2.08696793-6.7634-2.08696793-2.50898 0-4.83768.77048393-6.7635 2.08696793l6.7635 1.04348z"/></g><path d="m23.9706 11.2165c-.2843-3.70358-2.5346-7.30433-5.206-9.13044h-13.5269c-2.9595 2.02317-4.96702 5.33668-5.2113328 9.13044l11.9748328.7826z" fill="#0052b4"/><path d="m.0253906 12.7823c.2443124 3.7938 2.2517794 7.1072 5.2112794 9.1304h13.52693c2.9596-2.0231 4.967-5.3366 5.2113-9.1304l-11.9747-.7827z" fill="#0052b4"/><path d="m23.9694 11.2173h-11.1868v-9.65211h-1.5652v9.65211h-11.1921344c-.0166406.2588-.0252656.5197-.0252656.7827 0 .2629.00857813.5238.0252187.7826h11.1921813v9.6522h1.5652v-9.6522h11.1922c.0166-.2588.0252-.5197.0252-.7826 0-.2611-.0105-.5221-.0306-.7827z" fill="#d80027"/><path d="m4.69629 11.9992 7.30431-4.591 7.3044 4.591-7.3044 4.5911z" fill="#f0f0f0"/><path d="m7.82617 14.0872h9.39123l-2.0869-3.1304-1.0435 1.0435-1.0435-.5217-1.0434 1.5652h-2.08701l-1.04348-1.0435z" fill="#6da544"/><path d="m12.0004 8.8689.2591.79711h.838l-.678.49269.259.7972-.6781-.4927-.6781.4927.2591-.7972-.6781-.49269h.8381z" fill="#ffda44"/><path d="m12.0006 6.09656-9.39122 5.90274 9.39122 5.9028 9.3914-5.9028zm-6.44991 5.90274 6.44991-4.05404 6.4501 4.05404-6.4501 4.0541z" fill="#d80027"/></g></svg>