<svg fill="none" height="24" viewBox="0 0 24 24" width="24" xmlns="http://www.w3.org/2000/svg" xmlns:xlink="http://www.w3.org/1999/xlink"><clipPath id="a"><path d="m0 0h24v24h-24z"/></clipPath><g clip-path="url(#a)"><path d="m12 24c6.6274 0 12-5.3726 12-12 0-6.62742-5.3726-12-12-12-6.62742 0-12 5.37258-12 12 0 6.6274 5.37258 12 12 12z" fill="#f0f0f0"/><path d="m3.51534 3.51432c-2.571802 2.5718-3.731818 6.02058-3.480896 9.38368l12.864556-12.8645211c-3.36313-.2509689-6.81187.9090471-9.38366 3.4808411z" fill="#ffda44"/><path d="m4.28516 21.1899c4.71473 3.9666 11.76284 3.732 16.20044-.7056 4.4377-4.4376 4.6723-11.48574.7056-16.20043z" fill="#0052b4"/><path d="m11.957 11.5167 1.0342-.5601-1.0342-.5602c-.2414-1.56846-1.4807-2.80779-3.04917-3.04919l-.5602-1.03416-.56016 1.03411c-1.56843.24141-2.80771 1.48073-3.04921 3.04924l-1.03416.5602 1.03411.5601c.24145 1.5685 1.48073 2.8079 3.04922 3.0493l.5602 1.0341.56015-1.0341c1.56852-.2414 2.80782-1.4808 3.04922-3.0493zm-3.60932 1.5269c-1.15261 0-2.08697-.9344-2.08697-2.087 0-1.15267.93431-2.08699 2.08697-2.08699 1.15265 0 2.08692.93432 2.08692 2.08699 0 1.1526-.93431 2.087-2.08692 2.087z" fill="#000"/><path d="m8.34767 9.39093.45183.78257h.9037l-.45187.7826.45187.7827h-.9037l-.45183.7825-.45183-.7825h-.90365l.45183-.7827-.45183-.7826h.90365z" fill="#d80027"/></g></svg>