<svg fill="none" height="24" viewBox="0 0 24 24" width="24" xmlns="http://www.w3.org/2000/svg" xmlns:xlink="http://www.w3.org/1999/xlink"><clipPath id="a"><path d="m0 0h24v24h-24z"/></clipPath><g clip-path="url(#a)"><path d="m12 24c6.6274 0 12-5.3726 12-12 0-6.62742-5.3726-12-12-12-6.62742 0-12 5.37258-12 12 0 6.6274 5.37258 12 12 12z" fill="#6da544"/><path d="m11.9999 4.69611 9.9131 7.30429-9.9131 7.3044-9.91299-7.3044z" fill="#ffda44"/><path d="m12.0001 16.1738c2.3051 0 4.1739-1.8687 4.1739-4.1739 0-2.30514-1.8688-4.17385-4.1739-4.17385-2.30521 0-4.17393 1.86871-4.17393 4.17385 0 2.3052 1.86872 4.1739 4.17393 4.1739z" fill="#f0f0f0"/><g fill="#0052b4"><path d="m9.91276 11.7395c-.72582 0-1.42627.1104-2.08561.3152.0292 2.28 1.88564 4.1196 4.17255 4.1196 1.4141 0 2.6631-.7039 3.4181-1.7798-1.2917-1.617-3.2793-2.655-5.50504-2.655z"/><path d="m16.0962 12.7998c.0502-.2589.0773-.5261.0773-.7997 0-2.30519-1.8687-4.17387-4.1738-4.17387-1.7201 0-3.19664 1.04068-3.83564 2.52657.56485-.1171 1.14966-.1787 1.74867-.1787 2.42427-.0001 4.61737 1.0076 6.18347 2.6257z"/></g></g></svg>