<svg fill="none" height="24" viewBox="0 0 24 24" width="24" xmlns="http://www.w3.org/2000/svg" xmlns:xlink="http://www.w3.org/1999/xlink"><clipPath id="a"><path d="m0 0h24v24h-24z"/></clipPath><g clip-path="url(#a)"><path d="m12 24c6.6274 0 12-5.3726 12-12 0-6.62742-5.3726-12-12-12-6.62742 0-12 5.37258-12 12 0 6.6274 5.37258 12 12 12z" fill="#ffda44"/><path d="m7.30584 7.82513h15.94926c-1.6955-4.56961-6.0941-7.82610656-11.2536-7.82610656-3.31379 0-6.31346 1.34338656-8.4849 3.51510656z" fill="#338af3"/><path d="m7.30486 16.1725h15.94924c-1.6955 4.5696-6.0941 7.8261-11.2536 7.8261-3.31377 0-6.31344-1.3434-8.48488-3.5151z" fill="#338af3"/><path d="m3.51471 3.51428c-4.68628 4.68628-4.68628 12.28432 0 16.97062 1.93655-1.9365 3.79903-3.799 8.48529-8.4853z" fill="#000"/></g></svg>