<svg fill="none" height="24" viewBox="0 0 24 24" width="24" xmlns="http://www.w3.org/2000/svg" xmlns:xlink="http://www.w3.org/1999/xlink"><clipPath id="a"><path d="m0 0h24v24h-24z"/></clipPath><g clip-path="url(#a)"><path d="m3.51373 20.4854c-4.68628-4.6863-4.68628-12.28422 0-16.97055 4.68629-4.68633 12.28427-4.68628 16.97067 0 0 .00164 3.186 10.78395-1.5004 15.47025-4.6862 4.6864-15.46698 1.5036-15.47027 1.5003z" fill="#ffda44"/><path d="m3.51465 20.4846c4.68628 4.6863 12.28425 4.6863 16.97065 0 4.6863-4.6863 4.6863-12.28424 0-16.97056z" fill="#ff9811"/><path d="m18.7886 6.78192v-2.08697h-4.0001l-.3056.30557c-1.087 1.08699-.9041 2.35505-.7706 3.28093.1238.85889.1386 1.1879-.1808 1.50736-.3194.31939-.6485.30459-1.5073.18065-.9259-.13345-2.19388-.31631-3.28086.77064-1.08694 1.0869-.90399 2.3549-.7704 3.2807.1239.8588.1388 1.1878-.18051 1.5071-.31936.3193-.64847.3044-1.50708.1805-.33478-.0483-.68095-.0982-1.05051-.1023l-.02293 2.0869c.23129.0025.49561.0406.77546.081.33131.0479.70631.102 1.10128.102.40931 0 .8399-.0584 1.26515-.242v1.6697h3.1305v-1.5652h-1.56525v-1.0435h1.04345v-1.5652h-.834c.0396-.5063-.03-.9912-.09-1.4069-.12385-.8588-.13876-1.1878.1806-1.507.3194-.3194.6483-.3046 1.5073-.1808.6746.0973 1.531.2202 2.3666-.1405v1.67h3.1304v-1.5652h-1.5652v-1.0435h1.0435v-1.5652h-.8339c.0396-.50639-.0299-.99122-.0899-1.40705-.0865-.60005-.1199-.94148-.0231-1.20169h3.0338z" fill="#f0f0f0"/></g></svg>