<svg fill="none" height="24" viewBox="0 0 24 24" width="24" xmlns="http://www.w3.org/2000/svg" xmlns:xlink="http://www.w3.org/1999/xlink"><clipPath id="a"><path d="m0 0h24v24h-24z"/></clipPath><g clip-path="url(#a)"><path d="m.566625 8.34777c-.367594 1.15167-.56667187 2.37853-.56662499 3.65213-.00004688 1.2736.19903099 2.5005.56667199 3.6522l11.433328.5218 11.4333-.5218c.3675-1.1517.5667-2.3787.5667-3.6521 0-1.2736-.1991-2.50056-.5667-3.65223l-11.4333-.52172z" fill="#f0f0f0"/><path d="m24 12.0005c0-.7119-.0623-1.4092-.1813-2.08699h-23.637387c-.1189693.67779-.181313 1.37499-.181313 2.08699 0 .7119.0623906 1.4091.181313 2.0869h23.637387c.1189-.6778.1813-1.375.1813-2.0869z" fill="#000"/><g fill="#338af3"><path d="m11.9997 23.9997c5.3539 0 9.8881-3.5064 11.4333-8.3479h-22.866594c1.545234 4.8414 6.079504 8.3478 11.433294 8.3479z"/><path d="m11.9998-.00061035c-5.35385 0-9.88807 3.50639035-11.433394 8.34773035l22.866594.00005c-1.5452-4.84139-6.0794-8.3478741-11.4332-8.34778035z"/></g></g></svg>