<svg fill="none" height="24" viewBox="0 0 24 24" width="24" xmlns="http://www.w3.org/2000/svg" xmlns:xlink="http://www.w3.org/1999/xlink"><clipPath id="a"><path d="m0 0h24v24h-24z"/></clipPath><g clip-path="url(#a)"><path d="m12 24c6.6274 0 12-5.3726 12-12 0-6.62742-5.3726-12-12-12-6.62742 0-12 5.37258-12 12 0 6.6274 5.37258 12 12 12z" fill="#fcfcfc"/><g fill="#a2001d"><path d="m4.95669 11.1289-1.30435-2.36641 1.30435-2.32926 1.30434 2.32926z"/><path d="m2.34731 11.1289-1.30434-2.36641 1.30434-2.32926 1.30435 2.32926z"/><path d="m4.95669 17.5643-1.30435-2.3664 1.30435-2.3292 1.30434 2.3292z"/><path d="m2.34731 17.5643-1.30434-2.3664 1.30434-2.3292 1.30435 2.3292z"/><path d="m6.26041 2.32875-.36928-.65944c-.66235.39244-1.28358.8468-1.85597 1.35511l.9209 1.67067z"/><path d="m4.95605 19.3042-.93066 1.662c.57188.509 1.19269.964 1.85475 1.3573l.3803-.69z"/></g><path d="m7.30371 15.1306v7.9155c1.4423.6139 3.02919.9541 4.69569.9541 5.1595 0 9.5581-3.2565 11.2536-7.8261z" fill="#6da544"/><path d="m23.253 16.174c.4824-1.3.7464-2.706.7464-4.1739 0-6.62735-5.3726-11.99997793-12-11.99997793-1.6664 0-3.25339.33998393-4.69569.95381293v15.220165h15.94929z" fill="#a2001d"/></g></svg>