<svg fill="none" height="24" viewBox="0 0 24 24" width="24" xmlns="http://www.w3.org/2000/svg" xmlns:xlink="http://www.w3.org/1999/xlink"><clipPath id="a"><path d="m0 0h24v24h-24z"/></clipPath><g clip-path="url(#a)"><path d="m24 12c0-4.1185-2.0751-7.75192-5.2365-9.91305l-6.7635-.52176-6.76345.52171c-3.16139 2.16118-5.23655 5.79465-5.23655 9.9131 0 4.1186 2.07516 7.7519 5.23655 9.913l6.76345.5218 6.7635-.5217c3.1614-2.1612 5.2365-5.7945 5.2365-9.9131z" fill="#0052b4"/><path d="m18.7642 2.08709c-1.9258-1.31653-4.2545-2.08696793-6.7634-2.08696793-2.50893 0-4.83764.77043793-6.7635 2.08696793z" fill="#a2001d"/><path d="m5.23633 21.9133c1.92581 1.3166 4.25456 2.087 6.76347 2.087 2.5089 0 4.8376-.7704 6.7634-2.087z" fill="#a2001d"/><path d="m12.0009 17.7382c3.1696 0 5.7391-2.5695 5.7391-5.7392 0-3.16961-2.5695-5.73911-5.7391-5.73911-3.16968 0-5.73918 2.5695-5.73918 5.73911 0 3.1697 2.5695 5.7392 5.73918 5.7392z" fill="#f0f0f0"/><path d="m12.0003 16.6954c2.5934 0 4.6957-2.1023 4.6957-4.6957 0-2.5933-2.1023-4.69562-4.6957-4.69562-2.59329 0-4.69561 2.10232-4.69561 4.69562 0 2.5934 2.10232 4.6957 4.69561 4.6957z" fill="#6da544"/><path d="m11.9996 15.1296c1.7289 0 3.1304-1.4016 3.1304-3.1305s-1.4015-3.13045-3.1304-3.13045-3.13046 1.40155-3.13046 3.13045 1.40156 3.1305 3.13046 3.1305z" fill="#f0f0f0"/><path d="m11.9994 11.217-1.6957.7827v1.3043l1.6957 1.0435 1.6956-1.0435v-1.3043z" fill="#0052b4"/><path d="m13.695 10.4358h-3.3913v1.5652h3.3913z" fill="#ffda44"/></g></svg>