<svg fill="none" height="24" viewBox="0 0 24 24" width="24" xmlns="http://www.w3.org/2000/svg" xmlns:xlink="http://www.w3.org/1999/xlink"><clipPath id="a"><path d="m0 0h24v24h-24z"/></clipPath><g clip-path="url(#a)"><path d="m12 24c6.6274 0 12-5.3726 12-12 0-6.62742-5.3726-12-12-12-6.62742 0-12 5.37258-12 12 0 6.6274 5.37258 12 12 12z" fill="#f0f0f0"/><g fill="#d80027"><path d="m24.0004 12.0011c0-4.75758-2.7687-8.86833-6.7826-10.80933v21.61853c4.0139-1.941 6.7826-6.0517 6.7826-10.8092z"/><path d="m0 12.0004c0 4.7576 2.76867 8.8683 6.78262 10.8093v-21.61854c-4.01395 1.941-6.78262 6.05175-6.78262 10.80924z"/><path d="m14.087 13.5663 2.087-1.0435-1.0435-.5218v-1.0434l-2.087 1.0434 1.0435-2.08692h-1.0435l-1.0434-1.5652-1.0435 1.5652h-1.04351l1.04351 2.08692-2.08699-1.0434v1.0434l-1.04344.5218 2.08692 1.0435-.52171 1.0434h2.08692v1.5652h1.0435v-1.5652h2.087z"/></g></g></svg>