<svg fill="none" height="24" viewBox="0 0 24 24" width="24" xmlns="http://www.w3.org/2000/svg" xmlns:xlink="http://www.w3.org/1999/xlink"><clipPath id="a"><path d="m0 0h24v24h-24z"/></clipPath><g clip-path="url(#a)"><path d="m12 24c6.6274 0 12-5.3726 12-12 0-6.62742-5.3726-12-12-12-6.62742 0-12 5.37258-12 12 0 6.6274 5.37258 12 12 12z" fill="#6da544"/><g fill="#ffda44"><path d="m18.4209 17.2178.3293.6885.7436-.1718-.333.6867.598.4742-.7446.1678.0021.7633-.5954-.4775-.5954.4775.002-.7633-.7445-.1678.598-.4742-.333-.6867.7436.1718z"/><path d="m15.3574 9.91223.3293.68857.7437-.1719-.3331.6868.598.4742-.7445.1678.002.7632-.5954-.4774-.5954.4774.002-.7632-.7445-.1678.598-.4742-.333-.6868.7436.1719z"/><path d="m18.4208 5.73828.3293.68855.7436-.17194-.3329.68681.5979.47424-.7445.16776.002.76327-.5954-.47752-.5954.47752.0021-.76327-.7445-.16776.5979-.47424-.333-.68681.7436.17194z"/><path d="m21.0976 8.87012.3293.68854.7437-.17189-.333.68683.5979.4742-.7445.1678.0021.7632-.5955-.4775-.5954.4775.002-.7632-.7444-.1678.598-.4742-.3331-.68683.7436.17189z"/><path d="m19.1841 12.5211.2591.7972h.8381l-.6781.4927.2591.7971-.6782-.4926-.6781.4926.259-.7971-.6781-.4927h.8382z"/><path d="m13.3045 15.3913c-1.873 0-3.3914-1.5184-3.3914-3.3913 0-1.873 1.5183-3.39133 3.3914-3.39133.5839 0 1.1334.14771 1.6132.40763-.7526-.73603-1.7818-1.19025-2.9177-1.19025-2.30511 0-4.17383 1.86872-4.17383 4.17385 0 2.3052 1.86872 4.1739 4.17383 4.1739 1.1359 0 2.1651-.4542 2.9176-1.1902-.4797.26-1.0292.4077-1.6131.4077z"/><path d="m7.54678 4.69546c-.36094-.62362-1.03477-1.04348-1.80708-1.04348-.77232 0-1.44614.41986-1.80708 1.04348z"/><path d="m7.55328 4.7074-1.81401 1.81401-1.81402-1.81401c-.17339.30426-.27291.65615-.27291 1.03143 0 1.15261.93436 2.08697 2.08697 2.08697s2.08697-.93431 2.08697-2.08697c-.00005-.37528-.09961-.72717-.273-1.03143z"/></g><path d="m5.21777 6.00049v1.76034c.16674.04289.34158.06572.52172.06572.18015 0 .35499-.02288.52172-.06572v-1.76034z" fill="#a2001d"/></g></svg>