<svg fill="none" height="24" viewBox="0 0 24 24" width="24" xmlns="http://www.w3.org/2000/svg" xmlns:xlink="http://www.w3.org/1999/xlink"><clipPath id="a"><path d="m0 0h24v24h-24z"/></clipPath><g clip-path="url(#a)"><path d="m6.50505 22.6698 8.81555-7.3504 7.3503-8.81553c-1.1428-2.21474-2.9549-4.02782-5.1687-5.17208l-8.82253 7.34675-7.34666 8.82246c1.14417 2.2139 2.95724 4.026 5.17204 5.1688z" fill="#ffda44"/><path d="m20.485 20.4851c3.7859-3.7859 4.5127-9.4717 2.1819-13.98791l-16.16983 16.16981c4.51623 2.3308 10.20203 1.604 13.98793-2.1819z" fill="#d80027"/><path d="m3.51436 3.51375c-3.785897 3.7859-4.512645 9.47175-2.18188 13.98795l16.16982-16.16979c-4.5162-2.330856-10.20204-1.604013-13.98794 2.18184z" fill="#6da544"/></g></svg>