<svg fill="none" height="24" viewBox="0 0 24 24" width="24" xmlns="http://www.w3.org/2000/svg" xmlns:xlink="http://www.w3.org/1999/xlink"><clipPath id="a"><path d="m0 0h24v24h-24z"/></clipPath><g clip-path="url(#a)"><path d="m22.667 6.49842c-.5545-1.07433-1.2813-2.0827-2.1818-2.98326-.9007-.90061-1.9091-1.62741-2.9834-2.18185l-8.45382 7.71591-7.71595 8.45388c.55449 1.0743 1.28128 2.0827 2.18184 2.9833.90057.9006 1.90899 1.6274 2.98327 2.1818l8.45386-7.7159z" fill="#ffda44"/><path d="m3.51455 20.4854c.5034.5034 1.04054.9524 1.60393 1.3477l16.71492-16.71499c-.3953-.56339-.8442-1.10053-1.3476-1.60392s-1.0405-.95231-1.6039-1.34756l-16.71491 16.71487c.39521.5633.84413 1.1005 1.34756 1.6039z" fill="#d80027"/><path d="m3.51441 3.51437c-3.785951 3.78595-4.512748 9.47183-2.18184 13.98793l16.16983-16.16973c-4.5162-2.330856-10.20208-1.603966-13.98799 2.1818z" fill="#338af3"/><path d="m20.486 20.4851c3.7859-3.7859 4.5126-9.4718 2.1819-13.98797l-16.16985 16.16977c4.51615 2.3309 10.20205 1.6041 13.98795-2.1818z" fill="#338af3"/><path d="m6.39547 3.65118.64753 1.99299h2.0955l-1.69528 1.23169.64753 1.99293-1.69528-1.23173-1.69538 1.23173.64763-1.99293-1.69538-1.23169h2.0955z" fill="#ffda44"/></g></svg>