<svg fill="none" height="24" viewBox="0 0 24 24" width="24" xmlns="http://www.w3.org/2000/svg" xmlns:xlink="http://www.w3.org/1999/xlink"><clipPath id="a"><path d="m0 0h24v24h-24z"/></clipPath><g clip-path="url(#a)"><path d="m12 24c6.6274 0 12-5.3726 12-12 0-6.62742-5.3726-12-12-12-6.62742 0-12 5.37258-12 12 0 6.6274 5.37258 12 12 12z" fill="#f0f0f0"/><path d="m22.5406 6.26036c-1.5506-2.84199-4.217-4.98741-7.4105-5.848129l-.5217 5.848129z" fill="#0052b4"/><path d="m1.45898 6.2606h7.93219l-.52172-5.848124c-3.19345.860714-5.85979 3.006184-7.41047 5.848124z" fill="#0052b4"/><path d="m14.6084 12.0017v5.7391h7.9322c.9302-1.7048 1.4591-3.6602 1.4591-5.7391z" fill="#6da544"/><path d="m9.39131 12.0007h-9.39131c0 2.0789.528891 4.0343 1.45908 5.7392h7.93219v-5.7392z" fill="#6da544"/><g fill="#ffda44"><path d="m1.45898 17.7396c1.55068 2.842 4.21702 4.9874 7.41047 5.8482l.52172-5.1145z"/><path d="m15.1301 23.5884c3.1935-.8608 5.8599-3.0062 7.4105-5.8482l-7.9322.7336z"/><path d="m14.6084 18.4738 7.9322-.7336h-7.9322z"/><path d="m9.39122 17.7396h-7.93224l7.93224.7336z"/></g><path d="m12.0006.00036621c-1.0832 0-2.13233.14437479-3.13048.41339079v23.173243c.99815.269 2.04728.4134 3.13048.4134 1.0831 0 2.1323-.1444 3.1304-.4134v-23.173243c-.9981-.269016-2.0473-.41339079-3.1304-.41339079z" fill="#d80027"/><path d="m6.45438 2.60913.32372.99642h1.0478l-.8476.61585.32377.99642-.84769-.6158-.84764.6158.32386-.99642-.84759-.61585h1.0477z" fill="#ffda44"/></g></svg>