<svg fill="none" height="24" viewBox="0 0 24 24" width="24" xmlns="http://www.w3.org/2000/svg" xmlns:xlink="http://www.w3.org/1999/xlink"><clipPath id="a"><path d="m0 0h24v24h-24z"/></clipPath><g clip-path="url(#a)"><path d="m24 12c0 6.6274-5.3726 12-12 12-6.62738 0-12-5.3726-12-12 0 .0029 12-11.9986875 12-12 6.6274 0 12 5.37262 12 12z" fill="#0052b4"/><path d="m11.9678 12.001h.0321c0-.0108 0-.0213 0-.0321-.0107.0107-.0214.0214-.0321.0321z" fill="#f0f0f0"/><path d="m12 6.26184c0-2.11149 0-3.495 0-6.26086344h-.002c-6.62655.001125-11.998 5.37323344-11.998 12.00002344h6.26086v-3.52554l3.52551 3.52554h2.18153c.0107-.0107.0214-.0214.0321-.0321 0-.8085 0-1.5298 0-2.18145l-3.52557-3.52561z" fill="#f0f0f0"/><path d="m6.07124 1.56458c-1.87683 1.0687-3.43715 2.62898-4.50581 4.50581v5.92901h3.13045v-7.30428-.00009h7.30432c0-.98733 0-1.92792 0-3.13045z" fill="#d80027"/><path d="m11.9999 10.5236-4.26353-4.26347h-1.47563v.0001l5.73906 5.73897h.0001s0-1.0175 0-1.4756z" fill="#d80027"/><g fill="#f0f0f0"><path d="m16.1747 12 .2221.6833h.7184l-.5812.4222.222.6833-.5813-.4223-.5812.4223.222-.6833-.5811-.4222h.7183z"/><path d="m13.2229 13.223.6401.3261.508-.508-.1124.7096.6401.3262-.7096.1123-.1123.7097-.3262-.6402-.7096.1124.5081-.508z"/><path d="m12 16.1731.6833-.222v-.7183l.4222.5811.6833-.2221-.4223.5813.4223.5813-.6833-.222-.4222.5811v-.7183z"/><path d="m13.2229 19.1254.3261-.6401-.508-.5079.7096.1123.3262-.6401.1123.7096.7096.1123-.6401.3262.1124.7096-.508-.5081z"/><path d="m16.1738 20.3481-.222-.6833h-.7184l.5812-.4222-.222-.6833.5812.4223.5813-.4223-.222.6833.5812.4222h-.7184z"/><path d="m19.125 19.1254-.6401-.326-.5079.5079.1123-.7096-.6401-.3261.7096-.1124.1124-.7096.3261.6401.7096-.1123-.5081.5079z"/><path d="m20.3484 16.1731-.6833.2221v.7183l-.4223-.5812-.6832.2221.4223-.5813-.4223-.5813.6832.2221.4223-.5811v.7183z"/><path d="m19.125 13.223-.326.6401.5079.508-.7096-.1124-.3261.6401-.1124-.7096-.7096-.1124.6401-.3261-.1123-.7096.508.508z"/></g></g></svg>