<svg fill="none" height="24" viewBox="0 0 24 24" width="24" xmlns="http://www.w3.org/2000/svg" xmlns:xlink="http://www.w3.org/1999/xlink"><clipPath id="a"><path d="m0 0h24v24h-24z"/></clipPath><g clip-path="url(#a)"><path d="m12 24c6.6274 0 12-5.3726 12-12 0-6.62742-5.3726-12-12-12-6.62742 0-12 5.37258-12 12 0 6.6274 5.37258 12 12 12z" fill="#f0f0f0"/><path d="m24 12.0003c0 6.6274-5.3726 12-12 12-6.62738 0-12-5.3726-12-12 0-6.62737 12 0 12 0z" fill="#d80027"/><path d="m0 12c0-6.62738 5.37262-12 12-12v12s-7.82611 0-12 0z" fill="#0052b4"/><path d="m7.14312 4.17346.77705 2.39147h2.51453l-2.03429 1.47797.777 2.3915-2.03429-1.47805-2.03428 1.47805.777-2.3915-2.03428-1.47797h2.51452z" fill="#f0f0f0"/></g></svg>