<svg fill="none" height="24" viewBox="0 0 24 24" width="24" xmlns="http://www.w3.org/2000/svg" xmlns:xlink="http://www.w3.org/1999/xlink"><clipPath id="a"><path d="m0 0h24v24h-24z"/></clipPath><g clip-path="url(#a)"><path d="m17.2175 1.19108c-1.5776-.762839-3.3475-1.19071379-5.2174-1.19071379-1.8698 0-3.63973.42787479-5.21736 1.19071379l-1.04348 10.80932 1.04348 10.8092c1.57763.7629 3.34756 1.1908 5.21736 1.1908 1.8699 0 3.6398-.4279 5.2174-1.1908l1.0435-10.8092z" fill="#d80027"/><path d="m12 7.82544 1.0359 3.18836h3.3529l-2.7124 1.9708 1.036 3.1886-2.7124-1.9707-2.71247 1.9707 1.03617-3.1886-2.71237-1.9708h3.35267z" fill="#ffda44"/><path d="m6.78262 1.19165c-4.0139 1.94091-6.78262 6.05133-6.78262 10.80885 0 4.7575 2.76872 8.868 6.78262 10.8089z" fill="#496e2d"/><path d="m17.2178 1.19165v21.61775c4.0139-1.9409 6.7826-6.0514 6.7826-10.8089 0-4.75747-2.7687-8.86794-6.7826-10.80885z" fill="#ffda44"/></g></svg>