<svg fill="none" height="24" viewBox="0 0 24 24" width="24" xmlns="http://www.w3.org/2000/svg" xmlns:xlink="http://www.w3.org/1999/xlink"><clipPath id="a"><path d="m0 0h24v24h-24z"/></clipPath><g clip-path="url(#a)"><path d="m12 24c6.6274 0 12-5.3726 12-12 0-6.62742-5.3726-12-12-12-6.62742 0-12 5.37258-12 12 0 6.6274 5.37258 12 12 12z" fill="#d80027"/><g fill="#ffda44"><path d="m6.56719 7.30139 1.03594 3.18751h3.35157l-2.70939 1.9734 1.03594 3.1875-2.71406-1.9687-2.71406 1.9687 1.04062-3.1875-2.71406-1.9734h3.35156z"/><path d="m14.226 18.5846-.7922-.975-1.1719.4547.6797-1.0547-.7922-.9796 1.2141.3234.6844-1.0547.0656 1.2563 1.2187.3234-1.1765.45z"/><path d="m15.802 15.7253.375-1.2-1.0266-.7266 1.2562-.0187.3704-1.2.4078 1.1906 1.2562-.0141-1.0078.75.4031 1.1906-1.0265-.7265z"/><path d="m17.9256 8.80662-.5531 1.12968.9.8766-1.2422-.1782-.5532 1.125-.2156-1.2375-1.2469-.1781 1.1157-.58592-.2157-1.24219.9.87656z"/><path d="m14.2592 5.38501-.0938 1.25156 1.1672.47344-1.2234.3-.0891 1.25625-.6609-1.06875-1.2235.3.811-.96094-.6656-1.06406 1.1671.47344z"/></g></g></svg>