<svg fill="none" height="24" viewBox="0 0 24 24" width="24" xmlns="http://www.w3.org/2000/svg" xmlns:xlink="http://www.w3.org/1999/xlink"><clipPath id="a"><path d="m0 0h24v24h-24z"/></clipPath><g clip-path="url(#a)"><path d="m12 24c6.6274 0 12-5.3726 12-12 0-6.62742-5.3726-12-12-12-6.62742 0-12 5.37258-12 12 0 6.6274 5.37258 12 12 12z" fill="#f0f0f0"/><path d="m23.2536 7.82617h-22.507209c-.482344 1.29999-.746391 2.70603-.746391 4.17393 0 1.4678.264047 2.8739.746391 4.1739h22.507309c.4823-1.3.7463-2.7061.7463-4.1739 0-1.4679-.264-2.87394-.7464-4.17393z" fill="#d80027"/><g fill="#0052b4"><path d="m12.0009-.00048828c-3.63707 0-6.89596 1.61830828-9.0966 4.17388828h18.1932c-2.2006-2.55558-5.4595-4.17388828-9.0966-4.17388828z"/><path d="m21.0965 19.826h-18.19318c2.20064 2.5556 5.45953 4.1739 9.09658 4.1739 3.6371 0 6.896-1.6183 9.0966-4.1739z"/></g></g></svg>