<svg fill="none" height="24" viewBox="0 0 24 24" width="24" xmlns="http://www.w3.org/2000/svg" xmlns:xlink="http://www.w3.org/1999/xlink"><clipPath id="a"><path d="m0 0h24v24h-24z"/></clipPath><g clip-path="url(#a)"><path d="m12 24.0001c6.6273 0 11.9999-5.3726 11.9999-12 0-6.62736-5.3726-11.99991689-11.9999-11.99991689-6.62744 0-12 5.37255689-12 11.99991689 0 6.6274 5.37256 12 12 12z" fill="#f0f0f0"/><g fill="#0052b4"><path d="m11.9999.00024414c-3.92585 0-7.41119 1.88545586-9.60049 4.79999586h19.20099c-2.1893-2.91459-5.6746-4.79999586-9.6005-4.79999586z"/><path d="m11.9999 24.0002c3.9259 0 7.4112-1.8855 9.6005-4.8h-19.20099c2.18925 2.9146 5.67465 4.8 9.60049 4.8z"/><path d="m0 12.0002c0 .822.0828749 1.6246.240328 2.4h23.519372c.1575-.7754.2403-1.578.2403-2.4 0-.8219-.0829-1.6245-.2403-2.39998h-23.519372c-.1574531.77548-.240328 1.57808-.240328 2.39998z"/></g><path d="m3.51468 3.51459c-4.68624 4.68623-4.68624 12.28421 0 16.97061 1.93654-1.9366 3.79898-3.7991 8.48522-8.4853z" fill="#d80027"/><path d="m4.85695 8.86957.7769 2.39133h2.51466l-2.03424 1.4781.77691 2.3913-2.03423-1.4779-2.03433 1.4779.77709-2.3913-2.03428-1.4781h2.51447z" fill="#f0f0f0"/></g></svg>