<svg fill="none" height="24" viewBox="0 0 24 24" width="24" xmlns="http://www.w3.org/2000/svg" xmlns:xlink="http://www.w3.org/1999/xlink"><clipPath id="a"><path d="m0 0h24v24h-24z"/></clipPath><g clip-path="url(#a)"><path d="m12 24c6.6274 0 12-5.3726 12-12 0-6.62742-5.3726-12-12-12-6.62742 0-12 5.37258-12 12 0 6.6274 5.37258 12 12 12z" fill="#ffda44"/><path d="m12 24.0007c3.9375 0 7.432-1.8965 9.6201-4.8258h-19.24022c2.18813 2.9293 5.68261 4.8258 9.62012 4.8258z" fill="#0052b4"/><path d="m24 12c0-6.62737-5.3726-12-12-12-6.62738 0-12 5.37263-12 12 0 1.419.246984 2.7803.699188 4.0439h22.601612c.4522-1.2636.6992-2.6249.6992-4.0439z" fill="#0052b4"/><g fill="#f0f0f0"><path d="m8.21457 7.69598.64748 1.99275h2.09555l-1.69528 1.23177.64748 1.9929-1.69523-1.2317-1.69523 1.2317.64757-1.9929-1.69523-1.23177h2.0954z"/><path d="m4.61541 5.6095.3885 1.19569h1.25733l-1.01714.73903.3885 1.19573-1.01719-.73903-1.01714.73903.38855-1.19573-1.01709-.73903h1.25728z"/></g></g></svg>