<svg fill="none" height="24" viewBox="0 0 24 24" width="24" xmlns="http://www.w3.org/2000/svg" xmlns:xlink="http://www.w3.org/1999/xlink"><clipPath id="a"><path d="m0 0h24v24h-24z"/></clipPath><g clip-path="url(#a)"><path d="m20.4853 20.4857c-4.6863 4.6863-12.28426 4.6863-16.97058 0-4.68632-4.6862-4.68627-12.28424 0-16.97056.36891.36886 9.59208 7.37846 9.59208 7.37846z" fill="#0052b4"/><path d="m3.51465 3.51422c4.68627-4.68628 12.28425-4.68628 16.97065 0 4.6863 4.68627 4.6862 12.28428 0 16.97058" fill="#6da544"/><path d="m12.0006 15.131c1.7289 0 3.1304-1.4015 3.1304-3.1304s-1.4015-3.13048-3.1304-3.13048-3.13048 1.40158-3.13048 3.13048 1.40158 3.1304 3.13048 3.1304z" fill="#ffda44"/><g fill="#f0f0f0"><path d="m4.46876 17.2175.3293.6886.74358-.1719-.333.6867.59803.4743-.74456.1677.00206.7633-.59541-.4775-.5954.4775.00206-.7633-.74456-.1677.59803-.4743-.33305-.6867.74363.1719z"/><path d="m2.31442 11.4769.3293.6886.74357-.172-.33295.6868.59794.4743-.74452.1677.00206.7633-.5954-.4775-.59536.4775.00202-.7633-.744518-.1677.597988-.4743-.333-.6868.74357.172z"/><path d="m4.46872 6.78186.32929.68855.74358-.17194-.33295.68681.59798.47423-.74456.16777.00206.76326-.5954-.47747-.59541.47747.00206-.76326-.74451-.16777.59794-.47423-.333-.68681.74362.17194z"/><path d="m7.1445 10.4346.32929.6885.74363-.1719-.33305.6868.59799.4742-.74452.1678.00202.7632-.59536-.4774-.59541.4774.00207-.7632-.74452-.1678.59794-.4742-.33296-.6868.74358.1719z"/><path d="m5.23094 13.5646.25904.7971h.83812l-.67809.4927.25903.7971-.6781-.4926-.67809.4926.25903-.7971-.67809-.4927h.83812z"/></g><path d="m12 14.0871h1.0434s.4522-.7999 0-1.5652l1.0435-1.0435-.5217-1.0435h-.5217s-.2609.7827-1.3044.7827c-1.0434 0-1.3043-.7827-1.3043-.7827h-.52171l.52171 1.0435-.52171 1.0435.52171.5217s.5217-1.0435 1.5652-.5217c0 0 .4434.6522 0 1.5652z" fill="#6da544"/><path d="m19.7888 6.57258c.0246-.12821.0377-.26044.0377-.39581 0-.92813-.606-1.71427-1.4437-1.98549.2559.52032.4002 1.1055.4002 1.72463 0 .20878-.0168.41362-.0483.61354-.1261-.20311-.2881-.38868-.4859-.54614-.7454-.59306-1.7639-.60876-2.517-.10931.5814.12694 1.1436.38498 1.6408.78056.3892.30975.7037.72872.9446 1.13316l-3.1863.99773c3.1304.52172 5.7391-1.5652 5.7391-1.5652-.2891-.57806-.738-.67556-1.0812-.64767z" fill="#ffda44"/></g></svg>