<svg fill="none" height="24" viewBox="0 0 24 24" width="24" xmlns="http://www.w3.org/2000/svg" xmlns:xlink="http://www.w3.org/1999/xlink"><clipPath id="a"><path d="m0 0h24v24h-24z"/></clipPath><g clip-path="url(#a)"><path d="m12 24c6.6274 0 12-5.3726 12-12 0-6.62742-5.3726-12-12-12-6.62742 0-12 5.37258-12 12 0 6.6274 5.37258 12 12 12z" fill="#fcfcfc"/><path d="m18.7829 10.4344c-.3652 0-.8174 0-1.5652 0 0 2.8816-2.3359 5.2174-5.2173 5.2174-2.8816 0-5.21742-2.3358-5.21742-5.2174-.50438 0-1.06093 0-1.56521 0 0 3.1039 2.08482 5.7208 4.93063 6.5267-.31203.5927-.2645 1.3389.1812 1.8951.5854-.4692 1.1914-.9549 1.7055-1.3668.5142.412 1.1202.8976 1.7056 1.3668.4501-.5617.4944-1.3174.172-1.913 2.8146-.8257 4.8702-3.427 4.8702-6.5088z" fill="#6da544"/><path d="m7.82617 9.91286s0 2.60864 2.60873 2.60864l.5217.5218h1.0435s.5217-1.5652 1.5652-1.5652c0 0 0-1.0435 1.0435-1.0435h1.5652s-.5218-2.08699 2.0869-3.6522l-1.0435-.52172s-3.6521 2.60869-6.2608 2.08697v1.04349h-1.04351l-.52171-.52172z" fill="#ffda44"/></g></svg>