<svg fill="none" height="24" viewBox="0 0 24 24" width="24" xmlns="http://www.w3.org/2000/svg" xmlns:xlink="http://www.w3.org/1999/xlink"><clipPath id="a"><path d="m0 0h24v24h-24z"/></clipPath><g clip-path="url(#a)"><path d="m12 24c6.6274 0 12-5.3726 12-12 0-6.62742-5.3726-12-12-12-6.62742 0-12 5.37258-12 12 0 6.6274 5.37258 12 12 12z" fill="#f0f0f0"/><path d="m10.9565 11.9993s-7.43482 8.487-7.44185 8.4853c2.17153 2.1716 5.17158 3.5147 8.48535 3.5147 6.6273 0 12-5.3726 12-12z" fill="#d80027"/><path d="m3.51471 3.51459c-4.68628 4.68628-4.68628 12.28431 0 16.97061 1.93655-1.9365 3.79904-3.799 8.48529-8.4853z" fill="#0052b4"/></g></svg>