<svg fill="none" height="24" viewBox="0 0 24 24" width="24" xmlns="http://www.w3.org/2000/svg" xmlns:xlink="http://www.w3.org/1999/xlink"><clipPath id="a"><path d="m0 0h24v24h-24z"/></clipPath><g clip-path="url(#a)"><path d="m.746094 16.1749c1.695516 4.5696 6.094026 7.8261 11.253606 7.8261 5.1596 0 9.5581-3.2565 11.2536-7.8261l-11.2536-1.0434z" fill="#ffda44"/><path d="m11.9997.00079346c-5.15958 0-9.55809 3.25649654-11.253606 7.82610654l11.253606 1.04344 11.2536-1.04348c-1.6955-4.56957-6.094-7.82606654-11.2536-7.82606654z" fill="#000"/><path d="m.746391 7.82574c-.482344 1.29999-.746391 2.70606-.746391 4.17386 0 1.4679.264047 2.8739.746391 4.1739h22.507309c.4823-1.3.7463-2.706.7463-4.1739 0-1.4678-.264-2.87387-.7464-4.17386z" fill="#d80027"/></g></svg>