<svg fill="none" height="24" viewBox="0 0 24 24" width="24" xmlns="http://www.w3.org/2000/svg" xmlns:xlink="http://www.w3.org/1999/xlink"><clipPath id="a"><path d="m0 0h24v24h-24z"/></clipPath><g clip-path="url(#a)"><path d="m10.9565 13.044s-7.43482-9.53046-7.44185-9.52878c2.17153-2.17158 5.17158-3.51473172 8.48535-3.51473172 6.6273 0 12 5.37262172 12 12.00001172z" fill="#338af3"/><path d="m10.9565 11.9994s-7.43482 8.4869-7.44185 8.4853c2.17153 2.1715 5.17158 3.5147 8.48535 3.5147 6.6273 0 12-5.3726 12-12z" fill="#6da544"/><path d="m3.51471 3.51465c-4.68628 4.68628-4.68628 12.28425 0 16.97065 1.93655-1.9366 3.79903-3.7991 8.48529-8.4853z" fill="#f0f0f0"/><path d="m4.85597 8.86938.77695 2.39142h2.51466l-2.03428 1.478.7769 2.3915-2.03423-1.478-2.03433 1.478.77709-2.3915-2.03428-1.478h2.51447z" fill="#d80027"/></g></svg>