<svg fill="none" height="24" viewBox="0 0 24 24" width="24" xmlns="http://www.w3.org/2000/svg" xmlns:xlink="http://www.w3.org/1999/xlink"><clipPath id="a"><path d="m0 0h24v24h-24z"/></clipPath><g clip-path="url(#a)"><path d="m12 24c6.6274 0 12-5.3726 12-12 0-6.62742-5.3726-12-12-12-6.62742 0-12 5.37258-12 12 0 6.6274 5.37258 12 12 12z" fill="#f0f0f0"/><g fill="#d80027"><path d="m9.39165 10.4349h14.50705c-.767-5.88781-5.8015-10.43477793-11.8984-10.43477793-.896 0-1.7687.09904693-2.6087.28523393v10.149544z"/><path d="m6.26085 10.4357v-8.97568c-3.29499 1.79785-5.653834 5.09555-6.159288 8.97568z"/><path d="m6.2608 13.5656h-6.159238c.505454 3.8801 2.864298 7.1778 6.159288 8.9756z"/><path d="m9.3916 13.5656v10.1495c.84.1862 1.7127.2852 2.6087.2852 6.0969 0 11.1314-4.5469 11.8984-10.4347z"/></g></g></svg>