<svg fill="none" height="24" viewBox="0 0 24 24" width="24" xmlns="http://www.w3.org/2000/svg" xmlns:xlink="http://www.w3.org/1999/xlink"><clipPath id="a"><path d="m0 0h24v24h-24z"/></clipPath><g clip-path="url(#a)"><path d="m12 24c6.6274 0 12-5.3726 12-12 0-6.62742-5.3726-12-12-12-6.62742 0-12 5.37258-12 12 0 6.6274 5.37258 12 12 12z" fill="#f0f0f0"/><path d="m14.3486 23.7693c4.7439-.9411 8.4808-4.678 9.4219-9.4219h-9.4219z" fill="#496e2d"/><path d="m.230469 14.3474c.941011 4.7439 4.677981 8.4808 9.421871 9.4219v-9.4219z" fill="#496e2d"/><path d="m23.7705 9.65222c-.9411-4.74384-4.678-8.48081-9.4219-9.421873v9.421873z" fill="#496e2d"/><path d="m9.65234.230469c-4.74389.941061-8.48086 4.678031-9.421871 9.421871h9.421871z" fill="#496e2d"/><path d="m11.2175 14.3481h-1.56516v9.4219c.51076.1013 1.03336.1699 1.56516.2042z" fill="#ffda44"/><path d="m11.2175 9.6528v-9.6260666c-.5318.0342188-1.0544.1028906-1.56516.2041876v9.421879z" fill="#ffda44"/><path d="m12.782.0265977c-.2588-.01673442-.5196-.02610942-.7826-.02610942s-.5238.009375-.7826.02610942v9.6261123h1.5652z" fill="#000"/><path d="m11.2168 23.9738c.2588.0168.5196.0262.7826.0262s.5238-.0094.7826-.0262v-9.626h-1.5652z" fill="#000"/><path d="m9.65243 11.2178v-1.56521h-9.421875c-.101344.51081-.1699691 1.03331-.2041878 1.56521z" fill="#ffda44"/><path d="m14.3486 11.2183h9.6261c-.0342-.5319-.1028-1.0544-.2041-1.56522h-9.4219v1.56522z" fill="#ffda44"/><path d="m14.3477 12.7832h9.6261c.0166-.2588.026-.5197.026-.7827s-.0094-.5238-.0261-.7826h-9.626z" fill="#000"/><path d="m.0261094 11.2179c-.01668753.2588-.0261094.5196-.0261094.7826s.00942187.5239.0261094.7827h9.6261106v-1.5653z" fill="#000"/><path d="m11.9999 17.7389c3.1696 0 5.7391-2.5695 5.7391-5.7391 0-3.16968-2.5695-5.73918-5.7391-5.73918-3.16966 0-5.73916 2.5695-5.73916 5.73918 0 3.1696 2.5695 5.7391 5.73916 5.7391z" fill="#d80027"/><g fill="#496e2d"><path d="m13.3075 12.6408c-.4269-.8537-.9817-1.719-.9817-1.719s.0137-.394.0137-.6288c0-.3536-.2866-.64029-.6403-.64029-.335 0-.6095.25739-.6375.58509-.2634.0172-.4719.2357-.4719.5035 0 .1947.1103.3634.2718.4477.0802-.1877.2374-.3342.4317-.401.0317.0259.0657.0491.102.0687l.0821.0393s-.3042.8574-.3042 1.318c0 1.2948.8538 1.6942.8538 1.6942v.0133l-.4269.4269h.8537v-.8538l.4269.4269c.0038-.008.8086-.5171.4268-1.2807z"/><path d="m11.9996 7.30444.1942.59785h.6286l-.5085.36951.1943.59784-.5086-.36946-.5086.36946.1943-.59784-.5085-.36951h.6286z"/><path d="m9.24012 8.20183.5085.36952.50858-.36957-.1942.59794.5086.36942-.62868.00005-.19425.59785-.1943-.59785-.62859-.00005.50855-.36951z"/><path d="m7.53418 10.5491h.62855l.19429-.59781.19425.59781h.62864l-.50855.3696.1943.5978-.50864-.3695-.50854.3695.1942-.5979z"/><path d="m7.53418 13.4513.5085-.3694-.19425-.5979.50859.3695.5086-.3695-.19425.5979.50859.3695h-.62869l-.19425.5978-.19429-.5979z"/><path d="m9.24017 15.7989.1942-.5977-.50859-.3695h.62864l.1943-.5979.19425.5978h.62863l-.5086.3696.1943.5978-.50863-.3695z"/><path d="m11.9996 16.6963-.1942-.5977h-.6286l.5085-.3696-.1943-.5978.5086.3694.5085-.3695-.1942.5979.5085.3695-.6286.0001z"/><path d="m14.7601 15.7989-.5085-.3694-.5085.3695.1942-.5978-.5086-.3695.6287-.0001.1942-.5978.1943.5979h.6286l-.5086.3695z"/><path d="m16.4661 13.4514h-.6286l-.1942.5979-.1943-.5978h-.6287l.5086-.3696-.1943-.5978.5087.3695.5085-.3695-.1942.5979z"/><path d="m16.4661 10.5491-.5085.3695.1942.5978-.5085-.3695-.5086.3696.1942-.5979-.5086-.3695.6287-.0001.1942-.59771.1943.59781z"/><path d="m14.7601 8.20178-.1942.5978.5086.36952h-.6286l-.1943.59789-.1942-.59784-.6287.00004.5086-.36961-.1942-.59775.5085.36942z"/></g></g></svg>