<svg fill="none" height="24" viewBox="0 0 24 24" width="24" xmlns="http://www.w3.org/2000/svg" xmlns:xlink="http://www.w3.org/1999/xlink"><clipPath id="a"><path d="m0 0h24v24h-24z"/></clipPath><g clip-path="url(#a)"><path d="m12 24c6.6274 0 12-5.3726 12-12 0-6.62742-5.3726-12-12-12-6.62742 0-12 5.37258-12 12 0 6.6274 5.37258 12 12 12z" fill="#f0f0f0"/><path d="m.414062 15.1311c1.108028 4.1111 4.345078 7.3482 8.456208 8.4562v-8.4562z" fill="#d80027"/><path d="m8.86924.41333c-4.11108 1.10798-7.34817 4.34508-8.456154 8.45616h8.456204v-8.45616z" fill="#0052b4"/><path d="m23.587 8.86973c-1.108-4.11108-4.3451-7.34817-8.4561-8.456156v8.456206h8.4561z" fill="#d80027"/><path d="m15.1309 23.5871c4.111-1.1081 7.3481-4.3451 8.4562-8.4562h-8.4562z" fill="#0052b4"/><path d="m15.131 11.9998c0 1.729-1.4015 3.1305-3.1304 3.1305s-3.13048-1.4015-3.13048-3.1305c0-1.7289 3.13048-3.13042 3.13048-3.13042s3.1304 1.40152 3.1304 3.13042z" fill="#496e2d"/><path d="m8.87012 11.9998c0-1.7289 1.40158-3.13042 3.13048-3.13042s3.1304 1.40152 3.1304 3.13042" fill="#0052b4"/><path d="m10.2393 10.4344v1.9566c0 .9725.7883 1.7608 1.7608 1.7608s1.7609-.7883 1.7609-1.7608v-1.9566z" fill="#d80027"/></g></svg>