<svg fill="none" height="24" viewBox="0 0 24 24" width="24" xmlns="http://www.w3.org/2000/svg" xmlns:xlink="http://www.w3.org/1999/xlink"><clipPath id="a"><path d="m0 0h24v24h-24z"/></clipPath><g clip-path="url(#a)"><path d="m1.19072 6.78262c-.762845 1.57763-1.19072 3.34748-1.19072 5.21738s.427875 3.6398 1.19072 5.2174l10.80928 1.0435 10.8093-1.0435c.7628-1.5776 1.1907-3.3475 1.1907-5.2174s-.4279-3.63975-1.1907-5.21738l-10.8093-1.04348z" fill="#f0f0f0"/><path d="m1.19141 17.2167c1.9409 4.0139 6.05132 6.7826 10.80889 6.7826 4.7575 0 8.8679-2.7687 10.8088-6.7826z" fill="#000"/><path d="m1.19141 6.78287h21.61769c-1.9409-4.01395-6.0513-6.78262586-10.8088-6.78262586-4.75757 0-8.86799 2.76867586-10.80889 6.78262586z" fill="#d80027"/><path d="m3.51471 3.51392c-4.68628 4.68628-4.68628 12.28428 0 16.97058 1.93655-1.9365 3.79904-3.799 8.48529-8.4853z" fill="#496e2d"/></g></svg>