<svg fill="none" height="24" viewBox="0 0 24 24" width="24" xmlns="http://www.w3.org/2000/svg" xmlns:xlink="http://www.w3.org/1999/xlink"><clipPath id="a"><path d="m0 0h24v24h-24z"/></clipPath><g clip-path="url(#a)"><path d="m12.0008 0c6.6273 0 11.9999 5.37262 11.9999 12 0 6.6274-5.3726 12-11.9999 12 0-.5217-1.5653-12-1.5653-12z" fill="#f0f0f0"/><path d="m12 24c-6.62738 0-12-5.3726-12-12 0-6.62738 5.37262-12 12-12" fill="#496e2d"/><g fill="#d80027"><path d="m14.5781 9.69867-.9845 1.35683-1.5946-.5172.9862 1.3557-.9845 1.3568 1.5939-.519.9862 1.3556-.001-1.6763 1.594-.519-1.5945-.517z"/><path d="m12.9948 15.392c-1.8729 0-3.39127-1.5184-3.39127-3.3913 0-1.873 1.51837-3.39135 3.39127-3.39135.584 0 1.1335.14765 1.6132.40762-.7526-.73598-1.7818-1.19025-2.9175-1.19025-2.30522 0-4.1739 1.86872-4.1739 4.17388 0 2.3052 1.86872 4.1739 4.1739 4.1739 1.1358 0 2.165-.4543 2.9175-1.1902-.4797.26-1.0292.4077-1.6132.4077z"/></g></g></svg>