<svg fill="none" height="24" viewBox="0 0 24 24" width="24" xmlns="http://www.w3.org/2000/svg" xmlns:xlink="http://www.w3.org/1999/xlink"><clipPath id="a"><path d="m0 0h24v24h-24z"/></clipPath><g clip-path="url(#a)" clip-rule="evenodd" fill-rule="evenodd"><path d="m12 0c6.627 0 12 5.37305 12 12 0 6.627-5.373 12-12 12-6.62695 0-12-5.373-12-12 0-6.62695 5.37305-12 12-12z" fill="#2394e0"/><path d="m2.29688 18.1992c-.70704-1.0722-1.23633-2.2734-1.54688-3.5605l2.11328 1.0195.01172.6309c0 .2324-.39453.7246-.52148.9121zm12.99802-16.92967c4.0274 1.33789 7.0489 4.88281 7.6309 9.19927l-.3809-.0411c-.0683.293-.1308.2989-.1308.6504 0 .3106.3906.5176.3906 1.1719 0 .1758-.4121.5254-.4297.5879l-.6113-.7168v.9121l-.0918-.0039-.1641-1.6836-.3418.1074-.4062-1.2519-1.3379 1.3984-.0157 1.0234-.4374.293-.4649-2.625-.2773.2031-.6289-.84957-.9395.02735-.3594-.41211-.3691.10156-.7246-.83008-.1406.0957.4492 1.14844h.5215v-.25976h.2597c.1875.51957.3906.21093.3906.52147 0 1.084-1.3378 1.8809-2.2148 2.084.0469.1953.0293.3906.2598.3906.4902 0 .2461-.0859.7812-.1308-.0254 1.1074-1.2695 2.4296-1.8008 3.2519l.2383 1.6973c.0625.3691-.7656.7578-1.0469 1.1738l.1348.6504-.3808.1543c-.0665.668-.7149 1.4082-1.4434 1.4082h-.7813c0-.9141-.6523-2.2207-.6523-2.8672 0-.5488.2598-.623.2598-1.3027 0-.6289-.65043-1.5293-.65043-1.6934v-1.043h-.52148c-.07813-.291-.0293-.3906-.39063-.3906h-.13086c-.56836 0-.47265.2598-1.04297.2598h-.52148c-.4707 0-1.30273-1.5078-1.30273-1.6934v-1.5625c0-.6738.61718-1.40818 1.04296-1.69333v-.65039l.58594-.5957.32617-.05469c.69922 0 .61524-.39063 1.04297-.39063h1.17188v.91211l1.28906.55078.1211-.55664c.584.13672.7363.39649 1.4551.39649h.2597c.4942 0 .5215-.65625.5215-1.17188l-1.0429.10352-.4551-.98828-.4512.11914c.082.35351.125.20703.125.50586 0 .17578-.1445.19531-.2617.25976l-.4512-1.14453-.97069-.69336-.12891.12695.8262.86914c-.1094.3125-.1231 1.2129-.57815.58204l.42575-.20508-1.06247-1.11328-.63672.24804-.6289.60157c-.06641.48437-.19727.72851-.70508.72851-.33789 0-.13477-.08789-.65235-.13086v-1.30273h1.17188l-.38086-.86719-.14062.08594v-.26172l1.90429-.87695c-.03515-.27344-.08008-.12696-.08008-.42579 0-.01757.12696-.25781.13086-.26171l.49219.30664-.11719-.56055-.75976.15625-.14063-.68164c.60156-.31641 1.92774-1.433594 2.34964-1.433594h.3906c.4121 0 1.5137.406254 1.6934.650394l-1.045-.10547.7754.63867.0742-.27344.5782-.1582.0078-.36133h.2617v.39063z" fill="#a1e367"/></g></svg>