<svg fill="none" height="24" viewBox="0 0 24 24" width="24" xmlns="http://www.w3.org/2000/svg" xmlns:xlink="http://www.w3.org/1999/xlink"><clipPath id="a"><path d="m0 0h24v24h-24z"/></clipPath><g clip-path="url(#a)"><path d="m0 12c0-6.62737 5.37262-12 12-12 6.6274 0 12 5.37263 12 12l-12 1.0435z" fill="#ffda44"/><path d="m1.60547 18.0009c2.07492 3.5867 5.95261 6 10.39423 6 4.4417 0 8.3193-2.4133 10.3943-6l-10.3943-.7826z" fill="#d80027"/><path d="m22.3942 18.0002c1.0211-1.765 1.6058-3.8141 1.6058-6h-24c0 2.1859.584719 4.235 1.60575 6z" fill="#0052b4"/><path d="m12.0001 16.1744c2.3051 0 4.1739-1.8687 4.1739-4.1738 0-2.30523-1.8688-4.17394-4.1739-4.17394-2.30521 0-4.17393 1.86871-4.17393 4.17394 0 2.3051 1.86872 4.1738 4.17393 4.1738z" fill="#ffda44"/><path d="m12.0003 14.6092c-1.4385 0-2.6087-1.1702-2.6087-2.6087v-1.5652c0-1.43841 1.1703-2.60864 2.6087-2.60864s2.6087 1.17028 2.6087 2.60864v1.5652c0 1.4385-1.1703 2.6087-2.6087 2.6087z" fill="#338af3"/><path d="m16.1741 5.74002h-3.1305c0-.57628-.4672-1.04349-1.0435-1.04349s-1.0435.46721-1.0435 1.04349h-3.13043c0 .57633.50199 1.04348 1.07822 1.04348h-.03473c0 .57633.46715 1.04349 1.04348 1.04349 0 .57633.46716 1.04348 1.04346 1.04348h2.087c.5763 0 1.0435-.46715 1.0435-1.04348.5763 0 1.0435-.46716 1.0435-1.04349h-.0348c.5763 0 1.0783-.4672 1.0783-1.04348z" fill="#000"/></g></svg>