<svg fill="none" height="24" viewBox="0 0 24 24" width="24" xmlns="http://www.w3.org/2000/svg" xmlns:xlink="http://www.w3.org/1999/xlink"><clipPath id="a"><path d="m0 0h24v24h-24z"/></clipPath><g clip-path="url(#a)"><path d="m0 11.9995c0 1.4678.264047 2.8739.746391 4.1739l11.253609.5217 11.2536-.5217c.4824-1.3.7464-2.7061.7464-4.1739 0-1.4679-.264-2.87392-.7464-4.1739l-11.2536-.52177-11.253609.52172c-.482344 1.30003-.746391 2.70605-.746391 4.17395z" fill="#000"/><path d="m11.9997-.00036621c-5.15957 0-9.55809 3.25649621-11.253606 7.82610621h22.507306c-1.6956-4.56961-6.0941-7.82610621-11.2537-7.82610621z" fill="#0052b4"/><path d="m23.2533 16.1742h-22.507206c1.695516 4.5696 6.094026 7.8261 11.253606 7.8261 5.1596 0 9.5581-3.2565 11.2536-7.8261z" fill="#f0f0f0"/></g></svg>