<svg fill="none" height="24" viewBox="0 0 24 24" width="24" xmlns="http://www.w3.org/2000/svg" xmlns:xlink="http://www.w3.org/1999/xlink"><clipPath id="a"><path d="m0 0h24v24h-24z"/></clipPath><g clip-path="url(#a)"><path d="m12 24c6.6274 0 12-5.3726 12-12 0-6.62742-5.3726-12-12-12-6.62742 0-12 5.37258-12 12 0 6.6274 5.37258 12 12 12z" fill="#f0f0f0"/><path d="m11.9997-.00036621c-5.15957 0-9.55809 3.25649621-11.253606 7.82610621h22.507306c-1.6956-4.56961-6.0941-7.82610621-11.2537-7.82610621z" fill="#d80027"/><path d="m11.9997 24.0003c5.1596 0 9.5581-3.2565 11.2536-7.8261h-22.507206c1.695516 4.5696 6.094026 7.8261 11.253606 7.8261z" fill="#000"/><path d="m16.174 10.6956h-3.1304c0-.5763-.4672-1.0435-1.0435-1.0435s-1.0435.4672-1.0435 1.0435h-3.13043c0 .5763.50199 1.0435 1.07827 1.0435h-.03478c0 .5763.46715 1.0435 1.04348 1.0435 0 .5763.46716 1.0434 1.04346 1.0434h2.087c.5763 0 1.0435-.4671 1.0435-1.0434.5763 0 1.0435-.4672 1.0435-1.0435h-.0348c.5763 0 1.0782-.4672 1.0782-1.0435z" fill="#ff9811"/></g></svg>