<svg fill="none" height="24" viewBox="0 0 24 24" width="24" xmlns="http://www.w3.org/2000/svg" xmlns:xlink="http://www.w3.org/1999/xlink"><clipPath id="a"><path d="m0 0h24v24h-24z"/></clipPath><g clip-path="url(#a)"><path d="m1.19072 6.78189c-.762845 1.57762-1.19072 3.34751-1.19072 5.21741s.427875 3.6397 1.19072 5.2173l10.80928 1.0435 10.8093-1.0435c.7628-1.5776 1.1907-3.3474 1.1907-5.2173s-.4279-3.63979-1.1907-5.21741l-10.8093-1.04349z" fill="#f0f0f0"/><path d="m1.19141 17.2178c1.9409 4.0139 6.05137 6.7826 10.80889 6.7826 4.7574 0 8.8679-2.7687 10.8088-6.7826z" fill="#496e2d"/><path d="m1.19141 6.78226h21.61769c-1.9409-4.01395-6.0513-6.78262621-10.8088-6.78262621-4.75757 0-8.86799 2.76867621-10.80889 6.78262621z" fill="#000"/><g fill="#d80027"><path d="m3.51471 3.51501c-4.68628 4.68629-4.68628 12.28429 0 16.97059 1.93655-1.9365 3.79904-3.799 8.48529-8.4853z"/><path d="m15.1307 12c0-1.7484 1.2287-3.20897 2.8695-3.56728-.2522-.05508-.5138-.08494-.7826-.08494-2.0171 0-3.6522 1.63509-3.6522 3.65222 0 2.017 1.6351 3.6521 3.6522 3.6521.2687 0 .5304-.0298.7826-.0849-1.6408-.3583-2.8695-1.8189-2.8695-3.5672z"/><path d="m18.1533 9.6521.5181 1.5944h1.6763l-1.3562.9852.5181 1.5943-1.3563-.9853-1.3561.9853.5181-1.5943-1.3563-.9852h1.6763z"/></g></g></svg>