<svg fill="none" height="24" viewBox="0 0 24 24" width="24" xmlns="http://www.w3.org/2000/svg" xmlns:xlink="http://www.w3.org/1999/xlink"><clipPath id="a"><path d="m0 0h24v24h-24z"/></clipPath><g clip-path="url(#a)"><path d="m10.9565 10.9565s-7.43482 9.5305-7.44185 9.5288c2.17153 2.1716 5.17158 3.5147 8.48535 3.5147 6.6273 0 12-5.3726 12-12z" fill="#338af3"/><path d="m10.9565 11.9996s-7.43482-8.48692-7.44185-8.48523c2.17153-2.17158 5.17158-3.51473621 8.48535-3.51473621 6.6273 0 12 5.37262621 12 11.99996621z" fill="#6da544"/><path d="m3.51373 3.5155c-4.68628 4.68628-4.68628 12.2843 0 16.9706-.00032.002 20.48527-8.4853 20.48527-8.4853z" fill="#d80027"/><path d="m6.26081 7.04321c-2.30152 0-4.1739 1.87242-4.1739 4.17389v1.5652c0 2.3015 1.87243 4.1739 4.1739 4.1739 2.30146 0 4.17389-1.8724 4.17389-4.1739v-1.5652c0-2.30147-1.87238-4.17389-4.17389-4.17389zm2.60868 5.73919c0 1.1658-.76884 2.1553-1.82611 2.4885v-1.7059l1.10738-1.1074-1.10677-1.1068-.00061-.3939v-.5223h-1.56515v1.5651l-1.10663 1.1066 1.10663 1.1066v1.0581c-1.05727-.3332-1.82611-1.3227-1.82611-2.4886v-1.5652c0-1.43846 1.17028-2.60869 2.60869-2.60869 1.4384 0 2.60868 1.17028 2.60868 2.60869z" fill="#ffda44"/></g></svg>