<svg fill="none" height="24" viewBox="0 0 24 24" width="24" xmlns="http://www.w3.org/2000/svg" xmlns:xlink="http://www.w3.org/1999/xlink"><clipPath id="a"><path d="m0 0h24v24h-24z"/></clipPath><g clip-path="url(#a)"><path d="m0 11.9992c0 1.4679.264047 2.8739.746391 4.1739l11.253609 1.0435 11.2536-1.0435c.4824-1.3.7464-2.706.7464-4.1739 0-1.4678-.264-2.87387-.7464-4.17386l-11.2536-1.04348-11.253609 1.04348c-.482344 1.29999-.746391 2.70606-.746391 4.17386z" fill="#ffda44"/><g fill="#d80027"><path d="m23.2553 7.82574c-1.6956-4.56956-6.0941-7.82610621-11.2536-7.82610621-5.15962 0-9.55814 3.25654621-11.253653 7.82610621z"/><path d="m.74707 16.174c1.69552 4.5695 6.09403 7.8261 11.25363 7.8261s9.5581-3.2566 11.2536-7.8261z"/></g></g></svg>