<svg fill="none" height="24" viewBox="0 0 24 24" width="24" xmlns="http://www.w3.org/2000/svg" xmlns:xlink="http://www.w3.org/1999/xlink"><clipPath id="a"><path d="m0 0h24v24h-24z"/></clipPath><g clip-path="url(#a)"><path d="m0 12c0 1.4679.264047 2.874.746437 4.174l11.253563 1.0433 11.2536-1.0434c.4824-1.2999.7464-2.706.7464-4.1739 0-1.4478-.2565-2.8356-.7263-4.12058l-11.2737-1.09683-11.273719 1.09688c-.469828 1.28493-.726281 2.67273-.726281 4.12053z" fill="#ffda44"/><path d="m11.9997 24.0003c5.1596 0 9.5581-3.2565 11.2536-7.8261h-22.507206c1.695516 4.5696 6.094026 7.8261 11.253606 7.8261z" fill="#d80027"/><path d="m11.9997-.00036621c-5.15957 0-9.55809 3.25649621-11.253606 7.82610621h22.507306c-1.6956-4.56961-6.0941-7.82610621-11.2537-7.82610621z" fill="#6da544"/><path d="m11.9999 17.7399c3.1696 0 5.7391-2.5695 5.7391-5.7392 0-3.1696-2.5695-5.7391-5.7391-5.7391-3.16966 0-5.73916 2.5695-5.73916 5.7391 0 3.1697 2.5695 5.7392 5.73916 5.7392z" fill="#0052b4"/><g fill="#ffda44"><path d="m11.999 7.5564 1.036 3.1885h3.358l-2.7177 1.9707 1.0442 3.198-2.7205-1.98-2.71631 1.9763 1.04001-3.1943-2.71528-1.9707h3.35558z"/><path d="m16.1308 12.7938-3.2867-1.068 2.0312-2.79562-.8441-.61341-2.0313 2.79583-2.03118-2.79578-.84422.61331 2.0312 2.79587-3.28656 1.0678.32241.9924 3.28665-1.0678v3.4557h1.0435v-3.4558l3.2865 1.0679z"/></g></g></svg>