<svg fill="none" height="24" viewBox="0 0 24 24" width="24" xmlns="http://www.w3.org/2000/svg" xmlns:xlink="http://www.w3.org/1999/xlink"><clipPath id="a"><path d="m0 0h24v24h-24z"/></clipPath><g clip-path="url(#a)"><path d="m12 24c6.6274 0 12-5.3726 12-12 0-6.62742-5.3726-12-12-12-6.62742 0-12 5.37258-12 12 0 6.6274 5.37258 12 12 12z" fill="#f0f0f0"/><path d="m23.8984 10.4347h-14.50704-.00005v-10.149544c-1.10897.245906-2.16033.644485-3.13045 1.173844v8.9756.0001h-6.159282c-.0667967.5124-.101578 1.0347-.101578 1.5652s.0347813 1.0529.101578 1.5652h6.159232.00005v8.9757c.97012.5293 2.02148.928 3.13045 1.1738v-10.1493-.0001h14.50709c.0667-.5124.1016-1.0348.1016-1.5653s-.0349-1.0528-.1016-1.5652z" fill="#0052b4"/></g></svg>