<svg fill="none" height="24" viewBox="0 0 24 24" width="24" xmlns="http://www.w3.org/2000/svg" xmlns:xlink="http://www.w3.org/1999/xlink"><clipPath id="a"><path d="m0 0h24v24h-24z"/></clipPath><g clip-path="url(#a)"><path d="m24 12c0 6.6274-5.3726 12-12 12-6.62738 0-12-5.3726-12-12 0 .0029 12-11.9986875 12-12 6.6274 0 12 5.37262 12 12z" fill="#338af3"/><path d="m12.0001 5.74023v4.04733l-4.17393-4.04733z" fill="#0052b4"/><path d="m6.26098 12.0018h3.52556l-3.52556-4.69565-.52172 3.65215z" fill="#0052b4"/><path d="m11.9678 12.0001h.0321c0-.0108 0-.0214 0-.0322-.0107.0107-.0214.0215-.0321.0322z" fill="#f0f0f0"/><path d="m12 6.26147c0-2.11148 0-3.495 0-6.26085965h-.002c-6.6265.001125-11.998 5.37322965-11.998 11.99998965h6.26086v-3.52551l3.52556 3.52551h2.18158c.0107-.0107.0214-.0214.0321-.0321 0-.8085 0-1.5298 0-2.18142l-3.52567-3.52561z" fill="#f0f0f0"/><path d="m6.07124 1.5658c-1.87683 1.0687-3.43711 2.62898-4.50581 4.50581v5.92899h3.13045v-7.30425-.0001h7.30432c0-.98733 0-1.92792 0-3.13045z" fill="#d80027"/><path d="m11.9998 10.5249-4.26339-4.26343h-1.47567v.0001l5.73896 5.73903h.0001s0-1.0176 0-1.4757z" fill="#d80027"/><path d="m13.5654 7.82718v4.17382c0 2.7956 3.6522 3.6522 3.6522 3.6522s3.6522-.8566 3.6522-3.6522v-4.17382l-3.6522-1.04349z" fill="#f3f3f3"/><path d="m20.8698 7.82631v-1.5652h-7.3044v1.5652h3.1304v3.13049h-3.1304v1.0434.0001h3.1304v3.4921c.3149.1114.5218.16.5218.16s.2068-.0485.5217-.16v-3.4921h3.1305v-.0001-1.0434h-3.1305v-3.13054h3.1305z" fill="#d80027"/></g></svg>