<svg fill="none" height="24" viewBox="0 0 24 24" width="24" xmlns="http://www.w3.org/2000/svg" xmlns:xlink="http://www.w3.org/1999/xlink"><clipPath id="a"><path d="m0 0h24v24h-24z"/></clipPath><g clip-path="url(#a)"><path d="m24 12c0 6.6274-5.3726 12-12 12-6.62738 0-12-5.3726-12-12 0 .0029 12-11.9986875 12-12 6.6274 0 12 5.37262 12 12z" fill="#0052b4"/><path d="m11.9678 12.0002h.0321c0-.0108 0-.0213 0-.0322-.0107.0108-.0214.0215-.0321.0322z" fill="#f0f0f0"/><path d="m12 6.26074c0-2.11149 0-3.495 0-6.26086207h-.002c-6.6265.001125-11.998 5.37323207-11.998 12.00002207h6.26086v-3.52554l3.52556 3.52554h2.18148l.0321-.0321c0-.8085 0-1.5298 0-2.18145l-3.52557-3.52561z" fill="#f0f0f0"/><path d="m6.07027 1.56494c-1.87683 1.0687-3.43711 2.62899-4.50582 4.50581v5.92895h3.13046v-7.30421-.0001h7.30439c0-.98732 0-1.92792 0-3.13045z" fill="#d80027"/><path d="m11.9989 10.5244-4.26346-4.26341h-1.47567v.00009l5.73903 5.73902h.0001s0-1.0175 0-1.4757z" fill="#d80027"/><path d="m19.3046 14.0863v.5217h-4.1739v-.5217h-1.5653v2.0869h1.0435v.5218h5.2174v-.5218h1.0435v-2.0869z" fill="#ffda44"/><path d="m13.5654 6.2616v5.7391c0 2.7956 3.6522 3.6522 3.6522 3.6522s3.6522-.8566 3.6522-3.6522v-5.7391z" fill="#338af3"/><g fill="#f3f3f3"><path d="m17.2174 10.5428c-.913 0-.913.8348-1.826.8348s-.913-.8348-1.826-.8348v1.4609c.913 0 .913.8348 1.826.8348s.913-.8348 1.826-.8348.913.8348 1.8262.8348c.9131 0 .913-.8348 1.8262-.8348v-1.4609c-.9131 0-.9131.8348-1.8262.8348-.9132 0-.9132-.8348-1.8262-.8348z"/><path d="m17.2174 7.61804c-.913 0-.913.8348-1.826.8348s-.913-.8348-1.826-.8348v1.46086c.913 0 .913.8348 1.826.8348s.913-.8348 1.826-.8348.913.8348 1.8262.8348c.9131 0 .913-.8348 1.8262-.8348v-1.46086c-.9131 0-.9131.8348-1.8262.8348-.9132 0-.9132-.8348-1.8262-.8348z"/></g></g></svg>