<svg fill="none" height="24" viewBox="0 0 24 24" width="24" xmlns="http://www.w3.org/2000/svg" xmlns:xlink="http://www.w3.org/1999/xlink"><clipPath id="a"><path d="m0 0h24v24h-24z"/></clipPath><g clip-path="url(#a)"><path d="m12 24c6.6274 0 12-5.3726 12-12 0-6.62742-5.3726-12-12-12-6.62742 0-12 5.37258-12 12 0 6.6274 5.37258 12 12 12z" fill="#338af3"/><g fill="#f0f0f0"><path d="m12.001 5.21741.518 1.59431h1.6764l-1.3562.98536.518 1.59426-1.3562-.98531-1.3562.98531.5181-1.59426-1.35626-.98536h1.67636z"/><path d="m5.21777 11.9997 1.59432-.5181v-1.67642l.98536 1.35632 1.59426-.5181-.98531 1.3563.98531 1.3561-1.59426-.5181-.98536 1.3562v-1.6763z"/><path d="m12.0011 18.7829-.518-1.5943h-1.67646l1.35626-.9853-.518-1.5943 1.3562.9853 1.3561-.9853-.518 1.5943 1.3562.9853h-1.6763z"/><path d="m18.7833 11.9995-1.5943.5181v1.6763l-.9854-1.3562-1.5942.518.9853-1.3562-.9853-1.3561 1.5942.5181.9854-1.35632v1.67642z"/></g></g></svg>