<svg fill="none" height="24" viewBox="0 0 24 24" width="24" xmlns="http://www.w3.org/2000/svg" xmlns:xlink="http://www.w3.org/1999/xlink"><clipPath id="a"><path d="m0 0h24v24h-24z"/></clipPath><g clip-path="url(#a)"><path d="m12 24c6.6274 0 12-5.3726 12-12 0-6.62742-5.3726-12-12-12-6.62742 0-12 5.37258-12 12 0 6.6274 5.37258 12 12 12z" fill="#f0f0f0"/><path d="m23.4781 12 .4199-1.5652c-.0697-.53349-.1743-1.05605-.3115-1.56521h-12.6302v-8.8239357c-.5325.0458438-1.05491.1268907-1.56519.2400467l-2.08697 1.279499-1.04348-.10533c-.54915.29963-1.07232.64088-1.56521 1.01958v6.39009h-4.282263c-.137203.50916-.241828 1.03172-.311578 1.56516l.419907 1.5653-.419954 1.5652c.06975.5335.174375 1.0561.311579 1.5652h4.282269v6.3901c.49289.3788 1.0161.72 1.5652 1.0196l1.5652-.1054 1.5652 1.2795c.51033.1132 1.03279.1942 1.56519.2401v-8.8238h12.6301c.1372-.5092.2418-1.0318.3116-1.5653z" fill="#0052b4"/><path d="m23.8984 10.4347h-14.50704-.00005v-10.149544c-1.10897.245906-2.16033.644485-3.13045 1.173844v8.9757h-6.159282c-.066703.5124-.101578 1.0347-.101578 1.5652s.034875 1.0529.101578 1.5652h6.159232.00005v8.9757c.97012.5293 2.02148.928 3.13045 1.1738v-10.1493-.0001h14.50709c.0667-.5124.1016-1.0348.1016-1.5653s-.0349-1.0528-.1016-1.5652z" fill="#d80027"/></g></svg>