<svg fill="none" height="24" viewBox="0 0 24 24" width="24" xmlns="http://www.w3.org/2000/svg" xmlns:xlink="http://www.w3.org/1999/xlink"><clipPath id="a"><path d="m0 0h24v24h-24z"/></clipPath><g clip-path="url(#a)"><path d="m23.2536 16.175c.4824-1.3.7464-2.7061.7464-4.1739 0-1.4679-.264-2.87389-.7464-4.17392l-11.2536-1.04349-11.253609 1.04349c-.482344 1.30003-.746391 2.70602-.746391 4.17392 0 1.4678.264047 2.8739.746391 4.1739l11.253609 1.0434z" fill="#ffda44"/><path d="m12.0007 23.9997c5.1596 0 9.5581-3.2565 11.2536-7.8261h-22.50723c1.69556 4.5696 6.09403 7.8261 11.25363 7.8261z" fill="#0052b4"/><path d="m12.0007.00073242c-5.1596 0-9.55807 3.25649758-11.25363 7.82610758h22.50723c-1.6955-4.56961-6.094-7.82610758-11.2536-7.82610758z" fill="#6da544"/></g></svg>