<svg fill="none" height="24" viewBox="0 0 24 24" width="24" xmlns="http://www.w3.org/2000/svg" xmlns:xlink="http://www.w3.org/1999/xlink"><clipPath id="a"><path d="m0 0h24v24h-24z"/></clipPath><g clip-path="url(#a)"><path d="m12 24c6.6274 0 12-5.3726 12-12 0-6.62742-5.3726-12-12-12-6.62742 0-12 5.37258-12 12 0 6.6274 5.37258 12 12 12z" fill="#f0f0f0"/><g fill="#0052b4"><path d="m2.48032 4.69299c-.94261 1.22639-1.653375 2.63991-2.067234 4.17549h6.242714z"/><path d="m23.5864 8.86855c-.4139-1.53553-1.1247-2.94904-2.0673-4.17543l-4.1753 4.17543z"/><path d="m.413086 15.1302c.413906 1.5356 1.124674 2.9491 2.067234 4.1754l4.17535-4.1754z"/><path d="m19.3053 2.47976c-1.2264-.94261-2.6398-1.653378-4.1754-2.067284v6.242674z"/><path d="m4.69336 21.5176c1.22639.9426 2.63991 1.6534 4.17544 2.0673v-6.2426z"/><path d="m8.86875.412476c-1.53553.413906-2.94905 1.124674-4.17539 2.067234l4.17539 4.17539z"/><path d="m15.1299 23.5849c1.5355-.4139 2.949-1.1247 4.1754-2.0672l-4.1754-4.1754z"/><path d="m17.3438 15.1302 4.1753 4.1755c.9426-1.2264 1.6534-2.6399 2.0673-4.1755z"/></g><path d="m23.8984 10.4348h-10.3331v-10.333222c-.5124-.066703-1.0348-.101578-1.5653-.101578-.5306 0-1.0529.034875-1.5652.101578v10.333122h-10.333222c-.066703.5124-.101578 1.0348-.101578 1.5653 0 .5306.034875 1.0529.101578 1.5652h10.333122v10.3332c.5124.0667 1.0347.1016 1.5653.1016.5305 0 1.0529-.0348 1.5652-.1016v-10.3331h10.3332c.0667-.5124.1016-1.0347.1016-1.5653 0-.5305-.0349-1.0529-.1016-1.5652z" fill="#d80027"/><path d="m15.1309 15.1313 5.3548 5.3548c.2463-.2462.4812-.5036.7053-.7704l-4.5844-4.5845h-1.4757z" fill="#d80027"/><path d="m8.86951 15.1312h-.0001l-5.35476 5.3548c.24619.2463.50358.4812.77039.7054l4.58447-4.5846z" fill="#d80027"/><path d="m8.86976 8.86911v-.00009l-5.35481-5.35486c-.24629.24619-.48122.50358-.70538.77039l4.58452 4.58452h1.47567z" fill="#d80027"/><path d="m15.1309 8.87017 5.3548-5.35491c-.2462-.24628-.5036-.48121-.7704-.70532l-4.5844 4.58451z" fill="#d80027"/></g></svg>