<svg fill="none" height="24" viewBox="0 0 24 24" width="24" xmlns="http://www.w3.org/2000/svg" xmlns:xlink="http://www.w3.org/1999/xlink"><clipPath id="a"><path d="m0 0h24v24h-24z"/></clipPath><g clip-path="url(#a)"><path d="m12 24c6.6274 0 12-5.3726 12-12 0-6.62742-5.3726-12-12-12-6.62742 0-12 5.37258-12 12 0 6.6274 5.37258 12 12 12z" fill="#ffda44"/><path d="m5.23633 2.08691c1.92586-1.316533 4.25451-2.08697104 6.76347-2.08697104 2.5089 0 4.8376.77043804 6.7634 2.08697104l-6.7634.52172z" fill="#a2001d"/><path d="m12.0004 11.9995-.7658-.7659-.2034.3643z" fill="#0052b4"/><path d="m3.51471 3.51514c-4.68628 4.68628-4.68628 12.28426 0 16.97066 1.93655-1.9366 3.79904-3.7991 8.48529-8.4854z" fill="#496e2d"/><path d="m20.4853 3.51587c4.6863 4.68628 4.6863 12.28433 0 16.97063-1.9365-1.9366-3.799-3.799-8.4853-8.4853z" fill="#496e2d"/><path d="m12.0001 16.1741c2.3051 0 4.1739-1.8687 4.1739-4.1739 0-2.30519-1.8688-4.17391-4.1739-4.17391-2.30521 0-4.17393 1.86872-4.17393 4.17391 0 2.3052 1.86872 4.1739 4.17393 4.1739z" fill="#a2001d"/><path d="m11.9996 7.82642.9356 2.87948h3.0281l-2.4496 1.78.9355 2.8796-2.4496-1.7796-2.44964 1.7796.93574-2.8796-2.44957-1.78h3.02787z" fill="#ffda44"/><path d="m12.0043-.00006104h-.008c-3.31186.00107813-6.31003 1.34372104-8.48068 3.51412104h16.96938c-2.1707-2.1704-5.1689-3.51304291-8.4807-3.51412104z" fill="#a2001d"/><path d="m3.51562 20.4857c2.17154 2.1712 5.17126 3.5141 8.48458 3.5141 3.3134 0 6.3131-1.3429 8.4846-3.5141z" fill="#a2001d"/><g fill="#ffda44"><path d="m12.0006 1.3042.1943.59784h.6286l-.5085.36952.1943.59784-.5087-.36947-.5085.36947.1943-.59784-.5087-.36952h.6286z"/><path d="m9.09047 1.3042.1943.59784h.62859l-.50855.36952.1943.59784-.50864-.36947-.5085.36947.19425-.59784-.50864-.36952h.62859z"/><path d="m14.9098 1.3042.1943.59784h.6286l-.5086.36952.1943.59784-.5086-.36947-.5085.36947.1943-.59784-.5087-.36952h.6286z"/><path d="m12.0006 21.1298.1943.5978h.6286l-.5085.3695.1943.5979-.5087-.3696-.5085.3696.1943-.5979-.5087-.3695h.6286z"/><path d="m9.09047 21.1298.1943.5978h.62859l-.50855.3695.1943.5979-.50864-.3696-.5085.3696.19425-.5979-.50864-.3695h.62859z"/><path d="m14.9098 21.1298.1943.5978h.6286l-.5086.3695.1943.5979-.5086-.3696-.5085.3696.1943-.5979-.5087-.3695h.6286z"/><path d="m3.65664 11.8019c.3082.487.16336 1.1316-.32363 1.4398-.48694.3083-1.13156.1634-1.43981-.3235-.55805-.8817-.23447-2.3215-.23447-2.3215s1.43981.3236 1.99791 1.2052z"/></g><path d="m3.05395 13.3225c.28814 0 .52172-.2336.52172-.5217 0-.2882-.23358-.5217-.52172-.5217s-.52172.2335-.52172.5217c0 .2881.23358.5217.52172.5217z" fill="#a2001d"/></g></svg>