<svg fill="none" height="24" viewBox="0 0 24 24" width="24" xmlns="http://www.w3.org/2000/svg" xmlns:xlink="http://www.w3.org/1999/xlink"><clipPath id="a"><path d="m0 0h24v24h-24z"/></clipPath><g clip-path="url(#a)"><path d="m12 24c6.6274 0 12-5.3726 12-12 0-6.62742-5.3726-12-12-12-6.62742 0-12 5.37258-12 12 0 6.6274 5.37258 12 12 12z" fill="#f0f0f0"/><path d="m23.8984 10.4348h-10.3331v-10.333222c-.5124-.066703-1.0348-.101578-1.5653-.101578s-1.0529.034875-1.5652.101578v10.333222h-10.333222c-.066703.5123-.101578 1.0347-.101578 1.5652s.034875 1.0529.101578 1.5652h10.333122v10.3332c.5124.0667 1.0348.1016 1.5653.1016s1.0529-.0348 1.5652-.1016v-10.3331h10.3332c.0667-.5124.1016-1.0348.1016-1.5653s-.0349-1.0529-.1016-1.5652z" fill="#d80027"/><path d="m15.3914 12.5219.7826.5218v-2.087l-.7826.5218h-2.8696v-2.86963l.5217-.78258h-2.0869l.5217.78258v2.86963h-2.86955l-.78258-.5218v2.087l.78258-.5218h2.86955v2.8696l-.5217.7826h2.0869l-.5217-.7826v-2.8696z" fill="#ffda44"/></g></svg>