<svg fill="none" height="24" viewBox="0 0 24 24" width="24" xmlns="http://www.w3.org/2000/svg" xmlns:xlink="http://www.w3.org/1999/xlink"><clipPath id="a"><path d="m0 0h24v24h-24z"/></clipPath><g clip-path="url(#a)"><path d="m0 11.9991c0 1.4679.264047 2.8739.746391 4.1739l11.253609.5218 11.2536-.5217c.4824-1.3001.7464-2.7061.7464-4.174 0-1.4678-.264-2.87388-.7464-4.17387l-11.2536-.52176-11.253609.52172c-.482344 1.30003-.746391 2.70611-.746391 4.17391z" fill="#ffda44"/><path d="m11.9997-.00097656c-5.15958 0-9.55809 3.25649656-11.253606 7.82610656h22.507306c-1.6956-4.56961-6.0941-7.82610656-11.2537-7.82610656z" fill="#d80027"/><path d="m23.2533 16.1741h-22.507206c1.695516 4.5695 6.094036 7.8261 11.253606 7.8261 5.1596 0 9.5581-3.2566 11.2536-7.8261z" fill="#496e2d"/><path d="m12 7.82629 1.0359 3.18841h3.3529l-2.7124 1.9708 1.036 3.1886-2.7124-1.9706-2.71247 1.9706 1.03617-3.1886-2.71237-1.9708h3.35267z" fill="#000"/></g></svg>