<svg fill="none" height="24" viewBox="0 0 24 24" width="24" xmlns="http://www.w3.org/2000/svg" xmlns:xlink="http://www.w3.org/1999/xlink"><clipPath id="a"><path d="m0 0h24v24h-24z"/></clipPath><g clip-path="url(#a)"><path d="m12 24c6.6274 0 12-5.3726 12-12 0-6.62742-5.3726-12-12-12-6.62742 0-12 5.37258-12 12 0 6.6274 5.37258 12 12 12z" fill="#f9f9f9"/><path d="m11.9997 24.0007c5.1596 0 9.5581-3.2565 11.2536-7.8261h-22.507206c1.695566 4.5696 6.094026 7.8261 11.253606 7.8261z" fill="#d80027"/><path d="m16.6955 9.91359v-1.5652h.5218v-1.04348h-1.0435v.52176h-1.0435v-.52176h-1.0434v1.04348h.5217v1.5652h-1.0435v-3.65207h.5218v-1.04344h-1.0435v.52162h-.5218v-.52162h-1.0434v.52162h-.5218v-.52162h-1.04348v1.04344h.52178v3.65207h-1.0435v-1.5652h.52172v-1.04348h-1.04349v.52176h-1.04344v-.52176h-1.04348v1.04348h.52172v1.5652h-1.04349v4.17391h11.47826v-4.17391z" fill="#d80027"/><path d="m12 13.5651c-.8644 0-1.5652.7008-1.5652 1.5652 0 .6814.4357 1.261 1.0435 1.4758v2.1765h-1.56521v2.0869h2.60871v-4.2633c.6078-.2149 1.0435-.7944 1.0435-1.4758-.0001-.8644-.7009-1.5653-1.5653-1.5653zm0 2.087c-.2881 0-.5217-.2336-.5217-.5217 0-.2882.2336-.5217.5217-.5217s.5217.2335.5217.5217c0 .2881-.2336.5217-.5217.5217z" fill="#ffda44"/></g></svg>