<svg fill="none" height="24" viewBox="0 0 24 24" width="24" xmlns="http://www.w3.org/2000/svg" xmlns:xlink="http://www.w3.org/1999/xlink"><clipPath id="a"><path d="m0 0h24v24h-24z"/></clipPath><g clip-path="url(#a)"><path d="m0 12c0-6.62738 5.37262-12 12-12 6.6274 0 12 5.37262 12 12-.5217 0-12 1.5652-12 1.5652z" fill="#f0f0f0"/><path d="m24 12.0004c0 6.6274-5.3726 12-12 12-6.62738 0-12-5.3726-12-12" fill="#d80027"/><path d="m8.34754 17.7397c3.16966 0 5.73916-2.5695 5.73916-5.7391 0-3.16969-2.5695-5.73919-5.73916-5.73919-3.16964 0-5.73914 2.5695-5.73914 5.73919 0 3.1696 2.5695 5.7391 5.73914 5.7391z" fill="#f0f0f0"/><path d="m2.6084 12.0006c0-3.16959 2.5695-5.73919 5.73914-5.73919 3.16966 0 5.73916 2.56955 5.73916 5.73919" fill="#d80027"/></g></svg>