<svg fill="none" height="24" viewBox="0 0 24 24" width="24" xmlns="http://www.w3.org/2000/svg" xmlns:xlink="http://www.w3.org/1999/xlink"><clipPath id="a"><path d="m0 0h24v24h-24z"/></clipPath><g clip-path="url(#a)"><path d="m12 24c6.6274 0 12-5.3726 12-12 0-6.62742-5.3726-12-12-12-6.62742 0-12 5.37258-12 12 0 6.6274 5.37258 12 12 12z" fill="#f0f0f0"/><path d="m12.0003.00079346c-4.96103 0-9.21859 3.01059654-11.046198 7.30434654h22.092398c-1.8276-4.29375-6.0852-7.30434654-11.0462-7.30434654z" fill="#a2001d"/><path d="m12.0003 24.0007c4.961 0 9.2186-3.0106 11.0462-7.3043h-22.092398c1.827608 4.2937 6.085168 7.3043 11.046198 7.3043z" fill="#496e2d"/><path d="m23.5866 8.86963h-23.173209c-.269016.99811-.413391 2.04727-.413391 3.13047 0 1.0831.144375 2.1323.413391 3.1304h23.173309c.2689-.9981.4133-2.0473.4133-3.1304 0-1.0832-.1444-2.13236-.4134-3.13047z" fill="#0052b4"/></g></svg>