<svg fill="none" height="24" viewBox="0 0 24 24" width="24" xmlns="http://www.w3.org/2000/svg" xmlns:xlink="http://www.w3.org/1999/xlink"><clipPath id="a"><path d="m0 0h24v24h-24z"/></clipPath><g clip-path="url(#a)"><path d="m16.1743.746315c-1.3001-.48239-2.7062-.74643707-4.1741-.74643707-1.4677 0-2.87381.26404707-4.17375.74634407l-.52176 11.253678.52172 11.2536c1.29998.4824 2.70609.7464 4.17379.7464 1.468 0 2.874-.264 4.1741-.7465l.5217-11.2535z" fill="#ffda44"/><path d="m0 12.0004c0 5.1595 3.2565 9.5581 7.82611 11.2535v-22.507196c-4.56961 1.695566-7.82611 6.094026-7.82611 11.253696z" fill="#d80027"/><path d="m23.9999 12.0004c0-5.15967-3.2565-9.55813-7.8261-11.253696v22.507296c4.5696-1.6955 7.8261-6.0941 7.8261-11.2536z" fill="#6da544"/></g></svg>