<svg fill="none" height="24" viewBox="0 0 24 24" width="24" xmlns="http://www.w3.org/2000/svg" xmlns:xlink="http://www.w3.org/1999/xlink"><clipPath id="a"><path d="m0 0h24v24h-24z"/></clipPath><g clip-path="url(#a)"><path d="m12 24c6.6274 0 12-5.3726 12-12 0-6.62742-5.3726-12-12-12-6.62742 0-12 5.37258-12 12 0 6.6274 5.37258 12 12 12z" fill="#f0f0f0"/><path d="m7.30486 7.82574h15.94924c-1.6955-4.56961-6.0941-7.82610621-11.2536-7.82610621-3.31377 0-6.31344 1.34338621-8.48488 3.51510621z" fill="#6da544"/><path d="m7.30486 16.1742h15.94924c-1.6955 4.5696-6.0941 7.8261-11.2536 7.8261-3.31377 0-6.31344-1.3434-8.48488-3.5151z" fill="#d80027"/><path d="m3.51471 3.5155c-4.68628 4.68628-4.68628 12.2843 0 16.9706 1.93655-1.9365 3.79904-3.799 8.48529-8.4853z" fill="#0052b4"/><path d="m14.0869 9.91272v2.60868c0 1.5975 2.087 2.087 2.087 2.087s2.087-.4895 2.087-2.087v-2.60868z" fill="#dedde0"/><path d="m16.6958 12.0524h-1.0435v1.513h1.0435z" fill="#786145"/><path d="m17.2171 11.4788c0-.5763-.4672-1.0435-1.0435-1.0435s-1.0435.4672-1.0435 1.0435c-.2881 0-.5217.2336-.5217.5217 0 .2882.2336.5217.5217.5217h2.087c.2881 0 .5217-.2335.5217-.5217 0-.2881-.2335-.5217-.5217-.5217z" fill="#6da544"/></g></svg>