<svg fill="none" height="24" viewBox="0 0 24 24" width="24" xmlns="http://www.w3.org/2000/svg" xmlns:xlink="http://www.w3.org/1999/xlink"><clipPath id="a"><path d="m0 0h24v24h-24z"/></clipPath><g clip-path="url(#a)"><path d="m12 24c6.6274 0 12-5.3726 12-12 0-6.62742-5.3726-12-12-12-6.62742 0-12 5.37258-12 12 0 6.6274 5.37258 12 12 12z" fill="#f0f0f0"/><g fill="#338af3"><path d="m12 8.87002h11.5866c-.3009-1.11629-.7582-2.16821-1.3479-3.13046h-10.2387z"/><path d="m4.53058 21.3914h14.93962c1.0952-.8723 2.0344-1.9317 2.7689-3.1305h-20.47738c.73458 1.1987 1.67376 2.2582 2.76886 3.1305z"/><path d="m4.17433 2.90375c-.94341.81239-1.75899 1.76906-2.41261 2.83575h2.41261z"/><path d="m12 12c0-1.2224 0-2.24531 0-3.13049h-4.69566v3.13049h-3.13045v-3.13049h-3.760499c-.269016.99815-.413391 2.04729-.413391 3.13049 0 1.0831.144375 2.1323.413391 3.1304h23.173309c.2689-.9981.4133-2.0473.4133-3.1304z"/><path d="m12.0003.00067139c-1.6663 0-3.25327.33998461-4.69561.95381261v4.785326h4.69561c0-1.09275 0-2.02214 0-3.13045h7.4699c-2.0499-1.632564-4.6457-2.60868861-7.4699-2.60868861z"/></g></g></svg>