<svg fill="none" height="24" viewBox="0 0 24 24" width="24" xmlns="http://www.w3.org/2000/svg" xmlns:xlink="http://www.w3.org/1999/xlink"><clipPath id="a"><path d="m0 0h24v24h-24z"/></clipPath><g clip-path="url(#a)"><path d="m12 24c6.6274 0 12-5.3726 12-12 0-6.62742-5.3726-12-12-12-6.62742 0-12 5.37258-12 12 0 6.6274 5.37258 12 12 12z" fill="#f0f0f0"/><path d="m23.9994 12.0002c0-4.75753-2.7687-8.86828-6.7826-10.80928v21.61848c4.0139-1.9409 6.7826-6.0517 6.7826-10.8092z" fill="#338af3"/><path d="m0 12.0001c0 4.7575 2.76867 8.8683 6.78262 10.8093v-21.6186c-4.01395 1.941-6.78262 6.05175-6.78262 10.8093z" fill="#338af3"/><path d="m15.135 14.0284-2.029-2.029 1.9314-1.9315-.0875-1.02012-.553-.55303-2.3977 2.39775-2.39778-2.39775-.55294.55303-.08751 1.02012 1.93143 1.9315-2.02912 2.029 1.10681 1.1067 2.02911-2.029 2.029 2.029z" fill="#acabb1"/><path d="m14.9515 9.04895-1.1068 1.10675c.4721.4721.7641 1.1243.7641 1.8446 0 1.4408-1.168 2.6087-2.6087 2.6087s-2.60872-1.1679-2.60872-2.6087c0-.7203.29203-1.3725.76412-1.8446l-1.10678-1.10675c-.75539.75525-1.22255 1.79875-1.22255 2.95135 0 2.3053 1.86872 4.1739 4.17393 4.1739 2.3051 0 4.1739-1.8687 4.1739-4.1739 0-1.1526-.4672-2.19605-1.2225-2.95135z" fill="#6da544"/></g></svg>