<svg fill="none" height="24" viewBox="0 0 24 24" width="24" xmlns="http://www.w3.org/2000/svg" xmlns:xlink="http://www.w3.org/1999/xlink"><clipPath id="a"><path d="m0 0h24v24h-24z"/></clipPath><g clip-path="url(#a)"><path d="m5.23633 21.9123c1.92581 1.3165 4.25456 2.0869 6.76347 2.0869 2.5089 0 4.8376-.7704 6.7634-2.0869l-6.7634-1.0435z" fill="#d80027"/><path d="m18.7642 2.08685c-1.9259-1.316488-4.2546-2.08697207-6.7634-2.08697207-2.50893 0-4.83768.77048407-6.7635 2.08697207l6.7635 1.04348z" fill="#d80027"/><path d="m24 12.0004c0-3.97075-2.3773-7.9584-5.2365-9.913h-13.52695c-3.16139 2.16113-5.23655 5.7946-5.23655 9.913 0 4.1186 2.07516 7.7519 5.23655 9.9131h13.52695c3.1614-2.1612 5.2365-5.7945 5.2365-9.9131z" fill="#0052b4"/><path d="m11.3213 19.5748c-.164-.1406-4.01661-3.4897-4.01661-7.5748 0-4.08514 3.85261-7.43431 4.01661-7.57489l.679-.58209.6791.58204c.164.14063 4.0166 3.48975 4.0166 7.57494 0 4.0851-3.8526 7.4343-4.0166 7.5748l-.6791.5821z" fill="#d80027"/><path d="m15.652 12c0-3.65214-3.6522-6.78259-3.6522-6.78259s-3.65214 3.13054-3.65214 6.78259c0 1.1173.34204 2.1855.81651 3.1305h5.67133c.4745-.945.8165-2.0132.8165-3.1305z" fill="#338af3"/><path d="m15.652 12.0005c0 1.1173-.342 2.1855-.8165 3.1304l-2.8357.5218-2.83563-.5218c-.47447-.9449-.81651-2.0131-.81651-3.1304z" fill="#0052b4"/><path d="m11.9997 18.7824s1.7591-1.5083 2.8357-3.6522h-5.67134c1.07654 2.1439 2.83564 3.6522 2.83564 3.6522z" fill="#ffda44"/><path d="m9.65137 9.9126h4.69563l-2.3478 2.3478z" fill="#6da544"/><path d="m12.783 11.4773h-1.5652v4.6957h1.5652z" fill="#a2001d"/></g></svg>