<svg fill="none" height="24" viewBox="0 0 24 24" width="24" xmlns="http://www.w3.org/2000/svg" xmlns:xlink="http://www.w3.org/1999/xlink"><clipPath id="a"><path d="m0 0h24v24h-24z"/></clipPath><g clip-path="url(#a)"><path d="m12.0001-.00012207c-1.0831 0-2.13238.14437507-3.13049.41339107l-1.04344 11.586631 1.04349 11.5866c.99806.269 2.04734.4134 3.13044.4134 6.6273 0 12-5.3726 12-12s-5.3727-12.00002207-12-12.00002207z" fill="#ffda44"/><path d="m7.82617 12.0005 1.04349 11.5866c.99806.269 2.04734.4134 3.13044.4134 6.6273 0 12-5.3726 12-12z" fill="#6da544"/><path d="m0 11.9994c0 4.5485 2.53078 8.5057 6.26086 10.5409v-21.0818c-3.73008 2.03522-6.26086 5.9924-6.26086 10.5409z" fill="#d80027"/><path d="m0 11.9995c0 5.5443 3.76036 10.2096 8.86955 11.5866v-23.173258c-5.10919 1.376998-8.86955 6.042278-8.86955 11.586658z" fill="#d80027"/><path d="m4.53468 8.86841.77695 2.39139h2.51466l-2.03428 1.478.7769 2.3915-2.03423-1.478-2.03433 1.478.7771-2.3915-2.03429-1.478h2.51452z" fill="#000"/></g></svg>