<svg fill="none" height="24" viewBox="0 0 24 24" width="24" xmlns="http://www.w3.org/2000/svg" xmlns:xlink="http://www.w3.org/1999/xlink"><clipPath id="a"><path d="m0 0h24v24h-24z"/></clipPath><g clip-path="url(#a)"><path d="m12 24c6.6274 0 12-5.3726 12-12 0-6.62742-5.3726-12-12-12-6.62742 0-12 5.37258-12 12 0 6.6274 5.37258 12 12 12z" fill="#f0f0f0"/><path d="m11.9997-.00097656c-2.12157 0-4.11414.55134356-5.84345 1.51743656v20.96514c1.72936.9661 3.72188 1.5174 5.84345 1.5174 6.6274 0 12-5.3726 12-12 0-6.62735-5.3726-11.99997656-12-11.99997656z" fill="#6da544"/><path d="m6.19178 1.49817c-.75492.41836-1.45983.91561-2.10384 1.48092.06511-.05709.13087-.11353.19715-.16922l9.19051 9.19063-9.19055 9.1906c-.06633-.0557-.13205-.1122-.19716-.1693.64402.5654 1.34897 1.0626 2.10384 1.481l17.80827-10.5023z" fill="#f0f0f0"/><path d="m5.17837 2.12695c-.36596.25341-.71742.52608-1.05235.8175l7.87408 9.05525-7.87412 9.0552c.33492.2914.68639.5641 1.05234.8175l16.76758-9.8727z" fill="#ffda44"/><path d="m4.28504 2.80981c-.26677.22416-.5242.45915-.77039.70529l7.44185 8.4853-7.44185 8.4853c.24619.2462.50358.4812.77039.7053l9.19056-9.1906z" fill="#000"/><path d="m3.51471 3.51428c-4.68628 4.68628-4.68628 12.28432 0 16.97062 1.93655-1.9365 3.79904-3.799 8.48529-8.4853z" fill="#d80027"/></g></svg>