<svg fill="none" height="24" viewBox="0 0 24 24" width="24" xmlns="http://www.w3.org/2000/svg" xmlns:xlink="http://www.w3.org/1999/xlink"><clipPath id="a"><path d="m0 0h24v24h-24z"/></clipPath><g clip-path="url(#a)"><path d="m12 24c6.6274 0 12-5.3726 12-12 0-6.62742-5.3726-12-12-12-6.62742 0-12 5.37258-12 12 0 6.6274 5.37258 12 12 12z" fill="#d80027"/><g fill="#f0f0f0"><path d="m13.2387 9.07752c-.2727 1.13428-.7572.918-.995 1.90728-1.4008-.3368-2.26349-1.74542-1.9267-3.14628.3367-1.40077 1.7454-2.26346 3.1462-1.92666-.4756 1.97845.0195 2.15114-.2245 3.16566z"/><path d="m9.60395 9.91749c.99455.60981.63905 1.00391 1.50635 1.53581-.7532 1.2282-2.35938 1.6132-3.5876.8601-1.22817-.7531-1.61334-2.3594-.86015-3.58757 1.73465 1.06369 2.05176.64617 2.9414 1.19166z"/><path d="m9.27946 13.6349c.88734-.7574 1.15214-.2976 1.92604-.958.9354 1.0958.8053 2.7424-.2905 3.6778-1.09582.9354-2.74245.8051-3.6777-.2906 1.54753-1.3211 1.24843-1.7518 2.04216-2.4292z"/><path d="m12.7145 15.0914c-.4462-1.0779.073-1.1878-.3161-2.1278 1.3312-.5509 2.8571.0816 3.4081 1.4128.5509 1.3312-.0817 2.857-1.4129 3.408-.778-1.8801-1.28-1.7287-1.6791-2.693z"/><path d="m15.1618 12.2739c-1.1631.0913-1.1073-.4365-2.1215-.3569-.1126-1.4362.9606-2.69205 2.3969-2.80478 1.4362-.11246 2.692.96058 2.8046 2.39698-2.0286.159-2.0398.6832-3.08.7647z"/></g></g></svg>