<svg fill="none" height="24" viewBox="0 0 24 24" width="24" xmlns="http://www.w3.org/2000/svg" xmlns:xlink="http://www.w3.org/1999/xlink"><clipPath id="a"><path d="m0 0h24v24h-24z"/></clipPath><g clip-path="url(#a)"><path d="m12 24c6.6274 0 12-5.3726 12-12 0-6.62742-5.3726-12-12-12-6.62742 0-12 5.37258-12 12 0 6.6274 5.37258 12 12 12z" fill="#f0f0f0"/><g fill="#338af3"><path d="m11.9997 23.9987c4.7575 0 8.8683-2.7687 10.8093-6.7826h-21.61857c1.941 4.0139 6.05175 6.7826 10.80927 6.7826z"/><path d="m12.0007-.00097656c-4.75754 0-8.86829 2.76867656-10.80929 6.78262656h21.61849c-1.9409-4.01395-6.0517-6.78262656-10.8092-6.78262656z"/><path d="m7.38504 7.82446.3885 1.19574h1.25723l-1.01709.73893.38855 1.19577-1.01719-.739-1.01719.739.38855-1.19577-1.01714-.73893h1.25723z"/><path d="m7.38504 13.0425.3885 1.1958h1.25723l-1.01709.7389.38855 1.1957-1.01719-.739-1.01719.739.38855-1.1957-1.01714-.7389h1.25723z"/><path d="m16.6145 7.82446.3886 1.19574h1.2572l-1.0171.73893.3885 1.19577-1.0172-.739-1.0172.739.3886-1.19577-1.0171-.73893h1.2572z"/><path d="m16.6145 13.0425.3886 1.1958h1.2572l-1.0171.7389.3885 1.1957-1.0172-.739-1.0172.739.3886-1.1957-1.0171-.7389h1.2572z"/><path d="m11.9993 10.4333.3885 1.1958h1.2573l-1.0172.739.3886 1.1957-1.0172-.739-1.0172.739.3886-1.1957-1.0172-.739h1.2572z"/></g></g></svg>