<svg fill="none" height="24" viewBox="0 0 24 24" width="24" xmlns="http://www.w3.org/2000/svg" xmlns:xlink="http://www.w3.org/1999/xlink"><clipPath id="a"><path d="m0 0h24v24h-24z"/></clipPath><g clip-path="url(#a)"><path d="m24 12c0-1.4679-.264-2.87398-.7464-4.17391l-11.2536-.52177-11.253609.52172c-.482344 1.29998-.746391 2.70606-.746391 4.17396 0 1.4678.264047 2.8739.746391 4.1739l11.253609.5217 11.2536-.5217c.4824-1.3.7464-2.7061.7464-4.1739z" fill="#f0f0f0"/><path d="m11.9997 23.9995c5.1596 0 9.5581-3.2565 11.2536-7.8262h-22.507206c1.695516 4.5697 6.094036 7.8262 11.253606 7.8262z" fill="#0052b4"/><path d="m.746094 7.82666h22.507306c-1.6956-4.56961-6.0941-7.82611068-11.2537-7.82611068-5.15958 0-9.55809 3.25650068-11.253606 7.82611068z" fill="#d80027"/><path d="m15.1309 8.34753h-2.087l.3479-2.60873 1.3913-1.04349 1.3912 1.04349v2.08696z" fill="#338af3"/><path d="m8.86961 8.34802h2.08699l-.3479-2.60874-1.39128-1.04348-1.39125 1.04348v2.08697z" fill="#338af3"/><path d="m13.3911 8.34777h-2.7827v-2.60873l1.3913-1.04348 1.3914 1.04348z" fill="#0052b4"/><path d="m7.82617 7.82574v5.73906c0 1.3666.6601 2.5819 1.67822 3.3437l.73041-.1827.9218.9272c.2726.0562.5546.0858.8435.0858.2874 0 .568-.0292.8391-.0848l1.0522-.8761.6043.1289c1.0177-.7618 1.6783-1.9758 1.6783-3.342v-5.73906z" fill="#f0f0f0"/><g fill="#d80027"><path d="m9.49572 7.82593h-1.66955v1.66955h1.66955z"/><path d="m12.8346 7.82593h-1.6696v1.66955h1.6696z"/><path d="m16.1744 7.82593h-1.6695v1.66955h1.6695z"/><path d="m11.1647 9.495h-1.66958v1.6695h1.66958z"/><path d="m14.5045 9.495h-1.6695v1.6695h1.6695z"/><path d="m9.49572 11.1638h-1.66955v1.6696h1.66955z"/><path d="m11.1647 12.8347h-1.66958v1.6695h1.66958z"/><path d="m12.8346 11.1638h-1.6696v1.6696h1.6696z"/><path d="m16.1744 11.1638h-1.6695v1.6696h1.6695z"/><path d="m14.5045 12.8347h-1.6695v1.6695h1.6695z"/><path d="m12.8346 14.5039h-1.6696v1.6695h1.6696z"/><path d="m9.49542 14.5039h-1.56183c.14325.6206.42488 1.1885.81103 1.6695h.7508z"/><path d="m14.5049 16.1736h.7507c.3863-.481.6678-1.0489.8111-1.6695h-1.5618z"/><path d="m9.49512 16.1732v.7284c.48557.3654 1.05308.6274 1.66958.7531v-1.4815z"/><path d="m12.835 16.1732v1.4815c.6165-.1256 1.1839-.3877 1.6695-.7531v-.7284z"/></g></g></svg>