<svg fill="none" height="24" viewBox="0 0 24 24" width="24" xmlns="http://www.w3.org/2000/svg" xmlns:xlink="http://www.w3.org/1999/xlink"><clipPath id="a"><path d="m0 0h24v24h-24z"/></clipPath><g clip-path="url(#a)"><path d="m24 12c0 6.6274-5.3726 12-12 12-6.62738 0-12-5.3726-12-12 0-6.62738 12-12 12-12s12 5.37262 12 12z" fill="#a2001d"/><path d="m0 12c0-6.62738 5.37262-12 12-12 6.6274 0 12 5.37262 12 12" fill="#0052b4"/><path d="m16.174 15.1305-4.1739-.5217-4.17393.5217v-6.26087h8.34783z" fill="#f0f0f0"/><path d="m12.0001 14.6083c1.1526 0 2.0869-.9344 2.0869-2.087s-.9343-2.087-2.0869-2.087-2.08701.9344-2.08701 2.087.93441 2.087 2.08701 2.087z" fill="#0052b4"/><path d="m12.0005 13.5651c.5763 0 1.0435-.4672 1.0435-1.0435s-.4672-1.0435-1.0435-1.0435-1.0435.4672-1.0435 1.0435.4672 1.0435 1.0435 1.0435z" fill="#a2001d"/><path d="m10.4346 9.91333h3.1304l-1.5652 1.56527z" fill="#6da544"/><path d="m12.522 10.9556h-1.0435v3.1304h1.0435z" fill="#ffda44"/><path d="m13.6696 13.7745h-3.3392l-2.50423 1.3566h8.34783z" fill="#6da544"/></g></svg>