<svg fill="none" height="24" viewBox="0 0 24 24" width="24" xmlns="http://www.w3.org/2000/svg" xmlns:xlink="http://www.w3.org/1999/xlink"><clipPath id="a"><path d="m0 0h24v24h-24z"/></clipPath><g clip-path="url(#a)"><path d="m.746391 7.82522c-.482344 1.30003-.746391 2.70608-.746391 4.17388 0 1.4679.264047 2.874.746391 4.1739l11.253609 1.0435 11.2536-1.0435c.4824-1.2999.7464-2.706.7464-4.1739 0-1.4678-.264-2.87385-.7464-4.17388l-11.2536-1.04348z" fill="#f0f0f0"/><path d="m12.0006-.00097656c-5.1595 0-9.55806 3.25649656-11.25353 7.82610656h22.50723c-1.6956-4.56961-6.094-7.82610656-11.2537-7.82610656z" fill="#d80027"/><path d="m12.0006 23.9993c5.1597 0 9.5581-3.2565 11.2537-7.8261h-22.50723c1.69547 4.5696 6.09403 7.8261 11.25353 7.8261z" fill="#6da544"/></g></svg>