<svg fill="none" height="24" viewBox="0 0 24 24" width="24" xmlns="http://www.w3.org/2000/svg" xmlns:xlink="http://www.w3.org/1999/xlink"><clipPath id="a"><path d="m0 0h24v24h-24z"/></clipPath><g clip-path="url(#a)"><path d="m12 24c6.6274 0 12-5.3726 12-12 0-6.62742-5.3726-12-12-12-6.62742 0-12 5.37258-12 12 0 6.6274 5.37258 12 12 12z" fill="#f0f0f0"/><g fill="#0052b4"><path d="m16.5173 9.39207h-3.0123l-1.5061-2.60868-1.5061 2.60868h-3.01233l1.50628 2.60873-1.50628 2.6086h3.01233l1.5061 2.6087 1.5061-2.6087h3.0123l-1.5063-2.6086zm-2.668 2.60873-.9251 1.6025h-1.8504l-.9253-1.6025.9252-1.6026h1.8504zm-1.8504-3.20521.3443.59644h-.6886zm-2.77566 1.60261h.68868l-.34434.5964zm0 3.2051.34439-.5964.34434.5964zm2.77566 1.6026-.3443-.5965h.6886zm2.7757-1.6026h-.6887l.3444-.5964zm-.6887-3.2051h.6887l-.3444.5964z"/><path d="m19.4693 2.60907h-14.9397c-1.09514.87225-2.03433 1.93172-2.76886 3.13045h20.47746c-.7346-1.19868-1.6738-2.2582-2.7689-3.13045z"/><path d="m4.5296 21.3914h14.9397c1.0951-.8723 2.0343-1.9317 2.7688-3.1305h-20.47736c.73458 1.1987 1.67377 2.2582 2.76886 3.1305z"/></g></g></svg>