<svg fill="none" height="24" viewBox="0 0 24 24" width="24" xmlns="http://www.w3.org/2000/svg" xmlns:xlink="http://www.w3.org/1999/xlink"><clipPath id="a"><path d="m0 0h24v24h-24z"/></clipPath><g clip-path="url(#a)"><path d="m12 24c6.6274 0 12-5.3726 12-12 0-6.62742-5.3726-12-12-12-6.62742 0-12 5.37258-12 12 0 6.6274 5.37258 12 12 12z" fill="#d80027"/><path d="m16.4437 8.04392-.8482 3.02678-2.5448-.4699-1.6381-3.37668-4.42533 1.57036-.34899-.98344-1.15781-.14264.87239 2.4585 3.04542-.77878.86542 2.43888-2.10522 3.1069 3.57272 3.0472-.6772.7939.4553 1.0741 1.6931-1.9849-2.1972-2.2479 1.6793-1.9689 3.7434.2697.8526-4.61767 1.0261.18952.7027-.93141z" fill="#f0f0f0"/></g></svg>