<svg fill="none" height="24" viewBox="0 0 24 24" width="24" xmlns="http://www.w3.org/2000/svg" xmlns:xlink="http://www.w3.org/1999/xlink"><clipPath id="a"><path d="m0 0h24v24h-24z"/></clipPath><g clip-path="url(#a)"><path d="m12 24c6.6274 0 12-5.3726 12-12 0-6.62742-5.3726-12-12-12-6.62742 0-12 5.37258-12 12 0 6.6274 5.37258 12 12 12z" fill="#f0f0f0"/><path d="m11.9997-.00097656c-4.75752 0-8.86827 2.76867656-10.80927 6.78262656h21.61847c-1.9409-4.01395-6.0517-6.78262656-10.8092-6.78262656z" fill="#ff9811"/><path d="m11.9997 23.9997c4.7575 0 8.8683-2.7687 10.8093-6.7827h-21.61857c1.941 4.014 6.05175 6.7827 10.80927 6.7827z" fill="#6da544"/><path d="m12.0001 16.1732c2.3051 0 4.1739-1.8687 4.1739-4.1739 0-2.30515-1.8688-4.17386-4.1739-4.17386-2.30521 0-4.17393 1.86871-4.17393 4.17386 0 2.3052 1.86872 4.1739 4.17393 4.1739z" fill="#0052b4"/><path d="m12.0003 14.608c1.4407 0 2.6087-1.168 2.6087-2.6087s-1.168-2.60868-2.6087-2.60868c-1.4408 0-2.6087 1.16798-2.6087 2.60868s1.1679 2.6087 2.6087 2.6087z" fill="#f0f0f0"/><path d="m12.0007 8.78088.8048 1.82522 1.983-.2157-1.1783 1.6096 1.1783 1.6095-1.983-.2156-.8048 1.8252-.8048-1.8252-1.98301.2156 1.17821-1.6095-1.17821-1.6096 1.98301.2157z" fill="#0052b4"/></g></svg>