<svg fill="none" height="24" viewBox="0 0 24 24" width="24" xmlns="http://www.w3.org/2000/svg" xmlns:xlink="http://www.w3.org/1999/xlink"><clipPath id="a"><path d="m0 0h24v24h-24z"/></clipPath><g clip-path="url(#a)"><path d="m12 24c6.6274 0 12-5.3726 12-12 0-6.62742-5.3726-12-12-12-6.62742 0-12 5.37258-12 12 0 6.6274 5.37258 12 12 12z" fill="#f0f0f0"/><g fill="#0052b4"><path d="m21.9999 13.4358c-1 0-1-.9144-2.0001-.9144-.9999 0-.9999.9144-1.9999.9144-.9999 0-1-.9144-1.9999-.9144-1 0-1 .9144-2 .9144s-1.0001-.9144-2.0002-.9144c-1 0-1 .9144-1.99989.9144-.99985 0-.99985-.9144-1.99983-.9144-1.00008 0-1.00008.9144-2.00016.9144s-1.00008-.9144-2.00015-.9144c-.99985 0-.99985.9144-1.99983.9144-.9946 0-1.000362-.9043-1.984315-.914.0277031.5489.093234 1.0878.192328 1.6148.797067.1171.866857.8991 1.792077.8991.99999 0 .99999-.9142 1.99983-.9142 1.00008 0 1.00008.9142 2.00016.9142 1.00007 0 1.00007-.9142 2.00015-.9142.99999 0 .99999.9142 1.99983.9142 1 0 1-.9142 1.9999-.9142 1.0001 0 1.0001.9142 2.0002.9142s1.0001-.9142 2-.9142c1 0 1 .9142 1.9999.9142 1 0 1-.9142 1.9999-.9142 1.0001 0 1.0001.9142 2.0001.9142.9252 0 .995-.782 1.7921-.8991.0992-.527.1646-1.0658.1924-1.6148-.9841.0097-.99.914-1.9846.914z"/><path d="m20.0003 15.6514c-1 0-1 .9144-2 .9144-.9999 0-.9999-.9144-1.9999-.9144s-1 .9144-2 .9144c-1.0001 0-1.0001-.9144-2.0001-.9144s-1 .9144-2 .9144c-.99981 0-.99981-.9144-1.99979-.9144-1.00008 0-1.00008.9144-2.00016.9144s-1.00008-.9144-2.00015-.9144c-.99985 0-.99985.9144-1.99983.9144-.73664 0-.93113-.4959-1.382206-.7571.273188.8166.632016 1.5937 1.065376 2.3214.09384.0226.19819.0357.31678.0357.99998 0 .99998-.9143 1.99983-.9143 1.00008 0 1.00008.9143 2.00015.9143 1.00008 0 1.00008-.9143 2.00016-.9143.99999 0 .99999.9143 1.99984.9143 1 0 1-.9143 1.9999-.9143 1.0001 0 1.0001.9143 2.0002.9143 1 0 1-.9143 2-.9143s1 .9143 1.9999.9143 1-.9143 1.9999-.9143c1.0001 0 1.0001.9143 2 .9143.1187 0 .2232-.0131.3171-.0358.4334-.7276.7921-1.5047 1.0653-2.3212-.4511.2612-.6456.757-1.3824.757-.9998 0-.9999-.9144-1.9999-.9144z"/><path d="m23.7211 9.41946c-.7309.15173-.8241.88654-1.7209.88654-1 0-1-.91434-2-.91434s-1 .91434-2 .91434c-.9999 0-.9999-.91434-1.9999-.91434s-1 .91434-2 .91434-1.0001-.91434-2.0002-.91434c-.5403 0-.7887.26691-1.0606.51234v1.6c.2719-.2454.5203-.5123 1.0606-.5123 1.0001 0 1.0001.9143 2.0002.9143s1.0001-.9143 2-.9143c1 0 1 .9143 1.9999.9143 1 0 1-.9143 2-.9143s1 .9143 2 .9143c.9252 0 .995-.782 1.7921-.8991.0511 0 .1082-.0005.1667-.0012-.0443-.5397-.1245-1.06916-.2379-1.58624z"/><path d="m22.8445 6.85727c-.2072.17405-.4467.31861-.8443.31861-1 0-1-.91434-2-.91434s-1 .91434-2 .91434c-.9999 0-.9999-.91434-1.9999-.91434s-1 .91434-2 .91434-1.0001-.91434-2.0002-.91434c-.5403 0-.7887.2669-1.0606.51234v1.59998c.2719-.24539.5203-.51225 1.0606-.51225 1.0001 0 1.0001.91425 2.0002.91425 1 0 1-.91425 2-.91425s1 .91425 1.9999.91425.9999-.91425 1.9999-.91425c1.0001 0 1.0001.91425 2 .91425.7096 0 .9163-.45961 1.3334-.72689-.1421-.40767-.3054-.8054-.489-1.1917z"/><path d="m20.0856 3.13263c-.0277-.0015-.056-.00244-.0854-.00244-1 0-1 .91434-1.9999.91434-1 0-1-.91434-1.9999-.91434-1 0-1 .91434-2.0001.91434s-1.0001-.91434-2.0002-.91434c-.5403 0-.7887.2669-1.0606.51234v1.59999c.2719-.24539.5203-.51225 1.0606-.51225 1.0001 0 1.0001.91425 2.0002.91425s1.0001-.91425 2-.91425c1 0 1 .91425 1.9999.91425 1 0 1-.91425 2-.91425s1 .91425 2 .91425c.0616 0 .1191-.00366.1736-.01017-.5809-.92644-1.2842-1.76818-2.0882-2.50172z"/><path d="m15.0668.396249c-.2745.246937-.5225.518156-1.0672.518156-1 0-1-.91425021-2.0001-.91434396h-.0001c-.5172.00004687-.7668.24459396-1.0258.48079696v1.600032c.2589-.2362.5087-.4808 1.0259-.4808 1.0001 0 1.0001.91425 2.0002.91425 1 0 1-.91425 2-.91425s1 .91425 1.9999.91425c.4196 0 .663-.16106.8782-.3479-1.1407-.79946-2.4269-1.405363-3.811-1.770191z"/><path d="m14.0003 22.8273c-1.0001 0-1.0001-.9143-2.0002-.9143-.9999 0-.9999.9143-1.9999.9143-.99983 0-.99983-.9143-1.99982-.9143-.76598 0-.94565.5359-1.4369.7871 1.35469.6897 2.85783 1.1293 4.44872 1.259.2461-.2248.496-.4461.9879-.4461.4921 0 .742.2213.9881.4462 1.591-.1297 3.0942-.5694 4.449-1.2591-.4914-.2511-.671-.7872-1.4369-.7872-.9999 0-.9999.9144-2 .9144z"/><path d="m18.0003 19.6977c-1 0-1-.9144-2-.9144-.9999 0-.9999.9144-2 .9144s-1-.9144-2.0001-.9144c-1 0-1 .9144-1.9999.9144-.99989 0-.99989-.9144-1.99988-.9144-1.00008 0-1.00008.9144-2.00015.9144-1.00008 0-1.00008-.9144-2.00016-.9144-.71911 0-.92105.473-1.34972.7385.26869.3337.55434.6531.85664.9559.13542-.0578.29433-.0943.49303-.0943 1.00008 0 1.00008.9142 2.00016.9142s1.00008-.9142 2.00016-.9142c.99998 0 .99998.9142 1.99982.9142 1 0 1-.9142 1.9999-.9142 1.0001 0 1.0001.9142 2.0002.9142s1.0001-.9142 2-.9142 1 .9142 1.9999.9142c1 0 1-.9142 1.9999-.9142.199 0 .3579.0365.4934.0944.3023-.3029.588-.6223.8567-.9559-.4287-.2655-.6307-.7385-1.35-.7385-1-.0001-1 .9143-1.9999.9143z"/></g><path d="m11.9678 11.9991h.0321c0-.0108 0-.0213 0-.0322-.0107.0108-.0214.0215-.0321.0322z" fill="#f0f0f0"/><path d="m12.0001 6.26153v3.52561l-4.17393-4.04733z" fill="#0052b4"/><path d="m6.26102 12.0005h3.52547l-3.52551-4.69563-.52172 3.65213z" fill="#0052b4"/><path d="m12 6.26086c0-2.11149 0-3.495 0-6.26086h-.002c-6.6265.001125-11.998 5.37323-11.998 12h6.2609v-3.52552l3.52547 3.52552h2.18153l.0321-.0321c0-.8085 0-1.5298 0-2.18143l-3.52557-3.52561z" fill="#f0f0f0"/><path d="m6.07124 1.56415c-1.87683 1.0687-3.43711 2.62898-4.50581 4.50581v5.92894h3.13045v-7.3042-.0001h7.30432c0-.98733 0-1.92792 0-3.13045z" fill="#d80027"/><path d="m11.9999 10.5234-4.26353-4.26345h-1.47563v.00009l5.73906 5.73896h.0001s0-1.0175 0-1.4756z" fill="#d80027"/><path d="m15.6523 6.26099h4.6957l-2.3478 2.34783z" fill="#6da544"/><path d="m18.522 8.08649h-1.0435v2.86951h1.0435z" fill="#a2001d"/><path d="m18.521 15.652h-1.0435v2.8695h1.0435z" fill="#a2001d"/><path d="m21.13 14.0874c0-.8645-.7008-1.5652-1.5652-1.5652-.401 0-.7665.1509-1.0435.3988v-.9206h.5217v-1.0435h-.5217v-.5217h-1.0435v.5217h-.5217v1.0435h.5217v.9206c-.277-.2479-.6425-.3988-1.0435-.3988-.8644 0-1.5652.7007-1.5652 1.5652 0 .4634.2017.8797.5218 1.1663v.9206h5.2173v-.9206c.3202-.2866.5218-.7029.5218-1.1663z" fill="#ffda44"/><path d="m19.5652 13.5649c-.1646 0-.2798.0723-.3475.1329l-.696.623h-1.0434l-.696-.623c-.0677-.0606-.1829-.1329-.3475-.1329-.2877 0-.5217.2341-.5217.5218 0 .2026.1093.3306.1744.389l.3474.311v.3434h3.1304v-.3434l.3474-.311c.0651-.0583.1744-.1864.1744-.389-.0001-.2877-.2342-.5218-.5219-.5218z" fill="#d80027"/></g></svg>