<svg fill="none" height="24" viewBox="0 0 24 24" width="24" xmlns="http://www.w3.org/2000/svg" xmlns:xlink="http://www.w3.org/1999/xlink"><clipPath id="a"><path d="m0 0h24v24h-24z"/></clipPath><g clip-path="url(#a)"><path d="m12 24c6.6274 0 12-5.3726 12-12 0-6.62742-5.3726-12-12-12-6.62742 0-12 5.37258-12 12 0 6.6274 5.37258 12 12 12z" fill="#f0f0f0"/><path d="m11.9997-.00061035c-5.15958 0-9.55809 3.25650035-11.253606 7.82611035h22.507306c-1.6956-4.56961-6.0941-7.82611035-11.2537-7.82611035z" fill="#a2001d"/><path d="m11.9997 24.0006c5.1596 0 9.5581-3.2565 11.2536-7.8262h-22.507206c1.695516 4.5697 6.094036 7.8262 11.253606 7.8262z" fill="#000"/><g fill="#496e2d"><path d="m9.13039 11.2186c-.00656 0-.01299.0004-.01955.0005v-.0005h-2.29392c.1163-.4494.52402-.7827 1.00913-.7827v-1.56517c-1.43846 0-2.60869 1.17027-2.60869 2.60867v1.2783.0261h3.89348.01955c.14386 0 .26086.1171.26086.2609v.5217h-5.21742v1.5652h6.78267v-2.087c0-1.0069-.8192-1.826-1.82611-1.826z"/><path d="m13.0437 13.5657v-4.6957h-1.5652v6.2609h2.6087v-1.5652z"/><path d="m18.2606 13.5657v-4.6957h-1.5652v4.6957h-.5218v-1.5652h-1.5652v3.1304h4.6957v-1.5652z"/></g></g></svg>