<svg fill="none" height="24" viewBox="0 0 24 24" width="24" xmlns="http://www.w3.org/2000/svg" xmlns:xlink="http://www.w3.org/1999/xlink"><clipPath id="a"><path d="m0 0h24v24h-24z"/></clipPath><g clip-path="url(#a)"><path d="m12 24c6.6274 0 12-5.3726 12-12 0-6.62742-5.3726-12-12-12-6.62742 0-12 5.37258-12 12 0 6.6274 5.37258 12 12 12z" fill="#f0f0f0"/><path d="m15.8976 8.86968h-1.5701c.013.17254.0204.34664.0204.52171 0 1.16081-.2902 2.28601-.796 3.08691-.1561.247-.4183.5958-.7693.8311v-4.43977h-1.5652v4.43977c-.3509-.2353-.6132-.5841-.7693-.8311-.50583-.8009-.79594-1.9261-.79594-3.08691 0-.17507.00741-.34921.02035-.52171h-1.57003c-.01008.1717-.01557.34561-.01557.52171 0 3.21821 1.71882 5.73911 3.91299 5.73911 2.1943 0 3.9131-2.5209 3.9131-5.73911.0001-.1761-.0054-.35001-.0154-.52171z" fill="#d80027"/><path d="m4.9572 5.73816h1.56521v1.04349h1.5652v-1.04349h1.5652v1.04349h1.56519v-1.04349h1.5652v1.04349h1.5652v-1.04349h1.5652v1.04349h1.5652v-1.04349h1.5652v1.04349h3.7658c-1.9408-4.01395-6.0516-6.78262656-10.8091-6.78262656s-8.86829 2.76867656-10.80929 6.78262656h3.76579z" fill="#6da544"/><path d="m19.0442 17.217v1.0435h-1.5652v-1.0435h-1.5652v1.0435h-1.5652v-1.0435h-1.5652v1.0435h-1.5652v-1.0435h-1.56525v1.0435h-1.5652v-1.0435h-1.56534v1.0435h-1.56521v-1.0435h-3.76579c1.941 4.014 6.05175 6.7827 10.80929 6.7827 4.7575 0 8.8683-2.7687 10.8093-6.7827z" fill="#d80027"/></g></svg>