<svg fill="none" height="24" viewBox="0 0 24 24" width="24" xmlns="http://www.w3.org/2000/svg" xmlns:xlink="http://www.w3.org/1999/xlink"><clipPath id="a"><path d="m0 0h24v24h-24z"/></clipPath><g clip-path="url(#a)"><path d="m12 24c6.6274 0 12-5.3726 12-12 0-6.62742-5.3726-12-12-12-6.62742 0-12 5.37258-12 12 0 6.6274 5.37258 12 12 12z" fill="#f0f0f0"/><path d="m23.9999 11.9992c0-5.15962-3.2565-9.55814-7.8261-11.253656v22.507256c4.5696-1.6956 7.8261-6.0941 7.8261-11.2536z" fill="#d80027"/><path d="m0 11.9997c0 5.1596 3.2565 9.5581 7.82611 11.2536v-22.507206c-4.56961 1.695516-7.82611 6.094036-7.82611 11.253606z" fill="#6da544"/></g></svg>