<svg fill="none" height="24" viewBox="0 0 24 24" width="24" xmlns="http://www.w3.org/2000/svg" xmlns:xlink="http://www.w3.org/1999/xlink"><clipPath id="a"><path d="m0 0h24v24h-24z"/></clipPath><g clip-path="url(#a)"><path d="m12 24c6.6274 0 12-5.3726 12-12 0-6.62742-5.3726-12-12-12-6.62742 0-12 5.37258-12 12 0 6.6274 5.37258 12 12 12z" fill="#f0f0f0"/><path d="m21.5209 19.3071-7.3066-7.3065h-.0001l7.3067-7.30678c-.3151-.4095-.6599-.80349-1.0349-1.17863-.3751-.37509-.7691-.71986-1.1786-1.0349l-7.3067 7.30664v.00004l-7.30665-7.30668c-.40946.31509-.80349.65976-1.17863 1.0349s-.71986.76913-1.0349 1.17863l7.30664 7.30658.00004.0001-7.30673 7.3067c.31514.4095.65986.8035 1.03491 1.1786.37514.3751.76907.7199 1.17862 1.0349l7.3067-7.3066v-.0001l7.3067 7.3067c.4094-.3151.8035-.6598 1.1786-1.0349.3751-.3752.7198-.7692 1.0349-1.1787z" fill="#d80027"/><path d="m9.91309 3.65288 2.08701.52172 2.0869-.52172v-1.77389l-.8348.41737-1.2521-1.25217-1.2522 1.25217-.83481-.41737z" fill="#ffda44"/><path d="m9.91309 3.65289v1.30444c0 1.5975 2.08701 2.08697 2.08701 2.08697s2.0869-.48952 2.0869-2.08697v-1.30444z" fill="#d80027"/></g></svg>