<svg fill="none" height="24" viewBox="0 0 24 24" width="24" xmlns="http://www.w3.org/2000/svg" xmlns:xlink="http://www.w3.org/1999/xlink"><clipPath id="a"><path d="m0 0h24v24h-24z"/></clipPath><g clip-path="url(#a)"><path d="m12 24c6.6274 0 12-5.3726 12-12 0-6.62742-5.3726-12-12-12-6.62742 0-12 5.37258-12 12 0 6.6274 5.37258 12 12 12z" fill="#ffda44"/><path d="m19.3059 2.48075c-2.0235-1.555362-4.5564-2.48062793-7.3058-2.48062793-2.74937 0-5.28231.92531193-7.30576 2.48062793l7.30576 7.30575z" fill="#6da544"/><path d="m2.48058 4.6936c-1.555268 2.02346-2.48058 4.55635-2.48058 7.3058 0 2.7494.925312 5.2823 2.48062 7.3058l7.3058-7.3058z" fill="#000"/><path d="m4.69434 21.5188c2.0235 1.5553 4.55639 2.4806 7.30576 2.4806 2.7494 0 5.2823-.9253 7.3058-2.4806l-7.3058-7.3058z" fill="#6da544"/><path d="m21.5196 19.3051c1.5554-2.0235 2.4806-4.5563 2.4806-7.3057 0-2.74945-.9252-5.28234-2.4806-7.3058l-7.3057 7.3058z" fill="#000"/></g></svg>