<svg fill="none" height="24" viewBox="0 0 24 24" width="24" xmlns="http://www.w3.org/2000/svg" xmlns:xlink="http://www.w3.org/1999/xlink"><clipPath id="a"><path d="m0 0h24v24h-24z"/></clipPath><g clip-path="url(#a)"><path d="m12 24c6.6274 0 12-5.3726 12-12 0-6.62742-5.3726-12-12-12-6.62742 0-12 5.37258-12 12 0 6.6274 5.37258 12 12 12z" fill="#f0f0f0"/><path d="m7.30388 7.82623h15.94922c-1.6955-4.56961-6.094-7.82610793-11.2536-7.82610793-3.31374 0-6.31341 1.34338793-8.48485 3.51510793z" fill="#000"/><path d="m7.30388 16.1745h15.94922c-1.6955 4.5696-6.094 7.8261-11.2536 7.8261-3.31374 0-6.31341-1.3434-8.48485-3.5151z" fill="#6da544"/><path d="m3.51471 3.51379c-4.68628 4.68629-4.68628 12.28431 0 16.97061 1.93655-1.9365 3.79904-3.799 8.48529-8.4853z" fill="#d80027"/><path d="m4.76268 9.39178.65855 1.37712 1.48729-.3437-.66609 1.3735 1.19602.9484-1.48908.3356.00412 1.5265-1.19081-.955-1.19086.955.00417-1.5265-1.48908-.3356 1.19597-.9484-.666-1.3735 1.48721.3437z" fill="#f0f0f0"/></g></svg>