<svg fill="none" height="24" viewBox="0 0 24 24" width="24" xmlns="http://www.w3.org/2000/svg" xmlns:xlink="http://www.w3.org/1999/xlink"><clipPath id="a"><path d="m0 0h24v24h-24z"/></clipPath><g clip-path="url(#a)"><path d="m12 24c6.6274 0 12-5.3726 12-12 0-6.62742-5.3726-12-12-12-6.62742 0-12 5.37258-12 12 0 6.6274 5.37258 12 12 12z" fill="#f0f0f0"/><path d="m12.0007-.00073242c-4.75754 0-8.86829 2.76867242-10.80929 6.78262242h21.61849c-1.9409-4.01395-6.0517-6.78262242-10.8092-6.78262242z" fill="#000"/><path d="m12.0007 24c-4.75754 0-8.86829-2.7686-10.80929-6.7826h21.61849c-1.9409 4.014-6.0517 6.7826-10.8092 6.7826z" fill="#496e2d"/><path d="m23.4333 8.34705h-22.866628c-.367594 1.15167-.566672 2.37865-.566672 3.65215 0 1.2736.199078 2.5005.566672 3.6522h22.866628c.3676-1.1517.5667-2.3786.5667-3.6522 0-1.2735-.1991-2.50048-.5667-3.65215z" fill="#a2001d"/><path d="m15.7369 5.54508-1.4211-.65592-2.3155 5.24304-2.31552-5.24304-1.42111.65592 2.87473 6.45462-2.87473 6.4547 1.42111.6559 2.31552-5.243 2.3155 5.243 1.4211-.6559-2.8747-6.4547z" fill="#f0f0f0"/><path d="m12.9656 6.16321c-.5502-.60079-.9652-.94617-.9652-.94617s-.4151.34533-.9652.94617v11.67279c.5501.6009.9652.9463.9652.9463s.415-.3453.9652-.9462z" fill="#f0f0f0"/><path d="m9.3916 8.40226v7.19584c.58134 1.0301 1.2929 1.8744 1.8261 2.4342v-12.06416c-.5332.55973-1.2448 1.40409-1.8261 2.43412z" fill="#a2001d"/><path d="m14.6083 8.40287c-.5814-1.03007-1.2928-1.87439-1.8261-2.43412v12.06415c.5332-.5598 1.2447-1.4041 1.8261-2.4342z" fill="#a2001d"/><g fill="#000"><path d="m14.6084 8.40088v7.19592c.5885-1.043 1.0435-2.2762 1.0435-3.5979 0-1.3218-.455-2.55505-1.0435-3.59802z"/><path d="m9.39114 8.40088v7.19592c-.58851-1.043-1.04348-2.2762-1.04348-3.5979 0-1.3218.45497-2.55505 1.04348-3.59802z"/></g></g></svg>