<svg fill="none" height="24" viewBox="0 0 24 24" width="24" xmlns="http://www.w3.org/2000/svg" xmlns:xlink="http://www.w3.org/1999/xlink"><clipPath id="a"><path d="m0 0h24v24h-24z"/></clipPath><g clip-path="url(#a)"><path d="m12 24c6.6274 0 12-5.3726 12-12 0-6.62742-5.3726-12-12-12-6.62742 0-12 5.37258-12 12 0 6.6274 5.37258 12 12 12z" fill="#d80027"/><path d="m17.8681 12-2.3979 1.1279 1.2769 2.3225-2.604-.4982-.3298 2.6304-1.8139-1.9345-1.8137 1.9345-.32992-2.6304-2.60381.4981 1.27687-2.3225-2.39798-1.1278 2.39798-1.1279-1.27687-2.32254 2.60372.49828.33011-2.63048 1.8136 1.93457 1.8139-1.93457.3298 2.63048 2.6041-.49828-1.277 2.32274z" fill="#ffda44"/><path d="m11.9998 15.6514c2.0171 0 3.6522-1.6351 3.6522-3.6522 0-2.01702-1.6351-3.65215-3.6522-3.65215-2.01701 0-3.65214 1.63513-3.65214 3.65215 0 2.0171 1.63513 3.6522 3.65214 3.6522z" fill="#d80027"/><g fill="#ffda44"><path d="m10.1746 12.0004c-.0879 0-.1748.0045-.26054.013.00314.5058.18614.9688.48844 1.3285.1612-.4339.402-.8296.7056-1.1682-.29-.1116-.6046-.1733-.9335-.1733z"/><path d="m11.2988 13.967c.2194.0784.4556.1214.702.1214s.4826-.043.7019-.1214c-.1195-.4693-.3664-.8882-.7019-1.2175-.3355.3292-.5824.7482-.702 1.2175z"/><path d="m13.8079 10.9573c-.3609-.6238-1.0348-1.04385-1.8073-1.04385s-1.4464.42005-1.8072 1.04385c.6578.0033 1.2747.1822 1.8072.491.5326-.3088 1.1494-.4877 1.8073-.491z"/><path d="m12.8936 12.1739c.3036.3386.5443.7343.7056 1.1682.3022-.3596.4852-.8226.4884-1.3285-.0858-.0085-.1727-.013-.2606-.013-.3288 0-.6434.0617-.9334.1733z"/></g></g></svg>