<svg fill="none" height="24" viewBox="0 0 24 24" width="24" xmlns="http://www.w3.org/2000/svg" xmlns:xlink="http://www.w3.org/1999/xlink"><clipPath id="a"><path d="m0 0h24v24h-24z"/></clipPath><g clip-path="url(#a)"><path d="m0 12.0009c0 2.0789.528891 4.0342 1.45908 5.7391l10.54092 1.0435 10.5409-1.0435c.9302-1.7049 1.4591-3.6602 1.4591-5.7391 0-2.07892-.5289-4.03426-1.4591-5.73915l-10.5409-1.04349-10.54092 1.04349c-.930189 1.70489-1.45908 3.66023-1.45908 5.73915z" fill="#d80027"/><path d="m1.45898 6.26123h21.08182c-2.0352-3.73013-5.9924-6.26086379-10.5409-6.26086379-4.54851 0-8.50565 2.53073379-10.54092 6.26086379z" fill="#0052b4"/><path d="m11.9999 24.0008c4.5485 0 8.5057-2.5307 10.5409-6.2608h-21.08182c2.03527 3.7301 5.99241 6.2608 10.54092 6.2608z" fill="#0052b4"/><path d="m16.1745 14.3473v-1.5652h-1.0435v-2.087l-1.0434-1.04343-1.0435 1.04343v-2.08692l-1.0435-1.04348-1.0435 1.04348v2.08692l-1.04349-1.04343-1.04348 1.04343v2.087h-1.04344v1.5652h-1.04349v1.5652h10.4348v-1.5652z" fill="#f0f0f0"/></g></svg>