<svg fill="none" height="24" viewBox="0 0 24 24" width="24" xmlns="http://www.w3.org/2000/svg" xmlns:xlink="http://www.w3.org/1999/xlink"><clipPath id="a"><path d="m0 0h24v24h-24z"/></clipPath><g clip-path="url(#a)"><path d="m0 12c0-6.62738 5.37262-12 12-12 6.6274 0 12 5.37262 12 12" fill="#d80027"/><path d="m16.173 11.16-1.7056.8022.9083 1.6518-1.852-.3543-.2347 1.8708-1.2899-1.376-1.29 1.376-.2346-1.8708-1.85201.3542.90821-1.6517-1.7055-.8022 1.7055-.8023-.90821-1.65165 1.85191.35418.2347-1.87078 1.29 1.37592 1.29-1.37592.2346 1.87078 1.852-.35418-.9081 1.65175z" fill="#ffda44"/><path d="m15.13 3.913h-2.3478c0-.43214-.3504-.78263-.7826-.78263s-.7826.35044-.7826.78263h-2.34786c0 .43218.3765.78262.80869.78262h-.02611c0 .43219.35038.78262.78258.78262 0 .43219.3504.78263.7827.78263h1.5652c.4321 0 .7826-.35039.7826-.78263.4321 0 .7826-.35039.7826-.78262h-.0261c.4322 0 .8087-.35039.8087-.78262z" fill="#ffda44"/><path d="m24 11.9996c0 6.6274-5.3726 12-12 12-6.62738 0-12-5.3726-12-12z" fill="#f0f0f0"/><g fill="#0052b4"><path d="m12.0004 24.0005c3.7511 0 7.0995-1.7215 9.3001-4.417-.3958-.2698-.6095-.7061-1.3002-.7061-1 0-1 .9144-2 .9144-.9999 0-.9999-.9144-1.9999-.9144s-1 .9144-2 .9144-1.0001-.9144-2.0002-.9144c-.9999 0-.9999.9144-1.9999.9144-.99982 0-.99982-.9144-1.99981-.9144-1.00008 0-1.00008.9144-2.00015.9144-1.00008 0-1.00008-.9144-2.00016-.9144-.69066 0-.90436.4362-1.29998.706 2.2005 2.6956 5.54915 4.4171 9.3002 4.4171z"/><path d="m21.9999 13.5312c-1 0-1-.9144-2.0001-.9144-.9999 0-.9999.9144-1.9999.9144-.9999 0-1-.9144-1.9999-.9144-1 0-1 .9144-2 .9144s-1.0001-.9144-2.0002-.9144c-1 0-1 .9144-1.99989.9144-.99985 0-.99985-.9144-1.99983-.9144-1.00008 0-1.00008.9144-2.00016.9144s-1.00008-.9144-2.00015-.9144c-.99985 0-.99985.9144-1.99983.9144-.9946 0-1.000362-.9043-1.984315-.914.0277031.5489.093234 1.0878.192328 1.6148.797067.1171.866857.8991 1.792027.8991.99999 0 .99999-.9142 1.99983-.9142 1.00008 0 1.00008.9142 2.00016.9142s1.00008-.9142 2.00015-.9142c.99999 0 .99999.9142 1.99983.9142.99995 0 .99995-.9142 1.99995-.9142 1.0001 0 1.0001.9142 2.0001.9142 1.0001 0 1.0001-.9142 2-.9142 1 0 1 .9142 2 .9142.9999 0 1-.9142 1.9999-.9142 1.0001 0 1.0001.9142 2 .9142.9253 0 .9951-.7819 1.7922-.8991.0991-.527.1646-1.0658.1924-1.6147-.9841.0097-.99.9139-1.9846.9139z"/><path d="m19.9998 15.7477c-1 0-1 .9143-2 .9143-.9999 0-.9999-.9143-1.9999-.9143s-1 .9143-2 .9143c-1.0001 0-1.0001-.9143-2.0001-.9143s-1 .9143-1.99997.9143c-.99985 0-.99985-.9143-1.99983-.9143-1.00008 0-1.00008.9143-2.00016.9143-1.00007 0-1.00007-.9143-2.00015-.9143-.99985 0-.99985.9143-1.99983.9143-.71452 0-.91861-.4667-1.341657-.7333.281625.8137.647997 1.5878 1.089237 2.3113.07673.0142.16026.022.25242.022.99998 0 .99998-.9142 1.99983-.9142 1.00008 0 1.00008.9142 2.00015.9142 1.00008 0 1.00008-.9142 2.00016-.9142.99998 0 .99998.9142 1.99983.9142.99997 0 .99997-.9142 1.99997-.9142s1 .9142 2.0001.9142 1.0001-.9142 2-.9142c1 0 1 .9142 1.9999.9142 1 0 1-.9142 2-.9142s1 .9142 2 .9142c.0922 0 .1758-.0078.2525-.022.4412-.7235.8076-1.4976 1.0893-2.3112-.4231.2664-.6272.7332-1.3418.7332-1 0-1-.9143-2-.9143z"/></g><path d="m23.9628 11.0511c-.9624.0227-.9756.9133-1.963.9133-.9999 0-.9999-.9144-2-.9144-1 0-1 .9144-1.9999.9144s-1-.9144-1.9999-.9144c-1 0-1 .9144-2 .9144-1.0001 0-1.0001-.9144-2.0002-.9144-1 0-1 .9144-1.99991.9144-.99984 0-.99984-.9144-1.99983-.9144-1.00008 0-1.00008.9144-2.00015.9144-1.00008 0-1.00008-.9144-2.00016-.9144-.99984 0-.99984.9144-1.99983.9144-.98714 0-1.000498-.8905-1.9627481-.9133-.0244219.3128-.0371719.6289-.0371719.948 0 .2186.0061875.4358.0178594.6514.9817036.0111.9882206.9138 1.9821106.9138.99998 0 .99998-.9142 1.99983-.9142 1.00008 0 1.00008.9142 2.00015.9142 1.00008 0 1.00008-.9142 2.00016-.9142.99998 0 .99998.9142 1.99983.9142.99996 0 .99996-.9142 1.99996-.9142s1 .9142 2.0001.9142 1.0001-.9142 2-.9142c1 0 1 .9142 2 .9142.9999 0 .9999-.9142 1.9999-.9142 1.0001 0 1.0001.9142 2 .9142.994 0 1.0005-.9027 1.9824-.9138.0115-.2157.0177-.4328.0177-.6514 0-.3191-.0128-.6352-.0372-.948z" fill="#f0f0f0"/></g></svg>