<svg fill="none" height="24" viewBox="0 0 24 24" width="24" xmlns="http://www.w3.org/2000/svg" xmlns:xlink="http://www.w3.org/1999/xlink"><clipPath id="a"><path d="m0 0h24v24h-24z"/></clipPath><g clip-path="url(#a)"><path d="m12 24c6.6274 0 12-5.3726 12-12 0-6.62742-5.3726-12-12-12-6.62742 0-12 5.37258-12 12 0 6.6274 5.37258 12 12 12z" fill="#f0f0f0"/><path d="m23.9994 11.9653h-13.0083c-2.58268 2.5827-4.14446 4.5767-5.73915 6.1714l6.78265.6112 10.525-1.0435c.9185-1.6966 1.4402-3.6395 1.4402-5.7043 0-.0117-.0004-.0231-.0004-.0348z" fill="#d80027"/><path d="m5.25272 6.22564h17.26928c-2.0408-3.711-5.9872-6.22612828-10.5215-6.22612828-3.30491 0-6.29722 1.33645828-8.4673 3.49799828z" fill="#ffda44"/><path d="m5.77327 17.704c-1.07878 1.0788-1.49568 1.9826-2.2762 2.7631 2.17289 2.1819 5.17969 3.5325 8.50233 3.5325 4.5626 0 8.5303-2.5465 10.5598-6.2956z" fill="#0052b4"/><path d="m3.51471 3.48035c-4.68628 4.68628-4.68628 12.28425 0 16.97065 1.93655-1.9366 3.79903-3.7991 8.48529-8.4853z" fill="#6da544"/><g fill="#f0f0f0"><path d="m3.16584 11.9647c0-1.7484 1.22873-3.20895 2.86954-3.56726-.25219-.05508-.51384-.08494-.78262-.08494-2.01708 0-3.65217 1.6351-3.65217 3.6522s1.63509 3.6522 3.65217 3.6522c.26873 0 .53039-.0299.78262-.085-1.64081-.3583-2.86954-1.8189-2.86954-3.5672z"/><path d="m5.99574 8.83472.1943.59784h.62859l-.50859.36952.1943.59782-.5086-.3694-.50859.3694.1943-.59782-.5086-.36952h.6286z"/><path d="m5.99574 10.3998.1943.5979h.62859l-.50859.3694.1943.5979-.5086-.3695-.50859.3695.1943-.5979-.5086-.3694h.6286z"/><path d="m5.99574 11.9646.1943.5978h.62859l-.50859.3696.1943.5978-.5086-.3695-.50859.3695.1943-.5978-.5086-.3696h.6286z"/><path d="m5.99574 13.5297.1943.5978h.62859l-.50859.3695.1943.5979-.5086-.3695-.50859.3695.1943-.5979-.5086-.3695h.6286z"/></g></g></svg>