<svg fill="none" height="24" viewBox="0 0 24 24" width="24" xmlns="http://www.w3.org/2000/svg" xmlns:xlink="http://www.w3.org/1999/xlink"><clipPath id="a"><path d="m0 0h24v24h-24z"/></clipPath><g clip-path="url(#a)"><path d="m12 24c6.6274 0 12-5.3726 12-12 0-6.62743-5.3726-12-12-12-6.62743 0-12 5.37257-12 12 0 6.6274 5.37257 12 12 12z" fill="#ffda44"/><path d="m3.51539 20.4852c.50339.5033 1.04054.9523 1.60393 1.3475l16.71418-16.71414c-.3952-.56344-.8442-1.10054-1.3476-1.60393s-1.0405-.95222-1.6039-1.34752l-16.71403 16.71419c.39516.5634.84403 1.1005 1.34742 1.6039z" fill="#000"/><path d="m3.51426 3.51475c-3.785769 3.78578-4.512568 9.47135-2.18175 13.98735l16.16909-16.16901c-4.516-2.330769-10.2017-1.60397-13.98734 2.18166z" fill="#6da544"/><path d="m20.4855 20.4847c3.7857-3.7857 4.5125-9.4713 2.1818-13.98739l-16.16925 16.16919c4.51605 2.3307 10.20165 1.604 13.98745-2.1818z" fill="#d80027"/><g fill="#f0f0f0"><path d="m7.62971 14.1578 1.12022.5708.88903-.889-.19668 1.2417 1.12012.5708-1.24172.1967-.19669 1.2417-.57075-1.1202-1.24172.1967.88899-.889z"/><path d="m14.1561 7.63057 1.1202.57079.889-.88898-.1967 1.24167 1.1202.57085-1.2417.19668-.1967 1.24172-.5708-1.12017-1.2417.19664.889-.88898z"/></g></g></svg>