<svg fill="none" height="24" viewBox="0 0 24 24" width="24" xmlns="http://www.w3.org/2000/svg" xmlns:xlink="http://www.w3.org/1999/xlink"><clipPath id="a"><path d="m0 0h24v24h-24z"/></clipPath><g clip-path="url(#a)"><path d="m12 24c6.6274 0 12-5.3726 12-12 0-6.62742-5.3726-12-12-12-6.62742 0-12 5.37258-12 12 0 6.6274 5.37258 12 12 12z" fill="#f0f0f0"/><path d="m11.9999-.00024414c-3.63705 0-6.89594 1.61831414-9.09658 4.17389414h18.19318c-2.2006-2.55558-5.4595-4.17389414-9.0966-4.17389414z" fill="#0052b4"/><path d="m21.0965 19.827h-18.19318c2.20064 2.5555 5.45953 4.1739 9.09658 4.1739 3.6371 0 6.896-1.6184 9.0966-4.1739z" fill="#0052b4"/><path d="m22.2387 5.73859h-20.47742c-1.116983 1.82273-1.76128 3.96647-1.76128 6.26081 0 2.2944.644297 4.4382 1.76128 6.2609h20.47742c1.117-1.8227 1.7613-3.9665 1.7613-6.2609 0-2.29434-.6443-4.43808-1.7613-6.26081z" fill="#d80027"/><path d="m7.383 16.6182c2.5501 0 4.6174-2.0672 4.6174-4.6173 0-2.55014-2.0673-4.61742-4.6174-4.61742-2.55011 0-4.61738 2.06728-4.61738 4.61742 0 2.5501 2.06727 4.6173 4.61738 4.6173z" fill="#f0f0f0"/><path d="m7.38279 7.38348 1.03598 3.18852h3.35803l-2.71767 1.9707 1.04407 3.198-2.72041-1.9801-2.71631 1.9764 1.03997-3.1943-2.71524-1.9707h3.35555z" fill="#d80027"/></g></svg>