<svg fill="none" height="24" viewBox="0 0 24 24" width="24" xmlns="http://www.w3.org/2000/svg" xmlns:xlink="http://www.w3.org/1999/xlink"><clipPath id="a"><path d="m0 0h24v24h-24z"/></clipPath><g clip-path="url(#a)"><path d="m12 24c6.6274 0 12-5.3726 12-12 0-6.62742-5.3726-12-12-12-6.62742 0-12 5.37258-12 12 0 6.6274 5.37258 12 12 12z" fill="#f0f0f0"/><path d="m16.174 11.9996c0 1.0435-1.8688 3.6521-4.1739 3.6521-2.30521 0-4.17393-2.6086-4.17393-3.6521 0-2.30524 1.86872-4.17392 4.17393-4.17392 2.3051 0 4.1739 1.86868 4.1739 4.17392z" fill="#d80027"/><path d="m16.174 11.9995c0 2.3052-1.8688 4.1739-4.1739 4.1739-2.30521 0-4.17393-1.8687-4.17393-4.1739" fill="#0052b4"/><g fill="#000"><path d="m17.5335 14.5826-1.1067 1.1067.7378.7379 1.1068-1.1068z"/><path d="m15.6888 16.4268-1.1068 1.1068.7379.7378 1.1067-1.1067z"/><path d="m19.7474 16.7947-1.1068 1.1068.7379.7378 1.1067-1.1067z"/><path d="m17.9027 18.6409-1.1068 1.1068.7378.7378 1.1068-1.1067z"/><path d="m18.6409 15.6896-1.1067 1.1068.7378.7378 1.1068-1.1067z"/><path d="m16.7962 17.5339-1.1067 1.1067.7378.7379 1.1068-1.1068z"/><path d="m15.6893 5.35821 2.9513 2.95136.7379-.73785-2.9514-2.95135z"/><path d="m14.5827 6.46612 1.1068 1.10676.7378-.73782-1.1068-1.10676z"/><path d="m16.4274 8.31 1.1068 1.10675.7378-.73782-1.1068-1.10675z"/><path d="m16.7946 4.25225 1.1068 1.10676.7378-.73785-1.1067-1.10676z"/><path d="m18.6413 6.09771 1.1067 1.10676.7379-.73785-1.1068-1.10675z"/><path d="m7.20331 19.748-2.95136-2.9514-.73785.7379 2.95136 2.9513z"/><path d="m8.31086 18.64-1.10676-1.1068-.73781.7378 1.10675 1.1068z"/><path d="m6.46613 16.796-1.10675-1.1068-.73785.7379 1.10675 1.1067z"/><path d="m9.41718 17.5336-2.95136-2.9513-.73785.7378 2.95136 2.9514z"/><path d="m4.25274 7.20465 2.95136-2.95135-.73785-.73785-2.95135 2.95136z"/><path d="m5.35821 8.30976 2.95136-2.95136-.73785-.73785-2.95136 2.95136z"/><path d="m6.46661 9.41706 2.95136-2.95136-.73782-.73782-2.95135 2.95136z"/></g></g></svg>