<svg fill="none" height="24" viewBox="0 0 24 24" width="24" xmlns="http://www.w3.org/2000/svg" xmlns:xlink="http://www.w3.org/1999/xlink"><clipPath id="a"><path d="m0 0h24v24h-24z"/></clipPath><g clip-path="url(#a)"><path d="m23.2536 16.173c.4824-1.3.7464-2.706.7464-4.1739 0-1.4678-.264-2.87389-.7464-4.17388l-11.2536-1.04348-11.253609 1.04348c-.482344 1.29999-.746391 2.70608-.746391 4.17388 0 1.4679.264047 2.8739.746391 4.1739l11.253609 1.0435z" fill="#f0f0f0"/><path d="m12.0007 23.9996c5.1596 0 9.5581-3.2565 11.2536-7.8261h-22.50723c1.69556 4.5696 6.09403 7.8261 11.25363 7.8261z" fill="#d80027"/><path d="m11.9997-.00048828c-5.15958 0-9.55804 3.25649828-11.253606 7.82610828h22.507306c-1.6956-4.56961-6.0941-7.82610828-11.2537-7.82610828z" fill="#6da544"/><path d="m3.51471 3.51453c-4.68628 4.68628-4.68628 12.28427 0 16.97067 1.2232-1.2233 2.41711-2.4172 4.31138-4.3114v-8.34785z" fill="#000"/></g></svg>