<svg fill="none" height="24" viewBox="0 0 24 24" width="24" xmlns="http://www.w3.org/2000/svg" xmlns:xlink="http://www.w3.org/1999/xlink"><clipPath id="a"><path d="m0 0h24v24h-24z"/></clipPath><g clip-path="url(#a)"><path d="m24 12c0 6.6274-5.3726 12-12 12-6.62738 0-12-5.3726-12-12 0 .0029 12-11.9986875 12-12 6.6274 0 12 5.37262 12 12z" fill="#0052b4"/><path d="m11.9688 12.0004h.0321c0-.0108 0-.0213 0-.0321-.0107.0107-.0214.0214-.0321.0321z" fill="#f0f0f0"/><path d="m12 6.26037c0-2.11148 0-3.495 0-6.26085828h-.002c-6.62655.001125-11.998 5.37323828-11.998 11.99998828h6.26086v-3.5255l3.52552 3.5255h2.18152c.0107-.0107.0214-.0214.0321-.0321 0-.8085 0-1.5298 0-2.18142l-3.52556-3.52561z" fill="#f0f0f0"/><path d="m17.2169 8.86913c1.1526 0 2.0869-.93437 2.0869-2.08697s-.9343-2.08697-2.0869-2.08697c-1.1527 0-2.087.93437-2.087 2.08697s.9343 2.08697 2.087 2.08697z" fill="#6da544"/><g fill="#d80027"><path d="m6.07027 1.56531c-1.87683 1.0687-3.43716 2.62898-4.50582 4.50581v5.92898h3.13046v-7.30424-.0001h7.30439c0-.98733 0-1.92792 0-3.13045z"/><path d="m11.9989 10.5239-4.26351-4.2634h-1.47562v.00009l5.73903 5.73901h.0001s0-1.0175 0-1.4757z"/><path d="m20.8688 6.2605h-7.3043v3.13045h7.3043z"/></g><path d="m13.5654 14.0869v2.087h1.098c.6584.6452 1.5596 1.0435 2.5542 1.0435s1.8958-.3983 2.5542-1.0435h.0545 1.0435v-2.087z" fill="#ffda44"/><path d="m13.5654 8.86902v3.13048c0 2.7956 3.6522 3.6521 3.6522 3.6521s3.6522-.8565 3.6522-3.6521v-3.13048z" fill="#338af3"/><path d="m17.2174 10.5404c-.913 0-.913.8348-1.826.8348s-.913-.8348-1.826-.8348v1.4609c.913 0 .913.8348 1.826.8348s.913-.8348 1.826-.8348.913.8348 1.8262.8348c.9131 0 .913-.8348 1.8262-.8348v-1.4609c-.9131 0-.9131.8348-1.8262.8348-.9132 0-.9132-.8348-1.8262-.8348z" fill="#f3f3f3"/><path d="m17.2174 7.6167c-.913 0-.913.8348-1.826.8348s-.913-.8348-1.826-.8348v1.46086c.913 0 .913.8348 1.826.8348s.913-.8348 1.826-.8348.913.8348 1.8262.8348c.9131 0 .913-.8348 1.8262-.8348v-1.46086c-.9131 0-.9131.8348-1.8262.8348-.9132 0-.9132-.8348-1.8262-.8348z" fill="#f3f3f3"/></g></svg>