<svg fill="none" height="24" viewBox="0 0 24 24" width="24" xmlns="http://www.w3.org/2000/svg" xmlns:xlink="http://www.w3.org/1999/xlink"><clipPath id="a"><path d="m0 0h24v24h-24z"/></clipPath><g clip-path="url(#a)"><path d="m12 24c6.6274 0 12-5.3726 12-12 0-6.62742-5.3726-12-12-12-6.62742 0-12 5.37258-12 12 0 6.6274 5.37258 12 12 12z" fill="#338af3"/><path d="m18.783 12.1301h-13.56523c0 .9365.81568 1.6957 1.7521 1.6957h-.05644c0 .9365.75914 1.6956 1.69566 1.6956 0 .9366.75914 1.6957 1.69561 1.6957h3.3914c.9365 0 1.6956-.7591 1.6956-1.6957.9365 0 1.6957-.7591 1.6957-1.6956h-.0565c.9364 0 1.7521-.7592 1.7521-1.6957z" fill="#ffda44"/><path d="m16.696 9.91351c0 2.59329-2.1023 4.69569-4.6957 4.69569-2.59332 0-4.69561-2.1024-4.69561-4.69569" fill="#338af3"/><path d="m15.5864 9.91238-1.4656.68942.7804 1.4194-1.5914-.3045-.2016 1.6076-1.1085-1.1824-1.1085 1.1824-.2016-1.6076-1.59139.3044.78038-1.4194-1.4655-.68932 1.46554-.68934-.78042-1.41933 1.59139.30441.2017-1.60763 1.1084 1.18242 1.1085-1.18242.2016 1.60763 1.5915-.30441-.7804 1.41937z" fill="#ffda44"/></g></svg>