<svg fill="none" height="24" viewBox="0 0 24 24" width="24" xmlns="http://www.w3.org/2000/svg" xmlns:xlink="http://www.w3.org/1999/xlink"><clipPath id="a"><path d="m0 0h24v24h-24z"/></clipPath><g clip-path="url(#a)"><path d="m22.809 6.78189c-1.941-4.01395-6.0518-6.78262242-10.8093-6.78262242-4.75752 0-8.86827 2.76867242-10.80927 6.78262242l10.80927 1.04349z" fill="#d80027"/><path d="m1.19043 17.2162c1.941 4.014 6.05175 6.7826 10.80927 6.7826 4.7575 0 8.8683-2.7686 10.8093-6.7826l-10.8093-1.0435z" fill="#d80027"/><path d="m22.8093 6.78174h-21.61858c-.762845 1.57758-1.19072 3.34746-1.19072 5.21736s.427875 3.6398 1.19072 5.2174h21.61848c.763-1.5776 1.1908-3.3475 1.1908-5.2174s-.4278-3.63978-1.1907-5.21736z" fill="#0052b4"/><path d="m12.0001 16.1736c2.3051 0 4.1739-1.8687 4.1739-4.1739 0-2.30518-1.8688-4.17389-4.1739-4.17389-2.30521 0-4.17393 1.86871-4.17393 4.17389 0 2.3052 1.86872 4.1739 4.17393 4.1739z" fill="#f0f0f0"/></g></svg>