<svg fill="none" height="24" viewBox="0 0 24 24" width="24" xmlns="http://www.w3.org/2000/svg" xmlns:xlink="http://www.w3.org/1999/xlink"><clipPath id="a"><path d="m0 0h24v24h-24z"/></clipPath><g clip-path="url(#a)"><path d="m12 24c6.6274 0 12-5.3726 12-12 0-6.62742-5.3726-12-12-12-6.62742 0-12 5.37258-12 12 0 6.6274 5.37258 12 12 12z" fill="#f0f0f0"/><path d="m11.9997-.00073242c-4.75752 0-8.86827 2.76867242-10.80927 6.78262242h21.61847c-1.9409-4.01395-6.0517-6.78262242-10.8092-6.78262242z" fill="#d80027"/><path d="m11.9997 23.9993c4.7575 0 8.8683-2.7687 10.8093-6.7826h-21.61857c1.941 4.0139 6.05175 6.7826 10.80927 6.7826z" fill="#d80027"/><path d="m15.131 14.0862-3.1304-5.73915-3.13048 5.73915h2.34778v1.5652h1.5653v-1.5652z" fill="#6da544"/></g></svg>