<svg fill="none" height="24" viewBox="0 0 24 24" width="24" xmlns="http://www.w3.org/2000/svg" xmlns:xlink="http://www.w3.org/1999/xlink"><clipPath id="a"><path d="m0 0h24v24h-24z"/></clipPath><g clip-path="url(#a)"><path d="m24 11.9995c0 6.6274-5.3726 12-12 12-6.62738 0-12-5.3726-12-12 .521719 0 12-1.5652 12-1.5652z" fill="#d80027"/><path d="m0 12c0-6.62738 5.37262-12 12-12 6.6274 0 12 5.37262 12 12" fill="#0052b4"/><path d="m8.87023 8.34736c0-.86442-.70078-1.5652-1.5652-1.5652-.40102 0-.7665.15094-1.04349.39886v-.92063h.52172v-1.04348h-.52172v-.52172h-1.04348v.52172h-.52172v1.04348h.52172v.92063c-.27698-.24792-.64247-.39886-1.04348-.39886-.86442 0-1.5652.70078-1.5652 1.5652 0 .46346.2016.87971.52171 1.16635v.92059h5.21737v-.92059c.32021-.28664.52177-.70289.52177-1.16635z" fill="#ffda44"/></g></svg>