<svg fill="none" height="24" viewBox="0 0 24 24" width="24" xmlns="http://www.w3.org/2000/svg" xmlns:xlink="http://www.w3.org/1999/xlink"><clipPath id="a"><path d="m0 0h24v24h-24z"/></clipPath><g clip-path="url(#a)"><path d="m12 24c6.6274 0 12-5.3726 12-12 0-6.62743-5.3726-12-12-12-6.62743 0-12 5.37257-12 12 0 6.6274 5.37257 12 12 12z" fill="#ffda44"/><path d="m9.39149 2.08618h-4.15477c-.18412.12586-.36431.25688-.54089.39249l-1.04349 9.52053 1.04349 9.5205c.17658.1357.35677.2667.54089.3925h4.15477z" fill="#ff9811"/><path d="m0 12.0007c0 3.8786 1.84069 7.3269 4.69567 9.5205v-19.0411c-2.85498 2.19366-4.69567 5.64189-4.69567 9.5206z" fill="#6da544"/><path d="m19.3047 7.31531v.30051l.0112.00169z" fill="#ffda44"/><path d="m23.043 15.1296h-2.2609l-.9565 1.0435v2.087h-2.087v-1.0435h1.0435v-2.087h-4.6956v1.3044h-1.0435v-2.4858c-.3202-.2866-.5217-.7029-.5217-1.1664v-6.78258c0-.86442.7007-1.56521 1.5652-1.56521v9.65219h2.0869l.7161-.5968c-.1251-.2979-.1943-.625-.1943-.9684v-1.5652h-1.5652v-3.13042h3.1304c0-.52172.7826-1.04349.7826-1.04349s.7826.52172.7826 1.04349v.78263 2.34779c.5805.0069 1.5027-.0081 2.499 0-.2617-.4575-.4121-1.00032-.4121-1.56517 0-.92067.3975-1.74839 1.0303-2.3212-.912-2.02102-2.3673-3.74425-4.1798-4.98325h-7.8069v19.82612h7.8069c2.204-1.5066 3.8798-3.729 4.6928-6.3324z" fill="#a2001d"/></g></svg>