<svg fill="none" height="24" viewBox="0 0 24 24" width="24" xmlns="http://www.w3.org/2000/svg" xmlns:xlink="http://www.w3.org/1999/xlink"><clipPath id="a"><path d="m0 0h24v24h-24z"/></clipPath><g clip-path="url(#a)"><g fill="#f0f0f0"><path d="m12 24c6.6274 0 12-5.3726 12-12 0-6.62742-5.3726-12-12-12-6.62742 0-12 5.37258-12 12 0 6.6274 5.37258 12 12 12z"/><path d="m2.74316 4.36307h18.51414c-.6838-.82805-1.4769-1.56234-2.3567-2.1818h-13.8007c-.8798.61936-1.67288 1.35371-2.35674 2.1818z"/><path d="m0 12.0005c0 .3679.0174844.7315.049875 1.091h23.900225c.0324-.3595.0499-.7231.0499-1.091 0-.3678-.0175-.7314-.0499-1.0908h-23.900225c-.0323906.3594-.049875.723-.049875 1.0908z"/><path d="m1.30884 17.4546h21.38286c.3534-.6912.6415-1.4211.8567-2.1818h-23.096252c.21511.7607.503391 1.4906.856692 2.1818z"/><path d="m5.0999 21.818h13.8006c.8798-.6194 1.6729-1.3537 2.3567-2.1818h-18.51404c.68386.828 1.47694 1.5624 2.35674 2.1818z"/><path d="m.452148 8.72782h23.096352c-.2152-.76069-.5034-1.49063-.8567-2.1818h-21.38292c-.353294.69117-.641575 1.42111-.856732 2.1818z"/></g><path d="m5.73926 2.18192h13.16114c-1.9518-1.374282-4.3317-2.18179793-6.9003-2.18179793-1.5652 0-4.30897.80751593-6.26084 2.18179793z" fill="#d80027"/><path d="m11.4785 6.54532h11.2132c-.3991-.78061-.881-1.51181-1.4344-2.18179h-9.7788z" fill="#d80027"/><path d="m11.4785 10.9085h12.4719c-.0675-.7492-.2032-1.47874-.402-2.18182h-12.0699z" fill="#d80027"/><path d="m.451805 15.2737h23.096295c.1988-.703.3345-1.4326.402-2.1818h-23.9002953c.0675003.7492.2031563 1.4787.4020003 2.1818z" fill="#d80027"/><path d="m2.74297 19.6369h18.51413c.5534-.6701 1.0353-1.4013 1.4344-2.1818h-21.38291c.39905.7806.88102 1.5118 1.43438 2.1818z" fill="#d80027"/><path d="m11.9999 24.0005c2.5686 0 4.9485-.8075 6.9004-2.1818h-13.80069c1.95187 1.3743 4.33172 2.1818 6.90029 2.1818z" fill="#d80027"/><path d="m.451758 8.72692c-.198844.70312-.334453 1.43268-.4019533 2.18178h11.9500953v-10.90906621c-5.49279 0-10.12352 3.69056621-11.548142 8.72728621z" fill="#0052b4"/><path d="m7.14405 3.13049.77696 2.39133h2.51469l-2.03432 1.47807.77691 2.39147-2.03424-1.47797-2.03432 1.47797.77709-2.39147-2.03428-1.47807h2.51451z" fill="#f0f0f0"/></g></svg>