<svg fill="none" height="24" viewBox="0 0 24 24" width="24" xmlns="http://www.w3.org/2000/svg" xmlns:xlink="http://www.w3.org/1999/xlink"><clipPath id="a"><path d="m0 0h24v24h-24z"/></clipPath><g clip-path="url(#a)"><path d="m0 11.9999c0 1.8698.427828 3.6397 1.19072 5.2174l10.80928.5217 10.8093-.5217c.7629-1.5777 1.1907-3.3476 1.1907-5.2174 0-1.8699-.4278-3.63977-1.1907-5.21739l-10.8093-.52177-10.80928.52172c-.762892 1.57767-1.19072 3.34754-1.19072 5.21744z" fill="#f0f0f0"/><path d="m12.0007 24c4.7575 0 8.8683-2.7686 10.8093-6.7826h-21.61859c1.941 4.014 6.05175 6.7826 10.80929 6.7826z" fill="#6da544"/><path d="m12.0007-.00073242c-4.75754 0-8.86829 2.76867242-10.80929 6.78262242h21.61849c-1.9409-4.01395-6.0517-6.78262242-10.8092-6.78262242z" fill="#0052b4"/><path d="m12.7828 11.7392v-2.86957h-1.5652v2.86957l-1.89045 1.8905c.54979.9 1.54125 1.5008 2.67305 1.5008 1.1319 0 2.1233-.6008 2.6731-1.5008z" fill="#000"/></g></svg>