<svg fill="none" height="24" viewBox="0 0 24 24" width="24" xmlns="http://www.w3.org/2000/svg" xmlns:xlink="http://www.w3.org/1999/xlink"><clipPath id="a"><path d="m0 0h24v24h-24z"/></clipPath><g clip-path="url(#a)"><path d="m23.2536 16.1743c.4824-1.2999.7464-2.706.7464-4.1738 0-1.4679-.264-2.874-.7464-4.17394l-11.2536-1.04348-11.253609 1.04348c-.482391 1.29994-.746391 2.70604-.746391 4.17394 0 1.4678.264 2.8739.746391 4.1738l11.253609 1.0435z" fill="#6da544"/><path d="m23.2533 7.82574c-1.6955-4.56961-6.094-7.82610621-11.2536-7.82610621-5.15957 0-9.55809 3.25649621-11.253606 7.82610621z" fill="#ffda44"/><path d="m12.0007 24.0008c5.1596 0 9.5581-3.2565 11.2536-7.8261h-22.50723c1.69552 4.5696 6.09403 7.8261 11.25363 7.8261z" fill="#d80027"/></g></svg>