<svg fill="none" height="24" viewBox="0 0 24 24" width="24" xmlns="http://www.w3.org/2000/svg" xmlns:xlink="http://www.w3.org/1999/xlink"><clipPath id="a"><path d="m0 0h24v24h-24z"/></clipPath><g clip-path="url(#a)"><path d="m12 24c6.6274 0 12-5.3726 12-12 0-6.62742-5.3726-12-12-12-6.62742 0-12 5.37258-12 12 0 6.6274 5.37258 12 12 12z" fill="#f0f0f0"/><path d="m11.9997-.00036621c-5.15958 0-9.55809 3.25649621-11.253606 7.82610621h22.507306c-1.6956-4.56961-6.0941-7.82610621-11.2537-7.82610621z" fill="#d80027"/><path d="m12.0007 24.0008c5.1596 0 9.5581-3.2565 11.2536-7.8261h-22.50723c1.69552 4.5696 6.09403 7.8261 11.25363 7.8261z" fill="#338af3"/></g></svg>