<svg fill="none" height="24" viewBox="0 0 24 24" width="24" xmlns="http://www.w3.org/2000/svg" xmlns:xlink="http://www.w3.org/1999/xlink"><clipPath id="a"><path d="m0 0h24v24h-24z"/></clipPath><g clip-path="url(#a)"><path d="m12 24c6.6274 0 12-5.3726 12-12 0-6.62742-5.3726-12-12-12-6.62742 0-12 5.37258-12 12 0 6.6274 5.37258 12 12 12z" fill="#f0f0f0"/><g fill="#a2001d"><path d="m12.0007-.00073242c-5.54436 0-10.20964 3.76036242-11.586638 8.86954242h23.173238c-1.377-5.10918-6.0423-8.86954242-11.5866-8.86954242z"/><path d="m12.0007 23.9986c5.5443 0 10.2096-3.7604 11.5866-8.8696h-23.173238c1.376998 5.1092 6.042278 8.8696 11.586638 8.8696z"/></g></g></svg>