<svg fill="none" height="24" viewBox="0 0 24 24" width="24" xmlns="http://www.w3.org/2000/svg" xmlns:xlink="http://www.w3.org/1999/xlink"><clipPath id="a"><path d="m0 0h24v24h-24z"/></clipPath><g clip-path="url(#a)"><path d="m1.19072 6.78274c-.762845 1.57763-1.19072 3.34746-1.19072 5.21736s.427875 3.6398 1.19072 5.2174l10.80928 1.0435 10.8093-1.0435c.7628-1.5776 1.1907-3.3475 1.1907-5.2174s-.4279-3.63973-1.1907-5.21736l-10.8093-1.04348z" fill="#000"/><path d="m1.19141 17.2168c1.9409 4.0139 6.05132 6.7826 10.80889 6.7826 4.7574 0 8.8679-2.7687 10.8088-6.7826z" fill="#496e2d"/><path d="m1.19141 6.78299h21.61769c-1.9409-4.01395-6.0514-6.78262379-10.8088-6.78262379-4.75757 0-8.86799 2.76867379-10.80889 6.78262379z" fill="#d80027"/><g fill="#f0f0f0"><path d="m14.7929 9.80481.9846 1.35679 1.5945-.517-.9861 1.3556.9845 1.3568-1.594-.519-.9861 1.3556.001-1.6763-1.594-.519 1.5946-.5171z"/><path d="m12.1062 15.3904c-1.873 0-3.39135-1.5183-3.39135-3.3913 0-1.8729 1.51835-3.39128 3.39135-3.39128.5839 0 1.1334.14766 1.6132.40763-.7527-.73599-1.7818-1.19025-2.9176-1.19025-2.3052 0-4.17387 1.86871-4.17387 4.1739 0 2.3052 1.86872 4.1739 4.17387 4.1739 1.1358 0 2.165-.4543 2.9176-1.1903-.4798.2601-1.0292.4077-1.6132.4077z"/></g></g></svg>