<svg fill="none" height="24" viewBox="0 0 24 24" width="24" xmlns="http://www.w3.org/2000/svg" xmlns:xlink="http://www.w3.org/1999/xlink"><clipPath id="a"><path d="m0 0h24v24h-24z"/></clipPath><g clip-path="url(#a)"><path d="m12 24c6.6274 0 12-5.3726 12-12 0-6.62742-5.3726-12-12-12-6.62742 0-12 5.37258-12 12 0 6.6274 5.37258 12 12 12z" fill="#d80027"/><path d="m19.0924 9.84775h-5.4175l-1.6741-5.15232-1.6741 5.15232h-5.41752l4.38286 3.18435-1.67414 5.1524 4.3829-3.1843 4.3829 3.1844-1.6741-5.1525zm-8.5737 2.78575.5661-1.7423h1.8319l.5662 1.7423-1.4821 1.0768-1.482-1.0768zm2.059-2.78575h-1.1538l.5769-1.77563zm1.7928 2.14085-.3566-1.0974h1.867zm-4.38284-1.0974-.35657 1.0974-1.51046-1.0974zm-.38493 4.5614.57697-1.7755.9335.6781zm3.28567-1.0973.9335-.6782.577 1.7756z" fill="#ffda44"/></g></svg>