<svg fill="none" height="24" viewBox="0 0 24 24" width="24" xmlns="http://www.w3.org/2000/svg" xmlns:xlink="http://www.w3.org/1999/xlink"><clipPath id="a"><path d="m0 0h24v24h-24z"/></clipPath><g clip-path="url(#a)"><path d="m17.2175 1.19133c-1.5776-.762845-3.3475-1.19071965-5.2174-1.19071965-1.8698 0-3.63973.42787465-5.21736 1.19071965l-1.04348 10.80927 1.04348 10.8093c1.57763.7628 3.34756 1.1907 5.21736 1.1907 1.8699 0 3.6398-.4279 5.2174-1.1907l1.0435-10.8093z" fill="#ffda44"/><path d="m6.78262 1.19214c-4.0139 1.94095-6.78262 6.05137-6.78262 10.80886 0 4.7575 2.76872 8.8679 6.78262 10.8089z" fill="#0052b4"/><path d="m17.2178 1.19214v21.61776c4.0139-1.941 6.7826-6.0514 6.7826-10.8089 0-4.75749-2.7687-8.86791-6.7826-10.80886z" fill="#d80027"/><path d="m16.174 9.44228h-2.8696c0-.72037-.584-1.30434-1.3043-1.30434-.7204 0-1.3044.58397-1.3044 1.30434h-2.86953c0 .70922.61786 1.28422 1.32703 1.28422h-.04275c0 .7093.57497 1.2843 1.28425 1.2843 0 .628.4511 1.1498 1.0468 1.2614l-1.0121 2.2847c.4849.1971 1.0149.3067 1.5707.3067.5557 0 1.0857-.1096 1.5706-.3067l-1.012-2.2847c.5957-.1116 1.0467-.6334 1.0467-1.2614.7093 0 1.2843-.575 1.2843-1.2843h-.0428c.7092 0 1.3271-.575 1.3271-1.28422z" fill="#ff9811"/><path d="m12.0003 11.2178-1.6956.7826v1.5652l1.6956 1.0435 1.6957-1.0435v-1.5652z" fill="#0052b4"/><path d="m13.696 10.4341h-3.3913v1.5652h3.3913z" fill="#d80027"/></g></svg>