<svg fill="none" height="24" viewBox="0 0 24 24" width="24" xmlns="http://www.w3.org/2000/svg" xmlns:xlink="http://www.w3.org/1999/xlink"><clipPath id="a"><path d="m0 0h24v24h-24z"/></clipPath><g clip-path="url(#a)"><path d="m12 24c6.6274 0 12-5.3726 12-12 0-6.62742-5.3726-12-12-12-6.62742 0-12 5.37258-12 12 0 6.6274 5.37258 12 12 12z" fill="#ffda44"/><path d="m24 11.9997c0-4.11848-2.0751-7.75195-5.2365-9.91303h-13.52695c-3.16139 2.16108-5.23655 5.79455-5.23655 9.91303 0 4.1186 2.07516 7.752 5.23655 9.913h13.52695c3.1614-2.161 5.2365-5.7944 5.2365-9.913z" fill="#a2001d"/><path d="m9.3916 8.87015h5.2174v-2.08692l-1.0435.52172-1.5652-1.5652-1.5652 1.5652-1.0435-.52172z" fill="#ffda44"/><path d="m16.6961 12.0003h-2.6077c.1023-.1769.1617-.3816.1617-.6006 0-.665-.5391-1.204-1.204-1.204-.4594 0-.8584.2574-1.0615.6357-.203-.3783-.602-.6357-1.0614-.6357-.6649 0-1.20403.539-1.20403 1.204 0 .2191.05953.4238.16172.6006h-2.5762c0 .798.69501 1.4448 1.49292 1.4448h-.04809c0 .6545.43532 1.2072 1.03218 1.3847l-1.17267 1.1728 1.10677 1.1067 1.57-1.57c.0615.0226.1251.0406.1909.053l-.9487 2.1419c.4546.1849.9514.2875 1.4724.2875s1.0178-.1026 1.4725-.2875l-.9487-2.1419c.0657-.0124.1293-.0304.1908-.053l1.57 1.57 1.1067-1.1067-1.1727-1.1728c.5968-.1776 1.0322-.7301 1.0322-1.3847h-.0482c.798 0 1.4931-.6468 1.4931-1.4448z" fill="#ffda44"/><path d="m12.0003 12.7828-1.6956.7826v1.5653l1.6956 1.0434 1.6957-1.0434v-1.5653z" fill="#6da544"/><path d="m13.696 11.9991h-3.3913v2.087h3.3913z" fill="#0052b4"/></g></svg>