<svg fill="none" height="24" viewBox="0 0 24 24" width="24" xmlns="http://www.w3.org/2000/svg" xmlns:xlink="http://www.w3.org/1999/xlink"><clipPath id="a"><path d="m0 0h24v24h-24z"/></clipPath><g clip-path="url(#a)"><path d="m12 24c6.6274 0 12-5.3726 12-12 0-6.62742-5.3726-12-12-12-6.62742 0-12 5.37258-12 12 0 6.6274 5.37258 12 12 12z" fill="#f0f0f0"/><path d="m7.82617 11.9995v11.2536c1.29994.4824 2.70603.7464 4.17393.7464 6.6273 0 12-5.3727 12-12 0-6.62742-16.17393 0-16.17393 0z" fill="#6da544"/><path d="m12.0001.00036621c-1.4679 0-2.87399.26404679-4.17393.74639079v11.253643h16.17393c0-6.62741-5.3727-12.00003379-12-12.00003379z" fill="#d80027"/></g></svg>