<svg fill="none" height="24" viewBox="0 0 24 24" width="24" xmlns="http://www.w3.org/2000/svg" xmlns:xlink="http://www.w3.org/1999/xlink"><clipPath id="a"><path d="m0 0h24v24h-24z"/></clipPath><g clip-path="url(#a)"><path d="m12 24c6.6274 0 12-5.3726 12-12 0-2.01389-.4969-3.91153-1.3735-5.57812l-10.6406 5.59222 5.5922-10.64057c-1.6666-.876655-3.5642-1.37353-5.5781-1.37353-6.62738 0-12 5.37262-12 12 0 3.3137 1.34316 6.3137 3.51469 8.4853 2.17158 2.1716 5.17158 3.5147 8.48531 3.5147z" fill="#0052b4"/><path d="m22.6141 6.43435c-.5493-1.0455-1.2634-2.02711-2.1425-2.9062s-1.8606-1.59323-2.9062-2.14247l-14.06442 19.11302z" fill="#f0f0f0"/><path d="m3.50098 20.4994 19.11312-14.06439c-.5493-1.0455-1.2634-2.02711-2.1425-2.9062z" fill="#ff9811"/><path d="m10.4204 7.03688-1.46555.68934.78042 1.41938-1.5914-.30446-.20166 1.60766-1.1085-1.18245-1.1085 1.18245-.20156-1.60766-1.59141.30436.78033-1.41933-1.4655-.68929 1.46555-.68939-.78038-1.41929 1.59131.30436.20171-1.60762 1.10845 1.18242 1.1085-1.18242.20166 1.60762 1.59145-.30436-.78042 1.41933z" fill="#f0f0f0"/></g></svg>