<svg fill="none" height="24" viewBox="0 0 24 24" width="24" xmlns="http://www.w3.org/2000/svg" xmlns:xlink="http://www.w3.org/1999/xlink"><clipPath id="a"><path d="m0 0h24v24h-24z"/></clipPath><g clip-path="url(#a)"><path d="m12 24c6.6274 0 12-5.3726 12-12 0-6.62742-5.3726-12-12-12-6.62742 0-12 5.37258-12 12 0 6.6274 5.37258 12 12 12z" fill="#ffda44"/><g fill="#d80027"><path d="m13.8259 23.8624c1.9517-.2977 3.7482-1.0663 5.2714-2.1852l-7.0963-9.6768z"/><path d="m10.1757.137695c-1.95162.29775-3.74815 1.066315-5.2714 2.185175l7.0964 9.67683z"/><path d="m4.9043 21.6772c1.52315 1.1189 3.31968 1.8874 5.2713 2.1853l1.8251-11.8621z"/><path d="m2.32384 4.90234c-1.1189 1.52325-1.887371 3.31974-2.185168 5.27146l11.862028 1.825z"/><path d="m.138672 13.8253c.29775 1.9517 1.066308 3.7482 2.185218 5.2714l9.67681-7.0963z"/><path d="m23.863 10.174c-.2978-1.95167-1.0663-3.74821-2.1852-5.27141l-9.6768 7.09641z"/><path d="m19.0973 2.32282c-1.5232-1.11886-3.3197-1.887375-5.2714-2.185125l-1.8249 11.862005z"/><path d="m21.6779 19.0967c1.1189-1.5232 1.8874-3.3198 2.1852-5.2713l-11.8621-1.825z"/><path d="m12.001 16.1743c2.3052 0 4.1739-1.8687 4.1739-4.1739 0-2.30515-1.8687-4.17386-4.1739-4.17386-2.30514 0-4.17385 1.86871-4.17385 4.17386 0 2.3052 1.86871 4.1739 4.17385 4.1739z"/></g><path d="m12.0006 15.1297c1.7289 0 3.1304-1.4016 3.1304-3.1305s-1.4015-3.13043-3.1304-3.13043-3.13048 1.40153-3.13048 3.13043 1.40158 3.1305 3.13048 3.1305z" fill="#ffda44"/></g></svg>