<svg fill="none" height="24" viewBox="0 0 24 24" width="24" xmlns="http://www.w3.org/2000/svg" xmlns:xlink="http://www.w3.org/1999/xlink"><clipPath id="a"><path d="m0 0h24v24h-24z"/></clipPath><g clip-path="url(#a)"><path d="m16.1745.745902c-1.3-.482343-2.7061-.74639028-4.1739-.74639028-1.4679 0-2.87393.26404728-4.17391.74639028l-1.04349 11.253598 1.04349 11.2536c1.29998.4824 2.70601.7464 4.17391.7464 1.4678 0 2.8739-.264 4.1739-.7464l1.0435-11.2536z" fill="#ffda44"/><path d="m23.9999 12.0002c0-5.15953-3.2565-9.55809-7.8261-11.253557v22.507257c4.5696-1.6956 7.8261-6.0941 7.8261-11.2537z" fill="#d80027"/><path d="m0 11.9994c0 5.1596 3.2565 9.5581 7.82611 11.2537v-22.50725c-4.56961 1.69547-7.82611 6.09403-7.82611 11.25355z" fill="#6da544"/></g></svg>