<svg fill="none" height="24" viewBox="0 0 24 24" width="24" xmlns="http://www.w3.org/2000/svg" xmlns:xlink="http://www.w3.org/1999/xlink"><clipPath id="a"><path d="m0 0h24v24h-24z"/></clipPath><g clip-path="url(#a)"><path d="m23.2536 16.1744c.4824-1.3.7464-2.7061.7464-4.1739 0-1.4679-.264-2.874-.7464-4.17393l-11.2536-1.04349-11.253609 1.04349c-.482344 1.29993-.746391 2.70603-.746391 4.17393 0 1.4678.264047 2.8739.746391 4.1739l11.253609 1.0434z" fill="#6da544"/><path d="m23.2533 7.82599c-1.6955-4.56961-6.094-7.82611207-11.2536-7.82611207-5.15957 0-9.55809 3.25650207-11.253606 7.82611207z" fill="#ffda44"/><path d="m11.9997 23.9991c5.1596 0 9.5581-3.2565 11.2536-7.8261h-22.507206c1.695516 4.5696 6.094026 7.8261 11.253606 7.8261z" fill="#d80027"/><path d="m20.2292 10.153h-6.2863l-1.9426-5.97856-1.9426 5.97856h-6.28622l5.08571 3.695-1.9426 5.9787 5.08571-3.6523 5.0858 3.6522-1.9426-5.9787z" fill="#f0f0f0"/></g></svg>