<svg fill="none" height="24" viewBox="0 0 24 24" width="24" xmlns="http://www.w3.org/2000/svg" xmlns:xlink="http://www.w3.org/1999/xlink"><clipPath id="a"><path d="m0 0h24v24h-24z"/></clipPath><g clip-path="url(#a)"><path d="m11.9994 24.0006c1.4678 0 2.8739-.264 4.1739-.7464l.5217-11.2536-.5217-11.253599c-1.3-.482344-2.7061-.74639065-4.1739-.74639065-1.4679 0-2.87399.26404665-4.17392.74639065l-.52177 11.253599.52172 11.2536c1.29998.4824 2.70607.7464 4.17397.7464z" fill="#0052b4"/><path d="m0 12.0001c0 5.1595 3.2565 9.5581 7.82611 11.2536v-22.50724c-4.56961 1.69552-7.82611 6.09403-7.82611 11.25364z" fill="#a2001d"/><path d="m16.1738.745972v22.507228c4.5696-1.6955 7.8261-6.094 7.8261-11.2536s-3.2565-9.55811-7.8261-11.253628z" fill="#a2001d"/><g fill="#ffda44"><path d="m6.78274 11.9989h-1.04348v4.1739h1.04348z"/><path d="m2.60891 11.9989h-1.04348v4.1739h1.04348z"/><path d="m4.17434 14.6085c.5763 0 1.04349-.4672 1.04349-1.0435s-.46719-1.0435-1.04349-1.0435-1.04348.4672-1.04348 1.0435.46718 1.0435 1.04348 1.0435z"/><path d="m4.17406 10.4336c.28814 0 .52172-.2336.52172-.52175 0-.28813-.23358-.52171-.52172-.52171-.28813 0-.52172.23358-.52172.52171 0 .28815.23359.52175.52172.52175z"/><path d="m5.21783 15.1288h-2.08697v1.0435h2.08697z"/><path d="m5.21783 10.9551h-2.08697v1.0435h2.08697z"/><path d="m4.17458 6.26001.36956 1.13719h1.19569l-.96727.70284.36928 1.13719-.96726-.70284-.96722.70284.36928-1.13719-.96726-.70284h1.19568z"/></g></g></svg>