<svg fill="none" height="24" viewBox="0 0 24 24" width="24" xmlns="http://www.w3.org/2000/svg" xmlns:xlink="http://www.w3.org/1999/xlink"><clipPath id="a"><path d="m0 0h24v24h-24z"/></clipPath><g clip-path="url(#a)"><path d="m12 24c6.6274 0 12-5.3726 12-12 0-6.62742-5.3726-12-12-12-6.62742 0-12 5.37258-12 12 0 6.6274 5.37258 12 12 12z" fill="#496e2d"/><path d="m14.0872 11.5003c-.2945 0-.5742.0587-.8339.1522.1423-.3171.2377-.6699.2377-1.0466 0-1.49069-1.4907-2.60871-1.4907-2.60871s-1.4907 1.11802-1.4907 2.60871c0 .3767.0954.7295.2377 1.0466-.2598-.0934-.5394-.1522-.83393-.1522-1.49067 0-2.60868 1.4906-2.60868 1.4906s1.11801 1.4907 2.60868 1.4907c.87403 0 1.61943-.5122 2.08693-.9362.4676.4239 1.213.9362 2.087.9362 1.4907 0 2.6087-1.4907 2.6087-1.4907s-1.1181-1.4906-2.6088-1.4906z" fill="#f0f0f0"/><g fill="#ffda44"><path d="m12.0006 4.69458.308.94763h.9964l-.806.58575.3076.94762-.806-.58575-.806.58575.3077-.94762-.806-.58575h.9964z"/><path d="m8.2111 6.35156.59241.53335.69033-.39854-.32419.72821.59236.53344-.79275-.08335-.32419.72821-.16584-.77968-.79271-.08334.69028-.39863z"/><path d="m5.4375 9.12594.77972.1657.39858-.69032.08334.7927.77963.16584-.72816.32424.08334.7927-.53348-.5923-.72816.3242.39858-.6904z"/><path d="m15.7891 6.35156-.5923.53335-.6903-.39854.3241.72821-.5923.53344.7927-.08335.3242.72821.1659-.77968.7927-.08334-.6903-.39863z"/><path d="m18.5627 9.12594-.7797.1657-.3985-.69032-.0834.7927-.7796.16584.7281.32424-.0833.7927.5335-.5923.7281.3242-.3985-.6904z"/></g><path d="m11.9997 18.6554c1.1841 0 2.2755-.3951 3.151-1.0598h-6.30207c.87553.6647 1.96697 1.0598 3.15107 1.0598z" fill="#f0f0f0"/><path d="m7.2168 15.5243c.16561.379.37561.734.62226 1.0598h8.32114c.2467-.3257.4567-.6808.6223-1.0598z" fill="#f0f0f0"/></g></svg>