<svg fill="none" height="24" viewBox="0 0 24 24" width="24" xmlns="http://www.w3.org/2000/svg" xmlns:xlink="http://www.w3.org/1999/xlink"><clipPath id="a"><path d="m0 0h24v24h-24z"/></clipPath><g clip-path="url(#a)"><path d="m12 24c6.6274 0 12-5.3726 12-12 0-6.62742-5.3726-12-12-12-6.62742 0-12 5.37258-12 12 0 6.6274 5.37258 12 12 12z" fill="#338af3"/><path d="m11.6216 19.5561c-.3235-.0156-.5912-.2259-.696-.5113-.1852.2416-.5035.3632-.8171.2823-.31408-.0809-.53368-.3407-.57911-.6423-.23062.1993-.56662.2535-.8572.1112-.29114-.143-.45389-.442-.4372-.7462-.26555.1492-.60572.1346-.86189-.0637-.25566-.1982-.35532-.5233-.27811-.8181-.29011.0929-.61983.0105-.83114-.2353-.21132-.2452-.24371-.5838-.10903-.8567-.30263.0323-.60938-.1148-.76697-.3975-.15811-.2828-.12155-.6214.06572-.862-.30314-.0292-.57446-.2353-.67149-.5442-.09755-.3088.0068-.6333.23897-.8311-.29114-.0898-.51445-.3465-.54731-.6684-.03286-.3218.13411-.6177.40068-.7648-.26662-.1461-.43462-.4419-.40279-.7633h.00051c.03183-.3225.25514-.5796.54572-.6705-.23217-.1972-.33754-.5212-.24103-.83009.09652-.30937.36727-.516.67045-.54628-.18731-.24-.22485-.57867-.06782-.86189.15703-.28279.46382-.43045.76697-.39862-.13566-.27286-.10383-.61149.10696-.85772.21028-.24572.54-.32869.83063-.23686-.07828-.29428.02086-.61983.27651-.81858.25514-.19884.59532-.21398.86086-.06581-.0172-.30413.14503-.60314.43566-.74663.29011-.14297.62663-.08972.85772.10955.04434-.3015.264-.56236.57753-.64383.313-.08137.6313.03914.817.28017.1049-.28537.372-.49617.6955-.51234.323-.01664.6099.16486.7435.43781.1597-.25879.4633-.41217.7832-.36365.3203.048.5661.28378.6422.57862.2087-.22233.5374-.31045.8411-.19884.3041.11217.4972.39286.5118.69754.2489-.17526.589-.19565.864-.02451.275.17062.407.48417.36.7852.2791-.12154.6162-.07303.851.1492.2348.2228.3015.55618.1951.84155.2979-.06314.6183.05166.804.3172.1857.26504.1842.60521.023.86349.3041-.00211.5948.17531.7236.47217.1284.29738.0579.6308-.1523.85149.299.05948.5478.29166.6135.60886.0652.3172-.0709.6287-.3208.8024.2796.1185.4768.3955.4774.719v.0105.0068c0 .3234-.1962.601-.4759.7205.2505.1727.3877.4842.3225.8014-.0647.3172-.3131.5499-.612.6104.2108.2202.2823.553.1544.851-.1278.2974-.4184.4753-.7231.4737.1617.2583.1643.5985-.0209.864-.1852.2656-.505.3814-.8029.3188.1069.2849.0406.6188-.1936.8421-.2348.2228-.5713.2718-.8504.1513.0474.3005-.084.6146-.3585.7863-.2744.1717-.6146.1518-.864-.023-.0141.3047-.2061.586-.5097.6987 0 0 0 0-.0005 0-.3037.1121-.6324.0245-.8416-.1972-.0751.2953-.3203.5316-.6407.5807-.3198.0485-.624-.1038-.7841-.3626-.1273.2624-.3965.4408-.7033.4408-.0131.0002-.0262-.0003-.0392-.0009z" fill="#f3f3f3"/><path d="m12.0006 17.2183c2.8815 0 5.2174-2.3359 5.2174-5.2174 0-2.88149-2.3359-5.21739-5.2174-5.21739s-5.2174 2.3359-5.2174 5.21739c0 2.8815 2.3359 5.2174 5.2174 5.2174z" fill="#338af3"/><path d="m13.142 10.2289c.2563-.1901.4232-.49402.4232-.83771v-.52172c0-.57632-.4671-1.04348-1.0435-1.04348h-1.0434c-.5763 0-1.0435.46716-1.0435 1.04348v.52172c0 .34369.1669.64761.4232.83771l-.94491 9.597s.52171.5219 2.08701.5219c1.5652 0 2.0869-.5219 2.0869-.5219z" fill="#bdbcc1"/><path d="m12.0002 7.82599.9065 2.78991h2.9337l-2.3733 1.7244.9064 2.79-2.3733-1.7243-2.37333 1.7243.90663-2.79-2.37334-1.7244h2.93354z" fill="#f0f0f0"/></g></svg>