<svg fill="none" height="24" viewBox="0 0 24 24" width="24" xmlns="http://www.w3.org/2000/svg" xmlns:xlink="http://www.w3.org/1999/xlink"><clipPath id="a"><path d="m0 0h24v24h-24z"/></clipPath><g clip-path="url(#a)"><path d="m12 24c6.6274 0 12-5.3726 12-12 0-6.62742-5.3726-12-12-12-6.62742 0-12 5.37258-12 12 0 6.6274 5.37258 12 12 12z" fill="#f0f0f0"/><path d="m23.8964 10.4353c-.331-2.53055-1.4677-4.97583-3.4119-6.91997-1.9441-1.94414-4.3895-3.080905-6.92-3.411936v10.331906z" fill="#0052b4"/><path d="m10.4345.104065c-2.5306.331031-4.97593 1.467755-6.92007 3.411895-1.94409 1.94418-3.08086 4.38951-3.411891 6.92014h10.331961z" fill="#0052b4"/><path d="m.102539 13.5664c.331031 2.5306 1.467801 4.976 3.411891 6.9201 1.94414 1.9441 4.38942 3.0808 6.92007 3.4119v-10.3319z" fill="#0052b4"/><path d="m13.5645 23.8983c2.5305-.331 4.9758-1.4677 6.92-3.4119 1.9441-1.9441 3.0808-4.3894 3.4119-6.92h-10.3319z" fill="#0052b4"/><g fill="#f0f0f0"><path d="m16.0961 7.61471c0-.15956.1297-.28926.2893-.28926h.6199c.9798 0 1.777-.79716 1.777-1.77699s-.7971-1.77703-1.777-1.77703h-.5887c-.1921-.14433-.4499-.23334-.7342-.23334-.5932 0-1.074.38461-1.074.85907 0 .46988.4717.85107 1.0568.85847l-.0002.00343h1.3403c.1596 0 .2893.12975.2893.28931s-.1297.28926-.2893.28926h-.6199c-.9799 0-1.777.79716-1.777 1.77699s.7971 1.77703 1.777 1.77703h2.3969v-1.48772h-2.3969c-.1596.00005-.2893-.12965-.2893-.28922z"/><path d="m6.70442 7.61484c0-.15957.12971-.28927.28931-.28927h.61988c.97987 0 1.77708-.79716 1.77708-1.77699 0-.97982-.79716-1.77703-1.77708-1.77703h-.58866c-.19214-.14433-.4499-.23334-.73425-.23334-.59311 0-1.0739.38461-1.0739.85908 0 .46987.47161.85106 1.05679.85847l-.00028.00342h1.34035c.15961 0 .28931.12975.28931.28931s-.1297.28927-.28931.28927h-.61988c-.97987 0-1.77698.79715-1.77698 1.77698s.79706 1.77703 1.77698 1.77703h2.39686v-1.48771h-2.39691c-.1596.00004-.28931-.12966-.28931-.28922z"/><path d="m16.0961 18.6859c0-.1595.1297-.2892.2893-.2892h.6199c.9799 0 1.7771-.7972 1.7771-1.777s-.7972-1.777-1.7771-1.777h-.5886c-.1922-.1444-.45-.2334-.7343-.2334-.5932 0-1.074.3847-1.074.8591 0 .4699.4717.8511 1.0568.8585l-.0002.0034h1.3403c.1596 0 .2893.1297.2893.2893s-.1297.2893-.2893.2893h-.6199c-.9799 0-1.777.7971-1.777 1.7769 0 .9799.7971 1.7771 1.777 1.7771h2.3969v-1.4877h-2.3969c-.1596.0001-.2893-.1297-.2893-.2893z"/><path d="m6.70447 18.6859c0-.1595.1297-.2892.28931-.2892h.61987c.97988 0 1.77708-.7972 1.77708-1.777s-.79715-1.777-1.77708-1.777h-.58865c-.19214-.1444-.44991-.2334-.73425-.2334-.59316 0-1.07395.3847-1.07395.8591 0 .4699.47161.8511 1.05679.8585l-.00028.0034h1.34034c.15961 0 .28932.1297.28932.2893s-.12971.2893-.28932.2893h-.61987c-.97987 0-1.77698.7971-1.77698 1.7769 0 .9799.79706 1.7771 1.77698 1.7771h2.3969v-1.4877h-2.3969c-.15961.0001-.28931-.1297-.28931-.2893z"/></g></g></svg>