<svg fill="none" height="24" viewBox="0 0 24 24" width="24" xmlns="http://www.w3.org/2000/svg" xmlns:xlink="http://www.w3.org/1999/xlink"><clipPath id="a"><path d="m0 0h24v24h-24z"/></clipPath><g clip-path="url(#a)"><path d="m12 24c6.6274 0 12-5.3726 12-12 0-6.62742-5.3726-12-12-12-6.62742 0-12 5.37258-12 12 0 6.6274 5.37258 12 12 12z" fill="#496e2d"/><g fill="#ffda44"><path d="m12.0001 13.8637c-1.9981 0-3.66735-1.4043-4.0769-3.2795-.0629.2882-.09703.5872-.09703.8944 0 2.3052 1.86867 4.1739 4.17393 4.1739 2.3052 0 4.1739-1.8687 4.1739-4.1739 0-.3072-.0342-.6062-.0971-.8945-.4095 1.8753-2.0787 3.2796-4.0768 3.2796z"/><path d="m12.0002 8.34778.3885 1.19573h1.2574l-1.0172.73899.3885 1.1957-1.0172-.739-1.0171.739.3885-1.1957-1.0171-.73899h1.2572z"/></g></g></svg>