<svg fill="none" height="24" viewBox="0 0 24 24" width="24" xmlns="http://www.w3.org/2000/svg" xmlns:xlink="http://www.w3.org/1999/xlink"><clipPath id="a"><path d="m0 0h24v24h-24z"/></clipPath><g clip-path="url(#a)"><path d="m24 12c0 6.6274-5.3726 12-12 12-6.62738 0-12-5.3726-12-12 0 .0029 12-11.9986875 12-12 6.6274 0 12 5.37262 12 12z" fill="#0052b4"/><path d="m11.9678 11.9997h.0321c0-.0108 0-.0213 0-.0322-.0107.0108-.0214.0215-.0321.0322z" fill="#f0f0f0"/><path d="m12 6.26123c0-2.11149 0-3.495 0-6.26086379h-.002c-6.62655.001125-11.998 5.37323379-11.998 12.00003379h6.26086v-3.52555l3.52551 3.52555h2.18153c.0107-.0107.0214-.0214.0321-.0321 0-.8085 0-1.5299 0-2.18147l-3.52557-3.5256z" fill="#f0f0f0"/><path d="m6.07124 1.56543c-1.87683 1.0687-3.43715 2.62898-4.50581 4.50581v5.92896h3.13045v-7.30422-.0001h7.30432c0-.98732 0-1.92792 0-3.13045z" fill="#d80027"/><path d="m12.0009 10.5242-4.26356-4.26346h-1.47562v.0001l5.73908 5.73896h.0001s0-1.0175 0-1.4756z" fill="#d80027"/><path d="m13.5654 6.2605v5.7391c0 2.7956 3.6522 3.6522 3.6522 3.6522s3.6522-.8566 3.6522-3.6522v-5.7391z" fill="#338af3"/><path d="m13.5654 11.9991c0 2.7957 3.6522 3.6523 3.6522 3.6523s3.6522-.8566 3.6522-3.6523z" fill="#a2001d"/><path d="m18.7828 8.86909h-1.0435v-1.04353h-1.0435v1.04353h-1.0435v1.04344h1.0435v3.13037h1.0435v-3.13037h1.0435z" fill="#000"/></g></svg>