<svg fill="none" height="24" viewBox="0 0 24 24" width="24" xmlns="http://www.w3.org/2000/svg" xmlns:xlink="http://www.w3.org/1999/xlink"><clipPath id="a"><path d="m0 0h24v24h-24z"/></clipPath><g clip-path="url(#a)"><path d="m12 24c6.6274 0 12-5.3726 12-12 0-6.62742-5.3726-12-12-12-6.62742 0-12 5.37258-12 12 0 6.6274 5.37258 12 12 12z" fill="#f0f0f0"/><path d="m12-.00048828c6.6274 0 12 5.37262828 12 11.99998828 0 6.6274-5.3726 12-12 12" fill="#d80027"/><path d="m8.34725 4.69624v-1.5652h-1.5652v1.5652h-1.56525v1.56521h1.56525v1.56524h1.5652v-1.56524h1.5652v-1.56521z" fill="#acabb1"/></g></svg>