<svg fill="none" height="24" viewBox="0 0 24 24" width="24" xmlns="http://www.w3.org/2000/svg" xmlns:xlink="http://www.w3.org/1999/xlink"><clipPath id="a"><path d="m0 0h24v24h-24z"/></clipPath><g clip-path="url(#a)"><path d="m1.45898 6.26037 10.54092 1.04349 10.5409-1.04349c-2.0352-3.73012-5.9924-6.26085828-10.5409-6.26085828-4.54851 0-8.50565 2.53073828-10.54092 6.26085828z" fill="#d80027"/><path d="m1.45908 17.7384 10.54092 1.0435 10.5409-1.0435c.9302-1.7049 1.4591-3.6602 1.4591-5.7391l-12-1.0435-12 1.0435c0 2.0789.528891 4.0342 1.45908 5.7391z" fill="#ffda44"/><path d="m1.45908 6.26099c-.930189 1.70489-1.45908 3.66023-1.45908 5.73911h24c0-2.07888-.5289-4.03422-1.4591-5.73911h-10.5409z" fill="#0052b4"/><path d="m11.9999 23.9996c4.5485 0 8.5057-2.5308 10.5409-6.2609h-21.08182c2.03527 3.7301 5.99241 6.2609 10.54092 6.2609z" fill="#6da544"/></g></svg>