<svg fill="none" height="24" viewBox="0 0 24 24" width="24" xmlns="http://www.w3.org/2000/svg" xmlns:xlink="http://www.w3.org/1999/xlink"><clipPath id="a"><path d="m0 0h24v24h-24z"/></clipPath><g clip-path="url(#a)"><path d="m12 24c6.6274 0 12-5.3726 12-12 0-6.62742-5.3726-12-12-12-6.62742 0-12 5.37258-12 12 0 6.6274 5.37258 12 12 12z" fill="#d80027"/><path d="m19.826 6.26099h-15.65217v11.47831h15.65217z" fill="#6da544"/><path d="m13.9323 15.3913c-1.8729 0-3.3913-1.5184-3.3913-3.3913 0-1.873 1.5184-3.39133 3.3913-3.39133.584 0 1.1335.14766 1.6132.40763-.7525-.73598-1.7817-1.19025-2.9175-1.19025-2.3051 0-4.1739 1.86872-4.1739 4.17385 0 2.3052 1.8688 4.1739 4.1739 4.1739 1.1358 0 2.165-.4542 2.9175-1.1902-.4797.26-1.0292.4077-1.6132.4077z" fill="#f0f0f0"/></g></svg>