<svg fill="none" height="24" viewBox="0 0 24 24" width="24" xmlns="http://www.w3.org/2000/svg" xmlns:xlink="http://www.w3.org/1999/xlink"><clipPath id="a"><path d="m0 0h24v24h-24z"/></clipPath><g clip-path="url(#a)"><path d="m0 11.9997c0 1.4679.264047 2.8739.746391 4.1739l11.253609.5218 11.2536-.5217c.4824-1.3001.7464-2.7061.7464-4.174 0-1.4678-.264-2.87387-.7464-4.17386l-11.2536-.52176-11.253609.52172c-.482344 1.30003-.746391 2.7061-.746391 4.1739z" fill="#d80027"/><path d="m11.9997-.00036621c-5.15957 0-9.55809 3.25649621-11.253606 7.82610621h22.507306c-1.6956-4.56961-6.0941-7.82610621-11.2537-7.82610621z" fill="#000"/><path d="m23.2533 16.1747h-22.507206c1.695516 4.5695 6.094026 7.8261 11.253606 7.8261 5.1596 0 9.5581-3.2566 11.2536-7.8261z" fill="#496e2d"/><path d="m15.5864 5.73994-1.4655-.68934.7804-1.41933-1.5914.30445-.2017-1.60772-1.1085 1.18242-1.1084-1.18242-.2017 1.60772-1.59139-.30445.78042 1.41933-1.46554.68934z" fill="#d80027"/></g></svg>