<svg fill="none" height="24" viewBox="0 0 24 24" width="24" xmlns="http://www.w3.org/2000/svg" xmlns:xlink="http://www.w3.org/1999/xlink"><clipPath id="a"><path d="m0 0h24v24h-24z"/></clipPath><g clip-path="url(#a)"><path d="m12 24c6.6274 0 12-5.3726 12-12 0-6.62742-5.3726-12-12-12-6.62742 0-12 5.37258-12 12 0 6.6274 5.37258 12 12 12z" fill="#f0f0f0"/><path d="m23.9994 11.9997c0-4.75752-2.7687-8.86827-6.7826-10.80927v21.61847c4.0139-1.9409 6.7826-6.0517 6.7826-10.8092z" fill="#d80027"/><path d="m0 11.9997c0 4.7575 2.76867 8.8683 6.78262 10.8093v-21.61857c-4.01395 1.941-6.78262 6.05175-6.78262 10.80927z" fill="#6da544"/><path d="m8.87012 11.9992c0 1.7289 1.40158 3.1305 3.13048 3.1305s3.1304-1.4016 3.1304-3.1305v-1.0435h-6.26088z" fill="#6da544"/><path d="m16.1731 9.91336h-3.1305c0-.57628-.4672-1.04349-1.0435-1.04349-.5762 0-1.0434.46721-1.0434 1.04349h-3.1305c0 .57634.50198 1.04344 1.07822 1.04344h-.03474c0 .5764.46716 1.0435 1.04349 1.0435 0 .5763.46713 1.0435 1.04353 1.0435h2.0869c.5764 0 1.0435-.4672 1.0435-1.0435.5763 0 1.0435-.4671 1.0435-1.0435h-.0348c.5763 0 1.0783-.4671 1.0783-1.04344z" fill="#ff9811"/></g></svg>