<svg fill="none" height="24" viewBox="0 0 24 24" width="24" xmlns="http://www.w3.org/2000/svg" xmlns:xlink="http://www.w3.org/1999/xlink"><clipPath id="a"><path d="m0 0h24v24h-24z"/></clipPath><g clip-path="url(#a)"><path d="m12 24c6.6274 0 12-5.3726 12-12 0-6.62742-5.3726-12-12-12-6.62742 0-12 5.37258-12 12 0 6.6274 5.37258 12 12 12z" fill="#f0f0f0"/><g fill="#d80027"><path d="m11.4785 12.0002h12.5217c0-1.0831-.1443-2.13229-.4133-3.13045h-12.1084z"/><path d="m11.4785 5.73873h10.7605c-.7346-1.19869-1.6738-2.2582-2.7689-3.13045h-7.9916z"/><path d="m12.0011 24.0002c2.8242 0 5.42-.9762 7.4699-2.6087h-14.93975c2.04989 1.6325 4.64569 2.6087 7.46985 2.6087z"/><path d="m1.76195 18.2601h20.47745c.5897-.9623 1.047-2.0142 1.3479-3.1305h-23.173238c.300797 1.1163.758158 2.1682 1.347888 3.1305z"/></g><path d="m12 12c0-6.62738 0-7.40869 0-12-6.62738 0-12 5.37262-12 12z" fill="#0052b4"/><path d="m7.98001 10.2709c-1.63884 0-2.96738-1.32861-2.96738-2.96741 0-1.63879 1.32858-2.96737 2.96738-2.96737.51099 0 .99178.12923 1.41155.35667-.6585-.64392-1.55906-1.04142-2.55286-1.04142-2.01699 0-3.65218 1.63514-3.65218 3.65217s1.63519 3.65216 3.65218 3.65216c.9938 0 1.89436-.3975 2.55286-1.04141-.41977.22731-.90052.35661-1.41155.35661z" fill="#ffda44"/><path d="m8.81647 5.21729.52683 1.10165 1.1897-.27487-.5328 1.0987.9569.75876-1.19132.26855.00333 1.22114-.95264-.76397-.95269.76397.00328-1.22114-1.19128-.26855.95681-.75876-.53282-1.0987 1.18982.27487z" fill="#ffda44"/></g></svg>