<svg fill="none" height="24" viewBox="0 0 24 24" width="24" xmlns="http://www.w3.org/2000/svg" xmlns:xlink="http://www.w3.org/1999/xlink"><clipPath id="a"><path d="m0 0h24v24h-24z"/></clipPath><g clip-path="url(#a)"><path d="m12 24c6.6274 0 12-5.3726 12-12 0-6.62742-5.3726-12-12-12-6.62742 0-12 5.37258-12 12 0 6.6274 5.37258 12 12 12z" fill="#f0f0f0"/><path d="m6.48568 16.6959-2.97103 3.7893c2.17144 2.1717 5.17111 3.5151 8.48485 3.5151 4.9608 0 9.2177-3.0108 11.0452-7.3044z" fill="#ffda44"/><path d="m23.0634 7.34841c-1.8173-4.31677-6.0863-7.34779965-11.0639-7.34779965-3.31374 0-6.31341 1.34338965-8.48485 3.51510965l3.00516 3.83269z" fill="#496e2d"/><path d="m2.6084 8.82593v6.30427h20.978c.2691-.998.4133-2.0472.4133-3.1304 0-1.0988-.148-2.16287-.4247-3.17387z" fill="#000"/><path d="m3.51471 3.51428c-4.68628 4.68628-4.68628 12.28432 0 16.97062 1.93655-1.9365 3.79903-3.799 8.48529-8.4853z" fill="#a2001d"/><path d="m4.85694 8.86938.77696 2.39142h2.51465l-2.03428 1.478.77691 2.3915-2.03424-1.478-2.03432 1.478.77709-2.3915-2.03428-1.478h2.51447z" fill="#ffda44"/><path d="m7.13101 11.9991h-4.548v2.087h4.548z" fill="#f0f0f0"/><path d="m7.99252 9.60729-.73786-.73791-2.39756 2.39752-2.39756-2.39752-.73786.73791 2.39967 2.39541-2.39967 2.3997.73786.7279 2.39756-2.3933 2.39756 2.3933.73786-.7279-2.39967-2.3997z" fill="#000"/></g></svg>