<svg fill="none" height="24" viewBox="0 0 24 24" width="24" xmlns="http://www.w3.org/2000/svg" xmlns:xlink="http://www.w3.org/1999/xlink"><clipPath id="a"><path d="m0 0h24v24h-24z"/></clipPath><g clip-path="url(#a)"><path d="m12 24c6.6274 0 12-5.3726 12-12 0-6.62742-5.3726-12-12-12-6.62742 0-12 5.37258-12 12 0 6.6274 5.37258 12 12 12z" fill="#f0f0f0"/><path d="m3.51451 20.4849c.50339.5034 1.04048.9523 1.60387 1.3476l16.71422-16.71424c-.3952-.56339-.8442-1.10048-1.3476-1.60387s-1.0405-.95227-1.6039-1.34752l-16.71411 16.71423c.39521.5633.84413 1.1004 1.34752 1.6038z" fill="#a2001d"/><path d="m3.51526 3.51478c-3.785815 3.78581-4.512566 9.47142-2.1818 13.98742l16.16914-16.16913c-4.516-2.330762-10.20162-1.603918-13.98734 2.18171z" fill="#0052b4"/><path d="m20.4854 20.4847c3.7857-3.7857 4.5125-9.4713 2.1818-13.98739l-16.16915 16.16919c4.51595 2.3307 10.20155 1.604 13.98735-2.1818z" fill="#496e2d"/><path d="m9.91356 6.78182-1.34465.63249.71606 1.30228-1.46011-.27928-.18506 1.47492-1.017-1.08483-1.01705 1.08483-.18497-1.47492-1.46015.27923.71601-1.30228-1.34461-.63244 1.34466-.63253-.71606-1.30219 1.4601.27928.18507-1.47501 1.017 1.08487 1.01704-1.08487.18502 1.47501 1.46011-.27928-.71597 1.30224z" fill="#ffda44"/></g></svg>