<svg fill="none" height="24" viewBox="0 0 24 24" width="24" xmlns="http://www.w3.org/2000/svg" xmlns:xlink="http://www.w3.org/1999/xlink"><clipPath id="a"><path d="m0 0h24v24h-24z"/></clipPath><g clip-path="url(#a)"><path d="m1.19072 6.78213c-.762845 1.57763-1.19072 3.34747-1.19072 5.21737s.427875 3.6398 1.19072 5.2174l10.80928 1.0435 10.8093-1.0435c.7628-1.5776 1.1907-3.3475 1.1907-5.2174s-.4279-3.63974-1.1907-5.21737l-10.8093-1.04348z" fill="#f0f0f0"/><path d="m1.19043 17.2183c1.94091 4.0139 6.05133 6.7826 10.80887 6.7826 4.7575 0 8.8679-2.7687 10.8088-6.7826z" fill="#6da544"/><g fill="#ff9811"><path d="m1.19043 6.78238h21.61767c-1.9409-4.01395-6.0513-6.78262414-10.8088-6.78262414-4.75749 0-8.86796 2.76867414-10.80887 6.78262414z"/><path d="m11.9991 16.1742c2.3052 0 4.1739-1.8687 4.1739-4.1739 0-2.30517-1.8687-4.17388-4.1739-4.17388-2.30519 0-4.1739 1.86871-4.1739 4.17388 0 2.3052 1.86871 4.1739 4.1739 4.1739z"/></g></g></svg>