<svg fill="none" height="24" viewBox="0 0 24 24" width="24" xmlns="http://www.w3.org/2000/svg" xmlns:xlink="http://www.w3.org/1999/xlink"><clipPath id="a"><path d="m0 0h24v24h-24z"/></clipPath><g clip-path="url(#a)"><path d="m17.2165 1.19047c-1.5776-.762839-3.3475-1.19071414-5.2174-1.19071414s-3.63971.42787514-5.21734 1.19071414l-1.04348 10.80933 1.04348 10.8092c1.57763.7629 3.34744 1.1908 5.21734 1.1908s3.6398-.4279 5.2174-1.1908l1.0435-10.8092z" fill="#f0f0f0"/><g fill="#6da544"><path d="m6.78262 1.19122c-4.01395 1.94091-6.78262 6.05133-6.78262 10.80888 0 4.7575 2.76867 8.8679 6.78262 10.8088z"/><path d="m17.2168 1.19122v21.61768c4.0139-1.9409 6.7826-6.0513 6.7826-10.8088s-2.7687-8.86797-6.7826-10.80888z"/><path d="m15.131 15.6516-3.1304-9.91301-3.13048 9.91301h2.34778v2.6087h1.5653v-2.6087z"/></g></g></svg>