<svg fill="none" height="24" viewBox="0 0 24 24" width="24" xmlns="http://www.w3.org/2000/svg" xmlns:xlink="http://www.w3.org/1999/xlink"><clipPath id="a"><path d="m0 0h24v24h-24z"/></clipPath><g clip-path="url(#a)"><path d="m12 24c6.6274 0 12-5.3726 12-12 0-6.62742-5.3726-12-12-12-6.62742 0-12 5.37258-12 12 0 6.6274 5.37258 12 12 12z" fill="#f0f0f0"/><g fill="#6da544"><path d="m0 12.0003c0 5.1596 3.2565 9.5581 7.82611 11.2536v-22.507196c-4.56961 1.695466-7.82611 6.094036-7.82611 11.253596z"/><path d="m23.9999 12.0003c0-5.15956-3.2565-9.55813-7.8261-11.253596v22.507296c4.5696-1.6956 7.8261-6.0941 7.8261-11.2537z"/></g></g></svg>