<svg fill="none" height="24" viewBox="0 0 24 24" width="24" xmlns="http://www.w3.org/2000/svg" xmlns:xlink="http://www.w3.org/1999/xlink"><clipPath id="a"><path d="m0 0h24v24h-24z"/></clipPath><g clip-path="url(#a)"><path d="m12 24c6.6274 0 12-5.3726 12-12 0-6.62742-5.3726-12-12-12-6.62742 0-12 5.37258-12 12 0 6.6274 5.37258 12 12 12z" fill="#f0f0f0"/><path d="m12.0007-.00024414c-4.75754 0-8.86829 2.76867414-10.80929 6.78262414h21.61849c-1.9409-4.01395-6.0517-6.78262414-10.8092-6.78262414z" fill="#338af3"/><path d="m12.0007 24.001c4.7575 0 8.8683-2.7687 10.8093-6.7826h-21.61859c1.941 4.0139 6.05175 6.7826 10.80929 6.7826z" fill="#338af3"/><path d="m11.9998 8.34766c-2.017 0-3.65214 1.63514-3.65214 3.65214 0 2.0171 1.63514 3.6522 3.65214 3.6522 2.0171 0 3.6522-1.6351 3.6522-3.6522 0-2.017-1.6351-3.65214-3.6522-3.65214zm0 5.73914c-1.1525 0-2.08694-.9343-2.08694-2.087 0-1.1526.93434-2.08694 2.08694-2.08694s2.087.93434 2.087 2.08694c0 1.1527-.9344 2.087-2.087 2.087z" fill="#ffda44"/><path d="m13.8071 12.5222-1.8074-.5217-1.8074.5217-.60246 1.0435h4.81966z" fill="#0052b4"/><path d="m11.9998 9.39136-1.2049 2.08694 1.2049.5217 1.205-.5217z" fill="#338af3"/><path d="m10.1924 12.5211h3.6148l-.6025-1.0434h-2.4098z" fill="#6da544"/></g></svg>