<svg fill="none" height="24" viewBox="0 0 24 24" width="24" xmlns="http://www.w3.org/2000/svg" xmlns:xlink="http://www.w3.org/1999/xlink"><clipPath id="a"><path d="m0 0h24v24h-24z"/></clipPath><g clip-path="url(#a)"><path d="m12 24c6.6274 0 12-5.3726 12-12 0-6.62742-5.3726-12-12-12-6.62742 0-12 5.37258-12 12 0 6.6274 5.37258 12 12 12z" fill="#f0f0f0"/><g fill="#d80027"><path d="m.413086 15.131c.694314 2.5762 2.224544 4.809 4.282264 6.3901v-6.3901z"/><path d="m10.9561 23.9549c.3439.0296.6918.0456 1.0434.0456 5.5444 0 10.2096-3.7603 11.5866-8.8695h-12.63z"/><path d="m23.5861 8.87004c-1.377-5.10919-6.0422-8.86955172-11.5866-8.86955172-.3516 0-.6995.01603122-1.0434.04565622v8.8238955z"/><path d="m4.69535 2.48029c-2.05772 1.58109-3.58795 3.81389-4.282264 6.39009h4.282264z"/></g><path d="m23.8984 10.4343h-14.50704-.00005v-10.149571c-1.10897.245906-2.16033.644484-3.13045 1.173841v8.97563h-6.159282c-.0667967.5124-.101578 1.0348-.101578 1.5653s.0347813 1.0529.101578 1.5652h6.159232.00005v8.9757c.97012.5293 2.02148.928 3.13045 1.1738v-10.1494-.0001h14.50709c.0667-.5123.1016-1.0347.1016-1.5652s-.0349-1.0529-.1016-1.5652z" fill="#0052b4"/></g></svg>