<svg fill="none" height="24" viewBox="0 0 24 24" width="24" xmlns="http://www.w3.org/2000/svg" xmlns:xlink="http://www.w3.org/1999/xlink"><clipPath id="a"><path d="m0 0h24v24h-24z"/></clipPath><g clip-path="url(#a)"><path d="m12 24c6.6274 0 12-5.3726 12-12 0-6.62742-5.3726-12-12-12-6.62742 0-12 5.37258-12 12 0 6.6274 5.37258 12 12 12z" fill="#f0f0f0"/><path d="m23.9292 13.3041c0-.0001.0001-.0002.0001-.0004l-13.16-13.2415662c-.5936.0605152-1.17455.1642972-1.73944.3081562-5.19089 1.32164-9.02986 11.62941-9.02986 11.62941s16.7999 11.2423 18.7165 9.9452c.3835-.2595.7512-.5406 1.1012-.8415l-7.7992-7.7993z" fill="#0052b4"/><path d="m20.8695 11.9995-11.67051-11.670521c-5.27611 1.261731-9.19899 6.007641-9.19899 11.670521 0 6.6274 5.37263 12 12 12 2.5139 0 4.8467-.7735 6.7748-2.0948l-9.90525-9.9052z" fill="#d80027"/><g fill="#f0f0f0"><path d="m11.4126 17.7174-1.46556-.6894.78046-1.4193-1.59145.3044-.20165-1.6077-1.10845 1.1824-1.10846-1.1824-.2017 1.6077-1.59136-.3045.78042 1.4194-1.46559.6894 1.46559.6893-.78042 1.4193 1.59145-.3044.20157 1.6076 1.1085-1.1824 1.10845 1.1824.20165-1.6076 1.59135.3045-.78041-1.4194z"/><path d="m10.4342 6.6549-1.06592-.50133.56761-1.03233-1.15748.22144-.14667-1.16934-.80621.86001-.8062-.86001-.14672 1.16934-1.15749-.22144.56766 1.03233-1.06598.50133 2.60873.52181z"/><path d="m10.9572 6.65527c0 1.72889-1.40157 3.13045-3.13046 3.13045s-3.13045-1.40156-3.13045-3.13045"/></g></g></svg>