<svg fill="none" height="24" viewBox="0 0 24 24" width="24" xmlns="http://www.w3.org/2000/svg" xmlns:xlink="http://www.w3.org/1999/xlink"><clipPath id="a"><path d="m0 0h24v24h-24z"/></clipPath><g clip-path="url(#a)"><path d="m12 24c6.6274 0 12-5.3726 12-12 0-6.62742-5.3726-12-12-12-6.62742 0-12 5.37258-12 12 0 6.6274 5.37258 12 12 12z" fill="#0052b4"/><path d="m12 24c6.6274 0 12-5.3726 12-12 0-6.62742-5.3726-12-12-12-6.62742 0-12 5.37258-12 12 0 6.6274 5.37258 12 12 12z" fill="#ffda44"/><path d="m12.0012-.00048828c-6.27584 0-11.425434 4.81785828-11.954325 10.95648828h23.908625c-.5289-6.13863-5.6785-10.95648828-11.9543-10.95648828z" fill="#0052b4"/><path d="m12.0002 24.0001c6.2758 0 11.4254-4.8179 11.9543-10.9565h-23.9086016c.5288906 6.1386 5.6784816 10.9565 11.9543016 10.9565z" fill="#0052b4"/><path d="m9.91361 16.1745-1.34466.6325.71602 1.3022-1.46011-.2793-.18502 1.475-1.01704-1.0848-1.017 1.0848-.18502-1.475-1.46015.2793.71606-1.3022-1.34466-.6325 1.3447-.6325-.7161-1.3022 1.4601.2793.18511-1.475 1.01696 1.0848 1.01709-1.0848.18497 1.475 1.46016-.2793-.71602 1.3022z" fill="#f0f0f0"/></g></svg>