<svg fill="none" height="24" viewBox="0 0 24 24" width="24" xmlns="http://www.w3.org/2000/svg" xmlns:xlink="http://www.w3.org/1999/xlink"><clipPath id="a"><path d="m0 0h24v24h-24z"/></clipPath><g clip-path="url(#a)"><path d="m24 12c0 6.6274-5.3726 12-12 12-6.62738 0-12-5.3726-12-12 0 .0029 12-11.9986875 12-12 6.6274 0 12 5.37262 12 12z" fill="#ffda44"/><path d="m12.0001 5.7395v4.04733l-4.17393-4.04733z" fill="#0052b4"/><path d="m6.26098 12.0002h3.52551l-3.52551-4.69563-.52172 3.65213z" fill="#0052b4"/><path d="m11.9688 12.0007h.0321c0-.0108 0-.0213 0-.0322-.0107.0108-.0214.0215-.0321.0322z" fill="#f0f0f0"/><path d="m12 6.26086c0-2.11149 0-3.495 0-6.26086h-.002c-6.62655.001125-11.998 5.37323-11.998 12h6.26086v-3.52552l3.52551 3.52552h2.18153l.0321-.0321c0-.8085 0-1.5298 0-2.18143l-3.52557-3.52561z" fill="#f0f0f0"/><path d="m11.9989 10.5247-4.26351-4.26347h-1.47562v.00009l5.73903 5.73898h.0001s0-1.0175 0-1.4756z" fill="#d80027"/><path d="m6.07027 1.56494c-.46261.26344-.90582.55702-1.32732.8775h.49238l-1.30135.94566.49697 1.52986-1.30134-.94547-.13847.10064c-.54033.61359-1.01939 1.28241-1.42669 1.99762v5.92895h3.13046v-7.30421-.0001h7.30439c0-.98732 0-1.92792 0-3.13045z" fill="#d80027"/><path d="m5.12601 2.16431c-.12942.09061-.25702.18375-.38269.27932l-.80883.94566-.80437.58434-.13964.10144c-.29466.33469-.57099.68588-.82739 1.05211.29226.14185.62034.22158.96703.22158 1.22465 0 2.21737-.99272 2.21737-2.21738.0001-.34678-.07959-.67476-.22148-.96707z" fill="#0052b4"/><g fill="#ffda44"><path d="m2.99023 4.07382.13964-.10144 1.30135.94552-.49702-1.52986 1.30125-.94566h-.49246c-.63722.48464-1.22443 1.03139-1.75276 1.63144z"/><path d="m8.29451 2.0874.25903.79711h.83813l-.67805.4927.25889.79711-.678-.49265-.67804.49265.25884-.79711-.67804-.4927h.83817z"/><path d="m3.13041 7.30518.25903.7971h.83812l-.678.49276.25889.79711-.67804-.49271-.6781.49271.25889-.79711-.678-.49276h.83813z"/></g></g></svg>