<svg fill="none" height="24" viewBox="0 0 24 24" width="24" xmlns="http://www.w3.org/2000/svg" xmlns:xlink="http://www.w3.org/1999/xlink"><clipPath id="a"><path d="m0 0h24v24h-24z"/></clipPath><g clip-path="url(#a)"><path d="m24 12c0 6.6274-5.3726 12-12 12-6.62738 0-12-5.3726-12-12 0 .0029 12-11.9986875 12-12 6.6274 0 12 5.37262 12 12z" fill="#0052b4"/><path d="m11.9678 12.0004h.0321c0-.0108 0-.0213 0-.0321-.0107.0107-.0214.0214-.0321.0321z" fill="#f0f0f0"/><path d="m12 6.26086c0-2.11149 0-3.495 0-6.26086h-.002c-6.6265.001125-11.998 5.37323-11.998 12h6.26086v-3.52552l3.52556 3.52552h2.18148c.0107-.0107.0215-.0214.0321-.0321 0-.8085 0-1.5298 0-2.18143l-3.52557-3.52561z" fill="#f0f0f0"/><g fill="#d80027"><path d="m6.07124 1.56494c-1.87683 1.0687-3.43711 2.62899-4.50581 4.50581v5.92895h3.13045v-7.30421-.0001h7.30432c0-.98732 0-1.92792 0-3.13045z"/><path d="m12.0008 10.5247-4.26341-4.26347s-1.47567.00009-1.47567 0v.00009l5.73908 5.73898s0-1.0175 0-1.4756z"/><path d="m20.7808 8.90466.259.79716h.8382l-.6781.49268.259.7971-.6781-.4926-.6781.4926.259-.7971-.6781-.49268h.8382z"/><path d="m17.7854 14.6436.3886 1.1957h1.2572l-1.0172.739.3886 1.1957-1.0172-.739-1.0172.739.3886-1.1957-1.0172-.739h1.2573z"/><path d="m17.8988 5.25183.3238.99651h1.0477l-.8477.61571.3238.99646-.8476-.61588-.8476.61588.3237-.99646-.8476-.61571h1.0477z"/><path d="m15.0149 8.86987.3885 1.19583h1.2573l-1.0172.7389.3886 1.1957-1.0172-.739-1.0172.739.3886-1.1957-1.0172-.7389h1.2573z"/></g></g></svg>