<svg fill="none" height="24" viewBox="0 0 24 24" width="24" xmlns="http://www.w3.org/2000/svg" xmlns:xlink="http://www.w3.org/1999/xlink"><clipPath id="a"><path d="m0 0h24v24h-24z"/></clipPath><g clip-path="url(#a)"><path d="m12 24c6.6274 0 12-5.3726 12-12 0-6.62742-5.3726-12-12-12-6.62742 0-12 5.37258-12 12 0 6.6274 5.37258 12 12 12z" fill="#f0f0f0"/><path d="m0 12.0005c0 4.5485 2.53078 8.5057 6.26086 10.5409v-21.08181c-3.73008 2.03522-6.26086 5.99241-6.26086 10.54091z" fill="#d80027"/><path d="m23.2537 16.1752c.4823-1.3.7463-2.7061.7463-4.1739 0-1.4679-.264-2.87397-.7463-4.17391h-22.507262c-.482391 1.29994-.746438 2.70601-.746438 4.17391 0 1.4678.264047 2.8739.746438 4.1739l11.253562 1.0435z" fill="#d80027"/><path d="m12.0006 23.9997c5.1597 0 9.5581-3.2565 11.2537-7.8261h-22.50723c1.69547 4.5696 6.09403 7.8261 11.25353 7.8261z" fill="#6da544"/><path d="m0 11.9996c0 5.5444 3.76036 10.2096 8.86955 11.5866v-23.173175c-5.10919 1.376995-8.86955 6.042285-8.86955 11.586575z" fill="#d80027"/><path d="m7.34159 5.28157-1.10676-1.10677-.73782.73791-.73781-.73791-1.10676 1.10677.73786.73786-.73796.73791 1.10677 1.10676.73786-.7379.73786.7379 1.10676-1.10676-.73786-.73791z" fill="#f0f0f0"/></g></svg>