<svg fill="none" height="24" viewBox="0 0 24 24" width="24" xmlns="http://www.w3.org/2000/svg" xmlns:xlink="http://www.w3.org/1999/xlink"><clipPath id="a"><path d="m0 0h24v24h-24z"/></clipPath><g clip-path="url(#a)"><path d="m12 24c6.6274 0 12-5.3726 12-12 0-6.62742-5.3726-12-12-12-6.62742 0-12 5.37258-12 12 0 6.6274 5.37258 12 12 12z" fill="#f0f0f0"/><path d="m0 11.9998c0 6.6273 5.37262 12 12 12 0-4.5636 0-12 0-12s-7.82611 0-12 0z" fill="#0052b4"/><path d="m12 .00085449c6.6274 0 12 5.37262551 12 12.00004551-4.5635 0-12 0-12 0s0-7.82615 0-12.00004551z" fill="#d80027"/><path d="m7.1441 4.1748.77705 2.39147h2.51455l-2.03432 1.47797.777 2.39146-2.03428-1.478-2.03428 1.478.777-2.39146-2.03428-1.47797h2.51451z" fill="#0052b4"/><path d="m16.857 13.5647.777 2.3915h2.5146l-2.0344 1.4779.7771 2.3915-2.0343-1.478-2.0343 1.478.777-2.3915-2.0343-1.4779h2.5145z" fill="#d80027"/></g></svg>