<svg fill="none" height="24" viewBox="0 0 24 24" width="24" xmlns="http://www.w3.org/2000/svg" xmlns:xlink="http://www.w3.org/1999/xlink"><clipPath id="a"><path d="m0 0h24v24h-24z"/></clipPath><g clip-path="url(#a)"><path d="m12 24c6.6274 0 12-5.3726 12-12 0-6.62742-5.3726-12-12-12-6.62742 0-12 5.37258-12 12 0 6.6274 5.37258 12 12 12z" fill="#f0f0f0"/><g fill="#d80027"><path d="m23.9999 12.0015c0-5.15954-3.2565-9.55811-7.8261-11.253575v22.507275c4.5696-1.6956 7.8261-6.0941 7.8261-11.2537z"/><path d="m0 12.0006c0 5.1597 3.2565 9.5581 7.82611 11.2537v-22.50723c-4.56961 1.69547-7.82611 6.09403-7.82611 11.25353z"/></g></g></svg>