<svg fill="none" height="24" viewBox="0 0 24 24" width="24" xmlns="http://www.w3.org/2000/svg" xmlns:xlink="http://www.w3.org/1999/xlink"><clipPath id="a"><path d="m0 0h24v24h-24z"/></clipPath><g clip-path="url(#a)"><path d="m12 24c6.6274 0 12-5.3726 12-12 0-6.62742-5.3726-12-12-12-6.62742 0-12 5.37258-12 12 0 6.6274 5.37258 12 12 12z" fill="#f0f0f0"/><path d="m1.45898 6.26159h21.08182c-2.0352-3.73012-5.9924-6.26085758-10.5409-6.26085758-4.54851 0-8.50565 2.53073758-10.54092 6.26085758z" fill="#d80027"/><path d="m11.9999 23.9999c4.5485 0 8.5057-2.5308 10.5409-6.2609h-21.08182c2.03527 3.7301 5.99241 6.2609 10.54092 6.2609z" fill="#d80027"/><path d="m16.174 11.9997c0 2.3052-1.8688 3.6522-4.1739 3.6522-2.30521 0-4.17393-1.347-4.17393-3.6522 0-2.30522 1.86872-4.17389 4.17393-4.17389 2.3051 0 4.1739 1.86867 4.1739 4.17389z" fill="#ffda44"/><path d="m16.174 11.9998c0 2.3052-1.8688 4.1739-4.1739 4.1739-2.30521 0-4.17393-1.8687-4.17393-4.1739" fill="#0052b4"/><g fill="#d80027"><path d="m10.4351 10.9559h-1.0435v2.087h1.0435z"/><path d="m14.6089 10.9559h-1.0435v2.087h1.0435z"/><path d="m12.522 9.39087h-1.0435v3.65213h1.0435z"/></g></g></svg>