<svg fill="none" height="24" viewBox="0 0 24 24" width="24" xmlns="http://www.w3.org/2000/svg" xmlns:xlink="http://www.w3.org/1999/xlink"><clipPath id="a"><path d="m0 0h24v24h-24z"/></clipPath><g clip-path="url(#a)"><path d="m20.4853 20.4857c-4.6863 4.6863-12.28422 4.6863-16.97059 0-4.68629-4.6862-4.68629-12.28425.00004-16.97058 4.68628-4.68627 11.54635-3.948415 16.23265.73791 4.6863 4.68628 5.4242 11.54647.7379 16.23267z" fill="#000"/><path d="m3.51465 3.51467c4.68628-4.68628 12.28425-4.68619 16.97055.00005 4.6863 4.68628 4.6863 12.28428 0 16.97058" fill="#a2001d"/><g fill="#f0f0f0"><path d="m9.17152 16.174.19425.5978h.62864l-.50859.3695.1943.5979-.5086-.3695-.50859.3695.19425-.5979-.50855-.3695h.6286z"/><path d="m7.56483 10.4351.32386.9964h1.04766l-.84764.6158.32376.9965-.84764-.6159-.84759.6159.32381-.9965-.84769-.6158h1.04775z"/><path d="m7.56483 17.7388.32377.9964h1.04775l-.84774.6158.32386.9965-.84764-.6159-.84759.6159.32371-.9965-.84759-.6158h1.04761z"/><path d="m10.6292 13.0439.3239.9965h1.0477l-.8477.6158.3238.9964-.8477-.6159-.84756.6159.32386-.9964-.84769-.6158h1.04769z"/><path d="m4.50233 13.0439.32386.9965h1.04761l-.84759.6158.32372.9964-.8476-.6159-.84764.6159.32386-.9964-.84769-.6158h1.0477z"/></g><path d="m20.0879 8.88636c-.5363-.5363-1.2332-.85312-1.982-.90755l2.2416-1.74342c-.8928-.89273-2.0893-1.2959-3.2569-1.21064-.1397-.50231-.4062-.97678-.8012-1.3718l-.8855 1.77085c-.058-.10585-.1316-.20546-.2213-.29513-.5094-.50939-1.3353-.50939-1.8446 0-.5094.50939-.5095 1.33524 0 1.84463.0896.08967.1893.16322.2951.22134l-1.7708.88542c.3951.39516.8699.66183 1.3725.80152-.0855 1.16752.3172 2.36392 1.21 3.25672l1.9584-2.51807c.1474-.14507.3419-.22518.5489-.22518.2091 0 .4056.08137.5534.22926.1478.1478.2293.34435.2293.55339 0 .209-.0815.4055-.2293.5534l.7379.7379c.3449-.3449.5348-.8035.5348-1.2913 0-.39907-.1273-.77848-.3623-1.09217.3425.09146.6661.27061.9343.53878.8137.81369.8137 2.13769 0 2.95139l.7379.7379c.5912-.5913.9168-1.3774.9168-2.2136-.0001-.8363-.3258-1.62236-.917-2.21364z" fill="#ffda44"/></g></svg>