<svg fill="none" height="24" viewBox="0 0 24 24" width="24" xmlns="http://www.w3.org/2000/svg" xmlns:xlink="http://www.w3.org/1999/xlink"><clipPath id="a"><path d="m0 0h24v24h-24z"/></clipPath><g clip-path="url(#a)"><path d="m12 24c6.6274 0 12-5.3726 12-12 0-6.62742-5.3726-12-12-12-6.62742 0-12 5.37258-12 12 0 6.6274 5.37258 12 12 12z" fill="#f0f0f0"/><path d="m12 0v12l-8.48535 8.4853c2.17158 2.1715 5.17158 3.5147 8.48535 3.5147 6.6273 0 12-5.3726 12-12 0-6.62738-12-12-12-12z" fill="#d80027"/><path d="m12 0c-3.31377 0-6.31377 1.34316-8.48535 3.51469 2.94422 2.94422 3.98939 3.98943 8.48535 8.48531h12c0-6.62738-5.3727-12-12-12z" fill="#0052b4"/><g fill="#ffda44"><path d="m8.21723 11.9998-1.4655-.6894.78042-1.41929-1.59141.30449-.20165-1.60771-1.1085 1.18238-1.10846-1.18238-.2017 1.60771-1.59136-.30454.78042 1.41934-1.46554.6894 1.46554.6893-.78042 1.4194 1.5915-.3044.20152 1.6076 1.1085-1.1824 1.1085 1.1824.20165-1.6076 1.59131.3044-.78037-1.4193z"/><path d="m3.20082 4.69519.48769.6817.79898-.25307-.49772.67443.48769.68171-.79528-.26489-.49767.67439.00623-.83813-.79523-.26494.79912-.25307z"/><path d="m3.20082 17.1095.48769.6817.79898-.2531-.49772.6745.48769.6817-.79528-.2649-.49767.6744.00623-.8382-.79523-.2649.79912-.2531z"/><path d="m10.1558 10.9032-.48763.6817-.79903-.2532.49772.6745-.48769.6818.79528-.265.49775.6744-.0063-.8381.7952-.2649-.7991-.2531z"/></g></g></svg>