<svg fill="none" height="24" viewBox="0 0 24 24" width="24" xmlns="http://www.w3.org/2000/svg" xmlns:xlink="http://www.w3.org/1999/xlink"><clipPath id="a"><path d="m0 0h24v24h-24z"/></clipPath><g clip-path="url(#a)"><path d="m12 24c6.6274 0 12-5.3726 12-12 0-6.62742-5.3726-12-12-12-6.62742 0-12 5.37258-12 12 0 6.6274 5.37258 12 12 12z" fill="#f0f0f0"/><path d="m0 12.0002c0 4.5485 2.53074 8.5057 6.26086 10.5409v-21.08181c-3.73012 2.03526-6.26086 5.99241-6.26086 10.54091z" fill="#f0f0f0"/><path d="m11.9999.00079346c-2.07892 0-4.03427.52889054-5.73916 1.45907654v21.08183c1.70489.9302 3.66024 1.4591 5.73916 1.4591 6.6274 0 12-5.3726 12-12 0-6.62738-5.3726-12.00000654-12-12.00000654z" fill="#496e2d"/><g fill="#f0f0f0"><path d="m17.1307 13.9861c-1.5181 1.0969-3.6381.7554-4.735-.7627-1.097-1.5181-.7555-3.63807.7627-4.73494.4733-.342 1.0052-.54418 1.5462-.61444-1.0409-.15567-2.1413.07889-3.0618.744-1.86843 1.35009-2.28876 3.95918-.9387 5.82778 1.35 1.8684 3.9592 2.2887 5.8277.9385.9206-.6651 1.4888-1.636 1.6677-2.6733-.2365.4915-.5954.933-1.0688 1.2751z"/><path d="m17.0659 7.82721.8552.92161 1.1407-.52838-.6123 1.098.8552.92166-1.2336-.243-.6123 1.0981-.15-1.24829-1.2336-.24305 1.1408-.52837z"/></g></g></svg>