<svg fill="none" height="24" viewBox="0 0 24 24" width="24" xmlns="http://www.w3.org/2000/svg" xmlns:xlink="http://www.w3.org/1999/xlink"><clipPath id="a"><path d="m0 0h24v24h-24z"/></clipPath><g clip-path="url(#a)"><path d="m24 12c0 6.6274-5.3726 12-12 12-6.62738 0-12-5.3726-12-12 0 .0029 12-11.9986875 12-12 6.6274 0 12 5.37262 12 12z" fill="#0052b4"/><path d="m11.9678 12.0005h.0321c0-.0108 0-.0213 0-.0321-.0107.0107-.0214.0214-.0321.0321z" fill="#f0f0f0"/><path d="m12 6.26098c0-2.11148 0-3.495 0-6.26085793h-.002c-6.62655.001125-11.998 5.37323793-11.998 11.99997793h6.26086v-3.52549l3.52551 3.52549h2.18153l.0321-.0321c0-.8084 0-1.5298 0-2.18141l-3.52557-3.52561z" fill="#f0f0f0"/><path d="m6.07124 1.56506c-1.87683 1.06871-3.43715 2.62899-4.50581 4.50582v5.92902h3.13045v-7.30429-.00009h7.30432c0-.98733 0-1.92792 0-3.13046z" fill="#d80027"/><path d="m12.0009 10.5248-4.26356-4.26345h-1.47562v.0001l5.73908 5.73905h.0001s0-1.0176 0-1.4757z" fill="#d80027"/><path d="m18.783 7.30388-1.5652.52176-1.5652-.52176-.5217-1.30435.5217-1.30434h3.1304l-.5217 1.30434z" fill="#acabb1"/><path d="m13.5654 7.30396v5.73914c0 2.7956 3.6522 3.6522 3.6522 3.6522s3.6522-.8566 3.6522-3.6522v-5.73914z" fill="#338af3"/><path d="m13.8945 14.4023c.8978 1.7235 3.323 2.2925 3.323 2.2925s2.4252-.569 3.323-2.2925l-3.323-5.53353z" fill="#6da544"/><path d="m20.8698 12.9851-3.6522-5.68114-3.6522 5.68114v.0579c0 .5175.1254.9683.3292 1.3597l3.323-5.16914 3.323 5.16914c.2038-.3915.3292-.8423.3292-1.3597z" fill="#ffda44"/></g></svg>