<svg fill="none" height="24" viewBox="0 0 24 24" width="24" xmlns="http://www.w3.org/2000/svg" xmlns:xlink="http://www.w3.org/1999/xlink"><clipPath id="a"><path d="m0 0h24v24h-24z"/></clipPath><g clip-path="url(#a)"><path d="m12 24c6.6274 0 12-5.3726 12-12 0-6.62742-5.3726-12-12-12-6.62742 0-12 5.37258-12 12 0 6.6274 5.37258 12 12 12z" fill="#f0f0f0"/><g fill="#d80027"><path d="m11.999-.00061035c-3.92592 0-7.41131 1.88545035-9.60056 4.80000035h19.20106c-2.1893-2.91455-5.6747-4.80000035-9.6005-4.80000035z"/><path d="m11.999 23.9993c3.9258 0 7.4112-1.8854 9.6005-4.8h-19.20106c2.18925 2.9146 5.67464 4.8 9.60056 4.8z"/><path d="m-.00097656 11.9994c0 .8219.08287496 1.6245.24032856 2.4h23.519448c.1574-.7755.2402-1.5781.2402-2.4 0-.822-.0829-1.6246-.2403-2.40003h-23.519348c-.1574536.77543-.24032856 1.57803-.24032856 2.40003z"/></g><path d="m3.51471 3.51538c-4.68628 4.68628-4.68628 12.28432 0 16.97062 1.93655-1.9365 3.79903-3.799 8.48529-8.4853z" fill="#0052b4"/><path d="m4.85694 8.86877.77696 2.39133h2.51465l-2.03428 1.4781.77691 2.3915-2.03424-1.478-2.03432 1.478.77709-2.3915-2.03428-1.4781h2.51447z" fill="#f0f0f0"/></g></svg>