<svg fill="none" height="24" viewBox="0 0 24 24" width="24" xmlns="http://www.w3.org/2000/svg" xmlns:xlink="http://www.w3.org/1999/xlink"><clipPath id="a"><path d="m0 0h24v24h-24z"/></clipPath><g clip-path="url(#a)"><path d="m12 24c6.6274 0 12-5.3726 12-12 0-6.62742-5.3726-12-12-12-6.62742 0-12 5.37258-12 12 0 6.6274 5.37258 12 12 12z" fill="#f0f0f0"/><path d="m7.30388 7.82696h15.94922c-1.6955-4.56961-6.094-7.82610551-11.2536-7.82610551-3.31374 0-6.31341 1.34338551-8.48485 3.51510551z" fill="#000"/><path d="m7.30388 16.1736h15.94922c-1.6955 4.5696-6.094 7.8261-11.2536 7.8261-3.31374 0-6.31341-1.3434-8.48485-3.5151z" fill="#6da544"/><path d="m3.51471 3.51489c-4.68628 4.68628-4.68628 12.28431 0 16.97061 1.93655-1.9365 3.79904-3.799 8.48529-8.4853z" fill="#d80027"/></g></svg>