<svg fill="none" height="24" viewBox="0 0 24 24" width="24" xmlns="http://www.w3.org/2000/svg" xmlns:xlink="http://www.w3.org/1999/xlink"><clipPath id="a"><path d="m0 0h24v24h-24z"/></clipPath><g clip-path="url(#a)"><path d="m0 12.0007c0 5.1595 3.2565 9.558 7.82602 11.2535l1.04353-11.2536-1.04353-11.25353c-4.56952 1.69556-7.82602 6.09403-7.82602 11.25363z" fill="#6da544"/><path d="m24.0002 12c0-6.62738-5.3727-12-12-12-1.4679 0-2.874.264047-4.17403.746391v22.507209c1.30003.4824 2.70613.7464 4.17403.7464 6.6273 0 12-5.3726 12-12z" fill="#d80027"/><path d="m7.82623 16.1744c2.30517 0 4.17387-1.8687 4.17387-4.1738 0-2.30523-1.8687-4.17394-4.17387-4.17394s-4.17389 1.86871-4.17389 4.17394c0 2.3051 1.86872 4.1738 4.17389 4.1738z" fill="#ffda44"/><path d="m5.47754 9.9126v2.6087c0 1.2966 1.05112 2.3478 2.34783 2.3478 1.2967 0 2.34783-1.0511 2.34783-2.3478v-2.6087z" fill="#d80027"/><path d="m7.82657 13.3037c-.43153 0-.78262-.3511-.78262-.7826v-1.0434h1.5652v1.0434c0 .4315-.3511.7826-.78258.7826z" fill="#f0f0f0"/></g></svg>