<svg fill="none" height="24" viewBox="0 0 24 24" width="24" xmlns="http://www.w3.org/2000/svg" xmlns:xlink="http://www.w3.org/1999/xlink"><clipPath id="a"><path d="m0 0h24v24h-24z"/></clipPath><g clip-path="url(#a)"><path d="m12 24c6.6274 0 12-5.3726 12-12 0-6.62742-5.3726-12-12-12-6.62742 0-12 5.37258-12 12 0 6.6274 5.37258 12 12 12z" fill="#f0f0f0"/><path d="m12.0007 0c-4.75754 0-8.86829 2.76867-10.80929 6.78262h21.61849c-1.9409-4.01395-6.0517-6.78262-10.8092-6.78262z" fill="#d80027"/><path d="m12.0007 24.0008c4.7575 0 8.8683-2.7687 10.8093-6.7827h-21.61859c1.941 4.014 6.05175 6.7827 10.80929 6.7827z" fill="#0052b4"/><path d="m14.9514 8.52661-1.1068 1.10677c.4721.47212.7642 1.12422.7642 1.84462 0 1.4408-1.168 2.6087-2.6087 2.6087s-2.60872-1.168-2.60872-2.6087c0-.7204.29203-1.3725.76412-1.84462l-1.10678-1.10677c-.75539.75525-1.22255 1.79869-1.22255 2.95139 0 2.3052 1.86872 4.1739 4.17393 4.1739 2.3051 0 4.1739-1.8687 4.1739-4.1739-.0001-1.1527-.4672-2.19614-1.2226-2.95139z" fill="#6da544"/><path d="m12.0003 9.9126.3885 1.1958h1.2573l-1.0172.7389.3886 1.1957-1.0172-.7389-1.0172.7389.3885-1.1957-1.0171-.7389h1.2572z" fill="#ffda44"/></g></svg>