<svg fill="none" height="24" viewBox="0 0 24 24" width="24" xmlns="http://www.w3.org/2000/svg" xmlns:xlink="http://www.w3.org/1999/xlink"><clipPath id="a"><path d="m0 0h24v24h-24z"/></clipPath><g clip-path="url(#a)"><path d="m12 24c6.6274 0 12-5.3726 12-12 0-6.62742-5.3726-12-12-12-6.62742 0-12 5.37258-12 12 0 6.6274 5.37258 12 12 12z" fill="#f0f0f0"/><path d="m23.9997 12c0-6.62738-5.3727-12-12-12-2.34754 0-4.53726.674766-6.38686 1.83989l2.6303 1.11755-3.54783 1.5074 3.54783 1.50736-3.54783 1.50732 3.54783 1.50726-3.54783 1.50712 3.54783 1.5069-3.54783 1.5074 3.54783 1.5072-3.54783 1.5071 3.54783 1.5072-3.54783 1.5073 3.54783 1.5071-2.62912 1.1169c1.84936 1.1646 4.03861 1.839 6.38568 1.839 6.6273 0 12-5.3726 12-12z" fill="#751a46"/></g></svg>