<svg fill="none" height="24" viewBox="0 0 24 24" width="24" xmlns="http://www.w3.org/2000/svg" xmlns:xlink="http://www.w3.org/1999/xlink"><clipPath id="a"><path d="m0 0h24v24h-24z"/></clipPath><g clip-path="url(#a)"><path d="m16.1745.745367c-1.3001-.482297-2.7061-.74634356-4.1739-.74634356-1.4679-.00004687-2.87393.26404656-4.17391.74634356l-1.04349 11.253633 1.04349 11.2536c1.29993.4824 2.70601.7464 4.17391.7464 1.4678 0 2.8739-.264 4.1739-.7464l1.0434-11.2536z" fill="#ffda44"/><path d="m23.9999 11.9996c0-5.15955-3.2565-9.55816-7.8261-11.253628v22.507328c4.5696-1.6957 7.8261-6.0941 7.8261-11.2537z" fill="#d80027"/><path d="m0 11.9995c0 5.1597 3.2565 9.5581 7.82602 11.2537l.00004-22.507228c-4.56956 1.695468-7.82606 6.093938-7.82606 11.253528z" fill="#0052b4"/></g></svg>