<svg fill="none" height="24" viewBox="0 0 24 24" width="24" xmlns="http://www.w3.org/2000/svg" xmlns:xlink="http://www.w3.org/1999/xlink"><clipPath id="a"><path d="m0 0h24v24h-24z"/></clipPath><g clip-path="url(#a)"><path d="m12 24c6.6274 0 12-5.3726 12-12 0-6.62742-5.3726-12-12-12-6.62742 0-12 5.37258-12 12 0 6.6274 5.37258 12 12 12z" fill="#f0f0f0"/><path d="m12 0c-6.62738 0-12 5.37262-12 12 0 1.4678.264047 2.874.746391 4.1739h22.507309c.4823-1.2999.7463-2.7061.7463-4.1739 0-6.62738-5.3726-12-12-12z" fill="#0052b4"/><path d="m12.0007.00012207c-5.1596 0-9.55811 3.25649793-11.25363 7.82610793h22.50723c-1.6955-4.56961-6.094-7.82610793-11.2536-7.82610793z" fill="#d80027"/><path d="m3.10352 6.78314v5.98626c0 3.4052 4.44848 4.4485 4.44848 4.4485s4.4484-1.0433 4.4484-4.4485v-5.98626z" fill="#d80027"/><path d="m4.94238 7.82638h5.21742v-2.08697l-1.04348.52172-1.5652-1.56521-1.56525 1.56521-1.04349-.52172z" fill="#ffda44"/><path d="m10.9565 13.6026-3.39136-3.3914-3.39131 3.3914 1.10676 1.1067 2.28455-2.2845 2.28455 2.2845z" fill="#ffda44"/><path d="m10.9565 10.4341h-1.58236c.08897-.1536.14072-.3314.14072-.52166 0-.57637-.4672-1.04348-1.04349-1.04348-.3982 0-.744.22303-.91992.55092-.17592-.32784-.52172-.55092-.91992-.55092-.57628 0-1.04348.46711-1.04348 1.04348 0 .19026.05175.36816.14072.52166h-1.55494c0 .5763.50198 1.0435 1.07822 1.0435h-.03474c0 .5763.46716 1.0434 1.04349 1.0434 0 .5103.36646.9343.85045 1.025l-.82219 1.8563c.39403.1602.82463.2492 1.27613.2492s.88209-.089 1.27612-.2492l-.82219-1.8563c.48399-.0907.85046-.5146.85046-1.025.57633 0 1.04348-.4671 1.04348-1.0434h-.03473c.57617 0 1.07817-.4673 1.07817-1.0435z" fill="#f0f0f0"/></g></svg>