<svg fill="none" height="24" viewBox="0 0 24 24" width="24" xmlns="http://www.w3.org/2000/svg" xmlns:xlink="http://www.w3.org/1999/xlink"><clipPath id="a"><path d="m0 0h24v24h-24z"/></clipPath><g clip-path="url(#a)"><path d="m12 24c6.6274 0 12-5.3726 12-12 0-6.62742-5.3726-12-12-12-6.62742 0-12 5.37258-12 12 0 6.6274 5.37258 12 12 12z" fill="#f0f0f0"/><path d="m23.2536 16.1733c.4824-1.2999.7464-2.706.7464-4.1738 0-1.4679-.264-2.87395-.7464-4.17394h-22.507209c-.482344 1.29999-.746391 2.70604-.746391 4.17394 0 1.4678.264047 2.8739.746391 4.1738l11.253609 1.0435z" fill="#0052b4"/><path d="m12.0007 23.9995c5.1596 0 9.5581-3.2565 11.2536-7.8262h-22.50723c1.69552 4.5697 6.09403 7.8262 11.25363 7.8262z" fill="#d80027"/></g></svg>