<svg fill="none" height="24" viewBox="0 0 24 24" width="24" xmlns="http://www.w3.org/2000/svg" xmlns:xlink="http://www.w3.org/1999/xlink"><clipPath id="a"><path d="m0 0h24v24h-24z"/></clipPath><g clip-path="url(#a)"><path d="m0 11.9991c0 2.0789.528891 4.0342 1.45908 5.7391l10.54092 1.0435 10.5409-1.0435c.9302-1.7049 1.4591-3.6602 1.4591-5.7391l-12-1.0435z" fill="#ffda44"/><path d="m22.5409 6.26086c-2.0352-3.73013-5.9924-6.26086-10.5409-6.26086-4.54852 0-8.50566 2.53073-10.54092 6.26086-.930189 1.70489-1.45908 3.66023-1.45908 5.73914h24c0-2.07891-.5289-4.03425-1.4591-5.73914z" fill="#338af3"/><path d="m11.9999 23.9991c4.5485 0 8.5057-2.5307 10.5409-6.2608h-21.08182c2.03527 3.7301 5.99241 6.2608 10.54092 6.2608z" fill="#496e2d"/><path d="m13.5654 7.02244 1.4656.68939-.7804 1.41937 1.5914-.3044.2017 1.6076 1.1084-1.1824 1.1085 1.1824.2016-1.6076 1.5914.30431-.7804-1.41933 1.4655-.68934-1.4655-.6893.7804-1.41937-1.5914.3044-.2017-1.60757-1.1084 1.18237-1.1085-1.18237-.2016 1.60757-1.5914-.3044.7804 1.41942z" fill="#ffda44"/></g></svg>