<svg fill="none" height="24" viewBox="0 0 24 24" width="24" xmlns="http://www.w3.org/2000/svg" xmlns:xlink="http://www.w3.org/1999/xlink"><clipPath id="a"><path d="m0 0h24v24h-24z"/></clipPath><g clip-path="url(#a)"><path d="m12 24c6.6274 0 12-5.3726 12-12 0-6.62742-5.3726-12-12-12-6.62742 0-12 5.37258-12 12 0 6.6274 5.37258 12 12 12z" fill="#6da544"/><g fill="#f0f0f0"><path d="m6.7832 14.3477c0 .8644.70079 1.5652 1.56521 1.5652h4.69569c0 .7203.5839 1.3043 1.3043 1.3043h1.5652c.7204 0 1.3044-.584 1.3044-1.3043v-1.5652z"/><path d="m17.3472 6.78308v3.65212c0 .5754-.4681 1.0435-1.0435 1.0435v1.5652c1.4385 0 2.6087-1.1702 2.6087-2.6087v-3.65212z"/><path d="m6.1304 10.435c0 .5754-.4681 1.0435-1.04349 1.0435v1.5652c1.43846 0 2.60869-1.1703 2.60869-2.6087v-3.65216h-1.5652z"/><path d="m16.5652 6.78308h-1.5652v3.65222h1.5652z"/><path d="m12.6524 8.87005c0 .14386-.117.26086-.2608.26086-.1439 0-.2609-.11705-.2609-.26086v-2.08697h-1.5652v2.08697c0 .14386-.1171.26086-.2609.26086s-.2608-.11705-.2608-.26086v-2.08697h-1.56528v2.08697c0 1.00692.81918 1.82615 1.82608 1.82615.3878 0 .7475-.1219 1.0435-.3289.296.2069.6557.3289 1.0435.3289.0781 0 .1549-.0055.2304-.0151-.1109.4569-.5225.7976-1.013.7976v1.5652c1.4384 0 2.6087-1.1702 2.6087-2.6086v-1.56525-2.08697h-1.5652v2.08697z"/><path d="m10.8263 11.4781h-2.34778v1.5652h2.34778z"/></g></g></svg>