<svg fill="none" height="24" viewBox="0 0 24 24" width="24" xmlns="http://www.w3.org/2000/svg" xmlns:xlink="http://www.w3.org/1999/xlink"><clipPath id="a"><path d="m0 0h24v24h-24z"/></clipPath><g clip-path="url(#a)"><path d="m20.4863 20.4851c4.5005-4.5005 4.6782-11.68571.535-16.39941l-9.0206 7.91371-7.91379 9.0207c4.7137 4.1432 11.89889 3.9655 16.39939-.535z" fill="#496e2d"/><path d="m3.51438 3.5144c4.5005-4.500507 11.68572-4.67821 16.39942-.53498l-7.9138 9.02068-9.02056 7.9137c-4.14327-4.7137-3.965523-11.89889.53494-16.3994z" fill="#0052b4"/><path d="m19.9139 2.98022-16.93441 16.93438c.17119.1948.34894.3859.53499.5718.186.186.3771.3638.57192.535l16.9343-16.93437c-.1712-.19481-.349-.38587-.5351-.57192-.1859-.1859-.377-.3637-.5717-.53489z" fill="#ffda44"/><g fill="#f0f0f0"><path d="m5.05619 4.17444.25907.7972h.83817l-.67809.49261.25899.7972-.67814-.4927-.67814.4927.25907-.7972-.67814-.49261h.83822z"/><path d="m9.33744 4.17358.25908.79721h.83808l-.67805.4926.25905.79721-.67816-.49271-.67814.49271.25907-.79721-.67814-.4926h.83818z"/><path d="m5.05619 8.34778.25907.7972h.83817l-.67809.49265.25899.79717-.67814-.49267-.67814.49267.25907-.79717-.67814-.49265h.83822z"/><path d="m9.33744 8.34778.25908.7972h.83808l-.67805.49265.25905.79717-.67816-.49267-.67814.49267.25907-.79717-.67814-.49265h.83818z"/><path d="m7.19686 6.2616.25907.7972h.83813l-.67809.49265.25903.7972-.67814-.4927-.67814.4927.25903-.7972-.67814-.49265h.83822z"/></g></g></svg>