<svg fill="none" height="24" viewBox="0 0 24 24" width="24" xmlns="http://www.w3.org/2000/svg" xmlns:xlink="http://www.w3.org/1999/xlink"><clipPath id="a"><path d="m0 0h24v24h-24z"/></clipPath><g clip-path="url(#a)"><path d="m12 24c6.6274 0 12-5.3726 12-12 0-6.62742-5.3726-12-12-12-6.62742 0-12 5.37258-12 12 0 6.6274 5.37258 12 12 12z" fill="#f0f0f0"/><path d="m20.1006 3.14638c-2.1347-1.95432-4.9782-3.14705139-8.1004-3.14705139-.5112 0-1.0148.03220309-1.5092.09421879l-5.79519 6.6884026-4.315927 8.22355c.278812 1.081.705097 2.1025 1.255077 3.043l10.36524-6.0492z" fill="#ffda44"/><path d="m21.9903 18.6479-16.78913 3.24c1.93261 1.3313 4.27439 2.1114 6.79863 2.1114 4.1682 0 7.8394-2.1255 9.9905-5.3514z" fill="#6da544"/><path d="m20.1021 3.14819-18.4605 14.91211c.48286.8235 1.06097 1.5843 1.71942 2.2673l20.63888-8.328c0-3.50438-1.5023-6.65756-3.8978-8.85141z" fill="#d80027"/><path d="m0 12c0 1.0382.131906 2.0455.379734 3.0062l10.111166-14.9119617c-5.91506.7422187-10.4909 5.7895317-10.4909 11.9057617z" fill="#0052b4"/></g></svg>