<svg fill="none" height="24" viewBox="0 0 24 24" width="24" xmlns="http://www.w3.org/2000/svg" xmlns:xlink="http://www.w3.org/1999/xlink"><clipPath id="a"><path d="m0 0h24v24h-24z"/></clipPath><g clip-path="url(#a)"><path d="m12 24c6.6274 0 12-5.3726 12-12 0-6.62742-5.3726-12-12-12-6.62742 0-12 5.37258-12 12 0 6.6274 5.37258 12 12 12z" fill="#ffda44"/><g fill="#0052b4"><path d="m9.39067 10.435h14.50703c-.767-5.88779-5.8015-10.43475586-11.8984-10.43475586-.896 0-1.7687.09904686-2.60868.28523486v10.149521z"/><path d="m6.26085 10.4349v-8.97567c-3.29504 1.79784-5.653834 5.09555-6.159288 8.97567z"/><path d="m6.2608 13.5657h-6.159238c.505454 3.8801 2.864248 7.1779 6.159288 8.9757z"/><path d="m9.39062 13.5657v10.1495c.83998.1862 1.71268.2853 2.60868.2853 6.0969 0 11.1314-4.547 11.8984-10.4348z"/></g></g></svg>