<svg fill="none" height="24" viewBox="0 0 24 24" width="24" xmlns="http://www.w3.org/2000/svg" xmlns:xlink="http://www.w3.org/1999/xlink"><clipPath id="a"><path d="m0 0h24v24h-24z"/></clipPath><g clip-path="url(#a)"><path d="m12 24c6.6274 0 12-5.3726 12-12 0-6.62742-5.3726-12-12-12-6.62742 0-12 5.37258-12 12 0 6.6274 5.37258 12 12 12z" fill="#f0f0f0"/><path d="m0 12c0-6.62738 5.37262-12 12-12 6.6274 0 12 5.37262 12 12" fill="#d80027"/><g fill="#f0f0f0"><path d="m7.30353 6.26101c0-1.74834 1.22873-3.20887 2.86957-3.56723-.25221-.05503-.51382-.08489-.78265-.08489-2.01708 0-3.65217 1.63509-3.65217 3.65217s1.63509 3.65217 3.65217 3.65217c.26874 0 .53039-.02986.78265-.08494-1.64084-.35836-2.86957-1.81889-2.86957-3.56728z"/><path d="m11.9995 2.87.259.79711h.8382l-.6781.4927.259.79711-.6781-.49261-.6781.49261.259-.79711-.6781-.4927h.8382z"/><path d="m9.96639 4.43469.25901.79716h.8381l-.678.49265.259.79711-.67811-.49261-.67819.49261.25908-.79711-.67814-.49265h.83817z"/><path d="m14.0327 4.43469.2591.79716h.8381l-.6781.49265.259.79711-.6781-.49261-.6781.49261.259-.79711-.6781-.49265h.8382z"/><path d="m13.2505 6.78345.259.79715h.8381l-.6781.49266.2591.79711-.6781-.49261-.6781.49261.259-.79711-.6781-.49266h.8381z"/><path d="m10.7486 6.78345.259.79715h.8382l-.6782.49266.2591.79711-.6781-.49261-.6782.49261.2591-.79711-.67813-.49266h.83813z"/></g></g></svg>