<svg fill="none" height="24" viewBox="0 0 24 24" width="24" xmlns="http://www.w3.org/2000/svg" xmlns:xlink="http://www.w3.org/1999/xlink"><clipPath id="a"><path d="m0 0h24v24h-24z"/></clipPath><g clip-path="url(#a)"><path d="m12 24c6.6274 0 12-5.3726 12-12 0-6.62742-5.3726-12-12-12-6.62742 0-12 5.37258-12 12 0 6.6274 5.37258 12 12 12z" fill="#f0f0f0"/><path d="m23.2536 7.82637h-12.8188v-3.13045h-6.26091v3.13045h-3.427499c-.482344 1.29994-.746391 2.70603-.746391 4.17393 0 1.4678.264047 2.8739.746391 4.1739l11.253609 1.0434 11.2536-1.0434c.4824-1.3.7464-2.7061.7464-4.1739 0-1.4679-.264-2.87399-.7464-4.17393z" fill="#0052b4"/><path d="m11.9997 23.9997c5.1596 0 9.5581-3.2565 11.2536-7.8261h-22.507206c1.695516 4.5696 6.094026 7.8261 11.253606 7.8261z" fill="#d80027"/><path d="m4.17383 7.82641v1.04343c0 2.39626 3.13045 3.13046 3.13045 3.13046s3.13042-.7342 3.13042-3.13046v-1.04343l-1.04345 1.04348-2.08697-1.5652-2.08697 1.5652z" fill="#f0f0f0"/></g></svg>