<svg fill="none" height="24" viewBox="0 0 24 24" width="24" xmlns="http://www.w3.org/2000/svg" xmlns:xlink="http://www.w3.org/1999/xlink"><clipPath id="a"><path d="m0 0h24v24h-24z"/></clipPath><g clip-path="url(#a)"><path d="m12 24c6.6274 0 12-5.3726 12-12 0-6.62742-5.3726-12-12-12-6.62742 0-12 5.37258-12 12 0 6.6274 5.37258 12 12 12z" fill="#f0f0f0"/><path d="m12 23.9996c6.6274 0 12-5.3727 12-12 0-1.4679-.264-2.87398-.7464-4.17392h-22.507209c-.482344 1.29994-.746391 2.70602-.746391 4.17392 0 6.6273 5.37262 12 12 12z" fill="#0052b4"/><path d="m11.9997 23.9997c5.1596 0 9.5581-3.2565 11.2536-7.8261h-22.507206c1.695516 4.5696 6.094026 7.8261 11.253606 7.8261z" fill="#d80027"/><path d="m3.10254 6.78186v5.98624c0 3.4052 4.44848 4.4486 4.44848 4.4486s4.44848-1.0434 4.44848-4.4486v-5.98624z" fill="#f0f0f0"/><path d="m4.14648 6.78186v5.98624c0 .3997.08879.7773.26466 1.1312h6.28066c.1759-.3539.2646-.7315.2646-1.1312v-5.98624z" fill="#d80027"/><path d="m9.63874 10.9561h-1.56516v-1.04349h1.04349v-1.04349h-1.04349v-1.04344h-1.04349v1.04344h-1.04343v1.04349h1.04343v1.04349h-1.56525v1.0435h1.56525v1.0435h1.04349v-1.0435h1.56516z" fill="#f0f0f0"/><path d="m5.8344 15.3573c.67242.4226 1.36326.6679 1.71694.777.35367-.109 1.04451-.3544 1.71693-.777.6781-.4262 1.15343-.9136 1.42333-1.4566-.2977-.2107-.6609-.3349-1.05329-.3349-.14288 0-.28168.0169-.41513.048-.2828-.6425-.92475-1.0915-1.6718-1.0915-.74704 0-1.38904.449-1.67179 1.0915-.13346-.0311-.2723-.048-.41513-.048-.39239 0-.75562.1242-1.05333.3349.26977.543.74513 1.0304 1.42327 1.4566z" fill="#0052b4"/></g></svg>