<svg fill="none" height="24" viewBox="0 0 24 24" width="24" xmlns="http://www.w3.org/2000/svg" xmlns:xlink="http://www.w3.org/1999/xlink"><clipPath id="a"><path d="m0 0h24v24h-24z"/></clipPath><g clip-path="url(#a)"><path d="m23.2536 16.1743c.4824-1.2999.7464-2.706.7464-4.1738 0-1.4679-.264-2.87395-.7464-4.17394l-11.2536-1.04348-11.253609 1.04348c-.482391 1.29999-.746391 2.70604-.746391 4.17394 0 1.4678.264 2.8739.746391 4.1738l11.253609 1.0435z" fill="#f0f0f0"/><path d="m11.9997 24.0006c5.1596 0 9.5581-3.2565 11.2536-7.8262h-22.507206c1.695566 4.5697 6.094026 7.8262 11.253606 7.8262z" fill="#338af3"/><path d="m11.9997.00012207c-5.15958 0-9.55804 3.25649793-11.253606 7.82610793h22.507306c-1.6956-4.56961-6.0941-7.82610793-11.2537-7.82610793z" fill="#6da544"/></g></svg>