<svg fill="none" height="24" viewBox="0 0 24 24" width="24" xmlns="http://www.w3.org/2000/svg" xmlns:xlink="http://www.w3.org/1999/xlink"><clipPath id="a"><path d="m0 0h24v24h-24z"/></clipPath><g clip-path="url(#a)"><path d="m24 11.9997c0 6.6274-5.3726 12-12 12-6.62738 0-12-5.3726-12-12 .521719 0 12-1.5652 12-1.5652z" fill="#338af3"/><path d="m0 12c0-6.62738 5.37262-12 12-12 6.6274 0 12 5.37262 12 12" fill="#f0f0f0"/><path d="m16.7631 8.28088-4.7633 4.76332-4.76321-4.76332c-.61599.91439-.97585 2.01502-.97585 3.19802v1.5652c0 2.5133 1.62399 4.6542 3.87756 5.4291-.30076.5895-.25004 1.3252.1907 1.8753.5854-.4692 1.1914-.9549 1.7056-1.3668.5141.412 1.1202.8977 1.7055 1.3668.4459-.5565.493-1.3032.1803-1.8962 2.2229-.7917 3.8185-2.9169 3.8185-5.4082v-1.5651c.0001-1.1831-.3598-2.28368-.9758-3.19812z" fill="#6da544"/><path d="m12.0001 17.2176c-2.30155 0-4.17393-1.8725-4.17393-4.1739v-1.5652c0-2.30156 1.87242-4.17393 4.17393-4.17393 2.3014 0 4.1739 1.87242 4.1739 4.17393v1.5652c0 2.3014-1.8724 4.1739-4.1739 4.1739z" fill="#ffda44"/><path d="m14.609 13.0433v-1.5652c0-1.4384-1.1703-2.60865-2.6087-2.60865s-2.6087 1.17025-2.6087 2.60865v1.5652l2.6087.5217z" fill="#338af3"/><path d="m9.3916 13.0432c0 1.4385 1.1703 2.6087 2.6087 2.6087s2.6087-1.1703 2.6087-2.6087z" fill="#6da544"/><path d="m15.13 7.30397c0-.86442-.7008-1.56521-1.5652-1.56521-.401 0-.7665.15094-1.0435.39886v-.92062h.5217v-1.04349h-.5217v-.52172h-1.0435v.52172h-.5217v1.04349h.5217v.92062c-.277-.24792-.6425-.39886-1.0435-.39886-.86438 0-1.56516.70079-1.56516 1.56521 0 .46345.20161.8797.52172 1.16634v.92063h5.21734v-.92063c.3202-.28664.5218-.70289.5218-1.16634z" fill="#ffda44"/></g></svg>