<svg fill="none" height="24" viewBox="0 0 24 24" width="24" xmlns="http://www.w3.org/2000/svg" xmlns:xlink="http://www.w3.org/1999/xlink"><clipPath id="a"><path d="m0 0h24v24h-24z"/></clipPath><g clip-path="url(#a)"><path d="m17.2175 1.19084c-1.5776-.762843-3.3475-1.19071793-5.2174-1.19071793-1.8698 0-3.63973.42787493-5.21736 1.19071793l-1.04348 10.80926 1.04348 10.8093c1.57763.7628 3.34756 1.1907 5.21736 1.1907 1.8699 0 3.6398-.4279 5.2174-1.1907l1.0435-10.8093z" fill="#ffda44"/><path d="m12 7.82605 1.0359 3.18845h3.3529l-2.7124 1.9708 1.036 3.1885-2.7124-1.9706-2.71247 1.9706 1.03617-3.1885-2.71237-1.9708h3.35267z" fill="#496e2d"/><path d="m6.78262 1.1908c-4.0139 1.94095-6.78262 6.05137-6.78262 10.8089 0 4.7574 2.76872 8.8679 6.78262 10.8088z" fill="#496e2d"/><path d="m17.2178 1.19141v21.61769c4.0139-1.9409 6.7826-6.0513 6.7826-10.8088 0-4.75752-2.7687-8.86794-6.7826-10.80889z" fill="#d80027"/></g></svg>