<svg fill="none" height="24" viewBox="0 0 24 24" width="24" xmlns="http://www.w3.org/2000/svg" xmlns:xlink="http://www.w3.org/1999/xlink"><clipPath id="a"><path d="m0 0h24v24h-24z"/></clipPath><g clip-path="url(#a)"><path d="m12 24c6.6274 0 12-5.3726 12-12 0-6.62742-5.3726-12-12-12-6.62742 0-12 5.37258-12 12 0 6.6274 5.37258 12 12 12z" fill="#f0f0f0"/><path d="m23.2536 7.82684h-22.507256c-.482297 1.30003-.746344 2.70606-.746344 4.17386 0 1.4679.264047 2.874.746344 4.1739h22.507256c.4824-1.2999.7464-2.706.7464-4.1739 0-1.4678-.264-2.87383-.7464-4.17386z" fill="#a2001d"/><path d="m12.0345 24.0012c4.1101 0 7.7371-2.0668 9.8998-5.2174h-19.79953c2.16271 3.1506 5.78962 5.2174 9.89973 5.2174z" fill="#6da544"/><path d="m12.0345.00030518c4.1101 0 7.7371 2.06681482 9.8998 5.21737482h-19.79953c2.16271-3.15056 5.78962-5.21737482 9.89973-5.21737482z" fill="#6da544"/><path d="m11.9991 7.82684 1.036 3.18846h3.3527l-2.7124 1.9708 1.0361 3.1885-2.7124-1.9706-2.71245 1.9706 1.03615-3.1885-2.71245-1.9708h3.35275z" fill="#ffda44"/></g></svg>