<svg fill="none" height="24" viewBox="0 0 24 24" width="24" xmlns="http://www.w3.org/2000/svg" xmlns:xlink="http://www.w3.org/1999/xlink"><clipPath id="a"><path d="m0 0h24v24h-24z"/></clipPath><g clip-path="url(#a)"><path d="m12 24c6.6274 0 12-5.3726 12-12 0-6.62742-5.3726-12-12-12-6.62742 0-12 5.37258-12 12 0 6.6274 5.37258 12 12 12z" fill="#f0f0f0"/><path d="m23.0634 7.34694c-1.8173-4.31676-6.0863-7.34779449-11.0639-7.34779449-3.31374 0-6.31341 1.34339449-8.48485 3.51510449l3.00516 3.83269z" fill="#000"/><path d="m6.55388 16.6075-3.03923 3.8762c2.17144 2.1717 5.17111 3.5151 8.48485 3.5151 4.9944 0 9.2756-3.0513 11.0824-7.3913z" fill="#496e2d"/><path d="m2.6084 8.82605v6.30435h20.978c.2691-.9981.4133-2.0473.4133-3.1304 0-1.0989-.148-2.16295-.4247-3.17395z" fill="#a2001d"/><path d="m3.51471 3.51465c-4.68628 4.68628-4.68628 12.28425 0 16.97065 1.93655-1.9366 3.79904-3.7991 8.48529-8.4853z" fill="#0052b4"/><path d="m3.90889 9.01648 1.46461 2.04382 2.39663-.7615-1.49114 2.0247 1.46461 2.0439-2.38632-.7926-1.49118 2.0247.0164-2.5145-2.38641-.7927 2.39644-.7614z" fill="#ffda44"/></g></svg>