<svg fill="none" height="24" viewBox="0 0 24 24" width="24" xmlns="http://www.w3.org/2000/svg" xmlns:xlink="http://www.w3.org/1999/xlink"><clipPath id="a"><path d="m0 0h24v24h-24z"/></clipPath><g clip-path="url(#a)"><path d="m12 24c6.6274 0 12-5.3726 12-12 0-6.62742-5.3726-12-12-12-6.62742 0-12 5.37258-12 12 0 6.6274 5.37258 12 12 12z" fill="#ffda44"/><path d="m7.30486 7.82623h15.94924c-1.6955-4.56961-6.0941-7.82610793-11.2536-7.82610793-3.31377 0-6.31344 1.34338793-8.48488 3.51510793z" fill="#6da544"/><path d="m7.30388 16.1746h15.94922c-1.6955 4.5696-6.094 7.8261-11.2536 7.8261-3.31374 0-6.31341-1.3434-8.48485-3.5151z" fill="#6da544"/><path d="m3.51471 3.51379c-4.68628 4.68629-4.68628 12.28431 0 16.97061 1.93655-1.9365 3.79904-3.799 8.48529-8.4853z" fill="#d80027"/><g fill="#000"><path d="m15.2383 9.91278.518 1.59432h1.6764l-1.3562.9853.518 1.5943-1.3562-.9853-1.3562.9853.518-1.5943-1.3562-.9853h1.6764z"/><path d="m20.4561 9.91278.518 1.59432h1.6763l-1.3561.9853.518 1.5943-1.3562-.9853-1.3562.9853.518-1.5943-1.3562-.9853h1.6764z"/></g></g></svg>