<svg fill="none" height="24" viewBox="0 0 24 24" width="24" xmlns="http://www.w3.org/2000/svg" xmlns:xlink="http://www.w3.org/1999/xlink"><clipPath id="a"><path d="m0 0h24v24h-24z"/></clipPath><g clip-path="url(#a)"><path d="m12 24c6.6274 0 12-5.3726 12-12 0-6.62742-5.3726-12-12-12-6.62742 0-12 5.37258-12 12 0 6.6274 5.37258 12 12 12z" fill="#f0f0f0"/><path d="m11.9997-.00097656c-4.75752 0-8.86827 2.76867656-10.80927 6.78262656h21.61847c-1.9409-4.01395-6.0517-6.78262656-10.8092-6.78262656z" fill="#0052b4"/><path d="m11.9997 23.9989c4.7575 0 8.8683-2.7687 10.8093-6.7827h-21.61857c1.941 4.014 6.05175 6.7827 10.80927 6.7827z" fill="#0052b4"/><path d="m9.58984 12.5225 2.40986-4.17393 2.4098 4.17393z" fill="#ffda44"/><path d="m15.13 13.8996-3.1304 1.5653-3.13046-1.5653v-2.0869h6.26086z" fill="#6da544"/><path d="m14.9514 8.52728-1.1068 1.10677c.4721.47205.7642 1.12425.7642 1.84465 0 1.4407-1.168 2.6087-2.6087 2.6087s-2.60872-1.168-2.60872-2.6087c0-.7204.29203-1.3726.76412-1.84465l-1.10678-1.10677c-.75539.75525-1.22255 1.79872-1.22255 2.95142 0 2.3052 1.86872 4.1739 4.17393 4.1739 2.3051 0 4.1739-1.8687 4.1739-4.1739-.0001-1.1527-.4672-2.19617-1.2226-2.95142z" fill="#ffda44"/></g></svg>