<svg fill="none" height="24" viewBox="0 0 24 24" width="24" xmlns="http://www.w3.org/2000/svg" xmlns:xlink="http://www.w3.org/1999/xlink"><clipPath id="a"><path d="m0 0h24v24h-24z"/></clipPath><g clip-path="url(#a)"><path d="m10.9565 13.0426s-7.43482-9.53041-7.44185-9.52872c2.17153-2.17158 5.17158-3.51473449 8.48535-3.51473449 6.6273 0 12 5.37262449 12 11.99995449z" fill="#d80027"/><path d="m10.9565 11.9995s-7.43482 8.487-7.44185 8.4853c2.17153 2.1715 5.17158 3.5147 8.48535 3.5147 6.6273 0 12-5.3726 12-12z" fill="#0052b4"/><path d="m3.51471 3.51465c-4.68628 4.68628-4.68628 12.28425 0 16.97065 1.93655-1.9366 3.79904-3.7991 8.48529-8.4853z" fill="#f0f0f0"/><path d="m1.3157 11.9995c-.00656.0862-.01101.173-.01101.2608 0 1.873 1.51837 3.3913 3.39131 3.3913s3.39131-1.5183 3.39131-3.3913c0-.0878-.00445-.1747-.01101-.2608z" fill="#ffda44"/><path d="m4.69583 10.4338c.5763 0 1.04348-.46721 1.04348-1.04351s-.46718-1.04349-1.04348-1.04349-1.04349.46719-1.04349 1.04349.46719 1.04351 1.04349 1.04351z" fill="#ffda44"/><path d="m2.34766 9.13025v3.39135c0 1.7971 2.34782 2.3478 2.34782 2.3478s2.34783-.5507 2.34783-2.3478v-3.39135z" fill="#d80027"/><path d="m4.69712 13.7777c-.43557-.1568-1.30552-.5574-1.30552-1.2558v-2.3478h2.60873v2.3478c0 .7007-.86985 1.1003-1.30321 1.2558z" fill="#338af3"/><path d="m5.21743 11.4777v-.5218l-.52172-.2608-.52176.2608v.5218l-.26086.2609v1.0434h1.56525v-1.0434z" fill="#f3f3f3"/></g></svg>