<svg fill="none" height="24" viewBox="0 0 24 24" width="24" xmlns="http://www.w3.org/2000/svg" xmlns:xlink="http://www.w3.org/1999/xlink"><clipPath id="a"><path d="m0 0h24v24h-24z"/></clipPath><g clip-path="url(#a)"><path d="m22.8093 17.2165c.7628-1.5775 1.1907-3.3475 1.1907-5.2173 0-1.8699-.4279-3.63984-1.1907-5.21742l-10.8093-.52177-10.80928.52172c-.762845 1.57763-1.19072 3.34757-1.19072 5.21747 0 1.8698.427875 3.6398 1.19072 5.2173l10.80928.5218z" fill="#ffda44"/><path d="m11.9997.00030518c-4.75752 0-8.86827 2.76867482-10.80927 6.78262482h21.61847c-1.9409-4.01395-6.0517-6.78262482-10.8092-6.78262482z" fill="#000"/><path d="m11.9997 23.9994c-4.75752 0-8.86827-2.7687-10.80927-6.7827h21.61847c-1.9409 4.014-6.0517 6.7827-10.8092 6.7827z" fill="#0052b4"/><path d="m23.4333 8.34784h-22.866628c-.367594 1.15167-.566672 2.37866-.566672 3.65216 0 1.2736.199078 2.5005.566672 3.6522h22.866628c.3676-1.1517.5667-2.3786.5667-3.6522 0-1.2735-.1991-2.50049-.5667-3.65216z" fill="#a2001d"/><path d="m19.826 11.4791h-15.65217v1.0435h15.65217z" fill="#ffda44"/><path d="m17.739 9.39117h-11.47826v1.04353h11.47826z" fill="#ffda44"/><path d="m17.8133 11.9995s-2.6833 3.1305-5.8137 3.1305c-3.13041 0-3.13046-3.1305-3.13046-3.1305s0-3.13042 3.13046-3.13042c3.1305 0 5.8137 3.13042 5.8137 3.13042z" fill="#f0f0f0"/><path d="m11.9992 15.13c-3.13043 0-5.81365-3.1305-5.81365-3.1305s2.68322-3.13042 5.81365-3.13042" fill="#000"/><path d="m10.9566 10.957h-1.04351v2.0869h1.04351z" fill="#f0f0f0"/><path d="m14.0865 10.957h-1.0435v2.0869h1.0435z" fill="#000"/><g fill="#0052b4"><path d="m4.17434 13.0445c.57631 0 1.04349-.4672 1.04349-1.0435s-.46718-1.0435-1.04349-1.0435c-.5763 0-1.04348.4672-1.04348 1.0435s.46718 1.0435 1.04348 1.0435z"/><path d="m19.8267 13.0441c.5763 0 1.0435-.4672 1.0435-1.0435s-.4672-1.0434-1.0435-1.0434-1.0435.4671-1.0435 1.0434.4672 1.0435 1.0435 1.0435z"/></g></g></svg>