<svg fill="none" height="24" viewBox="0 0 24 24" width="24" xmlns="http://www.w3.org/2000/svg" xmlns:xlink="http://www.w3.org/1999/xlink"><clipPath id="a"><path d="m0 0h24v24h-24z"/></clipPath><g clip-path="url(#a)"><path d="m24 12c0 6.6274-5.3726 12-12 12-6.62738 0-12-5.3726-12-12 0 .0029 12-11.9986875 12-12 6.6274 0 12 5.37262 12 12z" fill="#0052b4"/><path d="m11.9688 11.9996h.0321c0-.0108 0-.0213 0-.0322-.0107.0108-.0214.0215-.0321.0322z" fill="#f0f0f0"/><path d="m12.001 6.26123c0-2.11149 0-3.495 0-6.26086379h-.002c-6.62657.001125-11.99802344 5.37323379-11.99802344 12.00003379h6.26086344v-3.52555l3.52551 3.52555h2.18155c.0107-.0107.0214-.0214.0321-.0321 0-.8085 0-1.5299 0-2.18147l-3.52559-3.5256z" fill="#f0f0f0"/><path d="m6.07124 1.56543c-1.87683 1.0687-3.43715 2.62898-4.50581 4.50581v5.92896h3.13045v-7.30422-.0001h7.30432c0-.98732 0-1.92792 0-3.13045z" fill="#d80027"/><path d="m12.0009 10.5242-4.26356-4.26346h-1.47562v.0001l5.73908 5.73896h.0001s0-1.0175 0-1.4756z" fill="#d80027"/><path d="m13.5654 6.26038v5.73912c0 2.7956 3.6522 3.6522 3.6522 3.6522s3.6522-.8566 3.6522-3.6522v-5.73912z" fill="#ffda44"/><path d="m16.6954 8.34768c0 .57633-.4672 2.08702-1.0435 2.08702s-1.0435-1.51069-1.0435-2.08702c0-.57632 1.0435-1.04348 1.0435-1.04348s1.0435.46716 1.0435 1.04348z" fill="#ff9811"/><path d="m19.4642 9.48417c.1684-.41086.2994-1.01142.2994-1.31039 0-.48028-.6262-.86958-.6262-.86958s-.6261.38934-.6261.86958c0 .29897.131.89953.2994 1.31039l-.3615.81613c.2125.0863.4447.1343.6882.1343s.4757-.048.6882-.1343z" fill="#a2001d"/><path d="m16.4348 12s-.5217 1.0435-.5217 2.087h2.6087c-.0001-1.0435-.5218-2.087-.5218-2.087l-.7826-.5217z" fill="#6da544"/><path d="m18.0008 12.0005v-.2608c0-.4322-.3504-.7827-.7826-.7827s-.7827.3504-.7827.7827v.2608z" fill="#d80027"/></g></svg>