<svg fill="none" height="24" viewBox="0 0 24 24" width="24" xmlns="http://www.w3.org/2000/svg" xmlns:xlink="http://www.w3.org/1999/xlink"><clipPath id="a"><path d="m0 0h24v24h-24z"/></clipPath><g clip-path="url(#a)"><path d="m12.0003-.00048828c-1.4678 0-2.87391.26404728-4.17385.74639028l-.52176 11.253598.52172 11.2536c1.29998.4824 2.70609.7464 4.17389.7464 1.4679 0 2.874-.264 4.1739-.7464l.5218-11.2536-.5217-11.253598c-1.3-.482343-2.7061-.74639028-4.174-.74639028z" fill="#ffda44"/><path d="m24.0009 12.0004c0-5.15954-3.2565-9.55806-7.8261-11.253574v22.507274c4.5696-1.6956 7.8261-6.0941 7.8261-11.2537z" fill="#d80027"/><path d="m7.82611 23.254v-22.507174c-4.56961 1.695514-7.82611 6.094034-7.82611 11.253574 0 5.1596 3.2565 9.5581 7.82611 11.2536z" fill="#0052b4"/></g></svg>