<svg fill="none" height="24" viewBox="0 0 24 24" width="24" xmlns="http://www.w3.org/2000/svg" xmlns:xlink="http://www.w3.org/1999/xlink"><clipPath id="a"><path d="m0 0h24v24h-24z"/></clipPath><g clip-path="url(#a)"><path d="m12 24c6.6274 0 12-5.3726 12-12 0-6.62742-5.3726-12-12-12-6.62742 0-12 5.37258-12 12 0 6.6274 5.37258 12 12 12z" fill="#ffda44"/><g fill="#496e2d"><path d="m12.0002.00036621c-.0087.00009375-.5217 4.80000379-.5217 4.80000379h10.1223c-2.1893-2.91455-5.6747-4.80000379-9.6006-4.80000379z"/><path d="m11.9999 24.0003c3.9259 0 7.4113-1.8854 9.6005-4.8h-19.20099c2.18925 2.9146 5.67464 4.8 9.60049 4.8z"/><path d="m23.7599 9.60034h-12.2814l.5217 4.79996h11.7597c.1575-.7754.2403-1.578.2403-2.4 0-.8219-.0828-1.6245-.2403-2.39996z"/></g><path d="m12 14.4c0-2.5043 0-11.58263 0-14.4-6.62738 0-12 5.37262-12 12 0 .822.082875 1.6245.240281 2.4z" fill="#d80027"/><path d="m6.62155 5.73828.777 2.39133h2.51461l-2.03424 1.47811.77691 2.39138-2.03428-1.4779-2.03428 1.4779.77704-2.39138-2.03423-1.47811h2.51451z" fill="#f0f0f0"/></g></svg>