<svg fill="none" height="24" viewBox="0 0 24 24" width="24" xmlns="http://www.w3.org/2000/svg" xmlns:xlink="http://www.w3.org/1999/xlink"><clipPath id="a"><path d="m0 0h24v24h-24z"/></clipPath><g clip-path="url(#a)"><path d="m1.19072 6.78177c-.762845 1.57762-1.19072 3.34753-1.19072 5.21733 0 1.8699.427875 3.6398 1.19072 5.2174l10.80928 1.0435 10.8093-1.0435c.7628-1.5776 1.1907-3.3475 1.1907-5.2174 0-1.8698-.4279-3.63971-1.1907-5.21733l-10.8093-1.04349z" fill="#f0f0f0"/><path d="m1.19141 17.2176c1.94095 4.0139 6.05137 6.7826 10.80889 6.7826 4.7574 0 8.8679-2.7687 10.8088-6.7826z" fill="#6da544"/><path d="m1.19141 6.78201h21.61769c-1.9409-4.0139-6.0514-6.78262035-10.8088-6.78262035-4.75752 0-8.86794 2.76872035-10.80889 6.78262035z" fill="#d80027"/><g fill="#ffda44"><path d="m9.91309 15.1315h4.17391v-1.7739l-.8348.4173-1.2521-1.2521-1.2522 1.2521-.83481-.4173z"/><path d="m7.52504 13.0438.1943.5978h.62859l-.50859.3695.19429.5979-.50859-.3695-.50859.3695.19429-.5979-.50859-.3695h.62859z"/><path d="m8.12758 10.9577.19429.5978h.6286l-.5086.3696.19425.5978-.50854-.3695-.5086.3695.1943-.5978-.50859-.3696h.62859z"/><path d="m9.84926 9.39282.19434.59785h.6285l-.5085.36953.1942.5978-.50854-.3694-.50855.3694.19425-.5978-.50859-.36953h.62864z"/><path d="m16.4752 13.0438-.1943.5978h-.6286l.5086.3695-.1943.5979.5086-.3695.5086.3695-.1943-.5979.5086-.3695h-.6286z"/><path d="m15.8727 10.9577-.1943.5978h-.6286l.5086.3696-.1943.5978.5086-.3695.5086.3695-.1943-.5978.5086-.3696h-.6286z"/><path d="m14.151 9.39282-.1943.59785h-.6286l.5085.36953-.1942.5978.5086-.3694.5085.3694-.1942-.5978.5085-.36953h-.6286z"/><path d="m12.0006 8.60938.1943.59784h.6286l-.5086.36951.1943.59787-.5086-.36949-.5086.36949.1943-.59787-.5086-.36951h.6286z"/></g></g></svg>