<svg fill="none" height="24" viewBox="0 0 24 24" width="24" xmlns="http://www.w3.org/2000/svg" xmlns:xlink="http://www.w3.org/1999/xlink"><clipPath id="a"><path d="m0 0h24v24h-24z"/></clipPath><g clip-path="url(#a)"><path d="m12 24c6.6274 0 12-5.3726 12-12 0-6.62742-5.3726-12-12-12-6.62742 0-12 5.37258-12 12 0 6.6274 5.37258 12 12 12z" fill="#ffda44"/><path d="m19.3043 5.73914c-.1076.51727-.1565 1.06819-.1565 1.61738 0 3.16568 1.8872 5.90558 4.5916 7.13898.1703-.8051.2606-1.6397.2606-2.4955 0-6.62738-5.3726-12-12-12-6.62738 0-12 5.37262-12 12 0 6.6274 5.37262 12 12 12 4.1101 0 7.7371-2.0668 9.8998-5.2174h-15.11717v-1.5652h16.02667c.164-.3392.3122-.6874.4444-1.0435h-16.47107z" fill="#0052b4"/><g fill="#f0f0f0"><path d="m8.81498 6.26123.25903.79716h.83813l-.67805.4927.25903.79711-.67814-.49261-.67805.49261.25899-.79711-.67815-.4927h.83818z"/><path d="m5.41146 12 .32382.9965h1.04766l-.84765.6157.32382.9965-.84765-.6159-.84759.6159.32376-.9965-.84759-.6157h1.04766z"/><path d="m5.41146 3.65247.32382.99651h1.04766l-.84765.6157.32382.99647-.84765-.61584-.84759.61584.32376-.99647-.84759-.6157h1.04766z"/><path d="m2.80209 8.34753.32381.99652h1.04761l-.8476.6157.32382.99645-.84764-.6158-.8476.6158.32377-.99645-.8476-.6157h1.04761z"/></g></g></svg>