<svg fill="none" height="24" viewBox="0 0 24 24" width="24" xmlns="http://www.w3.org/2000/svg" xmlns:xlink="http://www.w3.org/1999/xlink"><clipPath id="a"><path d="m0 0h24v24h-24z"/></clipPath><g clip-path="url(#a)"><path d="m12 24c6.6274 0 12-5.3726 12-12 0-6.62742-5.3726-12-12-12-6.62742 0-12 5.37258-12 12 0 6.6274 5.37258 12 12 12z" fill="#ffda44"/><path d="m12.0001-.00036621c-2.93801 0-5.62891 1.05642621-7.71494 2.80940621l12.93234 9.19056-12.93234 9.1906c2.08603 1.753 4.77693 2.8094 7.71494 2.8094 6.6274 0 12-5.3726 12-12 0-6.62734-5.3726-11.99996621-12-11.99996621z" fill="#d80027"/><path d="m3.51471 3.5155c-4.68628 4.68628-4.68628 12.2843 0 16.9706 1.93655-1.9365 3.79904-3.799 8.48529-8.4853z" fill="#000"/><path d="m3.32659 9.25146 1.82625 1.72834 2.20819-1.20296-1.0793 2.27106 1.8263 1.7284-2.49347-.3247-1.07943 2.271-.46158-2.4718-2.49347-.3248 2.20809-1.2029z" fill="#f0f0f0"/></g></svg>