<svg fill="none" height="24" viewBox="0 0 24 24" width="24" xmlns="http://www.w3.org/2000/svg" xmlns:xlink="http://www.w3.org/1999/xlink"><clipPath id="a"><path d="m0 0h24v24h-24z"/></clipPath><g clip-path="url(#a)"><path d="m11.9995-.00061035c-.896 0-1.7687.09904685-2.60864.28523435l-.52172 11.714676.52172 11.7148c.83994.1862 1.71274.2853 2.60864.2853 6.6274 0 12-5.3726 12-12.0001 0-6.62733-5.3726-11.99991035-12-11.99991035z" fill="#496e2d"/><path d="m3.13041 3.91711c-1.94457 2.13263-3.13041 4.96904-3.13041 8.08259 0 3.1135 1.18589 5.9499 3.13045 8.0826l.52172-8.0826z" fill="#496e2d"/><g fill="#f0f0f0"><path d="m17.5512 9.05156c.5904-1.6456-.0729-3.43533-1.4964-4.32671.2561.03333.5124.09361.7653.18432 1.8986.68118 2.8855 2.77237 2.2043 4.6709-.6812 1.89863-2.7724 2.88553-4.6709 2.20433-.253-.0908-.4892-.2073-.708-.3443 1.6655.2169 3.3153-.743 3.9057-2.38854z"/><path d="m14.2766 4.27429-.513.66291-.7889-.28308.4718.69272-.5129.66281.8046-.23466.4719.69263.0254-.83775.8046-.2347-.7888-.28299z"/><path d="m15.6624 6.4353-.5131.66286-.7889-.28308.4719.69272-.513.66282.8046-.23475.472.69276.0254-.8378.8046-.23475-.7889-.28303z"/><path d="m11.8332 5.06042-.513.66282-.7889-.28299.4719.69268-.513.66285.8046-.2347.4719.69267.0254-.83775.8046-.2347-.7888-.28308z"/><path d="m11.7776 7.53455-.513.66286-.7889-.28304.472.69272-.5131.66282.8047-.23466.4719.69262.0253-.83775.8047-.2347-.789-.28308z"/><path d="m14.1321 8.38-.513.66282-.7889-.28303.472.69271-.5131.6628.8047-.23469.4719.69269.0253-.83781.8047-.23466-.789-.28303z"/></g><path d="m3.12988 3.91743v16.16517c1.635 1.7932 3.80672 3.0881 6.26086 3.6321v-23.429422c-2.45419.544032-4.62581 1.838952-6.26086 3.632152z" fill="#d80027"/><path d="m5.51985 6.31761-1.04817-.78085v-1.10423l1.04817-.7808h1.48243l1.04817.7808v1.10423l-1.04817.78085z" fill="#f0f0f0"/><path d="m6.26108 3.65173h-.74123l-1.04817.7808v.53986h1.7894z" fill="#ff9811"/><path d="m6.26074 6.31668h.74119l1.04817-.78085v-.5633h-1.78936z" fill="#ff9811"/><path d="m5.51985 20.3485-1.04817-.7809v-1.1041l1.04817-.7809h1.48243l1.04817.7809v1.1041l-1.04817.7809z" fill="#f0f0f0"/><path d="m6.26108 17.6826h-.74123l-1.04817.7809v.5398h1.7894z" fill="#ff9811"/><path d="m6.26074 20.3493h.74119l1.04817-.7808v-.5633h-1.78936z" fill="#ff9811"/><path d="m5.51985 13.3324-1.04817-.7809v-1.1042l1.04817-.7808h1.48242l1.04817.7808v1.1042l-1.04817.7809z" fill="#496e2d"/><path d="m8.0867 15.0514h-.45656v-.4565h-.80227l-.56728-.5673-.56724.5673h-.80226v.4565h-.45652v.913h.45652v.4565h.80222l.56732.5674.56724-.5674h.80227v-.4565h.45656z" fill="#496e2d"/><path d="m8.0867 8.03605h-.45656v-.45656h-.80227l-.56728-.56728-.56724.56728h-.80226v.45656h-.45652v.91303h.45652v.45652h.80222l.56732.56737.56724-.56737h.80227v-.45652h.45656z" fill="#496e2d"/><path d="m6.78274 11.4791h-1.04348v1.0435h1.04348z" fill="#d80027"/><path d="m6.26097 9.01487c.28814 0 .52172-.23358.52172-.52172 0-.28813-.23358-.52171-.52172-.52171-.28813 0-.52171.23358-.52171.52171 0 .28814.23358.52172.52171.52172z" fill="#d80027"/><path d="m6.26097 16.0309c.28814 0 .52172-.2336.52172-.5218 0-.2881-.23358-.5217-.52172-.5217-.28813 0-.52171.2336-.52171.5217 0 .2882.23358.5218.52171.5218z" fill="#d80027"/></g></svg>