<svg fill="none" height="24" viewBox="0 0 24 24" width="24" xmlns="http://www.w3.org/2000/svg" xmlns:xlink="http://www.w3.org/1999/xlink"><clipPath id="a"><path d="m0 0h24v24h-24z"/></clipPath><g clip-path="url(#a)"><path d="m12 24c6.6274 0 12-5.3726 12-12 0-6.62742-5.3726-12-12-12-6.62742 0-12 5.37258-12 12 0 6.6274 5.37258 12 12 12z" fill="#d80027"/><path d="m11.9999 17.7386c3.1696 0 5.7391-2.5694 5.7391-5.7391 0-3.16962-2.5695-5.73912-5.7391-5.73912-3.16965 0-5.73916 2.5695-5.73916 5.73912 0 3.1697 2.56951 5.7391 5.73916 5.7391z" fill="#f0f0f0"/><g fill="#d80027"><path d="m12.707 9.80505.9845 1.35685 1.5946-.5171-.9861 1.3556.9844 1.3568-1.594-.519-.9861 1.3556.001-1.6763-1.594-.519 1.5946-.517z"/><path d="m13.3044 15.3906c-1.8729 0-3.39131-1.5184-3.39131-3.3913 0-1.873 1.51841-3.39136 3.39131-3.39136.584 0 1.1335.14766 1.6132.40763-.7526-.73599-1.7817-1.19025-2.9175-1.19025-2.30516 0-4.17393 1.86872-4.17393 4.17388 0 2.3052 1.86877 4.1739 4.17393 4.1739 1.1358 0 2.165-.4543 2.9175-1.1903-.4797.2601-1.0292.4078-1.6132.4078z"/></g></g></svg>