<svg fill="none" height="24" viewBox="0 0 24 24" width="24" xmlns="http://www.w3.org/2000/svg" xmlns:xlink="http://www.w3.org/1999/xlink"><clipPath id="a"><path d="m0 0h24v24h-24z"/></clipPath><g clip-path="url(#a)"><path d="m12 24c6.6274 0 12-5.3726 12-12 0-6.62742-5.3726-12-12-12-6.62742 0-12 5.37258-12 12 0 6.6274 5.37258 12 12 12z" fill="#f0f0f0"/><g fill="#d80027"><path d="m7.82577 6.26137v-1.5652h-1.56525v1.5652h-1.56521v1.56525h1.56521v1.56521h1.56525v-1.56521h1.5652v-1.56525z"/><path d="m12 0v12c-6.62738 0-9.26133 0-12 0 0 6.6274 5.37262 12 12 12 6.6274 0 12-5.3726 12-12 0-6.62738-5.3726-12-12-12z"/></g></g></svg>