<svg fill="none" height="24" viewBox="0 0 24 24" width="24" xmlns="http://www.w3.org/2000/svg" xmlns:xlink="http://www.w3.org/1999/xlink"><clipPath id="a"><path d="m0 0h24v24h-24z"/></clipPath><g clip-path="url(#a)"><path d="m12 24c6.6274 0 12-5.3726 12-12 0-6.62742-5.3726-12-12-12-6.62742 0-12 5.37258-12 12 0 6.6274 5.37258 12 12 12z" fill="#d80027"/><g fill="#f0f0f0"><path d="m11.5087 9.80505.9846 1.35685 1.5946-.5171-.9862 1.3556.9845 1.3568-1.594-.519-.9861 1.3556.001-1.6763-1.59401-.519 1.59461-.517z"/><path d="m8.82198 15.3906c-1.87293 0-3.39131-1.5184-3.39131-3.3913 0-1.873 1.51838-3.39136 3.39131-3.39136.58397 0 1.13344.14771 1.61312.40763-.75254-.73603-1.78177-1.19025-2.91746-1.19025-2.30522 0-4.17389 1.86872-4.17389 4.17388 0 2.3052 1.86872 4.1739 4.17389 4.1739 1.13578 0 2.16497-.4543 2.91746-1.1903-.47968.2601-1.02915.4078-1.61312.4078z"/></g></g></svg>