<svg fill="none" height="24" viewBox="0 0 24 24" width="24" xmlns="http://www.w3.org/2000/svg" xmlns:xlink="http://www.w3.org/1999/xlink"><clipPath id="a"><path d="m0 0h24v24h-24z"/></clipPath><g clip-path="url(#a)"><path d="m6.49812 1.33191c-1.07428.55448-2.08271 1.28128-2.98327 2.18184-.90061.90061-1.6274 1.90903-2.18184 2.98331l7.71595 8.45384 8.45384 7.716c1.0743-.5545 2.0828-1.2813 2.9833-2.1818.9006-.9006 1.6274-1.9091 2.1819-2.9833l-7.716-8.45394z" fill="#f0f0f0"/><path d="m20.4858 20.486c.5034-.5034.9524-1.0405 1.3476-1.6039l-16.71488-16.71499c-.56339.39521-1.10053.84418-1.60392 1.34757s-.95236 1.04053-1.34761 1.60397l16.71491 16.71485c.5634-.3952 1.1005-.8441 1.6039-1.3475z" fill="#000"/><g fill="#d80027"><path d="m3.51431 20.4865c3.78595 3.786 9.47179 4.5127 13.98799 2.1818l-16.16979-16.16976c-2.330857 4.51626-1.603967 10.20206 2.1818 13.98796z"/><path d="m20.485 3.51461c-3.7859-3.785903-9.4717-4.512653-13.98793-2.18189l16.16973 16.16988c2.3309-4.5162 1.6042-10.20208-2.1818-13.98799z"/></g></g></svg>