<svg fill="none" height="24" viewBox="0 0 24 24" width="24" xmlns="http://www.w3.org/2000/svg" xmlns:xlink="http://www.w3.org/1999/xlink"><clipPath id="a"><path d="m0 0h24v24h-24z"/></clipPath><g clip-path="url(#a)"><path d="m24 12c0 6.6274-5.3726 12-12 12-6.62737 0-12-5.3726-12-12 0 .0029 12-11.9986875 12-12 6.6274 0 12 5.37262 12 12z" fill="#338af3"/><path d="m5.73926 12.0012h4.04728l-3.52556-4.17393-.52172 1.5652z" fill="#0052b4"/><path d="m12.0001 9.78671-4.17393-4.04733h4.17393z" fill="#0052b4"/><path d="m11.9678 11.9996h.0321c0-.0108 0-.0213 0-.0322-.0107.0108-.0214.0215-.0321.0322z" fill="#f0f0f0"/><path d="m12 6.26123c0-2.11149 0-3.49505 0-6.26086379h-.002c-6.6265.001125-11.998 5.37323379-11.998 12.00003379h6.26091v-3.52555l3.52551 3.52555h2.18158c.0107-.0107.0214-.0214.0321-.0321 0-.8085 0-1.5299 0-2.18147l-3.52566-3.5256z" fill="#f0f0f0"/><path d="m6.07124 1.56543c-1.87683 1.0687-3.43711 2.62898-4.50581 4.50581v5.92896h3.13045v-7.30422-.0001h7.30432c0-.98732 0-1.92792 0-3.13045z" fill="#d80027"/><path d="m12.0009 10.5242-4.26355-4.26346h-1.47563v.0001l5.73908 5.73896h.0001s0-1.0175 0-1.4756z" fill="#d80027"/><g fill="#ffda44"><path d="m13.0972 19.8252.259.7972h.8382l-.6781.4926.259.7971-.6781-.4926-.6781.4926.259-.7971-.6781-.4926h.8381z"/><path d="m19.773 14.6094.259.7971h.8381l-.678.4927.2591.7971-.6782-.4926-.6781.4926.2591-.7971-.6782-.4927h.8381z"/><path d="m21.4448 6.78259.259.79716h.8382l-.678.49266.259.7971-.6782-.49261-.678.49261.259-.7971-.6781-.49266h.8381z"/><path d="m21.8599 12.5215.259.7972h.8382l-.6781.4926.259.7972-.6781-.4927-.678.4927.259-.7972-.6782-.4926h.8382z"/><path d="m14.299 17.9513.7469.3806.5927-.5926-.1311.8277.7468.3805-.8279.1312-.1311.8279-.3805-.7469-.8279.1312.5927-.5926z"/><path d="m14.299 14.8215.7469.3805.5927-.5926-.1311.8278.7468.3805-.8279.1311-.1311.8279-.3805-.7468-.8279.1311.5927-.5926z"/><path d="m16.9084 16.8272.7469.3806.5926-.5927-.131.8278.7468.3805-.828.1312-.1311.8278-.3804-.7469-.8279.1313.5926-.5927z"/><path d="m16.9084 10.1248.7469.3806.5926-.59268-.131.82778.7468.3805-.828.1312-.1311.8278-.3804-.7468-.8279.1312.5926-.5927z"/><path d="m19.4367 10.0445.7469.3805.5927-.5926-.1312.8278.7469.3805-.8279.1311-.1312.8279-.3804-.7468-.8279.1312.5926-.5927z"/></g></g></svg>