<svg fill="none" height="24" viewBox="0 0 24 24" width="24" xmlns="http://www.w3.org/2000/svg" xmlns:xlink="http://www.w3.org/1999/xlink"><clipPath id="a"><path d="m0 0h24v24h-24z"/></clipPath><g clip-path="url(#a)"><path d="m24 12c0 6.6274-5.3726 12-12 12-6.62738 0-12-5.3726-12-12l12-12c6.6274 0 12 5.37262 12 12z" fill="#d80027"/><path d="m12 12c0-6.62738 0-7.40869 0-12-6.62738 0-12 5.37262-12 12z" fill="#0052b4"/><path d="m10.435 7.02305-1.46555.68944.78038 1.41932-1.59136-.3045-.2017 1.60769-1.10841-1.18239-1.1085 1.18239-.20161-1.60769-1.59141.30441.78038-1.41933-1.4655-.68934 1.46555-.6893-.78043-1.41937 1.59136.30445.20171-1.60762 1.10845 1.18237 1.10845-1.18237.20166 1.60762 1.5914-.30445-.78042 1.41942z" fill="#f0f0f0"/><path d="m6.84897 9.25671c1.23365 0 2.23373-1.00007 2.23373-2.23373s-1.00008-2.23373-2.23373-2.23373c-1.23366 0-2.23374 1.00007-2.23374 2.23373s1.00008 2.23373 2.23374 2.23373z" fill="#0052b4"/><path d="m6.84841 8.21399c-.6563 0-1.19021-.53395-1.19021-1.19025 0-.65629.53396-1.19024 1.19021-1.19024.6563 0 1.19025.53395 1.19025 1.19024-.00005.6563-.53405 1.19025-1.19025 1.19025z" fill="#f0f0f0"/></g></svg>