<svg fill="none" height="24" viewBox="0 0 24 24" width="24" xmlns="http://www.w3.org/2000/svg" xmlns:xlink="http://www.w3.org/1999/xlink"><clipPath id="a"><path d="m0 0h24v24h-24z"/></clipPath><g clip-path="url(#a)"><path d="m12 24c6.6274 0 12-5.3726 12-12 0-6.62742-5.3726-12-12-12-6.62742 0-12 5.37258-12 12 0 6.6274 5.37258 12 12 12z" fill="#ffda44"/><path d="m3.51446 20.4856c.50339.5034 1.04049.9523 1.60388 1.3475l16.71426-16.71423c-.3952-.56339-.8442-1.10048-1.3476-1.60387s-1.0404-.95227-1.6038-1.34752l-16.71421 16.71422c.39516.5633.84413 1.1004 1.34747 1.6039z" fill="#000"/><path d="m3.51422 3.5138c-3.785715 3.78581-4.512512 9.4713-2.18175 13.9874l16.16913-16.1691c-4.516-2.330768-10.20161-1.603925-13.98738 2.1817z" fill="#6da544"/><path d="m20.4854 20.4851c3.7857-3.7857 4.5125-9.4713 2.1818-13.98742l-16.16915 16.16912c4.51595 2.3308 10.20155 1.604 13.98735-2.1817z" fill="#338af3"/></g></svg>