<svg fill="none" height="24" viewBox="0 0 24 24" width="24" xmlns="http://www.w3.org/2000/svg" xmlns:xlink="http://www.w3.org/1999/xlink"><clipPath id="a"><path d="m0 0h24v24h-24z"/></clipPath><g clip-path="url(#a)"><path d="m20.9434 20.0001c1.9005-2.123 3.0566-4.9262 3.0566-7.9999 0-3.07372-1.1562-5.87699-3.0566-8.00005l-8.9434-.86953-8.94338.86953c-1.90045 2.12306-3.05662 4.92633-3.05662 8.00005 0 3.0737 1.15613 5.8769 3.05658 7.9999l8.94342.8696z" fill="#ffda44"/><path d="m3.05664 4.00047h17.88676c-2.1972-2.4547-5.3897-3.99998172-8.9434-3.99998172-3.55372 0-6.74614 1.54528172-8.94336 3.99998172z" fill="#000"/><path d="m0 12.0008 12 1.0434 12-1.0434c0-1.4027-.2415-2.74888-.6838-4.00007h-22.632388c-.442359 1.25119-.683812 2.59737-.683812 4.00007z" fill="#d80027"/><path d="m.683812 15.9993h22.632488c.4422-1.2512.6837-2.5973.6837-4h-24c0 1.4027.241453 2.7488.683812 4z" fill="#000"/><path d="m20.9435 19.9995h-17.88686c2.19722 2.4548 5.38964 4 8.94346 4 3.5537 0 6.7462-1.5452 8.9434-4z" fill="#d80027"/><path d="m16.0038 12.0007c0 2.2117-1.7926 4.0043-4.0043 4.0043-2.21174 0-4.00438-1.7926-4.00438-4.0043 0-2.21172 1.79264-4.00436 4.00438-4.00436 2.2117 0 4.0043 1.79264 4.0043 4.00436z" fill="#f0f0f0"/><path d="m13.4669 12.2036-1.467-.6356s.3432-1.1392.3615-1.2172c.0134-.0569.0205-.1163.0205-.1774 0-.2161-.0876-.41176-.2293-.55332l.3689-.36891c-.236-.23601-.5621-.38203-.9223-.38203s-.6863.14597-.9223.38203l.3689.36891c-.1416.14161-.2292.33726-.2292.55332 0 .0791.0119.1552.0337.2272l-.5554.5554h1.0095s-.4174.6269-.6452 1.1417c-.2279.5148.0031 1.1432.5297 1.3773l.3045.1354.5065.476v.5217l-.5217.5218h1.0435v-1.0435l.4761-.4761h.9847c.0048-.0098.0097-.0194.0142-.0294.234-.5266-.0032-1.1433-.5298-1.3773z" fill="#000"/></g></svg>