<svg fill="none" height="24" viewBox="0 0 24 24" width="24" xmlns="http://www.w3.org/2000/svg" xmlns:xlink="http://www.w3.org/1999/xlink"><clipPath id="a"><path d="m0 0h24v24h-24z"/></clipPath><g clip-path="url(#a)"><path d="m12 24c6.6274 0 12-5.3726 12-12 0-6.62742-5.3726-12-12-12-6.62742 0-12 5.37258-12 12 0 6.6274 5.37258 12 12 12z" fill="#f0f0f0"/><g fill="#338af3"><path d="m12 8.86873h11.5866c-.3009-1.11628-.7582-2.1682-1.3479-3.13045h-10.2387z"/><path d="m4.5296 21.3898h14.9397c1.0951-.8722 2.0343-1.9317 2.7688-3.1304h-20.47736c.73458 1.1987 1.67377 2.2582 2.76886 3.1304z"/><path d="m12-.00085449v2.60868449h7.4699c-2.0499-1.632559-4.6457-2.60868449-7.4699-2.60868449z"/><path d="m12 8.86873h11.5866c-.3009-1.11628-.7582-2.1682-1.3479-3.13045h-10.2387z"/><path d="m0 12.0001c0 1.0832.144375 2.1323.413391 3.1305h23.173309c.2689-.9982.4133-2.0473.4133-3.1305z"/></g><path d="m10.435 7.02317-1.46559.68939.78042 1.41938-1.59141-.30441-.20165 1.60757-1.10841-1.18237-1.1085 1.18237-.20161-1.60757-1.59141.30431.78038-1.41933-1.4655-.68934 1.46555-.6893-.78043-1.41937 1.59136.30441.20171-1.60758 1.10845 1.18237 1.10845-1.18237.20161 1.60758 1.59146-.30441-.78043 1.41942z" fill="#ffda44"/></g></svg>