<svg fill="none" height="24" viewBox="0 0 24 24" width="24" xmlns="http://www.w3.org/2000/svg" xmlns:xlink="http://www.w3.org/1999/xlink"><clipPath id="a"><path d="m0 0h24v24h-24z"/></clipPath><g clip-path="url(#a)"><path d="m.566625 8.34794c-.367594 1.15162-.56667187 2.37846-.56662499 3.65206-.00004688 1.2736.19907799 2.5005.56667199 3.6521l11.433328.5219 11.4333-.5218c.3676-1.1516.5668-2.3786.5668-3.6521-.0001-1.2736-.1992-2.50054-.5668-3.65221l-11.4333-.52172z" fill="#f0f0f0"/><path d="m23.4332 8.34789-11.4333-.52172-11.4334.52172c-.108937.34144-.202734.68958-.281344 1.04348h23.429244c-.0785-.35395-.1723-.70214-.2812-1.04348z" fill="#d80027"/><path d="m.285156 14.609c.078516.3539.172313.702.28125 1.0434l.001125.0001 11.432169.5217 11.4333-.5217c.109-.3414.2028-.6896.2813-1.0435z" fill="#d80027"/><path d="m12.0007 24.0007c5.3538 0 9.8881-3.5064 11.4333-8.3479h-22.866617c1.545237 4.8414 6.079547 8.3479 11.433317 8.3479z" fill="#6da544"/><path d="m11.9997-.00085449c-5.35375.00004687-9.88797 3.50643449-11.433294 8.34782449l22.866594.00005c-1.5451-4.84148-6.0794-8.34792137-11.4333-8.34787449z" fill="#338af3"/><g fill="#f0f0f0"><path d="m5.48376 4.95618c0-1.12392.78989-2.06283 1.84471-2.29317-.16209-.03544-.33032-.05461-.50311-.05461-1.29665 0-2.34782 1.05112-2.34782 2.34783 0 1.2967 1.05108 2.34783 2.34782 2.34783.17279 0 .34097-.01922.50311-.05461-1.05478-.23044-1.84471-1.16935-1.84471-2.29327z"/><path d="m8.71531 6.02246.1589.48914h.51432l-.41607.30235.15891.48914-.41606-.3023-.41616.3023.15895-.48914-.41611-.30235h.51432z"/><path d="m10.3578 6.02246.1589.48914h.5144l-.4162.30235.159.48914-.4161-.3023-.41612.3023.15892-.48914-.41603-.30235h.51423z"/><path d="m11.9995 6.02246.1589.48914h.5144l-.4162.30235.159.48914-.4161-.3023-.4162.3023.159-.48914-.4161-.30235h.5143z"/><path d="m13.6411 6.02246.1589.48914h.5143l-.4161.30235.159.48914-.4161-.3023-.4162.3023.159-.48914-.4161-.30235h.5143z"/><path d="m15.2826 6.02246.1589.48914h.5144l-.4161.30235.1589.48914-.4161-.3023-.4161.3023.1589-.48914-.416-.30235h.5142z"/><path d="m10.3578 4.31506.1589.4891h.5144l-.4162.30239.159.48909-.4161-.30229-.41612.30229.15892-.48909-.41603-.30239h.51423z"/><path d="m11.9995 4.31506.1589.4891h.5144l-.4162.30239.159.48909-.4161-.30229-.4162.30229.159-.48909-.4161-.30239h.5143z"/><path d="m13.6411 4.31506.1589.4891h.5143l-.4161.30239.159.48909-.4161-.30229-.4162.30229.159-.48909-.4161-.30239h.5143z"/><path d="m15.2826 4.31506.1589.4891h.5144l-.4161.30239.1589.48909-.4161-.30229-.4161.30229.1589-.48909-.416-.30239h.5142z"/><path d="m11.9995 2.60803.1589.48919h.5144l-.4162.3023.159.48918-.4161-.30229-.4162.30229.159-.48918-.4161-.3023h.5143z"/><path d="m13.6411 2.60803.1589.48919h.5143l-.4161.3023.159.48918-.4161-.30229-.4162.30229.159-.48918-.4161-.3023h.5143z"/><path d="m15.2826 2.60803.1589.48919h.5144l-.4161.3023.1589.48918-.4161-.30229-.4161.30229.1589-.48918-.416-.3023h.5142z"/></g></g></svg>