<svg fill="none" height="24" viewBox="0 0 24 24" width="24" xmlns="http://www.w3.org/2000/svg" xmlns:xlink="http://www.w3.org/1999/xlink"><clipPath id="a"><path d="m0 0h24v24h-24z"/></clipPath><g clip-path="url(#a)"><path d="m17.7395 1.45932c-1.7049-.930185-3.6602-1.45907586-5.7391-1.45907586-2.07891 0-4.03425.52889086-5.73914 1.45907586l-1.04349 10.54088 1.04349 10.541c1.70489.9302 3.66023 1.459 5.73914 1.459 2.0789 0 4.0342-.5288 5.7391-1.459l1.0435-10.541z" fill="#ffda44"/><path d="m6.26086 22.5408v-21.08182c-3.73013 2.03532-6.26086 5.99246-6.26086 10.54102 0 4.5485 2.53073 8.5056 6.26086 10.5408z" fill="#338af3"/><g fill="#6da544"><path d="m24.0001 12.0002c0-4.54852-2.5307-8.50566-6.2608-10.54097v21.08177c3.7301-2.0351 6.2608-5.9923 6.2608-10.5408z"/><path d="m9.3917 15.1298-2.08701-3.1305 2.08697-3.1304 2.08704 3.1304z"/><path d="m14.6094 15.1298-2.0869-3.1305 2.0869-3.1304 2.087 3.1304z"/><path d="m12.001 19.3037-2.08694-3.1304 2.08694-3.1305 2.087 3.1305z"/></g></g></svg>