<svg fill="none" height="24" viewBox="0 0 24 24" width="24" xmlns="http://www.w3.org/2000/svg" xmlns:xlink="http://www.w3.org/1999/xlink"><clipPath id="a"><path d="m0 0h24v24h-24z"/></clipPath><g clip-path="url(#a)"><path d="m22.8093 17.2166c.7629-1.5776 1.1907-3.3474 1.1907-5.2173s-.4278-3.63979-1.1907-5.21741l-10.8093-1.04349-10.80928 1.04349c-.762892 1.57762-1.19072 3.34751-1.19072 5.21741s.427828 3.6397 1.19072 5.2173l10.80928 1.0435z" fill="#0052b4"/><path d="m11.9997 24.0004c4.7575 0 8.8683-2.7687 10.8093-6.7826h-21.61857c1.941 4.0139 6.05175 6.7826 10.80927 6.7826z" fill="#d80027"/><g fill="#f0f0f0"><path d="m20.7824 14.3561-.6338.4953.275.7556-.6668-.4496-.6339.4951.2216-.7732-.6668-.4498.8039-.028.2218-.7732.2752.7558z"/><path d="m19.1585 11.5444-.4261.6822.5171.616-.7805-.1943-.4263.682-.0562-.8024-.7804-.1946.7458-.3014-.056-.8024.517.6163z"/><path d="m16.6724 9.45837-.1672.78683.6966.4022-.7999.0843-.1673.7866-.3272-.7348-.8.084.5979-.5382-.3272-.73475.6966.40209z"/><path d="m13.6219 8.34802.112.79655.7921.13959-.7229.35279.112.79645-.5588-.57858-.7231.35258.3777-.71028-.5588-.57853.7922.13964z"/><path d="m10.3767 8.34802.3777.7102.792-.13973-.5586.57877.3775.71024-.7229-.35268-.5589.57848.1121-.79636-.72294-.35259.79214-.13978z"/><path d="m7.32614 9.45837.59785.53827.69642-.40209-.32705.73495.5977.5382-.79992-.0842-.32728.7348-.16702-.7868-.79996-.084.69656-.4022z"/><path d="m4.83973 11.5444.74592.3013.51684-.6161-.05592.8026.74568.3013-.78042.1945-.0562.8023-.42609-.682-.78052.1945.51703-.6162z"/><path d="m3.2168 14.3561.804.028.27497-.7557.22195.7733.80376.028-.66684.4499.22163.7731-.63375-.4952-.6669.4497.27511-.7558z"/></g><path d="m22.809 6.78226c-1.941-4.01395-6.0518-6.78262621-10.8093-6.78262621-4.75752 0-8.86827 2.76867621-10.80927 6.78262621z" fill="#ffda44"/></g></svg>