<svg fill="none" height="24" viewBox="0 0 24 24" width="24" xmlns="http://www.w3.org/2000/svg" xmlns:xlink="http://www.w3.org/1999/xlink"><clipPath id="a"><path d="m0 0h24v24h-24z"/></clipPath><g clip-path="url(#a)"><path d="m24 12c0 6.6274-5.3726 12-12 12-6.62738 0-12-5.3726-12-12 0 .0029 12-11.9986875 12-12 6.6274 0 12 5.37262 12 12z" fill="#0052b4"/><path d="m11.9688 12.0007h.0321c0-.0108 0-.0213 0-.0321-.0107.0107-.0214.0214-.0321.0321z" fill="#f0f0f0"/><path d="m12 6.26178c0-2.11149 0-3.49501 0-6.26086447h-.002c-6.62655.001125-11.998 5.37323447-11.998 11.99998447h6.26086v-3.5255l3.52551 3.5255h2.18153c.0107-.0107.0214-.0214.0321-.0321 0-.8084 0-1.5298 0-2.18142l-3.52557-3.5256z" fill="#f0f0f0"/><path d="m6.07027 1.56415c-1.87683 1.0687-3.43716 2.62898-4.50582 4.50581v5.92894h3.13046v-7.3042-.0001h7.30439c0-.98733 0-1.92792 0-3.13045z" fill="#d80027"/><path d="m17.218 11.9996-3.2434 3.2435c.6079 1.1723 1.8317 1.9739 3.2434 1.9739 1.4118 0 2.6356-.8016 3.2435-1.9739z" fill="#ffda44"/><path d="m11.9999 10.5244-4.26353-4.26341h-1.47563v.00009l5.73906 5.73902h.0001s0-1.0175 0-1.4757z" fill="#d80027"/><path d="m13.5654 6.26099v5.73911c.0001 2.7956 3.6522 3.6522 3.6522 3.6522s3.6521-.8566 3.6522-3.6522v-5.73911z" fill="#6da544"/><path d="m17.9998 8.86987h-1.5652v4.17393h1.5652z" fill="#f0f0f0"/><path d="m17.2172 9.65174c.4322 0 .7826-.35039.7826-.78263 0-.43223-.3504-.78262-.7826-.78262s-.7826.35039-.7826.78262c0 .43224.3504.78263.7826.78263z" fill="#a2001d"/><g fill="#ffda44"><path d="m15.6529 7.30481h-1.0435v1.04348h1.0435z"/><path d="m15.6519 9.65198h-1.0435v1.04352h1.0435z"/><path d="m15.6519 12.0005h-1.0435v1.0435h1.0435z"/><path d="m19.8257 7.30548h-1.0435v1.04349h1.0435z"/><path d="m19.8257 9.65198h-1.0435v1.04352h1.0435z"/><path d="m19.8257 12.0005h-1.0435v1.0435h1.0435z"/></g></g></svg>