<svg fill="none" height="24" viewBox="0 0 24 24" width="24" xmlns="http://www.w3.org/2000/svg" xmlns:xlink="http://www.w3.org/1999/xlink"><clipPath id="a"><path d="m0 0h24v24h-24z"/></clipPath><g clip-path="url(#a)"><path d="m12 24c6.6274 0 12-5.3726 12-12 0-6.62742-5.3726-12-12-12-6.62742 0-12 5.37258-12 12 0 6.6274 5.37258 12 12 12z" fill="#fcfcfc"/><path d="m14.0373 8.38349c0-1.12556-.9124-2.03803-2.038-2.03803s-2.03812.91247-2.03812 2.03803h-4.48364c0 1.10817.96534 2.00661 2.07351 2.00661h-.06674c0 1.1083.89831 2.0068 2.00667 2.0068 0 .9812.70472 1.7965 1.63542 1.9708l-.0052.0117h1.7562l-.0052-.0117c.9307-.1743 1.6354-.9896 1.6354-1.9708 1.1083 0 2.0067-.8985 2.0067-2.0068h-.0669c1.1082 0 2.0736-.89844 2.0736-2.00661z" fill="#ffda44"/><path d="m11.1035 14.1724-1.26366 2.8529c.66676.2711 1.39556.4217 2.15966.4217s1.4928-.1506 2.1595-.4217l-1.2636-2.8529z" fill="#ffda44"/><path d="m9.3916 9.3855v3.5105c0 1.9968 2.6087 2.6087 2.6087 2.6087s2.6087-.6119 2.6087-2.6087v-3.5105z" fill="#f0f0f0"/><path d="m2.91024 12.0846 1.41089 3.9461 1.39622-3.9461h1.06557l-2.0356 5.2174h-.85242l-2.05017-5.2174z" fill="#338af3"/><path d="m19.3047 17.302v-5.2174h1.014v5.2174z" fill="#338af3"/><path d="m10.4346 10.5195v4.2541c.3586.264.7445.4455 1.0435.5618v-4.8159z" fill="#d80027"/><path d="m13.565 10.5195v4.2541c-.3587.264-.7445.4455-1.0435.5618v-4.8159z" fill="#d80027"/><path d="m14.609 9.3855h-5.2174v1.6554h5.2174z" fill="#0052b4"/></g></svg>