<svg fill="none" height="24" viewBox="0 0 24 24" width="24" xmlns="http://www.w3.org/2000/svg" xmlns:xlink="http://www.w3.org/1999/xlink"><clipPath id="a"><path d="m0 0h24v24h-24z"/></clipPath><g clip-path="url(#a)"><path d="m24 12.0003c0-.5305-.0349-1.0528-.1016-1.5652h-13.4637c-2.45164-2.45145-6.92018-6.91971-6.92-6.92009-4.68627 4.68628-4.68627 12.28419 0 16.97059l6.9201-6.92h13.4636c.0667-.5124.1016-1.0348.1016-1.5653z" fill="#000"/><path d="m23.9968 12.2726c-.0005.0232-.001.0464-.0017.0696.0006-.0233.0011-.0464.0017-.0696z" fill="#f0f0f0"/><path d="m23.9853 12.6002c-.001.023-.0026.0458-.0039.0687.0013-.0228.0028-.0457.0039-.0687z" fill="#f0f0f0"/><path d="m23.9684 12.8632c-.0024.0337-.0047.0675-.0075.1011.0028-.0336.0051-.0674.0075-.1011z" fill="#f0f0f0"/><path d="m23.9287 10.6921c.0044.0402.0088.0803.0128.1206-.004-.0403-.0084-.0804-.0128-.1206z" fill="#f0f0f0"/><path d="m23.9805 11.3298c.0012.0229.0028.0458.0039.0687-.0012-.0229-.0027-.0458-.0039-.0687z" fill="#f0f0f0"/><path d="m23.9951 11.6567c.0007.0232.0011.0465.0017.0697-.0005-.0233-.0011-.0465-.0017-.0697z" fill="#f0f0f0"/><path d="m23.9609 11.0355c.0028.0337.0051.0674.0075.1012-.0024-.0338-.0047-.0675-.0075-.1012z" fill="#f0f0f0"/><path d="m23.8984 10.4344c.0054.0411.0102.0824.0151.1236-.7122-5.94756-5.774-10.55836621-11.9135-10.55836621-3.31374 0-6.31378 1.34319621-8.48535 3.51486621l6.91985 6.9199z" fill="#d80027"/><path d="m23.8984 13.5652h-13.4639l-6.91985 6.9199c2.17157 2.1716 5.17161 3.5149 8.48535 3.5149 6.1395 0 11.2014-4.6108 11.9135-10.5585-.0049.0412-.0098.0826-.0151.1237z" fill="#6da544"/><path d="m23.9415 13.1877c-.004.0403-.0084.0804-.0128.1206.0044-.0402.0089-.0802.0128-.1206z" fill="#f0f0f0"/><g fill="#000"><path d="m23.9688 11.137c.0045.0642.0086.1285.0122.193-.0036-.0645-.0077-.1288-.0122-.193z"/><path d="m23.9131 10.5583c.0054.0446.0105.0892.0153.1339-.0049-.0447-.01-.0893-.0153-.1339z"/><path d="m23.9414 10.8124c.0073.0745.0139.1492.0199.2243-.0059-.0751-.0125-.1498-.0199-.2243z"/><path d="m24.0005 12c0 .0913-.0014.1823-.0034.2731.002-.0908.0034-.1818.0034-.2731z"/><path d="m23.981 12.6688c-.0036.0645-.0077.1289-.0122.1931.0045-.0642.0085-.1286.0122-.1931z"/><path d="m23.9613 12.964c-.006.0749-.0126.1497-.0199.2242.0074-.0745.014-.1493.0199-.2242z"/><path d="m23.9284 13.3081c-.0048.0447-.0099.0893-.0153.1338.0053-.0445.0104-.0891.0153-.1338z"/><path d="m23.9971 11.7274c.002.0909.0034.1819.0034.2731 0-.0912-.0014-.1822-.0034-.2731z"/><path d="m23.9854 11.3982c.0042.0859.0074.1722.0098.2587-.0024-.0865-.0056-.1728-.0098-.2587z"/><path d="m23.9952 12.3419c-.0024.0864-.0056.1727-.0098.2587.0043-.086.0074-.1723.0098-.2587z"/></g><path d="m23.9892 11.4733h-13.9947l-7.18859-7.18753c-.23236.24506-.48422.58725-.63999.83095l6.87463 6.87828-6.88039 6.8805c.13621.2423.43298.601.64134.8344l7.19314-7.1931h13.99626c.0075-.1731.0098-.3469.0098-.5218 0-.2342-.0065-.407-.0115-.5217z" fill="#ffda44"/><path d="m2.91515 14.5574v-1.0051c1.00303 0 1.81898-.8161 1.81898-1.819 0-.7096-.57736-1.2869-1.28695-1.2869-.48342 0-.87675.3932-.87675.8768 0 .3091.25148.5606.56067.5606.17475 0 .31692-.1422.31692-.317h1.00509c0 .7291-.59306 1.3221-1.32196 1.3221-.86339.0001-1.56572-.7024-1.56572-1.5657 0-1.0376.84422-1.88179 1.88179-1.88179 1.26384 0 2.29209 1.02829 2.29209 2.29209-.00004 1.557-1.26693 2.8239-2.82416 2.8239z" fill="#ffda44"/></g></svg>