<svg fill="none" height="24" viewBox="0 0 24 24" width="24" xmlns="http://www.w3.org/2000/svg" xmlns:xlink="http://www.w3.org/1999/xlink"><clipPath id="a"><path d="m0 0h24v24h-24z"/></clipPath><g clip-path="url(#a)"><path d="m24 12c0 6.6274-5.3726 12-12 12-6.62738 0-12-5.3726-12-12l12-12c6.6274 0 12 5.37262 12 12z" fill="#d80027"/><path d="m12 12c0-6.62738 0-7.40869 0-12-6.62738 0-12 5.37262-12 12z" fill="#0052b4"/><g fill="#f0f0f0"><path d="m9.61098 7.82617.19429.59789h.62863l-.50863.36942.19433.59789-.50862-.36951-.5086.36951.1943-.59789-.50859-.36942h.62859z"/><path d="m6.45448 3.13116.32376.99652h1.04776l-.84769.6157.32386.99647-.84769-.61589-.84764.61589.32381-.99647-.84764-.6157h1.04766z"/><path d="m9.58534 4.17499.32376.99656h1.0477l-.8476.6157.3237.99647-.84756-.61589-.84764.61589.32381-.99647-.84764-.6157h1.04766z"/><path d="m7.11072 8.349.32382.99651h1.04765l-.84764.61571.32381.99648-.84764-.6159-.84763.6159.32381-.99648-.84764-.61571h1.0477z"/><path d="m4.36752 5.73987.32381.99651h1.0477l-.84768.61571.32381.99647-.84764-.61585-.8476.61585.32377-.99647-.8476-.61571h1.04766z"/></g></g></svg>