<svg fill="none" height="24" viewBox="0 0 24 24" width="24" xmlns="http://www.w3.org/2000/svg" xmlns:xlink="http://www.w3.org/1999/xlink"><clipPath id="a"><path d="m0 0h24v24h-24z"/></clipPath><g clip-path="url(#a)"><path d="m12 24c6.6274 0 12-5.3726 12-12 0-6.62742-5.3726-12-12-12-6.62742 0-12 5.37258-12 12 0 6.6274 5.37258 12 12 12z" fill="#f0f0f0"/><path d="m11.9997 23.9992c5.1596 0 9.5581-3.2565 11.2536-7.8261h-22.507206c1.695516 4.5696 6.094036 7.8261 11.253606 7.8261z" fill="#000"/><path d="m11.9997.00061035c-5.15957 0-9.55809 3.25649965-11.253606 7.82610965h22.507306c-1.6956-4.56961-6.0941-7.82610965-11.2537-7.82610965z" fill="#d80027"/></g></svg>