<svg fill="none" height="24" viewBox="0 0 24 24" width="24" xmlns="http://www.w3.org/2000/svg" xmlns:xlink="http://www.w3.org/1999/xlink"><clipPath id="a"><path d="m0 0h24v24h-24z"/></clipPath><g clip-path="url(#a)"><path d="m12 24c6.6274 0 12-5.3726 12-12 0-6.62742-5.3726-12-12-12-6.62742 0-12 5.37258-12 12 0 6.6274 5.37258 12 12 12z" fill="#f0f0f0"/><path d="m3.51471 20.4853c-4.68628-4.6864-4.68628-12.28432 0-16.97065-.00033.00051 6.92009 8.48535 6.92009 8.48535z" fill="#000"/><path d="m10.4351 12.0002-8.84323-5.97591c-.27417.47658-.51596.97402-.723706 1.48889l4.476986 4.48712-4.476845 4.4873c.207565.5145.449105 1.0116.723095 1.4879z" fill="#ffda44"/><path d="m23.8982 10.4347h-13.464l-6.91986-6.91993c-.74569.74569-1.39355 1.58902-1.92305 2.50922l5.96433 5.97591-5.9648 5.9751c.5295.9205 1.17764 1.7641 1.92352 2.51l6.91986-6.9199h13.464c.0667-.5123.1015-1.0347.1015-1.5652s-.0348-1.0529-.1015-1.5652z" fill="#6da544"/><path d="m4.69336 21.5181c2.02355 1.5554 4.55653 2.4807 7.30604 2.4807 5.5443 0 10.2096-3.7603 11.5866-8.8695h-12.5038z" fill="#0052b4"/><path d="m23.586 8.86869c-1.377-5.10919-6.0423-8.86954449-11.5866-8.86954449-2.74951 0-5.28249.92535949-7.30604 2.48076449l6.38874 6.38878z" fill="#d80027"/></g></svg>