<svg fill="none" height="24" viewBox="0 0 24 24" width="24" xmlns="http://www.w3.org/2000/svg" xmlns:xlink="http://www.w3.org/1999/xlink"><clipPath id="a"><path d="m0 0h24v24h-24z"/></clipPath><g clip-path="url(#a)"><path d="m12 24c6.6274 0 12-5.3726 12-12 0-6.62742-5.3726-12-12-12-6.62742 0-12 5.37258-12 12 0 6.6274 5.37258 12 12 12z" fill="#496e2d"/><path d="m16.6957 11.9993h-4.6957v12c1.4027 0 2.7488-.2415 4-.6837z" fill="#d80027"/><path d="m20.0003 20.9427c2.4548-2.1972 4.0001-5.3897 4.0001-8.9434h-4.6957z" fill="#ff9811"/><path d="m16 11.9993v11.3162c1.4905-.5269 2.8458-1.3396 4-2.3728v-8.9434z" fill="#000"/><path d="m22.174 7.82669h-3.1304c0-.57628-.4672-1.04349-1.0435-1.04349s-1.0435.46721-1.0435 1.04349h-3.1304c0 .57633.502 1.04348 1.0782 1.04348h-.0347c0 .57633.4671 1.04349 1.0434 1.04349 0 .57634.4672 1.04344 1.0435 1.04344h2.087c.5763 0 1.0435-.4671 1.0435-1.04344.5763 0 1.0435-.46716 1.0435-1.04349h-.0348c.5763-.00004 1.0782-.4672 1.0782-1.04348z" fill="#ff9811"/></g></svg>