<svg fill="none" height="24" viewBox="0 0 24 24" width="24" xmlns="http://www.w3.org/2000/svg" xmlns:xlink="http://www.w3.org/1999/xlink"><clipPath id="a"><path d="m0 0h24v24h-24z"/></clipPath><g clip-path="url(#a)"><path d="m12 24c6.6274 0 12-5.3726 12-12 0-6.62742-5.3726-12-12-12-6.62742 0-12 5.37258-12 12 0 6.6274 5.37258 12 12 12z" fill="#f0f0f0"/><path d="m22.8522 6.87246c-.6096-1.28785-1.4417-2.44955-2.4467-3.43603l-8.4047-.8273-8.4047.82734c-.02681.0263-.05297.05321-.0795.07978l3.35625 3.35625 5.12795.15661z" fill="#ffda44"/><path d="m3.51562 20.4852c.04416.0442.08822.0884.13304.1319l8.35134.7751 8.3512-.7751c1.0153-.9844 1.8576-2.1462 2.4758-3.4361l-15.52275-.4845c-1.33561 1.3357-2.87611 2.8761-3.78863 3.7887z" fill="#ffda44"/><path d="m23.8807 10.3081-13.96761-.39501 2.08701 2.08701c-.6182.6181-1.541 1.5409-2.08701 2.0869l13.96031-.3428c.083-.5695.1267-1.1517.1267-1.7441 0-.5745-.0413-1.1391-.1194-1.692z" fill="#000"/><path d="m12.0004.00061035c-3.2732 0-6.23973 1.31108965-8.4047 3.43602965h16.8094c-2.165-2.12494-5.1315-3.43602965-8.4047-3.43602965z" fill="#6da544"/><path d="m10.3071 10.3086h13.5726c-.1712-1.21309-.5235-2.36781-1.0292-3.43604h-15.97941z" fill="#d80027"/><path d="m6.81934 17.1815h16.00726c.5116-1.0674.8695-2.2223 1.0463-3.436h-13.6175c-1.33067 1.3306-2.45839 2.4583-3.43606 3.436z" fill="#d80027"/><path d="m11.9996 24.0006c3.2464 0 6.1911-1.2897 8.3512-3.3839h-16.70236c2.16019 2.0942 5.10487 3.3839 8.35116 3.3839z" fill="#6da544"/><path d="m4.28504 2.80994c-.26677.22415-.52416.45914-.77039.70528l8.48535 8.48528-8.48535 8.4853c.24619.2462.50362.4812.77039.7053l9.19056-9.1906z" fill="#000"/><path d="m4.82467 8.86914.77696 2.39136h2.51461l-2.03429 1.4781.777 2.3914-2.03428-1.478-2.03433 1.478.7771-2.3914-2.03424-1.4781h2.51447z" fill="#d80027"/><path d="m6.96184 12.1947-2.0249-.7174s-.14963-1.4035-.15867-1.4511c-.06872-.36202-.38686-.63582-.7689-.63582-.43218 0-.78262.35039-.78262.78262 0 .0717.01045.1407.0285.2067l-.56775.5716h1.0095c0 1.0478-.78188 1.0478-.78188 2.0912l.43374 1.0435h2.60869l.43481-1.0435h-.00019c.04355-.1001.06999-.2033.08091-.3065.37481-.1516.48876-.5413.48876-.5413z" fill="#ffda44"/></g></svg>